<svg width="229" height="175" viewBox="0 0 229 175" fill="none" xmlns="http://www.w3.org/2000/svg">
<path d="M32.0335 112.314C51.3035 101.194 88.1735 91.8837 116.583 86.5938C97.7935 108.554 71.2635 135.854 52.0335 146.954C31.6835 158.704 10.6335 160.484 5.12349 150.944C-0.386513 141.404 11.6835 124.064 32.0335 112.314Z" fill="#F89938" stroke="#6DB3A6" stroke-width="6"/>
<path d="M42.5939 121.623C39.8739 124.363 38.8439 127.953 40.3639 130.583C41.8839 133.213 45.4739 134.133 49.2339 133.133C50.8939 132.693 52.3639 131.843 53.7039 130.793L89.9139 102.003L46.8639 118.943C45.2939 119.573 43.8139 120.433 42.6039 121.643V121.613L42.5939 121.623Z" fill="#32363A"/>
<path d="M51.1338 72.9734C67.6038 72.1134 95.1438 79.1534 115.734 85.9434C95.9638 94.8334 69.2838 104.703 52.8338 105.553C35.4338 106.463 20.8938 99.8834 20.4238 90.9034C19.9538 81.9234 33.7338 73.8734 51.1338 72.9634V72.9734Z" fill="#F89938" stroke="#6DB3A6" stroke-width="6"/>
<path d="M55.0235 83.6636C52.3035 84.6336 50.4335 86.8536 50.5635 89.3236C50.6935 91.8036 52.7635 93.8136 55.5935 94.4936C56.8335 94.7936 58.1035 94.7236 59.3335 94.4736L92.9235 87.1436L58.7535 83.3236C57.5035 83.1936 56.2335 83.2636 55.0235 83.6836V83.6636Z" fill="#32363A"/>
<path d="M70.4434 134.624C77.9334 119.924 97.8034 99.6036 113.973 85.1636C111.783 106.724 106.993 134.774 99.5134 149.444C91.6034 164.964 78.6334 174.274 70.6234 170.184C62.6134 166.104 62.5334 150.144 70.4434 134.624Z" fill="#F89938" stroke="#6DB3A6" stroke-width="6"/>
<path d="M81.6435 136.593C81.1235 139.433 82.1035 142.163 84.3135 143.293C86.5235 144.423 89.3035 143.633 91.3035 141.523C92.1835 140.593 92.7635 139.463 93.1535 138.273L103.603 105.523L83.2135 133.203C82.4735 134.223 81.9035 135.353 81.6635 136.613H81.6435V136.593Z" fill="#32363A"/>
<path d="M177.104 145.593C157.834 134.473 131.344 107.183 112.554 85.2334C140.964 90.5234 177.874 99.8534 197.104 110.953C217.454 122.703 229.524 140.043 224.014 149.583C218.504 159.123 197.454 157.343 177.104 145.593Z" fill="#F89938" stroke="#6DB3A6" stroke-width="6"/>
<path d="M179.884 131.794C183.624 132.784 187.234 131.874 188.754 129.244C190.274 126.614 189.274 123.034 186.524 120.284C185.314 119.074 183.834 118.214 182.264 117.584L139.234 100.624L175.424 129.434C176.764 130.484 178.234 131.334 179.894 131.774V131.804L179.884 131.794Z" fill="#32363A"/>
<path d="M133.484 148.723C124.504 134.883 116.834 107.513 112.414 86.2935C129.994 98.9735 151.884 117.143 160.844 130.953C170.334 145.573 171.904 161.453 164.364 166.343C156.824 171.233 142.964 163.333 133.474 148.713L133.484 148.723Z" fill="#F89938" stroke="#6DB3A6" stroke-width="6"/>
<path d="M140.804 140.004C143.004 141.874 145.854 142.384 147.944 141.034C150.024 139.684 150.724 136.884 149.904 134.094C149.544 132.864 148.854 131.804 148.014 130.864L124.874 105.434L138.654 136.934C139.174 138.084 139.854 139.144 140.834 139.974H140.814L140.804 140.004Z" fill="#32363A"/>
<path d="M196.314 61.8333C177.044 72.9533 140.174 82.2633 111.764 87.5533C130.554 65.5933 157.084 38.2933 176.314 27.1933C196.664 15.4433 217.714 13.6633 223.224 23.2033C228.734 32.7433 216.664 50.0833 196.314 61.8333Z" fill="#F89938" stroke="#6DB3A6" stroke-width="6"/>
<path d="M185.754 52.5236C188.474 49.7836 189.504 46.1936 187.984 43.5636C186.464 40.9336 182.874 40.0136 179.114 41.0136C177.454 41.4536 175.984 42.3036 174.644 43.3536L138.434 72.1436L181.484 55.2036C183.054 54.5736 184.534 53.7136 185.744 52.5036V52.5336L185.754 52.5236Z" fill="#32363A"/>
<path d="M177.224 101.173C160.754 102.033 133.214 94.9934 112.624 88.2034C132.394 79.3134 159.074 69.4434 175.524 68.5934C192.924 67.6834 207.464 74.2634 207.934 83.2434C208.404 92.2234 194.624 100.273 177.224 101.183V101.173Z" fill="#F89938" stroke="#6DB3A6" stroke-width="6"/>
<path d="M173.334 90.4837C176.054 89.5137 177.924 87.2937 177.794 84.8237C177.664 82.3437 175.594 80.3337 172.764 79.6537C171.524 79.3537 170.254 79.4237 169.024 79.6737L135.434 87.0037L169.604 90.8237C170.854 90.9537 172.124 90.8837 173.334 90.4637V90.4837Z" fill="#32363A"/>
<path d="M157.913 39.5235C150.423 54.2235 130.553 74.5435 114.383 88.9835C116.573 67.4235 121.363 39.3735 128.843 24.7035C136.753 9.18354 149.723 -0.126458 157.733 3.96354C165.743 8.04354 165.823 24.0035 157.913 39.5235Z" fill="#F89938" stroke="#6DB3A6" stroke-width="6"/>
<path d="M146.704 37.5536C147.224 34.7136 146.244 31.9836 144.034 30.8536C141.824 29.7236 139.044 30.5136 137.044 32.6236C136.164 33.5536 135.584 34.6836 135.194 35.8736L124.744 68.6236L145.134 40.9436C145.874 39.9236 146.444 38.7936 146.684 37.5336H146.704V37.5536Z" fill="#32363A"/>
<path d="M51.2435 28.5634C70.5135 39.6834 97.0034 66.9734 115.793 88.9234C87.3834 83.6334 50.4734 74.3034 31.2435 63.2034C10.8934 51.4534 -1.17655 34.1134 4.33345 24.5734C9.84345 15.0334 30.8934 16.8134 51.2435 28.5634Z" fill="#F89938" stroke="#6DB3A6" stroke-width="6"/>
<path d="M48.4637 42.3535C44.7237 41.3635 41.1137 42.2735 39.5937 44.9035C38.0737 47.5335 39.0737 51.1135 41.8237 53.8635C43.0337 55.0735 44.5137 55.9335 46.0837 56.5635L89.1137 73.5235L52.9237 44.7135C51.5837 43.6635 50.1137 42.8135 48.4537 42.3735V42.3435L48.4637 42.3535Z" fill="#32363A"/>
<path d="M94.8637 25.4237C103.844 39.2637 111.514 66.6337 115.934 87.8537C98.3537 75.1737 76.4637 57.0037 67.5037 43.1937C58.0137 28.5737 56.4437 12.6937 63.9837 7.80374C71.5237 2.91374 85.3837 10.8137 94.8737 25.4337L94.8637 25.4237Z" fill="#F89938" stroke="#6DB3A6" stroke-width="6"/>
<path d="M87.5537 34.1437C85.3537 32.2737 82.5037 31.7637 80.4137 33.1137C78.3337 34.4637 77.6337 37.2637 78.4537 40.0537C78.8137 41.2837 79.5037 42.3437 80.3437 43.2837L103.484 68.7137L89.7037 37.2137C89.1837 36.0637 88.5037 35.0037 87.5237 34.1737H87.5437L87.5537 34.1437Z" fill="#32363A"/>
<circle cx="113.704" cy="87.6035" r="20" fill="#F7CE55" stroke="#32363A" stroke-width="6"/>
</svg>
