<svg width="229" height="217" viewBox="0 0 229 217" fill="none" xmlns="http://www.w3.org/2000/svg">
<path d="M32.0335 154.61C51.3035 143.49 88.1735 134.18 116.583 128.89C97.7935 150.85 71.2635 178.15 52.0335 189.25C31.6835 201 10.6335 202.78 5.12349 193.24C-0.386513 183.7 11.6835 166.36 32.0335 154.61Z" fill="#F89938" stroke="#6DB3A6" stroke-width="6"/>
<path d="M42.5939 163.92C39.8739 166.66 38.8439 170.25 40.3639 172.88C41.8839 175.51 45.4739 176.43 49.2339 175.43C50.8939 174.99 52.3639 174.14 53.7039 173.09L89.9139 144.3L46.8639 161.24C45.2939 161.87 43.8139 162.73 42.6039 163.94V163.91L42.5939 163.92Z" fill="#32363A"/>
<path d="M51.1338 115.27C67.6038 114.41 95.1438 121.45 115.734 128.24C95.9638 137.13 69.2838 147 52.8338 147.85C35.4338 148.76 20.8938 142.18 20.4238 133.2C19.9538 124.22 33.7338 116.17 51.1338 115.26V115.27Z" fill="#F89938" stroke="#6DB3A6" stroke-width="6"/>
<path d="M55.0235 125.96C52.3035 126.93 50.4335 129.15 50.5635 131.62C50.6935 134.1 52.7635 136.11 55.5935 136.79C56.8335 137.09 58.1035 137.02 59.3335 136.77L92.9235 129.44L58.7535 125.62C57.5035 125.49 56.2335 125.56 55.0235 125.98V125.96Z" fill="#32363A"/>
<path d="M70.4434 176.92C77.9334 162.22 97.8034 141.9 113.973 127.46C111.783 149.02 106.993 177.07 99.5134 191.74C91.6034 207.26 78.6334 216.57 70.6234 212.48C62.6134 208.4 62.5334 192.44 70.4434 176.92Z" fill="#F89938" stroke="#6DB3A6" stroke-width="6"/>
<path d="M81.6435 178.89C81.1235 181.73 82.1035 184.46 84.3135 185.59C86.5235 186.72 89.3035 185.93 91.3035 183.82C92.1835 182.89 92.7635 181.76 93.1535 180.57L103.603 147.82L83.2135 175.5C82.4735 176.52 81.9035 177.65 81.6635 178.91H81.6435V178.89Z" fill="#32363A"/>
<path d="M177.104 187.89C157.834 176.77 131.344 149.48 112.554 127.53C140.964 132.82 177.874 142.15 197.104 153.25C217.454 165 229.524 182.34 224.014 191.88C218.504 201.42 197.454 199.64 177.104 187.89Z" fill="#F89938" stroke="#6DB3A6" stroke-width="6"/>
<path d="M179.884 174.09C183.624 175.08 187.234 174.17 188.754 171.54C190.274 168.91 189.274 165.33 186.524 162.58C185.314 161.37 183.834 160.51 182.264 159.88L139.234 142.92L175.424 171.73C176.764 172.78 178.234 173.63 179.894 174.07V174.1L179.884 174.09Z" fill="#32363A"/>
<path d="M133.484 191.02C124.504 177.18 116.834 149.81 112.414 128.59C129.994 141.27 151.884 159.44 160.844 173.25C170.334 187.87 171.904 203.75 164.364 208.64C156.824 213.53 142.964 205.63 133.474 191.01L133.484 191.02Z" fill="#F89938" stroke="#6DB3A6" stroke-width="6"/>
<path d="M140.804 182.3C143.004 184.17 145.854 184.68 147.944 183.33C150.024 181.98 150.724 179.18 149.904 176.39C149.544 175.16 148.854 174.1 148.014 173.16L124.874 147.73L138.654 179.23C139.174 180.38 139.854 181.44 140.834 182.27H140.814L140.804 182.3Z" fill="#32363A"/>
<path d="M196.314 104.13C177.044 115.25 140.174 124.56 111.764 129.85C130.554 107.89 157.084 80.5897 176.314 69.4897C196.664 57.7397 217.714 55.9597 223.224 65.4997C228.734 75.0397 216.664 92.3797 196.314 104.13Z" fill="#F89938" stroke="#6DB3A6" stroke-width="6"/>
<path d="M185.754 94.8199C188.474 92.0799 189.504 88.4899 187.984 85.8599C186.464 83.2299 182.874 82.3099 179.114 83.3099C177.454 83.7499 175.984 84.5999 174.644 85.6499L138.434 114.44L181.484 97.4999C183.054 96.8699 184.534 96.0099 185.744 94.7999V94.8299L185.754 94.8199Z" fill="#32363A"/>
<path d="M177.224 143.47C160.754 144.33 133.214 137.29 112.624 130.5C132.394 121.61 159.074 111.74 175.524 110.89C192.924 109.98 207.464 116.56 207.934 125.54C208.404 134.52 194.624 142.57 177.224 143.48V143.47Z" fill="#F89938" stroke="#6DB3A6" stroke-width="6"/>
<path d="M173.334 132.78C176.054 131.81 177.924 129.59 177.794 127.12C177.664 124.64 175.594 122.63 172.764 121.95C171.524 121.65 170.254 121.72 169.024 121.97L135.434 129.3L169.604 133.12C170.854 133.25 172.124 133.18 173.334 132.76V132.78Z" fill="#32363A"/>
<path d="M133.384 45.62C133.384 67.87 123.004 104.46 113.384 131.7C103.764 104.45 93.3838 67.83 93.3838 45.62C93.3838 22.12 102.364 3 113.384 3C124.404 3 133.384 22.12 133.384 45.62Z" fill="#F89938" stroke="#6DB3A6" stroke-width="6"/>
<path d="M120.043 50.1097C119.033 46.3797 116.433 43.6997 113.393 43.6997C110.353 43.6997 107.763 46.3497 106.743 50.1097C106.293 51.7597 106.293 53.4697 106.533 55.1497L113.363 100.9L120.223 55.1497C120.463 53.4697 120.463 51.7597 120.013 50.1097H120.043Z" fill="#32363A"/>
<path d="M157.913 81.8199C150.423 96.5199 130.553 116.84 114.383 131.28C116.573 109.72 121.363 81.6699 128.843 66.9999C136.753 51.4799 149.723 42.1699 157.733 46.2599C165.743 50.3399 165.823 66.2999 157.913 81.8199Z" fill="#F89938" stroke="#6DB3A6" stroke-width="6"/>
<path d="M146.704 79.85C147.224 77.01 146.244 74.28 144.034 73.15C141.824 72.02 139.044 72.81 137.044 74.92C136.164 75.85 135.584 76.98 135.194 78.17L124.744 110.92L145.134 83.24C145.874 82.22 146.444 81.09 146.684 79.83H146.704V79.85Z" fill="#32363A"/>
<path d="M51.2435 70.8598C70.5135 81.9798 97.0034 109.27 115.793 131.22C87.3834 125.93 50.4734 116.6 31.2435 105.5C10.8934 93.7498 -1.17655 76.4098 4.33345 66.8698C9.84345 57.3298 30.8934 59.1098 51.2435 70.8598Z" fill="#F89938" stroke="#6DB3A6" stroke-width="6"/>
<path d="M48.4637 84.6499C44.7237 83.6599 41.1137 84.5699 39.5937 87.1999C38.0737 89.8299 39.0737 93.4099 41.8237 96.1599C43.0337 97.3699 44.5137 98.2299 46.0837 98.8599L89.1137 115.82L52.9237 87.0099C51.5837 85.9599 50.1137 85.1099 48.4537 84.6699V84.6399L48.4637 84.6499Z" fill="#32363A"/>
<path d="M94.8637 67.7201C103.844 81.5601 111.514 108.93 115.934 130.15C98.3537 117.47 76.4637 99.3001 67.5037 85.4901C58.0137 70.8701 56.4437 54.9901 63.9837 50.1001C71.5237 45.2101 85.3837 53.1101 94.8737 67.7301L94.8637 67.7201Z" fill="#F89938" stroke="#6DB3A6" stroke-width="6"/>
<path d="M87.5537 76.4401C85.3537 74.5701 82.5037 74.0601 80.4137 75.4101C78.3337 76.7601 77.6337 79.5601 78.4537 82.3501C78.8137 83.5801 79.5037 84.6401 80.3437 85.5801L103.484 111.01L89.7037 79.5101C89.1837 78.3601 88.5037 77.3001 87.5237 76.4701H87.5437L87.5537 76.4401Z" fill="#32363A"/>
<circle cx="113.704" cy="129.9" r="20" fill="#F7CE55" stroke="#32363A" stroke-width="6"/>
</svg>
