<svg width="71" height="122" viewBox="0 0 71 122" fill="none" xmlns="http://www.w3.org/2000/svg">
<path d="M35.5 103L32.7247 105.133L35.5015 108.746L38.2764 105.131L35.5 103ZM35.5 103C32.7247 105.133 32.7243 105.132 32.7238 105.131L32.7222 105.129L32.717 105.122L32.699 105.099L32.6326 105.012C32.5752 104.936 32.4915 104.826 32.3835 104.682C32.1674 104.395 31.8534 103.975 31.4557 103.434C30.6604 102.353 29.529 100.787 28.1734 98.8381C25.4648 94.9432 21.8492 89.4977 18.2282 83.3018C14.6125 77.115 10.9575 70.1222 8.19806 63.1391C5.45699 56.2026 3.5 49.0311 3.5 42.5556C3.5 29.6419 6.85318 19.8288 12.7456 13.2019C18.6725 6.53625 26.8109 3.50001 35.5 3.50001C44.1892 3.50001 52.3275 6.53625 58.2544 13.2019C64.1468 19.8288 67.5 29.6419 67.5 42.5556C67.5 49.0221 65.5427 56.1891 62.8018 63.1231C60.0425 70.1041 56.3876 77.0978 52.7721 83.2868C49.1513 89.4849 45.5358 94.9339 42.8274 98.8316C41.4719 100.782 40.3406 102.349 39.5453 103.431C39.1476 103.973 38.8337 104.393 38.6176 104.681C38.5095 104.824 38.4259 104.935 38.3685 105.01L38.3022 105.097L38.2841 105.121L38.279 105.128L38.2773 105.13C38.2768 105.131 38.2764 105.131 35.5 103Z" fill="#FF9933" stroke="#6DB3A6" stroke-width="7"/>
<path d="M29.4376 39.4094C30.542 34.8995 33.0612 31.8038 35.8897 32.0097C38.7084 32.2238 40.992 35.6648 41.7716 40.3517C42.1167 42.4168 42.0398 44.5113 41.7468 46.5578L35.8897 103L29.0654 45.6013C28.9235 43.5185 28.9906 41.4323 29.4843 39.4276L29.4645 39.4442L29.4376 39.4094Z" fill="#32363A"/>
<circle cx="35.999" cy="98.106" r="20" fill="#F7CE55" stroke="#32363A" stroke-width="6"/>
</svg>
