<svg width="168" height="116" viewBox="0 0 168 116" fill="none" xmlns="http://www.w3.org/2000/svg">
<path d="M94.6818 97.3887L91.212 97.8479L91.8099 102.366L96.0206 100.623L94.6818 97.3887ZM94.6818 97.3887C91.212 97.8479 91.2119 97.8472 91.2118 97.8463L91.2115 97.8437L91.2103 97.8353L91.2065 97.8059L91.1926 97.6973C91.1806 97.6032 91.1633 97.4658 91.1415 97.2874C91.0979 96.9307 91.0362 96.4098 90.9622 95.7425C90.8142 94.4081 90.617 92.4869 90.4177 90.1211C90.0194 85.3937 89.6109 78.87 89.573 71.6937C89.5352 64.5278 89.8662 56.6445 90.968 49.2172C92.0624 41.8394 93.9534 34.6502 97.1911 29.0423C103.648 17.8587 111.458 11.0369 119.875 8.24404C128.341 5.43488 136.907 6.87461 144.432 11.2192C151.957 15.5637 157.487 22.2624 159.287 30.9984C161.076 39.6837 159.074 49.8587 152.617 61.0423C149.384 66.6424 144.105 71.8706 138.264 76.5052C132.384 81.1712 125.722 85.4005 119.496 88.9526C113.262 92.5099 107.406 95.4211 103.112 97.4424C100.962 98.454 99.1994 99.245 97.9694 99.7848C97.3543 100.055 96.8721 100.262 96.5413 100.403C96.3759 100.473 96.2482 100.527 96.1607 100.564L96.0597 100.606L96.0323 100.618L96.0245 100.621L96.022 100.622C96.0212 100.622 96.0206 100.623 94.6818 97.3887Z" fill="#FF9933" stroke="#6DB3A6" stroke-width="7"/>
<path d="M121.227 39.2864C124.438 35.9329 128.168 34.5116 130.515 36.1041C132.849 37.6989 133.106 41.8207 131.437 46.2695C130.704 48.2304 129.59 50.0059 128.313 51.6317L95.0194 97.5835L117.809 44.4627C118.727 42.588 119.828 40.8148 121.258 39.3255L121.233 39.33L121.227 39.2864Z" fill="#32363A"/>
<path d="M82.2876 95.5547L81.4564 98.9546L85.8832 100.037L85.7868 95.4807L82.2876 95.5547ZM82.2876 95.5547C81.4564 98.9546 81.4557 98.9544 81.4548 98.9542L81.4523 98.9536L81.444 98.9516L81.4152 98.9445L81.309 98.9181C81.2169 98.8951 81.0827 98.8613 80.9086 98.8169C80.5603 98.728 80.0525 98.5965 79.4038 98.4233C78.1067 98.077 76.2449 97.5636 73.968 96.8908C69.4184 95.5464 63.1911 93.5597 56.4902 90.9908C49.7992 88.4256 42.5733 85.2564 36.0521 81.5344C29.5745 77.8373 23.5615 73.4664 19.5108 68.4143C11.4327 58.3391 7.91027 48.5856 8.36205 39.7293C8.81647 30.8213 13.2666 23.3616 20.0458 17.9261C26.8249 12.4907 35.0737 9.76858 43.8674 11.2615C52.6101 12.7457 61.3647 18.3042 69.4428 28.3793C73.4879 33.4244 76.4441 40.2404 78.6433 47.3648C80.8574 54.5374 82.3808 62.28 83.4316 69.3703C84.4839 76.4709 85.0717 82.9838 85.3968 87.719C85.5595 90.0888 85.6568 92.0187 85.7135 93.3607C85.7418 94.0319 85.76 94.5564 85.7712 94.9158C85.7768 95.0955 85.7807 95.234 85.7831 95.3289L85.7859 95.4383L85.7865 95.468L85.7867 95.4765L85.7868 95.4791C85.7868 95.48 85.7868 95.4807 82.2876 95.5547Z" fill="#FF9933" stroke="#6DB3A6" stroke-width="7"/>
<path d="M37.7787 49.7343C35.8192 45.5249 35.8481 41.5338 38.1837 39.925C40.5168 38.3289 44.4509 39.585 47.991 42.754C49.5521 44.1492 50.8023 45.8314 51.8539 47.6115L82.5914 95.3108L41.3617 54.798C39.9481 53.2617 38.6954 51.5921 37.8265 49.7193L37.8215 49.7446L37.7787 49.7343Z" fill="#32363A"/>
<circle cx="87.9951" cy="92.104" r="20" fill="#F7CE55" stroke="#32363A" stroke-width="6"/>
</svg>
