<svg width="202" height="133" viewBox="0 0 202 133" fill="none" xmlns="http://www.w3.org/2000/svg">
<path d="M97.3887 107.682L97.8479 111.151L102.366 110.553L100.623 106.343L97.3887 107.682ZM97.3887 107.682C97.8479 111.151 97.8472 111.151 97.8463 111.151L97.8437 111.152L97.8353 111.153L97.8059 111.157L97.6973 111.171C97.6032 111.183 97.4658 111.2 97.2874 111.222C96.9307 111.265 96.4098 111.327 95.7425 111.401C94.4081 111.549 92.4869 111.746 90.1211 111.946C85.3937 112.344 78.87 112.752 71.6937 112.79C64.5278 112.828 56.6445 112.497 49.2172 111.395C41.8394 110.301 34.6502 108.41 29.0423 105.172C17.8587 98.7153 11.0369 90.9048 8.24403 82.4884C5.43487 74.0227 6.8746 65.4565 11.2192 57.9315C15.5637 50.4065 22.2624 44.8766 30.9984 43.0766C39.6837 41.2871 49.8587 43.2897 61.0423 49.7465C66.6424 52.9798 71.8706 58.2584 76.5052 64.099C81.1712 69.9792 85.4005 76.6412 88.9526 82.8669C92.5099 89.1016 95.4211 94.9572 97.4424 99.2517C98.454 101.401 99.245 103.164 99.7848 104.394C100.055 105.009 100.262 105.491 100.403 105.822C100.473 105.987 100.527 106.115 100.564 106.203L100.606 106.304L100.618 106.331L100.621 106.339L100.622 106.341C100.622 106.342 100.623 106.343 97.3887 107.682Z" fill="#FF9933" stroke="#6DB3A6" stroke-width="7"/>
<path d="M39.2859 81.1368C35.9324 77.9254 34.5111 74.1959 36.1036 71.8492C37.6985 69.5152 41.8202 69.2581 46.269 70.9264C48.2299 71.66 50.0054 72.7739 51.6312 74.051L97.5831 107.344L44.4622 84.555C42.5875 83.6365 40.8143 82.5354 39.325 81.1055L39.3295 81.1309L39.2859 81.1368Z" fill="#32363A"/>
<path d="M104.25 107.682L101.016 106.345L99.2744 110.556L103.793 111.152L104.25 107.682ZM104.25 107.682C101.016 106.345 101.016 106.344 101.016 106.343L101.017 106.341L101.02 106.333L101.032 106.305L101.074 106.204C101.111 106.117 101.164 105.989 101.235 105.824C101.375 105.493 101.582 105.011 101.852 104.396C102.391 103.167 103.181 101.404 104.191 99.2558C106.21 94.9626 109.118 89.1086 112.673 82.8748C116.223 76.6501 120.452 69.9885 125.12 64.1071C129.756 58.265 134.988 52.9845 140.596 49.7467C151.78 43.2898 161.955 41.2872 170.64 43.0768C179.376 44.8768 186.075 50.4068 190.42 57.9318C194.764 65.4568 196.204 74.0229 193.395 82.4886C190.602 90.905 183.78 98.7155 172.596 105.172C166.996 108.406 159.811 110.294 152.435 111.387C145.01 112.488 137.126 112.82 129.958 112.783C122.78 112.747 116.253 112.34 111.524 111.943C109.157 111.745 107.234 111.548 105.899 111.401C105.231 111.327 104.71 111.265 104.353 111.222C104.175 111.2 104.037 111.183 103.943 111.171L103.835 111.157L103.805 111.153L103.797 111.152L103.794 111.152C103.793 111.152 103.793 111.152 104.25 107.682Z" fill="#FF9933" stroke="#6DB3A6" stroke-width="7"/>
<path d="M156.29 70.6364C160.748 69.3379 164.688 69.9717 165.924 72.5242C167.148 75.0724 165.31 78.7705 161.641 81.7891C160.025 83.1205 158.173 84.1012 156.254 84.8706L104.445 108.019L150.741 73.41C152.474 72.2457 154.314 71.2607 156.297 70.6859L156.273 70.6771L156.29 70.6364Z" fill="#32363A"/>
<path d="M102 103L99.2243 105.133L102.001 108.746L104.776 105.131L102 103ZM102 103C99.2243 105.133 99.2238 105.132 99.2233 105.131L99.2217 105.129L99.2165 105.122L99.1985 105.099L99.1321 105.012C99.0747 104.936 98.9911 104.826 98.883 104.682C98.6669 104.395 98.353 103.975 97.9552 103.434C97.1599 102.353 96.0285 100.787 94.6729 98.8381C91.9643 94.9432 88.3487 89.4977 84.7277 83.3018C81.112 77.115 77.4571 70.1222 74.6976 63.1391C71.9565 56.2026 69.9995 49.0311 69.9995 42.5556C69.9995 29.6419 73.3527 19.8288 79.2451 13.2019C85.172 6.53625 93.3104 3.50001 102 3.50001C110.689 3.50001 118.827 6.53625 124.754 13.2019C130.646 19.8288 134 29.6419 134 42.5556C134 49.0221 132.042 56.1891 129.301 63.1231C126.542 70.1041 122.887 77.0978 119.272 83.2868C115.651 89.4849 112.035 94.9339 109.327 98.8316C107.971 100.782 106.84 102.349 106.045 103.431C105.647 103.973 105.333 104.393 105.117 104.681C105.009 104.824 104.925 104.935 104.868 105.01L104.802 105.097L104.784 105.121L104.778 105.128L104.777 105.13C104.776 105.131 104.776 105.131 102 103Z" fill="#FF9933" stroke="#6DB3A6" stroke-width="7"/>
<path d="M95.9371 39.4094C97.0415 34.8995 99.5607 31.8038 102.389 32.0097C105.208 32.2238 107.492 35.6648 108.271 40.3517C108.616 42.4168 108.539 44.5113 108.246 46.5578L102.389 103L95.565 45.6013C95.4231 43.5185 95.4901 41.4323 95.9838 39.4276L95.9641 39.4442L95.9371 39.4094Z" fill="#32363A"/>
<circle cx="101.999" cy="103.105" r="20" fill="#F7CE55" stroke="#32363A" stroke-width="6"/>
</svg>
