<svg width="206" height="207" viewBox="0 0 206 207" fill="none" xmlns="http://www.w3.org/2000/svg">
<path d="M103 103.502L105.133 106.278L108.747 103.501L105.132 100.726L103 103.502ZM103 103.502C105.133 106.278 105.132 106.278 105.132 106.279L105.13 106.28L105.123 106.285L105.099 106.303L105.012 106.37C104.937 106.427 104.827 106.511 104.683 106.619C104.396 106.835 103.976 107.149 103.435 107.547C102.353 108.342 100.788 109.473 98.8386 110.829C94.9437 113.538 89.4982 117.153 83.3023 120.774C77.1154 124.39 70.1227 128.045 63.1396 130.804C56.2031 133.545 49.0316 135.502 42.5561 135.502C29.6423 135.502 19.8293 132.149 13.2024 126.257C6.53674 120.33 3.50049 112.192 3.50049 103.502C3.50049 94.8133 6.53674 86.6749 13.2024 80.748C19.8293 74.8556 29.6424 71.5024 42.5561 71.5024C49.0225 71.5024 56.1896 73.4598 63.1236 76.2006C70.1046 78.96 77.0983 82.6148 83.2873 86.2303C89.4854 89.8511 94.9343 93.4666 98.8321 96.1751C100.783 97.5305 102.349 98.6619 103.432 99.4572C103.973 99.8549 104.394 100.169 104.681 100.385C104.825 100.493 104.935 100.577 105.011 100.634L105.098 100.7L105.122 100.718L105.128 100.723L105.13 100.725C105.131 100.726 105.132 100.726 103 103.502Z" fill="#FF9933" stroke="#6DB3A6" stroke-width="7"/>
<path d="M39.4099 109.565C34.9 108.46 31.8043 105.941 32.0102 103.113C32.2243 100.294 35.6653 98.0104 40.3522 97.2309C42.4172 96.8857 44.5118 96.9626 46.5583 97.2557L103 103.113L45.6018 109.937C43.519 110.079 41.4328 110.012 39.4281 109.518L39.4447 109.538L39.4099 109.565Z" fill="#32363A"/>
<path d="M103 103.502L100.867 100.727L97.2538 103.503L100.869 106.278L103 103.502ZM103 103.502C100.867 100.727 100.868 100.726 100.869 100.726L100.871 100.724L100.878 100.719L100.901 100.701L100.988 100.635C101.064 100.577 101.174 100.493 101.318 100.385C101.605 100.169 102.025 99.8554 102.566 99.4577C103.647 98.6623 105.213 97.5309 107.162 96.1754C111.057 93.4668 116.502 89.8511 122.698 86.2302C128.885 82.6145 135.878 78.9595 142.861 76.2C149.797 73.4589 156.969 71.502 163.444 71.502C176.358 71.502 186.171 74.8551 192.798 80.7476C199.464 86.6745 202.5 94.8129 202.5 103.502C202.5 112.191 199.464 120.329 192.798 126.256C186.171 132.149 176.358 135.502 163.444 135.502C156.978 135.502 149.811 133.545 142.877 130.804C135.896 128.044 128.902 124.39 122.713 120.774C116.515 117.153 111.066 113.538 107.168 110.829C105.218 109.474 103.651 108.343 102.569 107.547C102.027 107.15 101.607 106.836 101.319 106.62C101.176 106.511 101.065 106.428 100.99 106.37L100.903 106.304L100.879 106.286L100.872 106.281L100.87 106.279C100.869 106.279 100.869 106.278 103 103.502Z" fill="#FF9933" stroke="#6DB3A6" stroke-width="7"/>
<path d="M166.591 97.4396C171.101 98.544 174.196 101.063 173.99 103.892C173.776 106.71 170.335 108.994 165.648 109.774C163.583 110.119 161.489 110.042 159.442 109.749L103 103.892L160.399 97.0674C162.481 96.9255 164.568 96.9925 166.572 97.4862L166.556 97.4665L166.591 97.4396Z" fill="#32363A"/>
<path d="M103 103.5L105.776 101.367L102.999 97.7538L100.224 101.369L103 103.5ZM103 103.5C105.776 101.367 105.776 101.368 105.777 101.369L105.778 101.371L105.783 101.378L105.802 101.401L105.868 101.488C105.925 101.564 106.009 101.674 106.117 101.818C106.333 102.105 106.647 102.525 107.045 103.066C107.84 104.147 108.972 105.713 110.327 107.662C113.036 111.557 116.651 117.002 120.272 123.198C123.888 129.385 127.543 136.378 130.302 143.361C133.044 150.297 135 157.469 135 163.944C135 176.858 131.647 186.671 125.755 193.298C119.828 199.964 111.69 203 103 203C94.3113 203 86.173 199.964 80.2461 193.298C74.3537 186.671 71.0005 176.858 71.0005 163.944C71.0005 157.478 72.9578 150.311 75.6987 143.377C78.458 136.396 82.1128 129.402 85.7284 123.213C89.3492 117.015 92.9646 111.566 95.6731 107.668C97.0286 105.718 98.1599 104.151 98.9552 103.069C99.3529 102.527 99.6668 102.107 99.8829 101.819C99.991 101.676 100.075 101.565 100.132 101.49L100.198 101.403L100.216 101.379L100.222 101.372L100.223 101.37C100.224 101.369 100.224 101.369 103 103.5Z" fill="#FF9933" stroke="#6DB3A6" stroke-width="7"/>
<path d="M109.063 167.091C107.958 171.601 105.439 174.696 102.611 174.49C99.7921 174.276 97.5085 170.835 96.7289 166.148C96.3838 164.083 96.4607 161.989 96.7537 159.942L102.611 103.5L109.435 160.899C109.577 162.981 109.51 165.068 109.016 167.072L109.036 167.056L109.063 167.091Z" fill="#32363A"/>
<path d="M103 103.5L100.225 105.633L103.001 109.247L105.776 105.632L103 103.5ZM103 103.5C100.225 105.633 100.224 105.632 100.224 105.632L100.222 105.63L100.217 105.623L100.199 105.599L100.133 105.512C100.075 105.437 99.9915 105.327 99.8835 105.183C99.6674 104.896 99.3534 104.476 98.9557 103.935C98.1604 102.853 97.029 101.288 95.6734 99.3386C92.9648 95.4437 89.3492 89.9982 85.7282 83.8023C82.1125 77.6154 78.4575 70.6227 75.6981 63.6396C72.957 56.7031 71 49.5316 71 43.0561C71 30.1423 74.3532 20.3293 80.2456 13.7024C86.1725 7.03674 94.3109 4.0005 103 4.00049C111.689 4.00049 119.828 7.03674 125.754 13.7024C131.647 20.3293 135 30.1424 135 43.0561C135 49.5225 133.043 56.6896 130.302 63.6236C127.542 70.6046 123.888 77.5983 120.272 83.7873C116.651 89.9854 113.036 95.4343 110.327 99.3321C108.972 101.283 107.841 102.849 107.045 103.932C106.648 104.473 106.334 104.894 106.118 105.181C106.01 105.325 105.926 105.435 105.868 105.511L105.802 105.598L105.784 105.622L105.779 105.628L105.777 105.63C105.777 105.631 105.776 105.632 103 103.5Z" fill="#FF9933" stroke="#6DB3A6" stroke-width="7"/>
<path d="M96.9376 39.9099C98.042 35.4 100.561 32.3043 103.39 32.5102C106.208 32.7243 108.492 36.1653 109.272 40.8522C109.617 42.9172 109.54 45.0118 109.247 47.0583L103.39 103.5L96.5654 46.1018C96.4235 44.019 96.4906 41.9328 96.9843 39.9281L96.9645 39.9447L96.9376 39.9099Z" fill="#32363A"/>
<circle cx="103" cy="103.605" r="20" fill="#F7CE55" stroke="#32363A" stroke-width="6"/>
</svg>
