<svg width="240" height="158" viewBox="0 0 240 158" fill="none" xmlns="http://www.w3.org/2000/svg">
<path d="M91.5833 32.8902C102.712 52.1554 112.008 89.0342 117.305 117.438C95.3465 98.6522 68.0465 72.1172 56.9428 52.8893C45.1942 32.5385 43.4113 11.4866 52.9531 5.97974C62.4949 0.472854 79.8347 12.5394 91.5833 32.8902Z" fill="#F89938" stroke="#6DB3A6" stroke-width="6"/>
<path d="M82.281 43.443C79.537 40.7156 75.9557 39.6987 73.3243 41.2163C70.693 42.734 69.769 46.3344 70.7756 50.0909C71.2184 51.7438 72.0702 53.2286 73.1148 54.5592L101.9 90.762L84.9634 47.7168C84.328 46.1375 83.4799 44.6663 82.2623 43.4553L82.2773 43.4293L82.281 43.443Z" fill="#32363A"/>
<path d="M130.93 51.9814C131.787 68.4572 124.744 95.9953 117.962 116.582C109.077 96.8112 99.205 70.1305 98.3504 53.6907C97.4418 36.2844 104.022 21.7469 112.997 21.282C121.972 20.8172 130.025 34.5888 130.933 51.9951L130.93 51.9814Z" fill="#F89938" stroke="#6DB3A6" stroke-width="6"/>
<path d="M120.239 55.878C119.269 53.1585 117.056 51.2918 114.571 51.416C112.094 51.5451 110.088 53.62 109.403 56.4462C109.1 57.6914 109.168 58.9544 109.425 60.1884L116.75 93.7815L120.566 59.6117C120.691 58.3557 120.632 57.0977 120.198 55.8889L120.215 55.8989L120.239 55.878Z" fill="#32363A"/>
<path d="M32.8902 96.3909C52.1554 107.519 89.0342 116.815 117.438 122.113C98.6522 100.154 72.1172 72.8541 52.8893 61.7504C32.5385 50.0018 11.4866 48.2189 5.97974 57.7607C0.472854 67.3025 12.5394 84.6423 32.8902 96.3909Z" fill="#F89938" stroke="#6DB3A6" stroke-width="6"/>
<path d="M43.443 87.0886C40.7156 84.3446 39.6987 80.7633 41.2163 78.1319C42.734 75.5006 46.3344 74.5766 50.0909 75.5832C51.7438 76.0261 53.2286 76.8778 54.5592 77.9224L90.762 106.708L47.7168 89.7711C46.1375 89.1356 44.6663 88.2875 43.4553 87.0699L43.4293 87.0849L43.443 87.0886Z" fill="#32363A"/>
<path d="M147.965 32.8902C136.836 52.1554 127.54 89.0342 122.243 117.438C144.201 98.6522 171.501 72.1172 182.605 52.8893C194.354 32.5385 196.137 11.4866 186.595 5.97974C177.053 0.472854 159.713 12.5394 147.965 32.8902Z" fill="#F89938" stroke="#6DB3A6" stroke-width="6"/>
<path d="M157.267 43.443C160.011 40.7156 163.592 39.6987 166.224 41.2163C168.855 42.734 169.779 46.3344 168.772 50.0909C168.329 51.7438 167.478 53.2286 166.433 54.5592L137.648 90.762L154.584 47.7168C155.22 46.1375 156.068 44.6663 157.286 43.4553L157.271 43.4293L157.267 43.443Z" fill="#32363A"/>
<path d="M206.658 96.3909C187.392 107.519 150.514 116.815 122.109 122.113C140.896 100.154 167.431 72.8541 186.659 61.7504C207.009 50.0018 228.061 48.2189 233.568 57.7607C239.075 67.3025 227.008 84.6423 206.658 96.3909Z" fill="#F89938" stroke="#6DB3A6" stroke-width="6"/>
<path d="M196.105 87.0886C198.832 84.3446 199.849 80.7633 198.332 78.1319C196.814 75.5006 193.213 74.5766 189.457 75.5832C187.804 76.0261 186.319 76.8778 184.989 77.9224L148.786 106.708L191.831 89.7711C193.41 89.1356 194.882 88.2875 196.093 87.0699L196.119 87.0849L196.105 87.0886Z" fill="#32363A"/>
<circle cx="119" cy="118.604" r="20" fill="#F7CE55" stroke="#32363A" stroke-width="6"/>
</svg>
