<svg width="255" height="158" viewBox="0 0 255 158" fill="none" xmlns="http://www.w3.org/2000/svg">
<path d="M86.5696 30.3521C102.341 46.1159 120.817 79.3823 133.231 105.484C107.015 92.9703 73.6123 74.3393 57.8747 58.6052C41.2214 41.9514 34.1121 22.0547 42.0167 14.2742C49.9212 6.49368 69.9164 13.6983 86.5696 30.3521Z" fill="#F89938" stroke="#6DB3A6" stroke-width="6"/>
<path d="M80.1855 42.9499C76.8127 41.019 73.0593 40.9574 70.8792 43.1021C68.6991 45.2468 68.716 48.9659 70.6562 52.3391C71.5099 53.8233 72.7196 55.0398 74.0782 56.0575L111.396 83.6543L83.8927 46.3919C82.8699 45.0284 81.6673 43.8242 80.1704 42.9666L80.1784 42.9376L80.1855 42.9499Z" fill="#32363A"/>
<path d="M126.526 30.2521C131.565 45.9623 131.718 74.4021 130.353 96.0537C116.641 79.2232 100.204 55.9659 95.1769 40.2898C89.8505 23.6932 92.5623 7.94299 101.2 5.18362C109.837 2.42426 121.207 13.6677 126.533 30.2643L126.526 30.2521Z" fill="#F89938" stroke="#6DB3A6" stroke-width="6"/>
<path d="M117.09 36.7713C115.45 34.3915 112.815 33.1562 110.422 33.9158C108.039 34.678 106.611 37.2006 106.664 40.1096C106.685 41.3916 107.073 42.5955 107.639 43.7224L123.354 74.319L118.362 40.2974C118.163 39.0509 117.785 37.8497 117.053 36.7925L117.073 36.7977L117.09 36.7713Z" fill="#32363A"/>
<path d="M41.4539 104.614C63.088 110.416 101.439 109.914 130.503 107.726C106.573 91.3283 73.7218 71.7602 52.1303 65.9722C29.2788 59.8496 8.28516 63.5434 5.34619 74.1869C2.40721 84.8303 18.6024 98.4912 41.4539 104.614Z" fill="#F89938" stroke="#6DB3A6" stroke-width="6"/>
<path d="M49.3766 92.9032C46.0159 90.952 44.1103 87.7508 44.9198 84.8159C45.7293 81.881 49.0063 80.061 52.928 80.0675C54.6536 80.0703 56.3195 80.5118 57.8841 81.1794L100.547 99.6955L54.2305 94.3971C52.5276 94.1891 50.876 93.7477 49.3839 92.882L49.3624 92.9032L49.3766 92.9032Z" fill="#32363A"/>
<path d="M171.475 29.3521C155.704 45.1159 137.227 78.3823 124.814 104.484C151.029 91.9703 184.432 73.3393 200.17 57.6052C216.823 40.9514 223.932 21.0547 216.028 13.2742C208.123 5.49368 188.128 12.6983 171.475 29.3521Z" fill="#F89938" stroke="#6DB3A6" stroke-width="6"/>
<path d="M177.859 41.9499C181.232 40.019 184.985 39.9574 187.165 42.1021C189.345 44.2468 189.328 47.9659 187.388 51.3391C186.535 52.8233 185.325 54.0398 183.966 55.0575L146.648 82.6543L174.152 45.3919C175.175 44.0284 176.377 42.8242 177.874 41.9666L177.866 41.9376L177.859 41.9499Z" fill="#32363A"/>
<path d="M132.837 29.2521C127.798 44.9623 127.645 73.4021 129.011 95.0537C142.722 78.2232 159.159 54.9659 164.186 39.2898C169.513 22.6932 166.801 6.94298 158.163 4.18362C149.526 1.42426 138.156 12.6677 132.83 29.2643L132.837 29.2521Z" fill="#F89938" stroke="#6DB3A6" stroke-width="6"/>
<path d="M142.273 35.7713C143.913 33.3915 146.549 32.1562 148.941 32.9158C151.324 33.678 152.753 36.2006 152.7 39.1096C152.678 40.3916 152.29 41.5955 151.724 42.7224L136.009 73.319L141.002 39.2974C141.2 38.0509 141.579 36.8497 142.31 35.7925L142.291 35.7977L142.273 35.7713Z" fill="#32363A"/>
<path d="M216.105 96.6118C195.232 104.738 157.055 108.421 127.926 109.415C149.925 90.5058 180.447 67.4723 201.279 59.3646C223.326 50.7868 244.598 52.1696 248.68 62.4292C252.761 72.6887 238.152 88.034 216.105 96.6118Z" fill="#F89938" stroke="#6DB3A6" stroke-width="6"/>
<path d="M206.952 85.8349C210.08 83.5288 211.625 80.139 210.5 77.3098C209.376 74.4807 205.92 73.0288 202.022 73.4629C200.307 73.6539 198.699 74.2744 197.217 75.1086L156.828 98.166L202.29 87.8491C203.96 87.4567 205.554 86.8378 206.942 85.8146L206.966 85.8334L206.952 85.8349Z" fill="#32363A"/>
<path d="M128.366 117.604C139.471 117.604 148.52 108.675 148.52 97.6035C148.52 86.5325 139.471 77.6035 128.366 77.6035C117.262 77.6035 108.213 86.5325 108.213 97.6035C108.213 108.675 117.262 117.604 128.366 117.604Z" fill="#F7CE55" stroke="#32363A" stroke-width="6"/>
</svg>
