<svg width="228" height="172" viewBox="0 0 228 172" fill="none" xmlns="http://www.w3.org/2000/svg">
<path d="M196.314 61.8333C177.044 72.9533 140.174 82.2633 111.764 87.5533C130.554 65.5933 157.084 38.2933 176.314 27.1933C196.664 15.4433 217.714 13.6633 223.224 23.2033C228.734 32.7433 216.664 50.0833 196.314 61.8333Z" fill="#F89938" stroke="#6DB3A6" stroke-width="6"/>
<path d="M185.754 52.5236C188.474 49.7836 189.504 46.1936 187.984 43.5636C186.464 40.9336 182.874 40.0136 179.114 41.0136C177.454 41.4536 175.984 42.3036 174.644 43.3536L138.434 72.1436L181.484 55.2036C183.054 54.5736 184.534 53.7136 185.744 52.5036V52.5336L185.754 52.5236Z" fill="#32363A"/>
<path d="M157.913 39.5235C150.423 54.2235 130.553 74.5435 114.383 88.9835C116.573 67.4235 121.363 39.3735 128.843 24.7035C136.753 9.18354 149.723 -0.126458 157.733 3.96354C165.743 8.04354 165.823 24.0035 157.913 39.5235Z" fill="#F89938" stroke="#6DB3A6" stroke-width="6"/>
<path d="M146.704 37.5536C147.224 34.7136 146.244 31.9836 144.034 30.8536C141.824 29.7236 139.044 30.5136 137.044 32.6236C136.164 33.5536 135.584 34.6836 135.194 35.8736L124.744 68.6236L145.134 40.9436C145.874 39.9236 146.444 38.7936 146.684 37.5336H146.704V37.5536Z" fill="#32363A"/>
<path d="M51.2435 28.5634C70.5135 39.6834 97.0034 66.9734 115.793 88.9234C87.3834 83.6334 50.4734 74.3034 31.2435 63.2034C10.8934 51.4534 -1.17655 34.1134 4.33345 24.5734C9.84345 15.0334 30.8934 16.8134 51.2435 28.5634Z" fill="#F89938" stroke="#6DB3A6" stroke-width="6"/>
<path d="M48.4637 42.3535C44.7237 41.3635 41.1137 42.2735 39.5937 44.9035C38.0737 47.5335 39.0737 51.1135 41.8237 53.8635C43.0337 55.0735 44.5137 55.9335 46.0837 56.5635L89.1137 73.5235L52.9237 44.7135C51.5837 43.6635 50.1137 42.8135 48.4537 42.3735V42.3435L48.4637 42.3535Z" fill="#32363A"/>
<path d="M94.8637 25.4237C103.844 39.2637 111.514 66.6337 115.934 87.8537C98.3537 75.1737 76.4637 57.0037 67.5037 43.1937C58.0137 28.5737 56.4437 12.6937 63.9837 7.80374C71.5237 2.91374 85.3837 10.8137 94.8737 25.4337L94.8637 25.4237Z" fill="#F89938" stroke="#6DB3A6" stroke-width="6"/>
<path d="M87.5537 34.1437C85.3537 32.2737 82.5037 31.7637 80.4137 33.1137C78.3337 34.4637 77.6337 37.2637 78.4537 40.0537C78.8137 41.2837 79.5037 42.3437 80.3437 43.2837L103.484 68.7137L89.7037 37.2137C89.1837 36.0637 88.5037 35.0037 87.5237 34.1737H87.5437L87.5537 34.1437Z" fill="#32363A"/>
<path d="M196.314 110.15C177.044 99.0301 140.174 89.7201 111.764 84.4301C130.554 106.39 157.084 133.69 176.314 144.79C196.664 156.54 217.714 158.32 223.224 148.78C228.734 139.24 216.664 121.9 196.314 110.15Z" fill="#F89938" stroke="#6DB3A6" stroke-width="6"/>
<path d="M185.754 119.46C188.474 122.2 189.504 125.79 187.984 128.42C186.464 131.05 182.874 131.97 179.114 130.97C177.454 130.53 175.984 129.68 174.644 128.63L138.434 99.8398L181.484 116.78C183.054 117.41 184.534 118.27 185.744 119.48V119.45L185.754 119.46Z" fill="#32363A"/>
<path d="M157.913 132.46C150.423 117.76 130.553 97.4399 114.383 82.9999C116.573 104.56 121.363 132.61 128.843 147.28C136.753 162.8 149.723 172.11 157.733 168.02C165.743 163.94 165.823 147.98 157.913 132.46Z" fill="#F89938" stroke="#6DB3A6" stroke-width="6"/>
<path d="M146.704 134.43C147.224 137.27 146.244 140 144.034 141.13C141.824 142.26 139.044 141.47 137.044 139.36C136.164 138.43 135.584 137.3 135.194 136.11L124.744 103.36L145.134 131.04C145.874 132.06 146.444 133.19 146.684 134.45H146.704V134.43Z" fill="#32363A"/>
<path d="M51.2435 143.42C70.5135 132.3 97.0034 105.01 115.793 83.06C87.3834 88.35 50.4734 97.68 31.2435 108.78C10.8934 120.53 -1.17655 137.87 4.33345 147.41C9.84345 156.95 30.8934 155.17 51.2435 143.42Z" fill="#F89938" stroke="#6DB3A6" stroke-width="6"/>
<path d="M48.4637 129.63C44.7237 130.62 41.1137 129.71 39.5937 127.08C38.0737 124.45 39.0737 120.87 41.8237 118.12C43.0337 116.91 44.5137 116.05 46.0837 115.42L89.1137 98.4599L52.9237 127.27C51.5837 128.32 50.1137 129.17 48.4537 129.61V129.64L48.4637 129.63Z" fill="#32363A"/>
<path d="M94.8637 146.56C103.844 132.72 111.514 105.35 115.934 84.1297C98.3537 96.8097 76.4637 114.98 67.5037 128.79C58.0137 143.41 56.4437 159.29 63.9837 164.18C71.5237 169.07 85.3837 161.17 94.8737 146.55L94.8637 146.56Z" fill="#F89938" stroke="#6DB3A6" stroke-width="6"/>
<path d="M87.5537 137.84C85.3537 139.71 82.5037 140.22 80.4137 138.87C78.3337 137.52 77.6337 134.72 78.4537 131.93C78.8137 130.7 79.5037 129.64 80.3437 128.7L103.484 103.27L89.7037 134.77C89.1837 135.92 88.5037 136.98 87.5237 137.81H87.5437L87.5537 137.84Z" fill="#32363A"/>
<circle cx="113.704" cy="87.6035" r="20" fill="#F7CE55" stroke="#32363A" stroke-width="6"/>
</svg>
