<svg width="228" height="205" viewBox="0 0 228 205" fill="none" xmlns="http://www.w3.org/2000/svg">
<path d="M196.314 94.8333C177.044 105.953 140.174 115.263 111.764 120.553C130.554 98.5933 157.084 71.2933 176.314 60.1933C196.664 48.4433 217.714 46.6633 223.224 56.2033C228.734 65.7433 216.664 83.0833 196.314 94.8333Z" fill="#F89938" stroke="#6DB3A6" stroke-width="6"/>
<path d="M185.754 85.5236C188.474 82.7836 189.504 79.1936 187.984 76.5636C186.464 73.9336 182.874 73.0136 179.114 74.0136C177.454 74.4536 175.984 75.3036 174.644 76.3536L138.434 105.144L181.484 88.2036C183.054 87.5736 184.534 86.7136 185.744 85.5036V85.5336L185.754 85.5236Z" fill="#32363A"/>
<path d="M134.043 46.8421C134.038 69.0905 123.665 105.676 114.042 132.925C104.419 105.672 94.0413 69.0463 94.0435 46.8427C94.0427 23.344 103.026 4.2242 114.043 4.2224C125.06 4.22059 134.042 23.3435 134.043 46.8421Z" fill="#F89938" stroke="#6DB3A6" stroke-width="6"/>
<path d="M120.7 51.3327C119.687 47.6071 117.093 44.9201 114.055 44.9215C111.018 44.9228 108.426 47.5719 107.412 51.3281C106.963 52.9857 106.964 54.6838 107.204 56.3693L114.031 102.123L120.886 56.3706C121.125 54.696 121.121 52.9843 120.678 51.3314L120.704 51.3464L120.7 51.3327Z" fill="#32363A"/>
<path d="M157.913 72.5235C150.423 87.2235 130.553 107.544 114.383 121.984C116.573 100.424 121.363 72.3735 128.843 57.7035C136.753 42.1835 149.723 32.8735 157.733 36.9635C165.743 41.0435 165.823 57.0035 157.913 72.5235Z" fill="#F89938" stroke="#6DB3A6" stroke-width="6"/>
<path d="M146.704 70.5536C147.224 67.7136 146.244 64.9836 144.034 63.8536C141.824 62.7236 139.044 63.5136 137.044 65.6236C136.164 66.5536 135.584 67.6836 135.194 68.8736L124.744 101.624L145.134 73.9436C145.874 72.9236 146.444 71.7936 146.684 70.5336H146.704V70.5536Z" fill="#32363A"/>
<path d="M51.2435 61.5634C70.5135 72.6834 97.0034 99.9734 115.793 121.923C87.3834 116.633 50.4734 107.303 31.2435 96.2034C10.8934 84.4534 -1.17655 67.1134 4.33345 57.5734C9.84345 48.0334 30.8934 49.8134 51.2435 61.5634Z" fill="#F89938" stroke="#6DB3A6" stroke-width="6"/>
<path d="M48.4637 75.3535C44.7237 74.3635 41.1137 75.2735 39.5937 77.9035C38.0737 80.5335 39.0737 84.1135 41.8237 86.8635C43.0337 88.0735 44.5137 88.9335 46.0837 89.5635L89.1137 106.524L52.9237 77.7135C51.5837 76.6635 50.1137 75.8135 48.4537 75.3735V75.3435L48.4637 75.3535Z" fill="#32363A"/>
<path d="M94.8637 58.4237C103.844 72.2637 111.514 99.6337 115.934 120.854C98.3537 108.174 76.4637 90.0037 67.5037 76.1937C58.0137 61.5737 56.4437 45.6937 63.9837 40.8037C71.5237 35.9137 85.3837 43.8137 94.8737 58.4337L94.8637 58.4237Z" fill="#F89938" stroke="#6DB3A6" stroke-width="6"/>
<path d="M87.5537 67.1437C85.3537 65.2737 82.5037 64.7637 80.4137 66.1137C78.3337 67.4637 77.6337 70.2637 78.4537 73.0537C78.8137 74.2837 79.5037 75.3437 80.3437 76.2837L103.484 101.714L89.7037 70.2137C89.1837 69.0637 88.5037 68.0037 87.5237 67.1737H87.5437L87.5537 67.1437Z" fill="#32363A"/>
<path d="M196.314 143.15C177.044 132.03 140.174 122.72 111.764 117.43C130.554 139.39 157.084 166.69 176.314 177.79C196.664 189.54 217.714 191.32 223.224 181.78C228.734 172.24 216.664 154.9 196.314 143.15Z" fill="#F89938" stroke="#6DB3A6" stroke-width="6"/>
<path d="M185.754 152.46C188.474 155.2 189.504 158.79 187.984 161.42C186.464 164.05 182.874 164.97 179.114 163.97C177.454 163.53 175.984 162.68 174.644 161.63L138.434 132.84L181.484 149.78C183.054 150.41 184.534 151.27 185.744 152.48V152.45L185.754 152.46Z" fill="#32363A"/>
<path d="M157.913 165.46C150.423 150.76 130.553 130.44 114.383 116C116.573 137.56 121.363 165.61 128.843 180.28C136.753 195.8 149.723 205.11 157.733 201.02C165.743 196.94 165.823 180.98 157.913 165.46Z" fill="#F89938" stroke="#6DB3A6" stroke-width="6"/>
<path d="M146.704 167.43C147.224 170.27 146.244 173 144.034 174.13C141.824 175.26 139.044 174.47 137.044 172.36C136.164 171.43 135.584 170.3 135.194 169.11L124.744 136.36L145.134 164.04C145.874 165.06 146.444 166.19 146.684 167.45H146.704V167.43Z" fill="#32363A"/>
<path d="M51.2435 176.42C70.5135 165.3 97.0034 138.01 115.793 116.06C87.3834 121.35 50.4734 130.68 31.2435 141.78C10.8934 153.53 -1.17655 170.87 4.33345 180.41C9.84345 189.95 30.8934 188.17 51.2435 176.42Z" fill="#F89938" stroke="#6DB3A6" stroke-width="6"/>
<path d="M48.4637 162.63C44.7237 163.62 41.1137 162.71 39.5937 160.08C38.0737 157.45 39.0737 153.87 41.8237 151.12C43.0337 149.91 44.5137 149.05 46.0837 148.42L89.1137 131.46L52.9237 160.27C51.5837 161.32 50.1137 162.17 48.4537 162.61V162.64L48.4637 162.63Z" fill="#32363A"/>
<path d="M94.8637 179.56C103.844 165.72 111.514 138.35 115.934 117.13C98.3537 129.81 76.4637 147.98 67.5037 161.79C58.0137 176.41 56.4437 192.29 63.9837 197.18C71.5237 202.07 85.3837 194.17 94.8737 179.55L94.8637 179.56Z" fill="#F89938" stroke="#6DB3A6" stroke-width="6"/>
<path d="M87.5537 170.84C85.3537 172.71 82.5037 173.22 80.4137 171.87C78.3337 170.52 77.6337 167.72 78.4537 164.93C78.8137 163.7 79.5037 162.64 80.3437 161.7L103.484 136.27L89.7037 167.77C89.1837 168.92 88.5037 169.98 87.5237 170.81H87.5437L87.5537 170.84Z" fill="#32363A"/>
<circle cx="113.704" cy="120.604" r="20" fill="#F7CE55" stroke="#32363A" stroke-width="6"/>
</svg>
