<svg width="58" height="58" viewBox="0 0 58 58" fill="none" xmlns="http://www.w3.org/2000/svg">
<path d="M18.4765 51.6418C18.8658 51.6418 19.255 51.623 19.6429 51.5854C21.9168 54.3511 25.3296 56 29 56C32.6735 56 36.0777 54.3488 38.3545 51.5858C38.7421 51.6232 39.1322 51.6418 39.5235 51.6418C42.7501 51.6418 45.8058 50.3799 48.0917 48.0948C50.6888 45.4986 51.9292 41.918 51.5838 38.3546C54.3503 36.0816 56 32.6698 56 29C56 25.3277 54.3485 21.925 51.5855 19.6491C51.9381 16.075 50.6872 12.4997 48.0917 9.9052C45.8065 7.62076 42.7598 6.3582 39.5235 6.3582C39.1342 6.3582 38.745 6.37701 38.3571 6.41458C36.0832 3.64888 32.6704 2 29 2C25.3265 2 21.9223 3.65115 19.6455 6.41419C19.2579 6.3768 18.8678 6.3582 18.4765 6.3582C15.2499 6.3582 12.1942 7.6201 9.90829 9.9052C7.31119 12.5014 6.07082 16.082 6.41621 19.6454C3.64974 21.9184 2 25.3302 2 29C2 32.6723 3.65149 36.075 6.41449 38.3509C6.06189 41.925 7.31282 45.5003 9.90829 48.0948C12.1935 50.3792 15.2402 51.6418 18.4765 51.6418Z" fill="#4D4DFF" stroke="#E8E8E8" stroke-width="4"/>
<path d="M29 38C33.9705 38 38 33.9705 38 29C38 24.0295 33.9705 20 29 20C24.0295 20 20 24.0295 20 29C20 33.9705 24.0295 38 29 38Z" fill="#FF9933" stroke="#ECECEC" stroke-width="4"/>
</svg>
