<svg width="82" height="187" viewBox="0 0 82 187" fill="none" xmlns="http://www.w3.org/2000/svg">
<line x1="41" y1="24" x2="41" y2="187" stroke="#0C7F1C" stroke-width="2"/>
<path d="M42.0427 4.70219L41 3.69395L39.9573 4.70219C34.5187 9.96107 30.6723 17.7818 30.1098 24.4149C29.828 27.7376 30.3572 30.9546 32.1535 33.3777C33.9963 35.8634 36.975 37.2514 41 37.2514C45.025 37.2514 48.0037 35.8634 49.8465 33.3777C51.6428 30.9546 52.172 27.7376 51.8902 24.4149C51.3276 17.7818 47.4813 9.96107 42.0427 4.70219Z" fill="#4D4DFF" stroke="#F5F5F5" stroke-width="3"/>
<path d="M3.92135 39.9685L2.91405 41.0109L3.92135 42.0532C9.1786 47.4935 16.9971 51.3412 23.6286 51.904C26.9505 52.1859 30.1668 51.6565 32.5893 49.8595C35.0743 48.0161 36.4617 45.0367 36.4617 41.0109C36.4617 36.9851 35.0743 34.0057 32.5893 32.1623C30.1668 30.3653 26.9505 29.8359 23.6285 30.1178C16.9971 30.6806 9.1786 34.5283 3.92135 39.9685Z" fill="#4D4DFF" stroke="#F5F5F5" stroke-width="3"/>
<path d="M78.0786 39.9685L79.0859 41.0109L78.0786 42.0532C72.8214 47.4935 65.0029 51.3412 58.3714 51.904C55.0495 52.1859 51.8332 51.6565 49.4107 49.8595C46.9257 48.0161 45.5383 45.0367 45.5383 41.0109C45.5383 36.9851 46.9257 34.0057 49.4107 32.1623C51.8332 30.3653 55.0495 29.8359 58.3715 30.1178C65.0029 30.6806 72.8214 34.5283 78.0786 39.9685Z" fill="#4D4DFF" stroke="#F5F5F5" stroke-width="3"/>
<path d="M12.7839 14.4354L11.3341 14.46L11.3096 15.9097C11.1814 23.475 13.9899 31.7257 18.2811 36.814C20.4306 39.3629 23.0791 41.2635 26.0624 41.7064C29.1229 42.1607 32.2104 41.0351 35.0563 38.1883C37.9023 35.3415 39.0272 32.2533 38.5731 29.1925C38.1305 26.2086 36.2306 23.5595 33.6825 21.4092C28.5956 17.1166 20.3472 14.3071 12.7839 14.4354Z" fill="#4D4DFF" stroke="#F5F5F5" stroke-width="3"/>
<path d="M69.216 14.4354L70.6658 14.46L70.6904 15.9097C70.8186 23.475 68.01 31.7257 63.7189 36.814C61.5693 39.3629 58.9209 41.2635 55.9375 41.7064C52.877 42.1607 49.7896 41.0351 46.9436 38.1883C44.0977 35.3415 42.9727 32.2533 43.4268 29.1925C43.8695 26.2086 45.7693 23.5595 48.3175 21.4092C53.4043 17.1166 61.6527 14.3071 69.216 14.4354Z" fill="#4D4DFF" stroke="#F5F5F5" stroke-width="3"/>
<path d="M42.0427 3.92167L41 2.91343L39.9573 3.92167C34.5187 9.18055 30.6723 17.0013 30.1098 23.6344C29.828 26.9571 30.3572 30.174 32.1535 32.5971C33.9963 35.0829 36.975 36.4709 41 36.4709C45.025 36.4709 48.0037 35.0829 49.8465 32.5971C51.6428 30.174 52.172 26.9571 51.8902 23.6344C51.3276 17.0013 47.4813 9.18055 42.0427 3.92167Z" fill="#4D4DFF" stroke="#F5F5F5" stroke-width="3"/>
<path d="M12.7839 13.6544L11.3341 13.679L11.3096 15.1287C11.1814 22.694 13.9899 30.9447 18.2811 36.033C20.4306 38.5819 23.0791 40.4825 26.0624 40.9254C29.1229 41.3797 32.2104 40.2541 35.0563 37.4073C37.9023 34.5604 39.0272 31.4723 38.5731 28.4115C38.1305 25.4276 36.2306 22.7785 33.6825 20.6282C28.5956 16.3356 20.3472 13.5261 12.7839 13.6544Z" fill="#4D4DFF" stroke="#F5F5F5" stroke-width="3"/>
<path d="M69.216 13.6544L70.6658 13.679L70.6904 15.1287C70.8186 22.694 68.01 30.9447 63.7189 36.033C61.5693 38.5819 58.9209 40.4825 55.9375 40.9254C52.877 41.3797 49.7896 40.2541 46.9436 37.4073C44.0977 34.5604 42.9727 31.4723 43.4268 28.4115C43.8695 25.4276 45.7693 22.7785 48.3175 20.6282C53.4043 16.3356 61.6527 13.5261 69.216 13.6544Z" fill="#4D4DFF" stroke="#F5F5F5" stroke-width="3"/>
<path d="M42.0427 78.0783L41 79.0866L39.9573 78.0783C34.5187 72.8194 30.6723 64.9987 30.1098 58.3656C29.828 55.0429 30.3572 51.826 32.1535 49.4029C33.9963 46.9171 36.975 45.5291 41 45.5291C45.025 45.5291 48.0037 46.9171 49.8465 49.4029C51.6428 51.826 52.172 55.0429 51.8902 58.3656C51.3276 64.9987 47.4813 72.8194 42.0427 78.0783Z" fill="#4D4DFF" stroke="#F5F5F5" stroke-width="3"/>
<path d="M12.7839 68.3456L11.3341 68.321L11.3096 66.8713C11.1814 59.306 13.9899 51.0553 18.2811 45.967C20.4306 43.4181 23.0791 41.5175 26.0624 41.0746C29.1229 40.6203 32.2104 41.7459 35.0563 44.5927C37.9023 47.4396 39.0272 50.5277 38.5731 53.5885C38.1305 56.5724 36.2306 59.2215 33.6825 61.3718C28.5956 65.6644 20.3472 68.4739 12.7839 68.3456Z" fill="#4D4DFF" stroke="#F5F5F5" stroke-width="3"/>
<path d="M69.216 68.3456L70.6658 68.321L70.6904 66.8713C70.8186 59.306 68.01 51.0553 63.7189 45.967C61.5693 43.4181 58.9209 41.5175 55.9375 41.0746C52.877 40.6203 49.7896 41.7459 46.9436 44.5927C44.0977 47.4396 42.9727 50.5277 43.4268 53.5885C43.8695 56.5724 45.7693 59.2215 48.3175 61.3718C53.4043 65.6644 61.6527 68.4739 69.216 68.3456Z" fill="#4D4DFF" stroke="#F5F5F5" stroke-width="3"/>
<path d="M51.4007 41.2546C51.4007 35.2547 46.5333 30.3853 40.5342 30.3853C34.535 30.3853 29.6677 35.2547 29.6677 41.2546C29.6677 47.2545 34.535 52.124 40.5342 52.124C46.5333 52.124 51.4007 47.2545 51.4007 41.2546Z" fill="#FFCC33" stroke="#F5F5F5" stroke-width="3"/>
</svg>
