<svg width="56" height="56" viewBox="0 0 56 56" fill="none" xmlns="http://www.w3.org/2000/svg">
<path d="M18.2087 50.4438C18.3738 50.4438 18.5391 50.4406 18.7042 50.4344C21.0825 53.0032 24.4394 54.5 28 54.5C31.5636 54.5 34.9225 53.0106 37.2981 50.4344C37.4619 50.4406 37.626 50.4438 37.7913 50.4438C41.1705 50.4438 44.3512 49.1226 46.7376 46.7355C49.2532 44.2193 50.5769 40.7889 50.4376 37.2918C53.0116 34.916 54.5 31.5578 54.5 28C54.5 24.4402 53.0048 21.0827 50.4364 18.7082C50.5713 15.2136 49.2551 11.7825 46.7376 9.26447C44.3512 6.87741 41.1705 5.55625 37.7913 5.55625C37.6265 5.55625 37.4616 5.55935 37.2969 5.56558C34.9182 2.99067 31.5654 1.5 28 1.5C24.4363 1.5 21.0774 2.98943 18.7019 5.5656C18.5381 5.55937 18.3739 5.55625 18.2087 5.55625C14.8295 5.55625 11.6488 6.87741 9.26236 9.26447C6.74676 11.7807 5.42315 15.2111 5.56242 18.7082C2.9884 21.084 1.5 24.4422 1.5 28C1.5 31.5598 2.99518 34.9173 5.56357 37.2918C5.42868 40.7864 6.74492 44.2175 9.26236 46.7355C11.6488 49.1226 14.8295 50.4438 18.2087 50.4438Z" fill="#0C7F1C" stroke="#F2F0E4" stroke-width="3"/>
<path d="M39 28C39 34.0751 34.0751 39 28 39C21.9249 39 17 34.0751 17 28C17 21.9249 21.9249 17 28 17C34.0751 17 39 21.9249 39 28Z" fill="#FFCC33" stroke="#F2F0E4" stroke-width="2"/>
</svg>
