<?xml version="1.0" encoding="utf-8" standalone="no"?>
<!DOCTYPE svg PUBLIC "-//W3C//DTD SVG 1.1//EN"
  "http://www.w3.org/Graphics/SVG/1.1/DTD/svg11.dtd">
<svg xmlns:xlink="http://www.w3.org/1999/xlink" width="864pt" height="288pt" viewBox="0 0 864 288" xmlns="http://www.w3.org/2000/svg" version="1.1">
 <metadata>
  <rdf:RDF xmlns:dc="http://purl.org/dc/elements/1.1/" xmlns:cc="http://creativecommons.org/ns#" xmlns:rdf="http://www.w3.org/1999/02/22-rdf-syntax-ns#">
   <cc:Work>
    <dc:type rdf:resource="http://purl.org/dc/dcmitype/StillImage"/>
    <dc:date>2025-06-30T23:31:49.366484</dc:date>
    <dc:format>image/svg+xml</dc:format>
    <dc:creator>
     <cc:Agent>
      <dc:title>Matplotlib v3.6.3, https://matplotlib.org/</dc:title>
     </cc:Agent>
    </dc:creator>
   </cc:Work>
  </rdf:RDF>
 </metadata>
 <defs>
  <style type="text/css">*{stroke-linejoin: round; stroke-linecap: butt}</style>
 </defs>
 <g id="figure_1">
  <g id="patch_1">
   <path d="M 0 288 
L 864 288 
L 864 0 
L 0 0 
z
" style="fill: #ffffff"/>
  </g>
  <g id="axes_1">
   <g id="patch_2">
    <path d="M 51.7077 235.0512 
L 256.2462 235.0512 
Q 272.60928 235.0512 272.60928 230.368 
L 272.60928 89.872 
Q 272.60928 85.1888 256.2462 85.1888 
L 51.7077 85.1888 
Q 35.34462 85.1888 35.34462 89.872 
L 35.34462 230.368 
Q 35.34462 235.0512 51.7077 235.0512 
z
" clip-path="url(#p55b1ee1c2c)" style="fill: #f0f4f8; stroke: #000000; stroke-linejoin: miter"/>
   </g>
   <g id="patch_3">
    <path d="M 321.69852 235.0512 
L 526.23702 235.0512 
Q 542.6001 235.0512 542.6001 230.368 
L 542.6001 89.872 
Q 542.6001 85.1888 526.23702 85.1888 
L 321.69852 85.1888 
Q 305.33544 85.1888 305.33544 89.872 
L 305.33544 230.368 
Q 305.33544 235.0512 321.69852 235.0512 
z
" clip-path="url(#p55b1ee1c2c)" style="fill: #f0f4f8; stroke: #000000; stroke-linejoin: miter"/>
   </g>
   <g id="patch_4">
    <path d="M 591.68934 235.0512 
L 796.22784 235.0512 
Q 812.59092 235.0512 812.59092 230.368 
L 812.59092 89.872 
Q 812.59092 85.1888 796.22784 85.1888 
L 591.68934 85.1888 
Q 575.32626 85.1888 575.32626 89.872 
L 575.32626 230.368 
Q 575.32626 235.0512 591.68934 235.0512 
z
" clip-path="url(#p55b1ee1c2c)" style="fill: #f0f4f8; stroke: #000000; stroke-linejoin: miter"/>
   </g>
   <g id="text_1">
    <!-- Input -->
    <g style="fill: #333333" transform="translate(133.050231 122.084438) scale(0.14 -0.14)">
     <defs>
      <path id="DejaVuSans-Bold-49" d="M 588 4666 
L 1791 4666 
L 1791 0 
L 588 0 
L 588 4666 
z
" transform="scale(0.015625)"/>
      <path id="DejaVuSans-Bold-6e" d="M 4056 2131 
L 4056 0 
L 2931 0 
L 2931 347 
L 2931 1631 
Q 2931 2084 2911 2256 
Q 2891 2428 2841 2509 
Q 2775 2619 2662 2680 
Q 2550 2741 2406 2741 
Q 2056 2741 1856 2470 
Q 1656 2200 1656 1722 
L 1656 0 
L 538 0 
L 538 3500 
L 1656 3500 
L 1656 2988 
Q 1909 3294 2193 3439 
Q 2478 3584 2822 3584 
Q 3428 3584 3742 3212 
Q 4056 2841 4056 2131 
z
" transform="scale(0.015625)"/>
      <path id="DejaVuSans-Bold-70" d="M 1656 506 
L 1656 -1331 
L 538 -1331 
L 538 3500 
L 1656 3500 
L 1656 2988 
Q 1888 3294 2169 3439 
Q 2450 3584 2816 3584 
Q 3463 3584 3878 3070 
Q 4294 2556 4294 1747 
Q 4294 938 3878 423 
Q 3463 -91 2816 -91 
Q 2450 -91 2169 54 
Q 1888 200 1656 506 
z
M 2400 2772 
Q 2041 2772 1848 2508 
Q 1656 2244 1656 1747 
Q 1656 1250 1848 986 
Q 2041 722 2400 722 
Q 2759 722 2948 984 
Q 3138 1247 3138 1747 
Q 3138 2247 2948 2509 
Q 2759 2772 2400 2772 
z
" transform="scale(0.015625)"/>
      <path id="DejaVuSans-Bold-75" d="M 500 1363 
L 500 3500 
L 1625 3500 
L 1625 3150 
Q 1625 2866 1622 2436 
Q 1619 2006 1619 1863 
Q 1619 1441 1641 1255 
Q 1663 1069 1716 984 
Q 1784 875 1895 815 
Q 2006 756 2150 756 
Q 2500 756 2700 1025 
Q 2900 1294 2900 1772 
L 2900 3500 
L 4019 3500 
L 4019 0 
L 2900 0 
L 2900 506 
Q 2647 200 2364 54 
Q 2081 -91 1741 -91 
Q 1134 -91 817 281 
Q 500 653 500 1363 
z
" transform="scale(0.015625)"/>
      <path id="DejaVuSans-Bold-74" d="M 1759 4494 
L 1759 3500 
L 2913 3500 
L 2913 2700 
L 1759 2700 
L 1759 1216 
Q 1759 972 1856 886 
Q 1953 800 2241 800 
L 2816 800 
L 2816 0 
L 1856 0 
Q 1194 0 917 276 
Q 641 553 641 1216 
L 641 2700 
L 84 2700 
L 84 3500 
L 641 3500 
L 641 4494 
L 1759 4494 
z
" transform="scale(0.015625)"/>
     </defs>
     <use xlink:href="#DejaVuSans-Bold-49"/>
     <use xlink:href="#DejaVuSans-Bold-6e" x="37.207031"/>
     <use xlink:href="#DejaVuSans-Bold-70" x="108.398438"/>
     <use xlink:href="#DejaVuSans-Bold-75" x="179.980469"/>
     <use xlink:href="#DejaVuSans-Bold-74" x="251.171875"/>
    </g>
   </g>
   <g id="text_2">
    <!-- Protocol schema or visit schedule -->
    <g style="fill: #333333" transform="translate(70.115231 156.010437) scale(0.1 -0.1)">
     <defs>
      <path id="DejaVuSans-50" d="M 1259 4147 
L 1259 2394 
L 2053 2394 
Q 2494 2394 2734 2622 
Q 2975 2850 2975 3272 
Q 2975 3691 2734 3919 
Q 2494 4147 2053 4147 
L 1259 4147 
z
M 628 4666 
L 2053 4666 
Q 2838 4666 3239 4311 
Q 3641 3956 3641 3272 
Q 3641 2581 3239 2228 
Q 2838 1875 2053 1875 
L 1259 1875 
L 1259 0 
L 628 0 
L 628 4666 
z
" transform="scale(0.015625)"/>
      <path id="DejaVuSans-72" d="M 2631 2963 
Q 2534 3019 2420 3045 
Q 2306 3072 2169 3072 
Q 1681 3072 1420 2755 
Q 1159 2438 1159 1844 
L 1159 0 
L 581 0 
L 581 3500 
L 1159 3500 
L 1159 2956 
Q 1341 3275 1631 3429 
Q 1922 3584 2338 3584 
Q 2397 3584 2469 3576 
Q 2541 3569 2628 3553 
L 2631 2963 
z
" transform="scale(0.015625)"/>
      <path id="DejaVuSans-6f" d="M 1959 3097 
Q 1497 3097 1228 2736 
Q 959 2375 959 1747 
Q 959 1119 1226 758 
Q 1494 397 1959 397 
Q 2419 397 2687 759 
Q 2956 1122 2956 1747 
Q 2956 2369 2687 2733 
Q 2419 3097 1959 3097 
z
M 1959 3584 
Q 2709 3584 3137 3096 
Q 3566 2609 3566 1747 
Q 3566 888 3137 398 
Q 2709 -91 1959 -91 
Q 1206 -91 779 398 
Q 353 888 353 1747 
Q 353 2609 779 3096 
Q 1206 3584 1959 3584 
z
" transform="scale(0.015625)"/>
      <path id="DejaVuSans-74" d="M 1172 4494 
L 1172 3500 
L 2356 3500 
L 2356 3053 
L 1172 3053 
L 1172 1153 
Q 1172 725 1289 603 
Q 1406 481 1766 481 
L 2356 481 
L 2356 0 
L 1766 0 
Q 1100 0 847 248 
Q 594 497 594 1153 
L 594 3053 
L 172 3053 
L 172 3500 
L 594 3500 
L 594 4494 
L 1172 4494 
z
" transform="scale(0.015625)"/>
      <path id="DejaVuSans-63" d="M 3122 3366 
L 3122 2828 
Q 2878 2963 2633 3030 
Q 2388 3097 2138 3097 
Q 1578 3097 1268 2742 
Q 959 2388 959 1747 
Q 959 1106 1268 751 
Q 1578 397 2138 397 
Q 2388 397 2633 464 
Q 2878 531 3122 666 
L 3122 134 
Q 2881 22 2623 -34 
Q 2366 -91 2075 -91 
Q 1284 -91 818 406 
Q 353 903 353 1747 
Q 353 2603 823 3093 
Q 1294 3584 2113 3584 
Q 2378 3584 2631 3529 
Q 2884 3475 3122 3366 
z
" transform="scale(0.015625)"/>
      <path id="DejaVuSans-6c" d="M 603 4863 
L 1178 4863 
L 1178 0 
L 603 0 
L 603 4863 
z
" transform="scale(0.015625)"/>
      <path id="DejaVuSans-20" transform="scale(0.015625)"/>
      <path id="DejaVuSans-73" d="M 2834 3397 
L 2834 2853 
Q 2591 2978 2328 3040 
Q 2066 3103 1784 3103 
Q 1356 3103 1142 2972 
Q 928 2841 928 2578 
Q 928 2378 1081 2264 
Q 1234 2150 1697 2047 
L 1894 2003 
Q 2506 1872 2764 1633 
Q 3022 1394 3022 966 
Q 3022 478 2636 193 
Q 2250 -91 1575 -91 
Q 1294 -91 989 -36 
Q 684 19 347 128 
L 347 722 
Q 666 556 975 473 
Q 1284 391 1588 391 
Q 1994 391 2212 530 
Q 2431 669 2431 922 
Q 2431 1156 2273 1281 
Q 2116 1406 1581 1522 
L 1381 1569 
Q 847 1681 609 1914 
Q 372 2147 372 2553 
Q 372 3047 722 3315 
Q 1072 3584 1716 3584 
Q 2034 3584 2315 3537 
Q 2597 3491 2834 3397 
z
" transform="scale(0.015625)"/>
      <path id="DejaVuSans-68" d="M 3513 2113 
L 3513 0 
L 2938 0 
L 2938 2094 
Q 2938 2591 2744 2837 
Q 2550 3084 2163 3084 
Q 1697 3084 1428 2787 
Q 1159 2491 1159 1978 
L 1159 0 
L 581 0 
L 581 4863 
L 1159 4863 
L 1159 2956 
Q 1366 3272 1645 3428 
Q 1925 3584 2291 3584 
Q 2894 3584 3203 3211 
Q 3513 2838 3513 2113 
z
" transform="scale(0.015625)"/>
      <path id="DejaVuSans-65" d="M 3597 1894 
L 3597 1613 
L 953 1613 
Q 991 1019 1311 708 
Q 1631 397 2203 397 
Q 2534 397 2845 478 
Q 3156 559 3463 722 
L 3463 178 
Q 3153 47 2828 -22 
Q 2503 -91 2169 -91 
Q 1331 -91 842 396 
Q 353 884 353 1716 
Q 353 2575 817 3079 
Q 1281 3584 2069 3584 
Q 2775 3584 3186 3129 
Q 3597 2675 3597 1894 
z
M 3022 2063 
Q 3016 2534 2758 2815 
Q 2500 3097 2075 3097 
Q 1594 3097 1305 2825 
Q 1016 2553 972 2059 
L 3022 2063 
z
" transform="scale(0.015625)"/>
      <path id="DejaVuSans-6d" d="M 3328 2828 
Q 3544 3216 3844 3400 
Q 4144 3584 4550 3584 
Q 5097 3584 5394 3201 
Q 5691 2819 5691 2113 
L 5691 0 
L 5113 0 
L 5113 2094 
Q 5113 2597 4934 2840 
Q 4756 3084 4391 3084 
Q 3944 3084 3684 2787 
Q 3425 2491 3425 1978 
L 3425 0 
L 2847 0 
L 2847 2094 
Q 2847 2600 2669 2842 
Q 2491 3084 2119 3084 
Q 1678 3084 1418 2786 
Q 1159 2488 1159 1978 
L 1159 0 
L 581 0 
L 581 3500 
L 1159 3500 
L 1159 2956 
Q 1356 3278 1631 3431 
Q 1906 3584 2284 3584 
Q 2666 3584 2933 3390 
Q 3200 3197 3328 2828 
z
" transform="scale(0.015625)"/>
      <path id="DejaVuSans-61" d="M 2194 1759 
Q 1497 1759 1228 1600 
Q 959 1441 959 1056 
Q 959 750 1161 570 
Q 1363 391 1709 391 
Q 2188 391 2477 730 
Q 2766 1069 2766 1631 
L 2766 1759 
L 2194 1759 
z
M 3341 1997 
L 3341 0 
L 2766 0 
L 2766 531 
Q 2569 213 2275 61 
Q 1981 -91 1556 -91 
Q 1019 -91 701 211 
Q 384 513 384 1019 
Q 384 1609 779 1909 
Q 1175 2209 1959 2209 
L 2766 2209 
L 2766 2266 
Q 2766 2663 2505 2880 
Q 2244 3097 1772 3097 
Q 1472 3097 1187 3025 
Q 903 2953 641 2809 
L 641 3341 
Q 956 3463 1253 3523 
Q 1550 3584 1831 3584 
Q 2591 3584 2966 3190 
Q 3341 2797 3341 1997 
z
" transform="scale(0.015625)"/>
      <path id="DejaVuSans-76" d="M 191 3500 
L 800 3500 
L 1894 563 
L 2988 3500 
L 3597 3500 
L 2284 0 
L 1503 0 
L 191 3500 
z
" transform="scale(0.015625)"/>
      <path id="DejaVuSans-69" d="M 603 3500 
L 1178 3500 
L 1178 0 
L 603 0 
L 603 3500 
z
M 603 4863 
L 1178 4863 
L 1178 4134 
L 603 4134 
L 603 4863 
z
" transform="scale(0.015625)"/>
      <path id="DejaVuSans-64" d="M 2906 2969 
L 2906 4863 
L 3481 4863 
L 3481 0 
L 2906 0 
L 2906 525 
Q 2725 213 2448 61 
Q 2172 -91 1784 -91 
Q 1150 -91 751 415 
Q 353 922 353 1747 
Q 353 2572 751 3078 
Q 1150 3584 1784 3584 
Q 2172 3584 2448 3432 
Q 2725 3281 2906 2969 
z
M 947 1747 
Q 947 1113 1208 752 
Q 1469 391 1925 391 
Q 2381 391 2643 752 
Q 2906 1113 2906 1747 
Q 2906 2381 2643 2742 
Q 2381 3103 1925 3103 
Q 1469 3103 1208 2742 
Q 947 2381 947 1747 
z
" transform="scale(0.015625)"/>
      <path id="DejaVuSans-75" d="M 544 1381 
L 544 3500 
L 1119 3500 
L 1119 1403 
Q 1119 906 1312 657 
Q 1506 409 1894 409 
Q 2359 409 2629 706 
Q 2900 1003 2900 1516 
L 2900 3500 
L 3475 3500 
L 3475 0 
L 2900 0 
L 2900 538 
Q 2691 219 2414 64 
Q 2138 -91 1772 -91 
Q 1169 -91 856 284 
Q 544 659 544 1381 
z
M 1991 3584 
L 1991 3584 
z
" transform="scale(0.015625)"/>
     </defs>
     <use xlink:href="#DejaVuSans-50"/>
     <use xlink:href="#DejaVuSans-72" x="58.552734"/>
     <use xlink:href="#DejaVuSans-6f" x="97.416016"/>
     <use xlink:href="#DejaVuSans-74" x="158.597656"/>
     <use xlink:href="#DejaVuSans-6f" x="197.806641"/>
     <use xlink:href="#DejaVuSans-63" x="258.988281"/>
     <use xlink:href="#DejaVuSans-6f" x="313.96875"/>
     <use xlink:href="#DejaVuSans-6c" x="375.150391"/>
     <use xlink:href="#DejaVuSans-20" x="402.933594"/>
     <use xlink:href="#DejaVuSans-73" x="434.720703"/>
     <use xlink:href="#DejaVuSans-63" x="486.820312"/>
     <use xlink:href="#DejaVuSans-68" x="541.800781"/>
     <use xlink:href="#DejaVuSans-65" x="605.179688"/>
     <use xlink:href="#DejaVuSans-6d" x="666.703125"/>
     <use xlink:href="#DejaVuSans-61" x="764.115234"/>
     <use xlink:href="#DejaVuSans-20" x="825.394531"/>
     <use xlink:href="#DejaVuSans-6f" x="857.181641"/>
     <use xlink:href="#DejaVuSans-72" x="918.363281"/>
     <use xlink:href="#DejaVuSans-20" x="959.476562"/>
     <use xlink:href="#DejaVuSans-76" x="991.263672"/>
     <use xlink:href="#DejaVuSans-69" x="1050.443359"/>
     <use xlink:href="#DejaVuSans-73" x="1078.226562"/>
     <use xlink:href="#DejaVuSans-69" x="1130.326172"/>
     <use xlink:href="#DejaVuSans-74" x="1158.109375"/>
     <use xlink:href="#DejaVuSans-20" x="1197.318359"/>
     <use xlink:href="#DejaVuSans-73" x="1229.105469"/>
     <use xlink:href="#DejaVuSans-63" x="1281.205078"/>
     <use xlink:href="#DejaVuSans-68" x="1336.185547"/>
     <use xlink:href="#DejaVuSans-65" x="1399.564453"/>
     <use xlink:href="#DejaVuSans-64" x="1461.087891"/>
     <use xlink:href="#DejaVuSans-75" x="1524.564453"/>
     <use xlink:href="#DejaVuSans-6c" x="1587.943359"/>
     <use xlink:href="#DejaVuSans-65" x="1615.726562"/>
    </g>
   </g>
   <g id="text_3">
    <!-- Overlay -->
    <g style="fill: #333333" transform="translate(393.785739 121.975063) scale(0.14 -0.14)">
     <defs>
      <path id="DejaVuSans-Bold-4f" d="M 2719 3878 
Q 2169 3878 1866 3472 
Q 1563 3066 1563 2328 
Q 1563 1594 1866 1187 
Q 2169 781 2719 781 
Q 3272 781 3575 1187 
Q 3878 1594 3878 2328 
Q 3878 3066 3575 3472 
Q 3272 3878 2719 3878 
z
M 2719 4750 
Q 3844 4750 4481 4106 
Q 5119 3463 5119 2328 
Q 5119 1197 4481 553 
Q 3844 -91 2719 -91 
Q 1597 -91 958 553 
Q 319 1197 319 2328 
Q 319 3463 958 4106 
Q 1597 4750 2719 4750 
z
" transform="scale(0.015625)"/>
      <path id="DejaVuSans-Bold-76" d="M 97 3500 
L 1216 3500 
L 2088 1081 
L 2956 3500 
L 4078 3500 
L 2700 0 
L 1472 0 
L 97 3500 
z
" transform="scale(0.015625)"/>
      <path id="DejaVuSans-Bold-65" d="M 4031 1759 
L 4031 1441 
L 1416 1441 
Q 1456 1047 1700 850 
Q 1944 653 2381 653 
Q 2734 653 3104 758 
Q 3475 863 3866 1075 
L 3866 213 
Q 3469 63 3072 -14 
Q 2675 -91 2278 -91 
Q 1328 -91 801 392 
Q 275 875 275 1747 
Q 275 2603 792 3093 
Q 1309 3584 2216 3584 
Q 3041 3584 3536 3087 
Q 4031 2591 4031 1759 
z
M 2881 2131 
Q 2881 2450 2695 2645 
Q 2509 2841 2209 2841 
Q 1884 2841 1681 2658 
Q 1478 2475 1428 2131 
L 2881 2131 
z
" transform="scale(0.015625)"/>
      <path id="DejaVuSans-Bold-72" d="M 3138 2547 
Q 2991 2616 2845 2648 
Q 2700 2681 2553 2681 
Q 2122 2681 1889 2404 
Q 1656 2128 1656 1613 
L 1656 0 
L 538 0 
L 538 3500 
L 1656 3500 
L 1656 2925 
Q 1872 3269 2151 3426 
Q 2431 3584 2822 3584 
Q 2878 3584 2943 3579 
Q 3009 3575 3134 3559 
L 3138 2547 
z
" transform="scale(0.015625)"/>
      <path id="DejaVuSans-Bold-6c" d="M 538 4863 
L 1656 4863 
L 1656 0 
L 538 0 
L 538 4863 
z
" transform="scale(0.015625)"/>
      <path id="DejaVuSans-Bold-61" d="M 2106 1575 
Q 1756 1575 1579 1456 
Q 1403 1338 1403 1106 
Q 1403 894 1545 773 
Q 1688 653 1941 653 
Q 2256 653 2472 879 
Q 2688 1106 2688 1447 
L 2688 1575 
L 2106 1575 
z
M 3816 1997 
L 3816 0 
L 2688 0 
L 2688 519 
Q 2463 200 2181 54 
Q 1900 -91 1497 -91 
Q 953 -91 614 226 
Q 275 544 275 1050 
Q 275 1666 698 1953 
Q 1122 2241 2028 2241 
L 2688 2241 
L 2688 2328 
Q 2688 2594 2478 2717 
Q 2269 2841 1825 2841 
Q 1466 2841 1156 2769 
Q 847 2697 581 2553 
L 581 3406 
Q 941 3494 1303 3539 
Q 1666 3584 2028 3584 
Q 2975 3584 3395 3211 
Q 3816 2838 3816 1997 
z
" transform="scale(0.015625)"/>
      <path id="DejaVuSans-Bold-79" d="M 78 3500 
L 1197 3500 
L 2138 1125 
L 2938 3500 
L 4056 3500 
L 2584 -331 
Q 2363 -916 2067 -1148 
Q 1772 -1381 1288 -1381 
L 641 -1381 
L 641 -647 
L 991 -647 
Q 1275 -647 1404 -556 
Q 1534 -466 1606 -231 
L 1638 -134 
L 78 3500 
z
" transform="scale(0.015625)"/>
     </defs>
     <use xlink:href="#DejaVuSans-Bold-4f"/>
     <use xlink:href="#DejaVuSans-Bold-76" x="85.009766"/>
     <use xlink:href="#DejaVuSans-Bold-65" x="150.195312"/>
     <use xlink:href="#DejaVuSans-Bold-72" x="218.017578"/>
     <use xlink:href="#DejaVuSans-Bold-6c" x="267.333984"/>
     <use xlink:href="#DejaVuSans-Bold-61" x="301.611328"/>
     <use xlink:href="#DejaVuSans-Bold-79" x="365.966797"/>
    </g>
   </g>
   <g id="text_4">
    <!-- Patient archetypes + burden weights (travel, time, cognitive load) -->
    <g style="fill: #333333" transform="translate(258.194333 156.010437) scale(0.1 -0.1)">
     <defs>
      <path id="DejaVuSans-6e" d="M 3513 2113 
L 3513 0 
L 2938 0 
L 2938 2094 
Q 2938 2591 2744 2837 
Q 2550 3084 2163 3084 
Q 1697 3084 1428 2787 
Q 1159 2491 1159 1978 
L 1159 0 
L 581 0 
L 581 3500 
L 1159 3500 
L 1159 2956 
Q 1366 3272 1645 3428 
Q 1925 3584 2291 3584 
Q 2894 3584 3203 3211 
Q 3513 2838 3513 2113 
z
" transform="scale(0.015625)"/>
      <path id="DejaVuSans-79" d="M 2059 -325 
Q 1816 -950 1584 -1140 
Q 1353 -1331 966 -1331 
L 506 -1331 
L 506 -850 
L 844 -850 
Q 1081 -850 1212 -737 
Q 1344 -625 1503 -206 
L 1606 56 
L 191 3500 
L 800 3500 
L 1894 763 
L 2988 3500 
L 3597 3500 
L 2059 -325 
z
" transform="scale(0.015625)"/>
      <path id="DejaVuSans-70" d="M 1159 525 
L 1159 -1331 
L 581 -1331 
L 581 3500 
L 1159 3500 
L 1159 2969 
Q 1341 3281 1617 3432 
Q 1894 3584 2278 3584 
Q 2916 3584 3314 3078 
Q 3713 2572 3713 1747 
Q 3713 922 3314 415 
Q 2916 -91 2278 -91 
Q 1894 -91 1617 61 
Q 1341 213 1159 525 
z
M 3116 1747 
Q 3116 2381 2855 2742 
Q 2594 3103 2138 3103 
Q 1681 3103 1420 2742 
Q 1159 2381 1159 1747 
Q 1159 1113 1420 752 
Q 1681 391 2138 391 
Q 2594 391 2855 752 
Q 3116 1113 3116 1747 
z
" transform="scale(0.015625)"/>
      <path id="DejaVuSans-2b" d="M 2944 4013 
L 2944 2272 
L 4684 2272 
L 4684 1741 
L 2944 1741 
L 2944 0 
L 2419 0 
L 2419 1741 
L 678 1741 
L 678 2272 
L 2419 2272 
L 2419 4013 
L 2944 4013 
z
" transform="scale(0.015625)"/>
      <path id="DejaVuSans-62" d="M 3116 1747 
Q 3116 2381 2855 2742 
Q 2594 3103 2138 3103 
Q 1681 3103 1420 2742 
Q 1159 2381 1159 1747 
Q 1159 1113 1420 752 
Q 1681 391 2138 391 
Q 2594 391 2855 752 
Q 3116 1113 3116 1747 
z
M 1159 2969 
Q 1341 3281 1617 3432 
Q 1894 3584 2278 3584 
Q 2916 3584 3314 3078 
Q 3713 2572 3713 1747 
Q 3713 922 3314 415 
Q 2916 -91 2278 -91 
Q 1894 -91 1617 61 
Q 1341 213 1159 525 
L 1159 0 
L 581 0 
L 581 4863 
L 1159 4863 
L 1159 2969 
z
" transform="scale(0.015625)"/>
      <path id="DejaVuSans-77" d="M 269 3500 
L 844 3500 
L 1563 769 
L 2278 3500 
L 2956 3500 
L 3675 769 
L 4391 3500 
L 4966 3500 
L 4050 0 
L 3372 0 
L 2619 2869 
L 1863 0 
L 1184 0 
L 269 3500 
z
" transform="scale(0.015625)"/>
      <path id="DejaVuSans-67" d="M 2906 1791 
Q 2906 2416 2648 2759 
Q 2391 3103 1925 3103 
Q 1463 3103 1205 2759 
Q 947 2416 947 1791 
Q 947 1169 1205 825 
Q 1463 481 1925 481 
Q 2391 481 2648 825 
Q 2906 1169 2906 1791 
z
M 3481 434 
Q 3481 -459 3084 -895 
Q 2688 -1331 1869 -1331 
Q 1566 -1331 1297 -1286 
Q 1028 -1241 775 -1147 
L 775 -588 
Q 1028 -725 1275 -790 
Q 1522 -856 1778 -856 
Q 2344 -856 2625 -561 
Q 2906 -266 2906 331 
L 2906 616 
Q 2728 306 2450 153 
Q 2172 0 1784 0 
Q 1141 0 747 490 
Q 353 981 353 1791 
Q 353 2603 747 3093 
Q 1141 3584 1784 3584 
Q 2172 3584 2450 3431 
Q 2728 3278 2906 2969 
L 2906 3500 
L 3481 3500 
L 3481 434 
z
" transform="scale(0.015625)"/>
      <path id="DejaVuSans-28" d="M 1984 4856 
Q 1566 4138 1362 3434 
Q 1159 2731 1159 2009 
Q 1159 1288 1364 580 
Q 1569 -128 1984 -844 
L 1484 -844 
Q 1016 -109 783 600 
Q 550 1309 550 2009 
Q 550 2706 781 3412 
Q 1013 4119 1484 4856 
L 1984 4856 
z
" transform="scale(0.015625)"/>
      <path id="DejaVuSans-2c" d="M 750 794 
L 1409 794 
L 1409 256 
L 897 -744 
L 494 -744 
L 750 256 
L 750 794 
z
" transform="scale(0.015625)"/>
      <path id="DejaVuSans-29" d="M 513 4856 
L 1013 4856 
Q 1481 4119 1714 3412 
Q 1947 2706 1947 2009 
Q 1947 1309 1714 600 
Q 1481 -109 1013 -844 
L 513 -844 
Q 928 -128 1133 580 
Q 1338 1288 1338 2009 
Q 1338 2731 1133 3434 
Q 928 4138 513 4856 
z
" transform="scale(0.015625)"/>
     </defs>
     <use xlink:href="#DejaVuSans-50"/>
     <use xlink:href="#DejaVuSans-61" x="55.802734"/>
     <use xlink:href="#DejaVuSans-74" x="117.082031"/>
     <use xlink:href="#DejaVuSans-69" x="156.291016"/>
     <use xlink:href="#DejaVuSans-65" x="184.074219"/>
     <use xlink:href="#DejaVuSans-6e" x="245.597656"/>
     <use xlink:href="#DejaVuSans-74" x="308.976562"/>
     <use xlink:href="#DejaVuSans-20" x="348.185547"/>
     <use xlink:href="#DejaVuSans-61" x="379.972656"/>
     <use xlink:href="#DejaVuSans-72" x="441.251953"/>
     <use xlink:href="#DejaVuSans-63" x="480.115234"/>
     <use xlink:href="#DejaVuSans-68" x="535.095703"/>
     <use xlink:href="#DejaVuSans-65" x="598.474609"/>
     <use xlink:href="#DejaVuSans-74" x="659.998047"/>
     <use xlink:href="#DejaVuSans-79" x="699.207031"/>
     <use xlink:href="#DejaVuSans-70" x="758.386719"/>
     <use xlink:href="#DejaVuSans-65" x="821.863281"/>
     <use xlink:href="#DejaVuSans-73" x="883.386719"/>
     <use xlink:href="#DejaVuSans-20" x="935.486328"/>
     <use xlink:href="#DejaVuSans-2b" x="967.273438"/>
     <use xlink:href="#DejaVuSans-20" x="1051.0625"/>
     <use xlink:href="#DejaVuSans-62" x="1082.849609"/>
     <use xlink:href="#DejaVuSans-75" x="1146.326172"/>
     <use xlink:href="#DejaVuSans-72" x="1209.705078"/>
     <use xlink:href="#DejaVuSans-64" x="1249.068359"/>
     <use xlink:href="#DejaVuSans-65" x="1312.544922"/>
     <use xlink:href="#DejaVuSans-6e" x="1374.068359"/>
     <use xlink:href="#DejaVuSans-20" x="1437.447266"/>
     <use xlink:href="#DejaVuSans-77" x="1469.234375"/>
     <use xlink:href="#DejaVuSans-65" x="1551.021484"/>
     <use xlink:href="#DejaVuSans-69" x="1612.544922"/>
     <use xlink:href="#DejaVuSans-67" x="1640.328125"/>
     <use xlink:href="#DejaVuSans-68" x="1703.804688"/>
     <use xlink:href="#DejaVuSans-74" x="1767.183594"/>
     <use xlink:href="#DejaVuSans-73" x="1806.392578"/>
     <use xlink:href="#DejaVuSans-20" x="1858.492188"/>
     <use xlink:href="#DejaVuSans-28" x="1890.279297"/>
     <use xlink:href="#DejaVuSans-74" x="1929.292969"/>
     <use xlink:href="#DejaVuSans-72" x="1968.501953"/>
     <use xlink:href="#DejaVuSans-61" x="2009.615234"/>
     <use xlink:href="#DejaVuSans-76" x="2070.894531"/>
     <use xlink:href="#DejaVuSans-65" x="2130.074219"/>
     <use xlink:href="#DejaVuSans-6c" x="2191.597656"/>
     <use xlink:href="#DejaVuSans-2c" x="2219.380859"/>
     <use xlink:href="#DejaVuSans-20" x="2251.167969"/>
     <use xlink:href="#DejaVuSans-74" x="2282.955078"/>
     <use xlink:href="#DejaVuSans-69" x="2322.164062"/>
     <use xlink:href="#DejaVuSans-6d" x="2349.947266"/>
     <use xlink:href="#DejaVuSans-65" x="2447.359375"/>
     <use xlink:href="#DejaVuSans-2c" x="2508.882812"/>
     <use xlink:href="#DejaVuSans-20" x="2540.669922"/>
     <use xlink:href="#DejaVuSans-63" x="2572.457031"/>
     <use xlink:href="#DejaVuSans-6f" x="2627.4375"/>
     <use xlink:href="#DejaVuSans-67" x="2688.619141"/>
     <use xlink:href="#DejaVuSans-6e" x="2752.095703"/>
     <use xlink:href="#DejaVuSans-69" x="2815.474609"/>
     <use xlink:href="#DejaVuSans-74" x="2843.257812"/>
     <use xlink:href="#DejaVuSans-69" x="2882.466797"/>
     <use xlink:href="#DejaVuSans-76" x="2910.25"/>
     <use xlink:href="#DejaVuSans-65" x="2969.429688"/>
     <use xlink:href="#DejaVuSans-20" x="3030.953125"/>
     <use xlink:href="#DejaVuSans-6c" x="3062.740234"/>
     <use xlink:href="#DejaVuSans-6f" x="3090.523438"/>
     <use xlink:href="#DejaVuSans-61" x="3151.705078"/>
     <use xlink:href="#DejaVuSans-64" x="3212.984375"/>
     <use xlink:href="#DejaVuSans-29" x="3276.460938"/>
    </g>
   </g>
   <g id="text_5">
    <!-- Output -->
    <g style="fill: #333333" transform="translate(666.339215 122.084438) scale(0.14 -0.14)">
     <use xlink:href="#DejaVuSans-Bold-4f"/>
     <use xlink:href="#DejaVuSans-Bold-75" x="85.009766"/>
     <use xlink:href="#DejaVuSans-Bold-74" x="156.201172"/>
     <use xlink:href="#DejaVuSans-Bold-70" x="204.003906"/>
     <use xlink:href="#DejaVuSans-Bold-75" x="275.585938"/>
     <use xlink:href="#DejaVuSans-Bold-74" x="346.777344"/>
    </g>
   </g>
   <g id="text_6">
    <!-- Burden heatmaps, patient journey view, friction score -->
    <g style="fill: #333333" transform="translate(559.215621 156.010437) scale(0.1 -0.1)">
     <defs>
      <path id="DejaVuSans-42" d="M 1259 2228 
L 1259 519 
L 2272 519 
Q 2781 519 3026 730 
Q 3272 941 3272 1375 
Q 3272 1813 3026 2020 
Q 2781 2228 2272 2228 
L 1259 2228 
z
M 1259 4147 
L 1259 2741 
L 2194 2741 
Q 2656 2741 2882 2914 
Q 3109 3088 3109 3444 
Q 3109 3797 2882 3972 
Q 2656 4147 2194 4147 
L 1259 4147 
z
M 628 4666 
L 2241 4666 
Q 2963 4666 3353 4366 
Q 3744 4066 3744 3513 
Q 3744 3084 3544 2831 
Q 3344 2578 2956 2516 
Q 3422 2416 3680 2098 
Q 3938 1781 3938 1306 
Q 3938 681 3513 340 
Q 3088 0 2303 0 
L 628 0 
L 628 4666 
z
" transform="scale(0.015625)"/>
      <path id="DejaVuSans-6a" d="M 603 3500 
L 1178 3500 
L 1178 -63 
Q 1178 -731 923 -1031 
Q 669 -1331 103 -1331 
L -116 -1331 
L -116 -844 
L 38 -844 
Q 366 -844 484 -692 
Q 603 -541 603 -63 
L 603 3500 
z
M 603 4863 
L 1178 4863 
L 1178 4134 
L 603 4134 
L 603 4863 
z
" transform="scale(0.015625)"/>
      <path id="DejaVuSans-66" d="M 2375 4863 
L 2375 4384 
L 1825 4384 
Q 1516 4384 1395 4259 
Q 1275 4134 1275 3809 
L 1275 3500 
L 2222 3500 
L 2222 3053 
L 1275 3053 
L 1275 0 
L 697 0 
L 697 3053 
L 147 3053 
L 147 3500 
L 697 3500 
L 697 3744 
Q 697 4328 969 4595 
Q 1241 4863 1831 4863 
L 2375 4863 
z
" transform="scale(0.015625)"/>
     </defs>
     <use xlink:href="#DejaVuSans-42"/>
     <use xlink:href="#DejaVuSans-75" x="68.603516"/>
     <use xlink:href="#DejaVuSans-72" x="131.982422"/>
     <use xlink:href="#DejaVuSans-64" x="171.345703"/>
     <use xlink:href="#DejaVuSans-65" x="234.822266"/>
     <use xlink:href="#DejaVuSans-6e" x="296.345703"/>
     <use xlink:href="#DejaVuSans-20" x="359.724609"/>
     <use xlink:href="#DejaVuSans-68" x="391.511719"/>
     <use xlink:href="#DejaVuSans-65" x="454.890625"/>
     <use xlink:href="#DejaVuSans-61" x="516.414062"/>
     <use xlink:href="#DejaVuSans-74" x="577.693359"/>
     <use xlink:href="#DejaVuSans-6d" x="616.902344"/>
     <use xlink:href="#DejaVuSans-61" x="714.314453"/>
     <use xlink:href="#DejaVuSans-70" x="775.59375"/>
     <use xlink:href="#DejaVuSans-73" x="839.070312"/>
     <use xlink:href="#DejaVuSans-2c" x="891.169922"/>
     <use xlink:href="#DejaVuSans-20" x="922.957031"/>
     <use xlink:href="#DejaVuSans-70" x="954.744141"/>
     <use xlink:href="#DejaVuSans-61" x="1018.220703"/>
     <use xlink:href="#DejaVuSans-74" x="1079.5"/>
     <use xlink:href="#DejaVuSans-69" x="1118.708984"/>
     <use xlink:href="#DejaVuSans-65" x="1146.492188"/>
     <use xlink:href="#DejaVuSans-6e" x="1208.015625"/>
     <use xlink:href="#DejaVuSans-74" x="1271.394531"/>
     <use xlink:href="#DejaVuSans-20" x="1310.603516"/>
     <use xlink:href="#DejaVuSans-6a" x="1342.390625"/>
     <use xlink:href="#DejaVuSans-6f" x="1370.173828"/>
     <use xlink:href="#DejaVuSans-75" x="1431.355469"/>
     <use xlink:href="#DejaVuSans-72" x="1494.734375"/>
     <use xlink:href="#DejaVuSans-6e" x="1534.097656"/>
     <use xlink:href="#DejaVuSans-65" x="1597.476562"/>
     <use xlink:href="#DejaVuSans-79" x="1659"/>
     <use xlink:href="#DejaVuSans-20" x="1718.179688"/>
     <use xlink:href="#DejaVuSans-76" x="1749.966797"/>
     <use xlink:href="#DejaVuSans-69" x="1809.146484"/>
     <use xlink:href="#DejaVuSans-65" x="1836.929688"/>
     <use xlink:href="#DejaVuSans-77" x="1898.453125"/>
     <use xlink:href="#DejaVuSans-2c" x="1980.240234"/>
     <use xlink:href="#DejaVuSans-20" x="2012.027344"/>
     <use xlink:href="#DejaVuSans-66" x="2043.814453"/>
     <use xlink:href="#DejaVuSans-72" x="2079.019531"/>
     <use xlink:href="#DejaVuSans-69" x="2120.132812"/>
     <use xlink:href="#DejaVuSans-63" x="2147.916016"/>
     <use xlink:href="#DejaVuSans-74" x="2202.896484"/>
     <use xlink:href="#DejaVuSans-69" x="2242.105469"/>
     <use xlink:href="#DejaVuSans-6f" x="2269.888672"/>
     <use xlink:href="#DejaVuSans-6e" x="2331.070312"/>
     <use xlink:href="#DejaVuSans-20" x="2394.449219"/>
     <use xlink:href="#DejaVuSans-73" x="2426.236328"/>
     <use xlink:href="#DejaVuSans-63" x="2478.335938"/>
     <use xlink:href="#DejaVuSans-6f" x="2533.316406"/>
     <use xlink:href="#DejaVuSans-72" x="2594.498047"/>
     <use xlink:href="#DejaVuSans-65" x="2633.361328"/>
    </g>
   </g>
   <g id="patch_5">
    <path d="M 258.247641 160.12 
Q 288.971979 160.12 317.460248 160.12 
" style="fill: none; stroke: #000000; stroke-width: 2; stroke-linecap: round"/>
    <path d="M 313.460248 158.12 
L 317.460248 160.12 
L 313.460248 162.12 
" style="fill: none; stroke: #000000; stroke-width: 2; stroke-linecap: round"/>
   </g>
   <g id="patch_6">
    <path d="M 528.238461 160.12 
Q 558.962799 160.12 587.451068 160.12 
" style="fill: none; stroke: #000000; stroke-width: 2; stroke-linecap: round"/>
    <path d="M 583.451068 158.12 
L 587.451068 160.12 
L 583.451068 162.12 
" style="fill: none; stroke: #000000; stroke-width: 2; stroke-linecap: round"/>
   </g>
   <g id="text_7">
    <!-- Burden Simulation Flow -->
    <g style="fill: #333333" transform="translate(325.1395 23.04) scale(0.16 -0.16)">
     <defs>
      <path id="DejaVuSans-53" d="M 3425 4513 
L 3425 3897 
Q 3066 4069 2747 4153 
Q 2428 4238 2131 4238 
Q 1616 4238 1336 4038 
Q 1056 3838 1056 3469 
Q 1056 3159 1242 3001 
Q 1428 2844 1947 2747 
L 2328 2669 
Q 3034 2534 3370 2195 
Q 3706 1856 3706 1288 
Q 3706 609 3251 259 
Q 2797 -91 1919 -91 
Q 1588 -91 1214 -16 
Q 841 59 441 206 
L 441 856 
Q 825 641 1194 531 
Q 1563 422 1919 422 
Q 2459 422 2753 634 
Q 3047 847 3047 1241 
Q 3047 1584 2836 1778 
Q 2625 1972 2144 2069 
L 1759 2144 
Q 1053 2284 737 2584 
Q 422 2884 422 3419 
Q 422 4038 858 4394 
Q 1294 4750 2059 4750 
Q 2388 4750 2728 4690 
Q 3069 4631 3425 4513 
z
" transform="scale(0.015625)"/>
      <path id="DejaVuSans-46" d="M 628 4666 
L 3309 4666 
L 3309 4134 
L 1259 4134 
L 1259 2759 
L 3109 2759 
L 3109 2228 
L 1259 2228 
L 1259 0 
L 628 0 
L 628 4666 
z
" transform="scale(0.015625)"/>
     </defs>
     <use xlink:href="#DejaVuSans-42"/>
     <use xlink:href="#DejaVuSans-75" x="68.603516"/>
     <use xlink:href="#DejaVuSans-72" x="131.982422"/>
     <use xlink:href="#DejaVuSans-64" x="171.345703"/>
     <use xlink:href="#DejaVuSans-65" x="234.822266"/>
     <use xlink:href="#DejaVuSans-6e" x="296.345703"/>
     <use xlink:href="#DejaVuSans-20" x="359.724609"/>
     <use xlink:href="#DejaVuSans-53" x="391.511719"/>
     <use xlink:href="#DejaVuSans-69" x="454.988281"/>
     <use xlink:href="#DejaVuSans-6d" x="482.771484"/>
     <use xlink:href="#DejaVuSans-75" x="580.183594"/>
     <use xlink:href="#DejaVuSans-6c" x="643.5625"/>
     <use xlink:href="#DejaVuSans-61" x="671.345703"/>
     <use xlink:href="#DejaVuSans-74" x="732.625"/>
     <use xlink:href="#DejaVuSans-69" x="771.833984"/>
     <use xlink:href="#DejaVuSans-6f" x="799.617188"/>
     <use xlink:href="#DejaVuSans-6e" x="860.798828"/>
     <use xlink:href="#DejaVuSans-20" x="924.177734"/>
     <use xlink:href="#DejaVuSans-46" x="955.964844"/>
     <use xlink:href="#DejaVuSans-6c" x="1013.484375"/>
     <use xlink:href="#DejaVuSans-6f" x="1041.267578"/>
     <use xlink:href="#DejaVuSans-77" x="1102.449219"/>
    </g>
   </g>
  </g>
 </g>
 <defs>
  <clipPath id="p55b1ee1c2c">
   <rect x="10.8" y="43.04" width="818.154" height="234.16"/>
  </clipPath>
 </defs>
</svg>
