<svg width="128" height="128" viewBox="0 0 128 128" fill="none" xmlns="http://www.w3.org/2000/svg">
<path fill-rule="evenodd" clip-rule="evenodd" d="M71.1869 116.322C60.324 124.188 47.9922 127.59 37.2897 122.786C26.5871 117.981 20.8503 106.466 19.3884 93.0675C17.9144 79.559 20.6284 63.3125 27.6592 47.4094C34.69 31.5064 44.8612 18.6078 55.8131 10.6778C66.676 2.81232 79.0078 -0.590408 89.7103 4.21445C100.413 9.0193 106.15 20.5339 107.612 33.9325C109.086 47.441 106.372 63.6875 99.3408 79.5906C92.31 95.4936 82.1388 108.392 71.1869 116.322ZM38.8734 119.203C56.7044 127.208 82.1849 108.759 95.7858 77.9946C109.387 47.2306 105.958 15.802 88.1265 7.79685C70.2956 -0.208271 44.8151 18.2414 31.2142 49.0054C17.6133 79.7694 21.0425 111.198 38.8734 119.203Z" fill="#FF4A4A"/>
<path fill-rule="evenodd" clip-rule="evenodd" d="M63.2948 48.0156C65.2997 43.8567 67.3991 39.3244 69.5922 34.3937L66.056 32.7965C63.1928 39.2339 60.4986 44.969 57.9752 50.0625C47.6911 54.0824 40.2674 61.2399 35.5946 68.193C33.2044 71.7497 31.5093 75.2887 30.5161 78.3824C29.5521 81.3852 29.1539 84.2637 29.7197 86.352C30.015 87.442 30.6513 88.572 31.8719 89.1602C33.0801 89.7424 34.3901 89.5655 35.5398 89.1007C37.7661 88.2006 40.4199 85.8245 43.4866 82.0006C47.9622 76.4199 53.7283 67.2218 60.7576 53.1819C77.7632 46.7886 88.0853 40.5305 93.2722 35.0981C95.8925 32.3537 97.4187 29.5924 97.5335 26.9425C97.6554 24.1259 96.1725 21.9188 93.8735 20.4996C91.6481 19.1258 88.6035 18.4273 85.1441 18.3335C81.6532 18.2388 77.5914 18.755 73.2071 19.9546C64.4344 22.355 54.2425 27.5261 44.5461 36.2675L47.1298 39.1778C56.3943 30.8258 66.0539 25.9583 74.2225 23.7232C78.3088 22.6051 81.9901 22.1543 85.0398 22.237C88.121 22.3206 90.4144 22.9437 91.8492 23.8295C93.2105 24.6698 93.7102 25.66 93.6621 26.7722C93.6067 28.051 92.8101 29.9499 90.4797 32.3906C86.2685 36.8013 77.7512 42.2417 63.2948 48.0156ZM55.1562 55.6263C49.182 67.1424 44.2778 74.8015 40.4726 79.5461C37.4697 83.2905 35.3417 84.9732 34.0968 85.4765C33.8227 85.5873 33.6555 85.6159 33.5684 85.6213C33.5395 85.5682 33.4992 85.4756 33.458 85.3235C33.1966 84.3587 33.3047 82.3828 34.2031 79.5843C35.0723 76.8767 36.5958 73.6672 38.8032 70.3826C42.4464 64.9615 47.8852 59.433 55.1562 55.6263ZM33.4926 85.6189C33.4926 85.6189 33.4955 85.6191 33.5008 85.6206C33.4952 85.6198 33.4926 85.6189 33.4926 85.6189ZM33.6016 85.6735C33.6086 85.6795 33.6116 85.6833 33.6114 85.6838C33.6112 85.6842 33.6077 85.6812 33.6016 85.6735Z" fill="#FF4A4A"/>
<path fill-rule="evenodd" clip-rule="evenodd" d="M89.8096 64.8341C90.101 67.8397 89.1323 71.2625 86.8305 74.3784C80.0323 83.5807 69.3716 86.0458 62.3438 83.0681C62.2219 83.0165 62.101 82.9631 61.9811 82.908C60.8081 84.9272 59.7582 86.8145 58.8213 88.5762C61.9829 91.7411 63.3135 95.3153 63.2911 98.874C63.2556 104.545 59.7486 109.565 56.3025 111.756C54.6665 112.797 52.3471 113.611 50.362 112.426C48.3108 111.203 47.8406 108.599 48.133 105.798C48.5063 102.223 50.2278 96.9486 53.9548 89.5329C52.4616 88.4548 50.5977 87.4197 48.2884 86.4659L46.4956 85.7253L47.9654 82.1121L49.7582 82.8527C52.0942 83.8176 54.0873 84.8934 55.7677 86.0531C56.6691 84.3785 57.6612 82.6088 58.7497 80.74C57.0565 79.1245 55.9105 76.9742 55.6465 74.3536C55.2334 70.2516 57.0298 65.4493 61.3352 60.2629L62.5784 58.7653L65.5506 61.2709L64.3074 62.7685C60.3498 67.536 59.2359 71.3189 59.5018 73.9593C59.6293 75.2248 60.0847 76.3331 60.8208 77.2583C61.63 75.9243 62.4842 74.5447 63.3852 73.1182C67.5515 66.5221 71.5509 62.2887 75.1717 59.9112C78.7795 57.5423 82.2436 56.8872 85.0638 57.9993C87.9183 59.1249 89.518 61.826 89.8096 64.8341ZM63.9869 79.5269C64.8227 78.1453 65.711 76.7085 66.6543 75.215C70.6497 68.8895 74.2927 65.1492 77.2872 63.183C80.2946 61.2083 82.4187 61.1496 83.6517 61.6358C84.8504 62.1085 85.769 63.3176 85.9528 65.2138C86.1369 67.1125 85.5383 69.588 83.7221 72.0466C77.8891 79.9423 69.1656 81.6246 63.9869 79.5269ZM56.9322 92.2641C53.6832 98.8789 52.2827 103.373 51.9869 106.207C51.8645 107.379 51.9478 108.135 52.0811 108.585C52.1455 108.801 52.2147 108.924 52.2593 108.986C52.301 109.045 52.3281 109.061 52.3359 109.066C52.355 109.077 52.9166 109.292 54.2346 108.454C56.6966 106.888 59.3899 103.037 59.4161 98.8494C59.4289 96.8108 58.8007 94.5138 56.9322 92.2641Z" fill="#FF4A4A"/>
<path d="M68.3704 58.3769C69.0566 57.179 68.757 55.71 67.7012 55.0957C66.6454 54.4814 65.2331 54.9545 64.5468 56.1523C63.8605 57.3501 64.1601 58.8192 65.216 59.4335C66.2718 60.0477 67.6841 59.5747 68.3704 58.3769Z" fill="#FF4A4A"/>
</svg>
