<svg width="154" height="154" viewBox="0 0 154 154" fill="none" xmlns="http://www.w3.org/2000/svg">
<path fill-rule="evenodd" clip-rule="evenodd" d="M53.8958 36.0114C53.7022 36.2901 53.1352 39.1076 55.3617 39.1076C55.7507 39.1082 56.1269 39.0042 56.4215 38.8147C56.7161 38.6251 56.9094 38.3627 56.9659 38.0755C57.4361 34.9174 54.6702 34.9277 53.8958 36.0114ZM73.9481 35.9701C74.0726 37.0641 74.2385 38.0343 75.7044 38.0343C76.0934 38.0348 76.4696 37.9309 76.7642 37.7413C77.0588 37.5518 77.2521 37.2894 77.3086 37.0022C77.3384 36.3381 77.2406 35.6743 77.0182 35.0309C76.2161 33.9266 73.7407 34.195 73.9481 35.9701ZM64.2677 45.9399C64.6964 45.9399 68.4164 45.8057 69.2877 45.3C69.5504 45.1555 69.5228 44.8769 69.5228 44.6188C69.4399 41.6913 69.0608 38.7725 68.3888 35.8876C68.3888 35.7327 68.209 35.7018 68.0984 35.7224C67.9877 35.7431 67.9324 35.8876 67.9462 36.1353C67.9462 36.9815 67.8494 37.2705 68.2505 42.0077C68.5132 45.1039 68.4026 44.237 68.4856 44.753C67.1887 45.1076 65.8572 45.3871 64.5028 45.589C63.6039 45.7335 64.24 45.9399 64.2677 45.9399ZM68.6377 53.0818C67.6116 53.4923 66.4802 53.735 65.3187 53.7939C65.26 53.7939 65.2037 53.8113 65.1622 53.8423C65.1208 53.8732 65.0974 53.9152 65.0974 53.959C65.0974 54.0028 65.1208 54.0448 65.1622 54.0758C65.2037 54.1068 65.26 54.1242 65.3187 54.1242C65.9684 54.2985 66.6625 54.3613 67.3492 54.3078C68.0359 54.2543 68.6976 54.0858 69.2851 53.8151C69.8725 53.5443 70.3705 53.1781 70.7421 52.7438C71.1137 52.3095 71.3492 51.8182 71.4312 51.3066C71.4385 51.2856 71.4401 51.2637 71.436 51.2423C71.432 51.2208 71.4223 51.2001 71.4075 51.1814C71.3928 51.1627 71.3732 51.1464 71.35 51.1333C71.3268 51.1203 71.3003 51.1108 71.2722 51.1054C71.244 51.0999 71.2147 51.0987 71.1859 51.1017C71.1571 51.1048 71.1294 51.112 71.1044 51.123C71.0793 51.134 71.0575 51.1486 71.04 51.166C71.0225 51.1833 71.0098 51.203 71.0025 51.224C70.4425 51.9854 69.6278 52.6254 68.6377 53.0818Z" fill="#371166"/>
<path fill-rule="evenodd" clip-rule="evenodd" d="M140.55 102.043C137.784 91.8875 127.025 76.2414 114.108 72.2473L111.508 68.1913C111.49 68.1619 111.463 68.1358 111.43 68.1147C111.396 68.0937 111.358 68.0783 111.316 68.0695C111.274 68.0607 111.23 68.0587 111.187 68.0637C111.143 68.0687 111.102 68.0805 111.066 68.0984L108.3 69.4298C107.422 65.049 104.739 60.9806 100.625 57.7881C103.501 54.4751 108.106 53.4637 112.864 53.3089C116.805 53.1851 119.709 53.0096 121.991 50.4914C126.513 45.5168 125.448 40.6661 120.138 36.0425C112.048 29.0038 108.867 31.1092 104.926 27.2183C97.4304 19.9113 95.7294 9.10556 84.6937 3.4808C70.588 -3.65077 62.9819 2.09784 60.0225 3.87299C55.694 1.91206 46.0412 2.59323 41.8925 5.24564C38.3661 7.49554 33.6918 10.406 31.8802 13.657C28.0218 20.5202 28.4367 28.6426 22.7944 34.8659C21.4115 36.414 19.0467 37.4564 17.3734 38.9219C15.0766 41.0711 13.1228 43.4124 11.5513 45.8987C9.5046 48.7885 7.9419 51.9982 9.80884 54.9912C12.3119 58.9956 17.9127 62.8142 23.8869 62.5253C27.3442 62.3498 31.9217 60.8017 35.1715 61.8234C37.1076 62.422 37.8544 63.8153 39.3203 64.9816C42.6393 67.7372 50.3836 68.5732 54.6706 66.6638C49.9549 71.143 42.7637 70.9882 30.2207 76.1485C10.9705 84.0541 3.94528 93.0331 1.88473 102.229C1.0965 105.09 0.514844 107.98 0.142264 110.888C-1.04704 125.884 5.05161 144.894 24.8273 148.042C30.2483 148.909 36.4576 149.466 41.8233 148.465C51.9878 146.577 64.1159 141.468 73.0219 137.319C77.1707 135.389 92.521 127.659 99.6569 126.647C100.086 129.402 101.017 132.1 102.423 134.667C108.134 143.429 117.275 148.61 130.081 146.36C138.379 144.905 140.743 138.31 140.965 131.994C145.127 125.326 141.822 106.894 140.55 102.043ZM92.7008 53.7217C95.1624 54.0623 96.8496 55.7859 98.675 57.1895C103.501 60.7914 106.82 64.6513 107.816 69.5743C103.819 71.4733 101.22 72.6704 101.164 72.7324C101.109 72.7943 99.1867 69.1408 98.025 68.697C96.2871 68.0531 94.7106 67.1907 93.3646 66.1478C92.3274 65.2912 91.0551 63.7844 91.2211 62.6491C91.9562 62.3572 92.7585 62.1717 93.5859 62.1021V61.4622C89.3127 61.5551 87.8468 64.4655 87.4596 65.1157C87.183 65.5802 86.7957 66.0446 85.9107 65.9723C85.0256 65.9001 84.7076 65.1364 85.0395 64.4552C85.3714 63.774 86.1734 60.7811 91.8296 60.1309C91.9004 60.1234 91.9686 60.1056 92.0302 60.0785C92.0918 60.0514 92.1456 60.0155 92.1887 59.9728C92.2317 59.9302 92.263 59.8816 92.2809 59.8299C92.2988 59.7783 92.3028 59.7245 92.2929 59.6716C92.2829 59.6187 92.259 59.5679 92.2227 59.5219C92.1864 59.4759 92.1382 59.4357 92.0811 59.4036C92.024 59.3715 91.9589 59.3481 91.8896 59.3348C91.8204 59.3214 91.7483 59.3184 91.6775 59.3259C90.4937 59.4382 89.3463 59.7073 88.2893 60.1205C87.3391 60.4668 86.4957 60.9565 85.8125 61.5588C85.1293 62.1611 84.6211 62.8627 84.3203 63.6192C83.6565 65.0332 81.3332 64.4036 81.8864 63.1858C82.443 62.0011 83.2713 60.8975 84.3342 59.9244C85.5145 59.0847 86.9322 58.4534 88.4829 58.077C89.6999 57.7055 90.7371 57.881 91.0137 57.5817C91.2902 57.2824 90.6403 56.2813 90.3084 55.982C88.5244 54.3926 83.3938 55.7652 81.43 53.9901C80.1716 52.8238 82.813 52.7826 83.8778 52.6794C86.8649 52.4317 89.6999 53.2986 92.7008 53.7217ZM97.7761 79.2963C93.8229 80.2579 89.7901 81.0267 85.7032 81.5978C87.0862 75.7254 88.0265 70.6889 87.8883 68.8621C91.1104 69.3266 94.8028 69.6568 98.8409 70.1522C99.9335 71.5042 100.528 72.6395 100.791 72.9594L98.108 74.2289C97.9697 74.363 97.9974 73.8057 97.7761 79.2963ZM82.7576 109.113C83.37 111.094 83.8043 113.105 84.0576 115.13C78.3876 114.861 74.0591 114.913 71.9294 114.851C72.0124 111.951 72.0539 111.053 72.123 110.444C75.6131 109.784 79.1699 109.339 82.7576 109.113ZM61.0044 83.6929C68.8497 83.7346 76.6845 83.258 84.4171 82.2687C81.9556 92.1765 78.2078 104.087 76.4377 106.471C72.3719 98.1934 72.7868 98.1625 61.0044 83.6929ZM77.5994 106.336C79.8397 102.59 83.2417 91.4127 85.5096 82.1035C89.6376 81.5261 93.7081 80.7399 97.6931 79.7504C97.2644 90.8967 97.14 104.809 98.0389 115.986C95.4113 115.811 91.5945 115.563 87.8883 115.346C87.6532 113.674 86.7266 107.854 85.9383 106.326C85.7309 105.913 85.482 105.748 84.5554 105.727C82.2428 105.803 79.9408 106.007 77.6685 106.336H77.5994ZM82.5364 66.9631C81.1358 66.3521 80.0169 65.4379 79.328 64.3417C79.9682 64.5432 80.636 64.692 81.3194 64.7855C81.5786 65.0033 81.9131 65.1637 82.2863 65.2493C82.6594 65.3348 83.0569 65.3422 83.4353 65.2705C84.0576 65.1261 83.6565 65.0641 83.9884 65.7143C84.1159 65.9763 84.3306 66.2097 84.6124 66.3925C84.8942 66.5754 85.2337 66.7017 85.5989 66.7595C85.9642 66.8173 86.3432 66.8048 86.7002 66.723C87.0572 66.6413 87.3804 66.493 87.6393 66.2923C88.1787 65.9311 88.2202 65.4976 88.8701 64.5687C89.5063 64.4759 90.1286 64.352 90.7371 64.2178C92.3827 67.4379 97.541 68.9963 97.9006 69.2337C91.8296 68.5628 86.45 68.1397 82.6055 66.9631H82.5364ZM56.0259 65.7247C59.3449 62.8555 58.6672 60.8017 55.2514 58.7685C48.3369 54.7228 49.1943 55.8065 46.2901 51.2861C42.8743 43.9481 45.82 32.389 48.3507 24.8652C49.0422 22.8011 53.7579 20.5924 57.1875 20.9227C61.9448 21.3768 59.9534 23.2449 64.0191 24.3079C64.725 24.4619 65.4551 24.5452 66.1903 24.5556C66.2339 24.5657 66.2797 24.5694 66.3252 24.5663C66.3707 24.5633 66.4149 24.5536 66.4554 24.5378C66.4958 24.5219 66.5317 24.5003 66.561 24.4742C66.5902 24.448 66.6123 24.4178 66.6259 24.3853C66.6395 24.3528 66.6445 24.3185 66.6404 24.2846C66.6363 24.2507 66.6232 24.2177 66.6021 24.1875C66.5809 24.1573 66.5519 24.1305 66.5169 24.1087C66.4818 24.0868 66.4413 24.0703 66.3977 24.0602C64.2409 23.0947 62.2528 21.9334 60.4789 20.6028C61.3224 18.0329 63.466 16.6293 67.4902 16.6087C70.2561 16.6087 72.4411 18.1774 74.4048 19.5191C76.7834 21.1394 79.3418 25.5154 79.1482 27.9201C78.7108 30.7065 79.586 33.5197 81.6236 35.8773C83.0066 37.6731 85.6064 39.2315 87.1553 40.7487C88.0127 41.595 87.5149 45.3723 87.017 47.034C86.3671 48.4892 84.9841 51.2654 84.6661 51.895C78.8855 52.0498 79.1344 54.3616 81.9002 55.3524C79.3142 57.6642 72.9943 60.2341 77.5164 63.4748C78.4844 64.9919 80.0333 67.0663 82.1077 67.6959C83.5797 68.1412 85.1024 68.4866 86.6575 68.728C86.9617 70.3277 85.966 75.6222 84.4448 81.7836C76.5079 82.7689 68.4687 83.2214 60.4235 83.1356C55.4312 77.0361 50.4666 71.2565 49.2081 70.3277C52.0022 69.2676 54.3763 67.6808 56.095 65.7247H56.0259ZM46.5944 71.1636C49.3602 70.3896 47.9773 70.5237 48.6411 70.9056C49.3049 71.2875 53.8685 76.6852 59.1651 83.0943C52.8867 83.0221 45.82 82.6712 43.1509 82.4441C43.953 81.9694 41.8787 73.816 41.0766 72.784C43.0818 72.1854 44.9349 71.659 46.6635 71.1636H46.5944ZM40.0532 73.1039C41.1903 76.1429 41.9632 79.2513 42.3627 82.3925C36.3955 81.7542 30.542 80.6223 24.9103 79.0176C29.7362 76.7139 34.8269 74.7349 40.1223 73.1039H40.0532ZM41.3117 147.722C36.1257 148.692 30.0547 148.125 24.8273 147.289C16.6543 145.978 10.9981 141.901 7.31959 136.679C1.46986 128.423 -0.272614 116.151 1.51135 107.554C1.87091 105.831 2.32727 104.128 2.71449 102.394C4.91332 92.5583 12.9204 85.1481 24.0944 79.544C35.0609 82.5473 42.4318 83.6 59.663 83.6723C71.5975 98.1212 71.8603 99.5661 75.2761 106.636C74.2251 106.78 69.3572 107.513 68.5274 108.019C68.1955 108.215 68.1955 108.607 68.5274 114.81C55.9429 114.995 43.635 116.461 32.06 122.034C30.677 114.593 32.2674 112.343 35.4896 108.081C40.5511 101.382 39.6383 100.144 36.4438 96.3357C35.9172 95.8216 35.5403 95.231 35.3375 94.6018C35.3375 94.3541 33.9546 94.0136 35.9045 96.5731C38.6703 100.33 39.4171 101.217 34.5215 107.668C30.9398 112.395 29.4739 114.82 31.6312 122.251C30.6632 122.736 29.5569 123.283 28.492 123.923C26.8652 124.778 25.3385 125.734 23.9284 126.782C23.9009 126.821 23.8957 126.868 23.9138 126.91C23.932 126.953 23.972 126.988 24.0252 127.009C24.0784 127.029 24.1403 127.033 24.1974 127.02C24.2544 127.006 24.3019 126.976 24.3295 126.936C24.7582 126.369 31.9078 122.808 33.8301 122.075C44.5615 118.04 56.4269 114.552 75.8569 115.511C75.6121 121.647 76.4632 127.78 78.3876 133.748C68.403 138.454 54.2143 145.328 41.3808 147.722H41.3117ZM79.245 133.335C77.4684 127.515 76.6831 121.551 76.9079 115.584C97.9006 116.616 91.3179 116.286 98.0942 116.616C98.3431 119.629 98.7165 122.901 99.2697 125.904C93.8486 126.658 84.0991 131.096 79.3142 133.335H79.245ZM129.5 145.617C117.289 147.774 108.618 142.799 103.114 134.378C97.0293 125.089 98.0389 84.7456 98.3846 74.4662L111.024 68.6247C128.09 96.1293 130.136 98.7301 133.967 107.843C138.918 119.454 145.445 142.872 129.569 145.617H129.5ZM140.647 129.826C140.326 124.3 139.185 118.817 137.245 113.478C132.861 100.753 128.117 94.3748 114.993 73.7851L115.381 73.6303C126.969 78.2539 136.788 92.6099 139.36 102.198C140.771 107.203 143.468 123.572 140.716 129.826H140.647Z" fill="#371166"/>
</svg>
