<svg xmlns="http://www.w3.org/2000/svg" viewBox="0 0 360 360"><defs><style>.cls-1{fill:#4f85c5;}.cls-2{fill:#9bd6ff;}.cls-3{fill:#48acf0;}</style></defs><g id="Layer_1" data-name="Layer 1"><polygon class="cls-1" points="70.9 141.92 70.91 153.79 70.91 141.92 70.9 141.92 70.9 141.92"/><polyline class="cls-2" points="179.48 319.76 7.51 206.74 7.51 206.72 7.62 206.8 25.71 194.95 179.48 295.95 179.48 319.76"/><polyline class="cls-2" points="179.48 236.89 70.91 165.67 70.91 165.67 89.11 153.86 179.48 213.11 179.48 236.89"/><polyline class="cls-2" points="179.48 278.31 39.2 186.22 53.67 176.84 57.41 174.42 179.48 254.52 179.48 278.31"/><polyline class="cls-2" points="179.48 112.93 179.48 89.2 257.1 38.6 257.1 62.33 257.11 62.33 179.48 112.93"/><polyline class="cls-2" points="179.48 154.25 179.48 130.52 257.1 79.93 257.1 103.66 257.11 103.66 179.48 154.25"/><polyline class="cls-2" points="179.48 195.58 179.48 171.85 257.1 121.25 257.1 144.98 257.11 144.98 179.48 195.58"/><polyline class="cls-3" points="102.6 39.2 102.6 62.93 179.48 113.04 179.48 89.31 102.6 39.2"/><polyline class="cls-3" points="102.6 80.53 102.6 104.26 179.48 154.36 179.48 130.63 102.6 80.53"/><polyline class="cls-3" points="102.6 121.85 102.6 145.58 179.48 195.69 179.48 171.96 102.6 121.85"/><polygon class="cls-3" points="257.11 62.33 351.45 123.83 351.45 100.1 257.11 38.6 257.11 38.6 257.1 38.6 257.1 38.6 257.1 62.33 257.11 62.33 257.11 62.33"/><polygon class="cls-3" points="257.11 103.66 351.45 165.15 351.45 141.42 257.11 79.93 257.11 79.92 257.1 79.92 257.1 79.93 257.1 103.66 257.11 103.66 257.11 103.66"/><polygon class="cls-3" points="257.11 144.98 351.45 206.48 351.45 182.75 257.11 121.25 257.1 121.25 257.1 144.98 257.11 144.98 257.11 144.98"/><polygon class="cls-3" points="276.75 174.26 258.59 162.42 179.48 213.23 179.48 236.97 276.75 174.26 276.75 174.26"/><polygon class="cls-3" points="308.37 194.87 290.21 183.03 179.48 254.58 179.48 278.35 308.37 194.87 308.37 194.87"/><polygon class="cls-3" points="321.82 203.63 179.48 295.98 179.48 319.76 340.6 214.88 321.82 203.63 321.82 203.63"/><polygon class="cls-3" points="25.71 194.95 25.71 194.95 25.71 88.83 7.5 100.7 7.5 206.72 7.51 206.72 7.62 206.8 25.71 194.95 25.71 194.95"/><polygon class="cls-3" points="89.11 153.86 89.11 47.5 70.91 59.37 70.91 141.92 70.91 153.79 70.91 165.67 89.11 153.86 89.11 153.86"/><polygon class="cls-3" points="57.41 174.42 57.41 68.17 39.2 80.03 39.2 186.22 53.67 176.84 57.41 174.42 57.41 174.42 57.41 174.42"/></g></svg>