<svg width="120" height="23" viewBox="0 0 120 23" fill="none" xmlns="http://www.w3.org/2000/svg">
<path d="M15.71 14.77H2.51C2.63 16.41 3.26 17.74 4.4 18.76C5.54 19.76 6.98 20.26 8.72 20.26C9.7 20.26 10.6 20.09 11.42 19.75C12.24 19.39 12.95 18.87 13.55 18.19L14.75 19.57C14.05 20.41 13.17 21.05 12.11 21.49C11.07 21.93 9.92 22.15 8.66 22.15C7.04 22.15 5.6 21.81 4.34 21.13C3.1 20.43 2.13 19.47 1.43 18.25C0.73 17.03 0.38 15.65 0.38 14.11C0.38 12.57 0.71 11.19 1.37 9.97C2.05 8.75 2.97 7.8 4.13 7.12C5.31 6.44 6.63 6.1 8.09 6.1C9.55 6.1 10.86 6.44 12.02 7.12C13.18 7.8 14.09 8.75 14.75 9.97C15.41 11.17 15.74 12.55 15.74 14.11L15.71 14.77ZM8.09 7.93C6.57 7.93 5.29 8.42 4.25 9.4C3.23 10.36 2.65 11.62 2.51 13.18H13.7C13.56 11.62 12.97 10.36 11.93 9.4C10.91 8.42 9.63 7.93 8.09 7.93ZM28.8655 6.1C30.8455 6.1 32.4155 6.68 33.5755 7.84C34.7555 8.98 35.3455 10.65 35.3455 12.85V22H33.2155V13.06C33.2155 11.42 32.8055 10.17 31.9855 9.31C31.1655 8.45 29.9955 8.02 28.4755 8.02C26.7755 8.02 25.4255 8.53 24.4255 9.55C23.4455 10.55 22.9555 11.94 22.9555 13.72V22H20.8255V6.22H22.8655V9.13C23.4455 8.17 24.2455 7.43 25.2655 6.91C26.3055 6.37 27.5055 6.1 28.8655 6.1ZM79.5713 14.77H66.3713C66.4913 16.41 67.1213 17.74 68.2613 18.76C69.4013 19.76 70.8413 20.26 72.5813 20.26C73.5613 20.26 74.4613 20.09 75.2813 19.75C76.1013 19.39 76.8113 18.87 77.4113 18.19L78.6113 19.57C77.9113 20.41 77.0313 21.05 75.9713 21.49C74.9313 21.93 73.7813 22.15 72.5213 22.15C70.9013 22.15 69.4613 21.81 68.2013 21.13C66.9613 20.43 65.9913 19.47 65.2913 18.25C64.5913 17.03 64.2413 15.65 64.2413 14.11C64.2413 12.57 64.5713 11.19 65.2313 9.97C65.9113 8.75 66.8313 7.8 67.9913 7.12C69.1713 6.44 70.4913 6.1 71.9513 6.1C73.4113 6.1 74.7213 6.44 75.8813 7.12C77.0413 7.8 77.9513 8.75 78.6113 9.97C79.2713 11.17 79.6013 12.55 79.6013 14.11L79.5713 14.77ZM71.9513 7.93C70.4313 7.93 69.1513 8.42 68.1113 9.4C67.0913 10.36 66.5113 11.62 66.3713 13.18H77.5613C77.4213 11.62 76.8313 10.36 75.7913 9.4C74.7713 8.42 73.4913 7.93 71.9513 7.93ZM92.7268 6.1C94.7068 6.1 96.2768 6.68 97.4368 7.84C98.6168 8.98 99.2068 10.65 99.2068 12.85V22H97.0768V13.06C97.0768 11.42 96.6668 10.17 95.8468 9.31C95.0268 8.45 93.8568 8.02 92.3368 8.02C90.6368 8.02 89.2868 8.53 88.2868 9.55C87.3068 10.55 86.8168 11.94 86.8168 13.72V22H84.6868V6.22H86.7268V9.13C87.3068 8.17 88.1068 7.43 89.1268 6.91C90.1668 6.37 91.3668 6.1 92.7268 6.1ZM119.538 14.77H106.338C106.458 16.41 107.088 17.74 108.228 18.76C109.368 19.76 110.808 20.26 112.548 20.26C113.528 20.26 114.428 20.09 115.248 19.75C116.068 19.39 116.778 18.87 117.378 18.19L118.578 19.57C117.878 20.41 116.998 21.05 115.938 21.49C114.898 21.93 113.748 22.15 112.488 22.15C110.868 22.15 109.428 21.81 108.168 21.13C106.928 20.43 105.958 19.47 105.258 18.25C104.558 17.03 104.208 15.65 104.208 14.11C104.208 12.57 104.538 11.19 105.198 9.97C105.878 8.75 106.798 7.8 107.958 7.12C109.138 6.44 110.458 6.1 111.918 6.1C113.378 6.1 114.688 6.44 115.848 7.12C117.008 7.8 117.918 8.75 118.578 9.97C119.238 11.17 119.568 12.55 119.568 14.11L119.538 14.77ZM111.918 7.93C110.398 7.93 109.118 8.42 108.078 9.4C107.058 10.36 106.478 11.62 106.338 13.18H117.528C117.388 11.62 116.798 10.36 115.758 9.4C114.738 8.42 113.458 7.93 111.918 7.93Z" fill="#027092"/>
<path d="M57.1182 11.5H59.2482V19.51C58.2682 20.37 57.1082 21.03 55.7682 21.49C54.4282 21.95 53.0182 22.18 51.5382 22.18C49.4382 22.18 47.5482 21.72 45.8682 20.8C44.1882 19.88 42.8682 18.61 41.9082 16.99C40.9482 15.35 40.4682 13.52 40.4682 11.5C40.4682 9.48 40.9482 7.66 41.9082 6.04C42.8682 4.4 44.1882 3.12 45.8682 2.2C47.5482 1.28 49.4482 0.819999 51.5682 0.819999C53.1682 0.819999 54.6382 1.08 55.9782 1.6C57.3182 2.1 58.4482 2.85 59.3682 3.85L57.9882 5.26C56.3282 3.62 54.2182 2.8 51.6582 2.8C49.9582 2.8 48.4182 3.18 47.0382 3.94C45.6782 4.68 44.6082 5.72 43.8282 7.06C43.0482 8.38 42.6582 9.86 42.6582 11.5C42.6582 13.14 43.0482 14.62 43.8282 15.94C44.6082 17.26 45.6782 18.3 47.0382 19.06C48.3982 19.82 49.9282 20.2 51.6282 20.2C53.7882 20.2 55.6182 19.66 57.1182 18.58V11.5Z" fill="#00B7EE"/>
</svg>
