<?xml version="1.0" encoding="UTF-8"?><svg id="Layer_2" xmlns="http://www.w3.org/2000/svg" viewBox="0 0 928 512"><defs><style>.cls-1,.cls-2,.cls-3{fill:none;}.cls-1,.cls-4,.cls-5{stroke-width:0px;}.cls-2{stroke:#e312ff;}.cls-2,.cls-3{stroke-miterlimit:10;stroke-width:2px;}.cls-3{stroke:#f5a6ff;}.cls-4{fill:#e312ff;}.cls-5{fill:#f5a6ff;}</style></defs><g id="Example_Gallery"><rect class="cls-1" width="928" height="512"/><polyline class="cls-3" points="324 92 336.01 80 348 92"/><polyline class="cls-3" points="452 92 464 80 476 92"/><polyline class="cls-3" points="580 92 592 80 604 92"/><polyline class="cls-3" points="464 80 464 272 464 464"/><polyline class="cls-2" points="400 80 400 272 336 464"/><polyline class="cls-3" points="336 80 335.94 272.32 208.01 464"/><polyline class="cls-2" points="272 80 272 272 80 464"/><polyline class="cls-2" points="528 80 528 272 592 464"/><polyline class="cls-3" points="592 80 592 272 720 464"/><polyline class="cls-2" points="656 80 656 272 848 464"/><polyline class="cls-2" points="260 92 272.01 80 284 92"/><polyline class="cls-2" points="388 92 400 80 412 92"/><polyline class="cls-2" points="516 92 528 80 540 92"/><polyline class="cls-2" points="644 92 656 80 668 92"/><circle class="cls-5" cx="16" cy="16" r="2"/><circle class="cls-5" cx="80" cy="16" r="2"/><circle class="cls-5" cx="144" cy="16" r="2"/><circle class="cls-5" cx="208" cy="16" r="2"/><circle class="cls-5" cx="272" cy="16" r="2"/><circle class="cls-5" cx="336" cy="16" r="2"/><circle class="cls-5" cx="400" cy="16" r="2"/><circle class="cls-5" cx="464" cy="16" r="2"/><circle class="cls-5" cx="528" cy="16" r="2"/><circle class="cls-5" cx="592" cy="16" r="2"/><circle class="cls-5" cx="656" cy="16" r="2"/><circle class="cls-5" cx="720" cy="16" r="2"/><circle class="cls-5" cx="784" cy="16" r="2"/><circle class="cls-5" cx="848" cy="16" r="2"/><circle class="cls-5" cx="912" cy="16" r="2"/><circle class="cls-5" cx="16" cy="80" r="2"/><circle class="cls-5" cx="80" cy="80" r="2"/><circle class="cls-5" cx="144" cy="80" r="2"/><circle class="cls-5" cx="208" cy="80" r="2"/><circle class="cls-5" cx="720" cy="80" r="2"/><circle class="cls-5" cx="784" cy="80" r="2"/><circle class="cls-5" cx="848" cy="80" r="2"/><circle class="cls-5" cx="912" cy="80" r="2"/><circle class="cls-5" cx="16" cy="144" r="2"/><circle class="cls-5" cx="80" cy="144" r="2"/><circle class="cls-5" cx="144" cy="144" r="2"/><circle class="cls-5" cx="208" cy="144" r="2"/><circle class="cls-5" cx="720" cy="144" r="2"/><circle class="cls-5" cx="784" cy="144" r="2"/><circle class="cls-5" cx="848" cy="144" r="2"/><circle class="cls-5" cx="912" cy="144" r="2"/><circle class="cls-5" cx="16" cy="208" r="2"/><circle class="cls-5" cx="80" cy="208" r="2"/><circle class="cls-5" cx="144" cy="208" r="2"/><circle class="cls-5" cx="208" cy="208" r="2"/><circle class="cls-5" cx="720" cy="208" r="2"/><circle class="cls-5" cx="784" cy="208" r="2"/><circle class="cls-5" cx="848" cy="208" r="2"/><circle class="cls-5" cx="912" cy="208" r="2"/><circle class="cls-5" cx="16" cy="272" r="2"/><circle class="cls-5" cx="80" cy="272" r="2"/><circle class="cls-5" cx="144" cy="272" r="2"/><circle class="cls-5" cx="208" cy="272" r="2"/><circle class="cls-4" cx="272" cy="272" r="4"/><circle class="cls-5" cx="336" cy="272" r="4"/><circle class="cls-4" cx="400" cy="272" r="4"/><circle class="cls-5" cx="464" cy="272" r="4"/><circle class="cls-4" cx="528" cy="272" r="4"/><circle class="cls-5" cx="592" cy="272" r="4"/><circle class="cls-4" cx="656" cy="272" r="4"/><circle class="cls-5" cx="720" cy="272" r="2"/><circle class="cls-5" cx="784" cy="272" r="2"/><circle class="cls-5" cx="848" cy="272" r="2"/><circle class="cls-5" cx="912" cy="272" r="2"/><circle class="cls-5" cx="16" cy="336" r="2"/><circle class="cls-5" cx="80" cy="336" r="2"/><circle class="cls-5" cx="144" cy="336" r="2"/><circle class="cls-5" cx="272" cy="336" r="2"/><circle class="cls-5" cx="336" cy="336" r="2"/><circle class="cls-5" cx="400" cy="336" r="2"/><circle class="cls-5" cx="528" cy="336" r="2"/><circle class="cls-5" cx="592" cy="336" r="2"/><circle class="cls-5" cx="656" cy="336" r="2"/><circle class="cls-5" cx="784" cy="336" r="2"/><circle class="cls-5" cx="848" cy="336" r="2"/><circle class="cls-5" cx="912" cy="336" r="2"/><circle class="cls-5" cx="16" cy="400" r="2"/><circle class="cls-5" cx="80" cy="400" r="2"/><circle class="cls-5" cx="208" cy="400" r="2"/><circle class="cls-5" cx="272" cy="400" r="2"/><circle class="cls-5" cx="336" cy="400" r="2"/><circle class="cls-5" cx="400" cy="400" r="2"/><circle class="cls-5" cx="528" cy="400" r="2"/><circle class="cls-5" cx="592" cy="400" r="2"/><circle class="cls-5" cx="656" cy="400" r="2"/><circle class="cls-5" cx="720" cy="400" r="2"/><circle class="cls-5" cx="848" cy="400" r="2"/><circle class="cls-5" cx="912" cy="400" r="2"/><circle class="cls-5" cx="16" cy="464" r="2"/><circle class="cls-4" cx="80" cy="464" r="4"/><circle class="cls-5" cx="144" cy="464" r="2"/><circle class="cls-5" cx="208" cy="464" r="4"/><circle class="cls-5" cx="272" cy="464" r="2"/><circle class="cls-4" cx="336" cy="464" r="4"/><circle class="cls-5" cx="400" cy="464" r="2"/><circle class="cls-5" cx="464" cy="464" r="4"/><circle class="cls-5" cx="528" cy="464" r="2"/><circle class="cls-4" cx="592" cy="464" r="4"/><circle class="cls-5" cx="656" cy="464" r="2"/><circle class="cls-5" cx="720" cy="464" r="4"/><circle class="cls-5" cx="784" cy="464" r="2"/><circle class="cls-4" cx="848" cy="464" r="4"/><circle class="cls-5" cx="912" cy="464" r="2"/></g></svg>