<svg width="1087" height="963" viewBox="0 0 1087 963" fill="none" xmlns="http://www.w3.org/2000/svg">
<path d="M491.256 287.694L507.657 283.307L512.041 299.694" stroke="#DADADA" stroke-width="2" stroke-miterlimit="10"/>
<path d="M602.108 351.694L618.5 347.302L622.892 363.694" stroke="#DADADA" stroke-width="2" stroke-miterlimit="10"/>
<path d="M712.959 415.693L729.352 411.301L733.744 427.693" stroke="#DADADA" stroke-width="2" stroke-miterlimit="10"/>
<path d="M618.5 347.302L522.5 513.579L426.5 679.856" stroke="#DADADA" stroke-width="2" stroke-miterlimit="10"/>
<path d="M563.074 315.302L467.074 481.579L315.649 615.856" stroke="#D7D7D7" stroke-width="2" stroke-miterlimit="10"/>
<path d="M507.649 283.302L411.437 449.826L204.806 551.86" stroke="#DADADA" stroke-width="2" stroke-miterlimit="10"/>
<path d="M452.223 251.302L356.223 417.579L93.9463 487.856" stroke="#D7D7D7" stroke-width="2" stroke-miterlimit="10"/>
<path d="M673.926 379.302L577.926 545.579L537.351 743.856" stroke="#D7D7D7" stroke-width="2" stroke-miterlimit="10"/>
<path d="M729.351 411.302L633.351 577.579L648.203 807.856" stroke="#DADADA" stroke-width="2" stroke-miterlimit="10"/>
<path d="M784.777 443.302L688.777 609.579L759.054 871.856" stroke="#D7D7D7" stroke-width="2" stroke-miterlimit="10"/>
<path d="M435.831 255.694L452.232 251.307L456.615 267.694" stroke="#D7D7D7" stroke-width="2" stroke-miterlimit="10"/>
<path d="M546.682 319.694L563.075 315.302L567.467 331.694" stroke="#D7D7D7" stroke-width="2" stroke-miterlimit="10"/>
<path d="M657.533 383.694L673.926 379.302L678.318 395.694" stroke="#D7D7D7" stroke-width="2" stroke-miterlimit="10"/>
<path d="M768.384 447.694L784.777 443.302L789.169 459.694" stroke="#D7D7D7" stroke-width="2" stroke-miterlimit="10"/>
<path d="M261.521 69.6086C262.477 70.1609 263.7 69.8332 264.253 68.8766C264.805 67.92 264.477 66.6968 263.521 66.1445C262.564 65.5922 261.341 65.92 260.789 66.8766C260.236 67.8332 260.564 69.0563 261.521 69.6086Z" fill="#DADADA"/>
<path d="M316.946 101.609C317.903 102.161 319.126 101.833 319.678 100.877C320.23 99.92 319.903 98.6968 318.946 98.1445C317.99 97.5922 316.766 97.92 316.214 98.8766C315.662 99.8332 315.99 101.056 316.946 101.609Z" fill="#DADADA"/>
<path d="M372.372 133.609C373.329 134.161 374.552 133.833 375.104 132.877C375.656 131.92 375.329 130.697 374.372 130.145C373.415 129.592 372.192 129.92 371.64 130.877C371.088 131.833 371.415 133.056 372.372 133.609Z" fill="#DADADA"/>
<path d="M427.797 165.609C428.754 166.161 429.977 165.833 430.53 164.877C431.082 163.92 430.754 162.697 429.797 162.145C428.841 161.592 427.618 161.92 427.065 162.877C426.513 163.833 426.841 165.056 427.797 165.609Z" fill="#DADADA"/>
<path d="M483.223 197.609C484.18 198.161 485.403 197.833 485.955 196.877C486.507 195.92 486.18 194.697 485.223 194.145C484.266 193.592 483.043 193.92 482.491 194.877C481.939 195.833 482.266 197.056 483.223 197.609Z" fill="#DADADA"/>
<path d="M538.649 229.609C539.606 230.161 540.829 229.833 541.381 228.877C541.933 227.92 541.606 226.697 540.649 226.145C539.692 225.592 538.469 225.92 537.917 226.877C537.365 227.833 537.692 229.056 538.649 229.609Z" fill="#DADADA"/>
<path d="M594.074 261.609C595.031 262.161 596.254 261.833 596.806 260.877C597.359 259.92 597.031 258.697 596.074 258.145C595.118 257.592 593.895 257.92 593.342 258.877C592.79 259.833 593.118 261.056 594.074 261.609Z" fill="#DADADA"/>
<path d="M649.5 293.609C650.457 294.161 651.68 293.833 652.232 292.877C652.784 291.92 652.457 290.697 651.5 290.145C650.544 289.592 649.32 289.92 648.768 290.877C648.216 291.833 648.544 293.056 649.5 293.609Z" fill="#DADADA"/>
<path d="M704.926 325.609C705.882 326.161 707.105 325.833 707.658 324.877C708.21 323.92 707.882 322.697 706.926 322.145C705.969 321.592 704.746 321.92 704.194 322.877C703.641 323.833 703.969 325.056 704.926 325.609Z" fill="#DADADA"/>
<path d="M760.351 357.609C761.308 358.161 762.531 357.833 763.083 356.877C763.636 355.92 763.308 354.697 762.351 354.145C761.395 353.592 760.171 353.92 759.619 354.877C759.067 355.833 759.395 357.056 760.351 357.609Z" fill="#DADADA"/>
<path d="M815.777 389.609C816.734 390.161 817.957 389.833 818.509 388.877C819.061 387.92 818.734 386.697 817.777 386.145C816.82 385.592 815.597 385.92 815.045 386.877C814.493 387.833 814.82 389.056 815.777 389.609Z" fill="#DADADA"/>
<path d="M871.203 421.609C872.159 422.161 873.383 421.833 873.935 420.877C874.487 419.92 874.159 418.697 873.203 418.145C872.246 417.592 871.023 417.92 870.471 418.877C869.918 419.833 870.246 421.056 871.203 421.609Z" fill="#DADADA"/>
<path d="M926.628 453.609C927.585 454.161 928.808 453.833 929.36 452.877C929.912 451.92 929.585 450.697 928.628 450.145C927.671 449.592 926.448 449.92 925.896 450.877C925.344 451.833 925.671 453.056 926.628 453.609Z" fill="#DADADA"/>
<path d="M982.054 485.609C983.011 486.161 984.234 485.833 984.786 484.877C985.338 483.92 985.011 482.697 984.054 482.145C983.097 481.592 981.874 481.92 981.322 482.877C980.77 483.833 981.097 485.056 982.054 485.609Z" fill="#DADADA"/>
<path d="M1037.48 517.609C1038.44 518.161 1039.66 517.833 1040.21 516.877C1040.76 515.92 1040.44 514.697 1039.48 514.145C1038.52 513.592 1037.3 513.92 1036.75 514.877C1036.2 515.833 1036.52 517.056 1037.48 517.609Z" fill="#DADADA"/>
<path d="M287.521 24.5754C288.477 25.1277 289.7 24.8 290.253 23.8434C290.805 22.8868 290.477 21.6636 289.521 21.1113C288.564 20.559 287.341 20.8868 286.789 21.8434C286.236 22.8 286.564 24.0231 287.521 24.5754Z" fill="#DADADA"/>
<path d="M5.52062 513.013C6.47721 513.565 7.70039 513.237 8.25268 512.281C8.80496 511.324 8.47721 510.101 7.52062 509.549C6.56404 508.997 5.34086 509.324 4.78857 510.281C4.23629 511.237 4.56404 512.461 5.52062 513.013Z" fill="#DADADA"/>
<path d="M342.946 56.5754C343.903 57.1277 345.126 56.8 345.678 55.8434C346.23 54.8868 345.903 53.6636 344.946 53.1113C343.99 52.559 342.766 52.8868 342.214 53.8434C341.662 54.8 341.99 56.0231 342.946 56.5754Z" fill="#DADADA"/>
<path d="M60.9462 545.013C61.9027 545.565 63.1259 545.237 63.6782 544.281C64.2305 543.324 63.9027 542.101 62.9462 541.549C61.9896 540.997 60.7664 541.324 60.2141 542.281C59.6618 543.237 59.9896 544.461 60.9462 545.013Z" fill="#DADADA"/>
<path d="M398.372 88.5754C399.329 89.1277 400.552 88.8 401.104 87.8434C401.656 86.8868 401.329 85.6636 400.372 85.1113C399.415 84.559 398.192 84.8868 397.64 85.8434C397.088 86.8 397.415 88.0231 398.372 88.5754Z" fill="#DADADA"/>
<path d="M116.372 577.013C117.329 577.565 118.552 577.237 119.104 576.281C119.656 575.324 119.329 574.101 118.372 573.549C117.415 572.997 116.192 573.324 115.64 574.281C115.088 575.237 115.415 576.461 116.372 577.013Z" fill="#DADADA"/>
<path d="M453.797 120.575C454.754 121.128 455.977 120.8 456.53 119.843C457.082 118.887 456.754 117.664 455.797 117.111C454.841 116.559 453.618 116.887 453.065 117.843C452.513 118.8 452.841 120.023 453.797 120.575Z" fill="#DADADA"/>
<path d="M171.797 609.013C172.754 609.565 173.977 609.237 174.53 608.281C175.082 607.324 174.754 606.101 173.797 605.549C172.841 604.997 171.618 605.324 171.065 606.281C170.513 607.237 170.841 608.461 171.797 609.013Z" fill="#DADADA"/>
<path d="M509.223 152.575C510.18 153.128 511.403 152.8 511.955 151.843C512.507 150.887 512.18 149.664 511.223 149.111C510.266 148.559 509.043 148.887 508.491 149.843C507.939 150.8 508.266 152.023 509.223 152.575Z" fill="#DADADA"/>
<path d="M227.223 641.013C228.18 641.565 229.403 641.237 229.955 640.281C230.507 639.324 230.18 638.101 229.223 637.549C228.266 636.997 227.043 637.324 226.491 638.281C225.939 639.237 226.266 640.461 227.223 641.013Z" fill="#DADADA"/>
<path d="M564.649 184.575C565.606 185.128 566.829 184.8 567.381 183.843C567.933 182.887 567.606 181.664 566.649 181.111C565.692 180.559 564.469 180.887 563.917 181.843C563.365 182.8 563.692 184.023 564.649 184.575Z" fill="#DADADA"/>
<path d="M282.649 673.014C283.606 673.566 284.829 673.238 285.381 672.282C285.933 671.325 285.606 670.102 284.649 669.55C283.692 668.998 282.469 669.325 281.917 670.282C281.365 671.238 281.692 672.462 282.649 673.014Z" fill="#DADADA"/>
<path d="M620.074 216.575C621.031 217.128 622.254 216.8 622.806 215.843C623.359 214.887 623.031 213.664 622.074 213.111C621.118 212.559 619.895 212.887 619.342 213.843C618.79 214.8 619.118 216.023 620.074 216.575Z" fill="#DADADA"/>
<path d="M338.074 705.013C339.031 705.565 340.254 705.237 340.806 704.281C341.359 703.324 341.031 702.101 340.074 701.549C339.118 700.997 337.895 701.324 337.342 702.281C336.79 703.237 337.118 704.461 338.074 705.013Z" fill="#DADADA"/>
<path d="M675.5 248.575C676.457 249.128 677.68 248.8 678.232 247.843C678.784 246.887 678.457 245.664 677.5 245.111C676.544 244.559 675.32 244.887 674.768 245.843C674.216 246.8 674.544 248.023 675.5 248.575Z" fill="#DADADA"/>
<path d="M393.5 737.013C394.457 737.565 395.68 737.237 396.232 736.281C396.784 735.324 396.457 734.101 395.5 733.549C394.544 732.997 393.32 733.324 392.768 734.281C392.216 735.237 392.544 736.461 393.5 737.013Z" fill="#DADADA"/>
<path d="M730.926 280.575C731.882 281.128 733.105 280.8 733.658 279.843C734.21 278.887 733.882 277.664 732.926 277.111C731.969 276.559 730.746 276.887 730.194 277.843C729.641 278.8 729.969 280.023 730.926 280.575Z" fill="#DADADA"/>
<path d="M448.926 769.013C449.882 769.565 451.105 769.237 451.658 768.281C452.21 767.324 451.882 766.101 450.926 765.549C449.969 764.997 448.746 765.324 448.194 766.281C447.641 767.237 447.969 768.461 448.926 769.013Z" fill="#DADADA"/>
<path d="M786.351 312.575C787.308 313.128 788.531 312.8 789.083 311.843C789.636 310.887 789.308 309.664 788.351 309.111C787.395 308.559 786.171 308.887 785.619 309.843C785.067 310.8 785.395 312.023 786.351 312.575Z" fill="#DADADA"/>
<path d="M504.351 801.013C505.308 801.565 506.531 801.237 507.083 800.281C507.636 799.324 507.308 798.101 506.351 797.549C505.395 796.997 504.171 797.324 503.619 798.281C503.067 799.237 503.395 800.461 504.351 801.013Z" fill="#DADADA"/>
<path d="M841.777 344.575C842.734 345.128 843.957 344.8 844.509 343.843C845.061 342.887 844.734 341.664 843.777 341.111C842.82 340.559 841.597 340.887 841.045 341.843C840.493 342.8 840.82 344.023 841.777 344.575Z" fill="#DADADA"/>
<path d="M559.777 833.014C560.734 833.566 561.957 833.238 562.509 832.282C563.061 831.325 562.734 830.102 561.777 829.55C560.82 828.998 559.597 829.325 559.045 830.282C558.493 831.238 558.82 832.462 559.777 833.014Z" fill="#DADADA"/>
<path d="M897.203 376.575C898.159 377.128 899.383 376.8 899.935 375.843C900.487 374.887 900.159 373.664 899.203 373.111C898.246 372.559 897.023 372.887 896.471 373.843C895.918 374.8 896.246 376.023 897.203 376.575Z" fill="#DADADA"/>
<path d="M615.203 865.014C616.159 865.566 617.383 865.238 617.935 864.282C618.487 863.325 618.159 862.102 617.203 861.55C616.246 860.998 615.023 861.325 614.471 862.282C613.918 863.238 614.246 864.462 615.203 865.014Z" fill="#DADADA"/>
<path d="M952.628 408.575C953.585 409.128 954.808 408.8 955.36 407.843C955.912 406.887 955.585 405.664 954.628 405.111C953.671 404.559 952.448 404.887 951.896 405.843C951.344 406.8 951.671 408.023 952.628 408.575Z" fill="#DADADA"/>
<path d="M670.628 897.013C671.585 897.565 672.808 897.237 673.36 896.281C673.912 895.324 673.585 894.101 672.628 893.549C671.671 892.997 670.448 893.324 669.896 894.281C669.344 895.237 669.671 896.461 670.628 897.013Z" fill="#DADADA"/>
<path d="M1008.05 440.575C1009.01 441.128 1010.23 440.8 1010.79 439.843C1011.34 438.887 1011.01 437.664 1010.05 437.111C1009.1 436.559 1007.87 436.887 1007.32 437.843C1006.77 438.8 1007.1 440.023 1008.05 440.575Z" fill="#DADADA"/>
<path d="M726.054 929.014C727.011 929.566 728.234 929.238 728.786 928.282C729.338 927.325 729.011 926.102 728.054 925.55C727.097 924.998 725.874 925.325 725.322 926.282C724.77 927.238 725.097 928.462 726.054 929.014Z" fill="#DADADA"/>
<path d="M1063.48 472.575C1064.44 473.128 1065.66 472.8 1066.21 471.843C1066.76 470.887 1066.44 469.664 1065.48 469.111C1064.52 468.559 1063.3 468.887 1062.75 469.843C1062.2 470.8 1062.52 472.023 1063.48 472.575Z" fill="#DADADA"/>
<path d="M781.479 961.013C782.436 961.565 783.659 961.237 784.211 960.281C784.764 959.324 784.436 958.101 783.479 957.549C782.523 956.997 781.3 957.324 780.747 958.281C780.195 959.237 780.523 960.461 781.479 961.013Z" fill="#DADADA"/>
<path d="M229.521 125.034C230.477 125.587 231.7 125.259 232.253 124.302C232.805 123.346 232.477 122.123 231.521 121.57C230.564 121.018 229.341 121.346 228.789 122.302C228.236 123.259 228.564 124.482 229.521 125.034Z" fill="#DADADA"/>
<path d="M284.946 157.034C285.903 157.587 287.126 157.259 287.678 156.302C288.23 155.346 287.903 154.123 286.946 153.57C285.99 153.018 284.766 153.346 284.214 154.302C283.662 155.259 283.99 156.482 284.946 157.034Z" fill="#DADADA"/>
<path d="M340.372 189.034C341.329 189.587 342.552 189.259 343.104 188.302C343.657 187.346 343.329 186.123 342.372 185.57C341.416 185.018 340.192 185.346 339.64 186.302C339.088 187.259 339.416 188.482 340.372 189.034Z" fill="#DADADA"/>
<path d="M395.797 221.034C396.754 221.587 397.977 221.259 398.53 220.302C399.082 219.346 398.754 218.123 397.797 217.57C396.841 217.018 395.618 217.346 395.065 218.302C394.513 219.259 394.841 220.482 395.797 221.034Z" fill="#DADADA"/>
<path d="M839.203 477.034C840.159 477.587 841.383 477.259 841.935 476.302C842.487 475.346 842.159 474.123 841.203 473.57C840.246 473.018 839.023 473.346 838.471 474.302C837.918 475.259 838.246 476.482 839.203 477.034Z" fill="#DADADA"/>
<path d="M894.628 509.033C895.584 509.586 896.808 509.258 897.36 508.301C897.912 507.345 897.584 506.122 896.628 505.569C895.671 505.017 894.448 505.345 893.896 506.301C893.343 507.258 893.671 508.481 894.628 509.033Z" fill="#DADADA"/>
<path d="M950.054 541.034C951.01 541.587 952.234 541.259 952.786 540.302C953.338 539.346 953.01 538.123 952.054 537.57C951.097 537.018 949.874 537.346 949.322 538.302C948.769 539.259 949.097 540.482 950.054 541.034Z" fill="#DADADA"/>
<path d="M1005.48 573.033C1006.44 573.586 1007.66 573.258 1008.21 572.301C1008.76 571.345 1008.44 570.122 1007.48 569.569C1006.52 569.017 1005.3 569.345 1004.75 570.301C1004.19 571.258 1004.52 572.481 1005.48 573.033Z" fill="#DADADA"/>
<path d="M197.521 180.46C198.477 181.012 199.701 180.685 200.253 179.728C200.805 178.772 200.477 177.548 199.521 176.996C198.564 176.444 197.341 176.772 196.789 177.728C196.237 178.685 196.564 179.908 197.521 180.46Z" fill="#DADADA"/>
<path d="M252.946 212.459C253.903 213.012 255.126 212.684 255.678 211.727C256.23 210.771 255.903 209.547 254.946 208.995C253.99 208.443 252.766 208.771 252.214 209.727C251.662 210.684 251.99 211.907 252.946 212.459Z" fill="#DADADA"/>
<path d="M308.372 244.459C309.329 245.012 310.552 244.684 311.104 243.727C311.656 242.771 311.329 241.547 310.372 240.995C309.415 240.443 308.192 240.771 307.64 241.727C307.088 242.684 307.415 243.907 308.372 244.459Z" fill="#DADADA"/>
<path d="M363.797 276.459C364.754 277.012 365.977 276.684 366.53 275.727C367.082 274.771 366.754 273.547 365.797 272.995C364.841 272.443 363.618 272.771 363.065 273.727C362.513 274.684 362.841 275.907 363.797 276.459Z" fill="#DADADA"/>
<path d="M807.203 532.46C808.159 533.012 809.383 532.685 809.935 531.728C810.487 530.772 810.159 529.548 809.203 528.996C808.246 528.444 807.023 528.772 806.471 529.728C805.918 530.685 806.246 531.908 807.203 532.46Z" fill="#DADADA"/>
<path d="M862.628 564.459C863.584 565.012 864.808 564.684 865.36 563.727C865.912 562.771 865.584 561.547 864.628 560.995C863.671 560.443 862.448 560.771 861.896 561.727C861.343 562.684 861.671 563.907 862.628 564.459Z" fill="#DADADA"/>
<path d="M918.054 596.459C919.01 597.012 920.234 596.684 920.786 595.727C921.338 594.771 921.01 593.547 920.054 592.995C919.097 592.443 917.874 592.771 917.322 593.727C916.769 594.684 917.097 595.907 918.054 596.459Z" fill="#DADADA"/>
<path d="M973.479 628.459C974.436 629.012 975.659 628.684 976.211 627.727C976.764 626.771 976.436 625.547 975.479 624.995C974.523 624.443 973.3 624.771 972.747 625.727C972.195 626.684 972.523 627.907 973.479 628.459Z" fill="#DADADA"/>
<path d="M165.521 235.885C166.477 236.437 167.701 236.11 168.253 235.153C168.805 234.196 168.477 232.973 167.521 232.421C166.564 231.869 165.341 232.196 164.789 233.153C164.237 234.11 164.564 235.333 165.521 235.885Z" fill="#DADADA"/>
<path d="M220.946 267.885C221.903 268.437 223.126 268.11 223.678 267.153C224.23 266.196 223.903 264.973 222.946 264.421C221.99 263.869 220.766 264.196 220.214 265.153C219.662 266.11 219.99 267.333 220.946 267.885Z" fill="#DADADA"/>
<path d="M276.372 299.885C277.329 300.437 278.552 300.11 279.104 299.153C279.656 298.196 279.329 296.973 278.372 296.421C277.415 295.869 276.192 296.196 275.64 297.153C275.088 298.11 275.415 299.333 276.372 299.885Z" fill="#DADADA"/>
<path d="M331.798 331.885C332.754 332.437 333.977 332.11 334.53 331.153C335.082 330.196 334.754 328.973 333.798 328.421C332.841 327.869 331.618 328.196 331.066 329.153C330.513 330.11 330.841 331.333 331.798 331.885Z" fill="#DADADA"/>
<path d="M775.203 587.885C776.159 588.437 777.382 588.11 777.935 587.153C778.487 586.196 778.159 584.973 777.203 584.421C776.246 583.869 775.023 584.196 774.47 585.153C773.918 586.11 774.246 587.333 775.203 587.885Z" fill="#DADADA"/>
<path d="M830.628 619.885C831.585 620.437 832.808 620.11 833.36 619.153C833.912 618.196 833.585 616.973 832.628 616.421C831.671 615.869 830.448 616.196 829.896 617.153C829.344 618.11 829.671 619.333 830.628 619.885Z" fill="#DADADA"/>
<path d="M886.054 651.885C887.01 652.437 888.234 652.11 888.786 651.153C889.338 650.196 889.01 648.973 888.054 648.421C887.097 647.869 885.874 648.196 885.322 649.153C884.769 650.11 885.097 651.333 886.054 651.885Z" fill="#DADADA"/>
<path d="M941.479 683.885C942.436 684.437 943.659 684.11 944.211 683.153C944.764 682.196 944.436 680.973 943.479 680.421C942.523 679.869 941.3 680.196 940.747 681.153C940.195 682.11 940.523 683.333 941.479 683.885Z" fill="#DADADA"/>
<path d="M133.521 291.311C134.477 291.863 135.701 291.535 136.253 290.579C136.805 289.622 136.477 288.399 135.521 287.847C134.564 287.294 133.341 287.622 132.789 288.579C132.237 289.535 132.564 290.758 133.521 291.311Z" fill="#DADADA"/>
<path d="M188.946 323.311C189.903 323.863 191.126 323.535 191.678 322.579C192.23 321.622 191.903 320.399 190.946 319.847C189.99 319.294 188.766 319.622 188.214 320.579C187.662 321.535 187.99 322.758 188.946 323.311Z" fill="#DADADA"/>
<path d="M244.372 355.311C245.329 355.863 246.552 355.535 247.104 354.579C247.656 353.622 247.329 352.399 246.372 351.847C245.415 351.294 244.192 351.622 243.64 352.579C243.088 353.535 243.415 354.758 244.372 355.311Z" fill="#DADADA"/>
<path d="M299.798 387.311C300.754 387.863 301.977 387.535 302.53 386.579C303.082 385.622 302.754 384.399 301.798 383.847C300.841 383.294 299.618 383.622 299.066 384.579C298.513 385.535 298.841 386.758 299.798 387.311Z" fill="#DADADA"/>
<path d="M354.223 421.042C356.136 422.147 358.583 421.492 359.687 419.578C360.792 417.665 360.136 415.219 358.223 414.114C356.31 413.01 353.864 413.665 352.759 415.578C351.654 417.492 352.31 419.938 354.223 421.042Z" fill="#D7D7D7"/>
<path d="M409.648 453.042C411.562 454.147 414.008 453.492 415.113 451.578C416.217 449.665 415.562 447.219 413.648 446.114C411.735 445.01 409.289 445.665 408.184 447.578C407.08 449.492 407.735 451.938 409.648 453.042Z" fill="#DADADA"/>
<path d="M465.074 485.042C466.988 486.147 469.434 485.492 470.539 483.578C471.643 481.665 470.988 479.219 469.074 478.114C467.161 477.01 464.715 477.665 463.61 479.578C462.506 481.492 463.161 483.938 465.074 485.042Z" fill="#D7D7D7"/>
<path d="M520.5 517.042C522.413 518.147 524.86 517.492 525.964 515.578C527.069 513.665 526.413 511.219 524.5 510.114C522.587 509.01 520.14 509.665 519.036 511.578C517.931 513.492 518.587 515.938 520.5 517.042Z" fill="#DADADA"/>
<path d="M575.926 549.042C577.839 550.147 580.285 549.492 581.39 547.578C582.494 545.665 581.839 543.219 579.926 542.114C578.012 541.01 575.566 541.665 574.461 543.578C573.357 545.492 574.012 547.938 575.926 549.042Z" fill="#D7D7D7"/>
<path d="M631.351 581.042C633.264 582.147 635.711 581.492 636.815 579.578C637.92 577.665 637.264 575.219 635.351 574.114C633.438 573.01 630.992 573.665 629.887 575.578C628.783 577.492 629.438 579.938 631.351 581.042Z" fill="#DADADA"/>
<path d="M686.777 613.042C688.69 614.147 691.136 613.492 692.241 611.578C693.346 609.665 692.69 607.219 690.777 606.114C688.864 605.01 686.417 605.665 685.313 607.578C684.208 609.492 684.864 611.938 686.777 613.042Z" fill="#D7D7D7"/>
<path d="M743.203 643.311C744.159 643.863 745.382 643.535 745.935 642.579C746.487 641.622 746.159 640.399 745.203 639.847C744.246 639.294 743.023 639.622 742.47 640.579C741.918 641.535 742.246 642.758 743.203 643.311Z" fill="#DADADA"/>
<path d="M798.628 675.311C799.585 675.863 800.808 675.535 801.36 674.579C801.912 673.622 801.585 672.399 800.628 671.847C799.671 671.294 798.448 671.622 797.896 672.579C797.344 673.535 797.671 674.758 798.628 675.311Z" fill="#DADADA"/>
<path d="M854.054 707.311C855.01 707.863 856.233 707.535 856.786 706.579C857.338 705.622 857.01 704.399 856.054 703.847C855.097 703.294 853.874 703.622 853.322 704.579C852.769 705.535 853.097 706.758 854.054 707.311Z" fill="#DADADA"/>
<path d="M909.479 739.311C910.436 739.863 911.659 739.535 912.211 738.579C912.764 737.622 912.436 736.399 911.479 735.847C910.523 735.294 909.3 735.622 908.747 736.579C908.195 737.535 908.523 738.758 909.479 739.311Z" fill="#DADADA"/>
<path d="M101.521 346.737C102.477 347.289 103.701 346.961 104.253 346.005C104.805 345.048 104.477 343.825 103.521 343.272C102.564 342.72 101.341 343.048 100.789 344.005C100.237 344.961 100.564 346.184 101.521 346.737Z" fill="#DADADA"/>
<path d="M156.947 378.736C157.903 379.288 159.126 378.96 159.679 378.004C160.231 377.047 159.903 375.824 158.947 375.271C157.99 374.719 156.767 375.047 156.215 376.004C155.662 376.96 155.99 378.183 156.947 378.736Z" fill="#DADADA"/>
<path d="M212.372 410.736C213.329 411.288 214.552 410.96 215.104 410.004C215.657 409.047 215.329 407.824 214.372 407.271C213.416 406.719 212.192 407.047 211.64 408.004C211.088 408.96 211.416 410.183 212.372 410.736Z" fill="#DADADA"/>
<path d="M323.223 474.737C324.18 475.289 325.403 474.961 325.955 474.005C326.507 473.048 326.18 471.825 325.223 471.272C324.266 470.72 323.043 471.048 322.491 472.005C321.939 472.961 322.266 474.184 323.223 474.737Z" fill="#DADADA"/>
<path d="M378.649 506.737C379.605 507.289 380.828 506.961 381.381 506.005C381.933 505.048 381.605 503.825 380.649 503.272C379.692 502.72 378.469 503.048 377.917 504.005C377.364 504.961 377.692 506.184 378.649 506.737Z" fill="#DADADA"/>
<path d="M434.074 538.737C435.031 539.289 436.254 538.961 436.806 538.005C437.359 537.048 437.031 535.825 436.074 535.272C435.118 534.72 433.895 535.048 433.342 536.005C432.79 536.961 433.118 538.184 434.074 538.737Z" fill="#DADADA"/>
<path d="M544.926 602.737C545.882 603.289 547.105 602.961 547.658 602.005C548.21 601.048 547.882 599.825 546.926 599.272C545.969 598.72 544.746 599.048 544.194 600.005C543.641 600.961 543.969 602.184 544.926 602.737Z" fill="#DADADA"/>
<path d="M600.351 634.737C601.308 635.289 602.531 634.961 603.083 634.005C603.636 633.048 603.308 631.825 602.351 631.272C601.395 630.72 600.171 631.048 599.619 632.005C599.067 632.961 599.395 634.184 600.351 634.737Z" fill="#DADADA"/>
<path d="M655.777 666.737C656.733 667.289 657.956 666.961 658.509 666.005C659.061 665.048 658.733 663.825 657.777 663.272C656.82 662.72 655.597 663.048 655.045 664.005C654.492 664.961 654.82 666.184 655.777 666.737Z" fill="#DADADA"/>
<path d="M766.628 730.737C767.585 731.289 768.808 730.961 769.36 730.005C769.912 729.048 769.585 727.825 768.628 727.272C767.671 726.72 766.448 727.048 765.896 728.005C765.344 728.961 765.671 730.184 766.628 730.737Z" fill="#DADADA"/>
<path d="M822.054 762.737C823.01 763.289 824.234 762.961 824.786 762.005C825.338 761.048 825.01 759.825 824.054 759.272C823.097 758.72 821.874 759.048 821.322 760.005C820.769 760.961 821.097 762.184 822.054 762.737Z" fill="#DADADA"/>
<path d="M877.479 794.737C878.436 795.289 879.659 794.961 880.211 794.005C880.764 793.048 880.436 791.825 879.479 791.272C878.523 790.72 877.3 791.048 876.747 792.005C876.195 792.961 876.523 794.184 877.479 794.737Z" fill="#DADADA"/>
<path d="M69.5209 402.162C70.4775 402.715 71.7006 402.387 72.2529 401.43C72.8052 400.474 72.4775 399.251 71.5209 398.698C70.5643 398.146 69.3411 398.474 68.7888 399.43C68.2365 400.387 68.5643 401.61 69.5209 402.162Z" fill="#DADADA"/>
<path d="M124.946 434.162C125.903 434.715 127.126 434.387 127.678 433.43C128.231 432.474 127.903 431.251 126.946 430.698C125.99 430.146 124.767 430.474 124.214 431.43C123.662 432.387 123.99 433.61 124.946 434.162Z" fill="#DADADA"/>
<path d="M235.797 498.162C236.754 498.715 237.977 498.387 238.53 497.43C239.082 496.474 238.754 495.251 237.797 494.698C236.841 494.146 235.618 494.474 235.065 495.43C234.513 496.387 234.841 497.61 235.797 498.162Z" fill="#DADADA"/>
<path d="M291.223 530.162C292.18 530.715 293.403 530.387 293.955 529.43C294.507 528.474 294.18 527.251 293.223 526.698C292.266 526.146 291.043 526.474 290.491 527.43C289.939 528.387 290.266 529.61 291.223 530.162Z" fill="#DADADA"/>
<path d="M346.649 562.162C347.605 562.715 348.828 562.387 349.381 561.43C349.933 560.474 349.605 559.251 348.649 558.698C347.692 558.146 346.469 558.474 345.917 559.43C345.364 560.387 345.692 561.61 346.649 562.162Z" fill="#DADADA"/>
<path d="M402.074 594.162C403.031 594.715 404.254 594.387 404.806 593.43C405.359 592.474 405.031 591.251 404.074 590.698C403.118 590.146 401.895 590.474 401.342 591.43C400.79 592.387 401.118 593.61 402.074 594.162Z" fill="#DADADA"/>
<path d="M512.926 658.162C513.882 658.715 515.105 658.387 515.658 657.43C516.21 656.474 515.882 655.251 514.926 654.698C513.969 654.146 512.746 654.474 512.194 655.43C511.641 656.387 511.969 657.61 512.926 658.162Z" fill="#DADADA"/>
<path d="M568.351 690.162C569.308 690.715 570.531 690.387 571.083 689.43C571.636 688.474 571.308 687.251 570.351 686.698C569.395 686.146 568.171 686.474 567.619 687.43C567.067 688.387 567.395 689.61 568.351 690.162Z" fill="#DADADA"/>
<path d="M623.777 722.162C624.733 722.715 625.956 722.387 626.509 721.43C627.061 720.474 626.733 719.251 625.777 718.698C624.82 718.146 623.597 718.474 623.045 719.43C622.492 720.387 622.82 721.61 623.777 722.162Z" fill="#DADADA"/>
<path d="M679.203 754.162C680.159 754.715 681.382 754.387 681.935 753.43C682.487 752.474 682.159 751.251 681.203 750.698C680.246 750.146 679.023 750.474 678.47 751.43C677.918 752.387 678.246 753.61 679.203 754.162Z" fill="#DADADA"/>
<path d="M790.054 818.162C791.01 818.715 792.234 818.387 792.786 817.43C793.338 816.474 793.01 815.251 792.054 814.698C791.097 814.146 789.874 814.474 789.322 815.43C788.769 816.387 789.097 817.61 790.054 818.162Z" fill="#DADADA"/>
<path d="M845.479 850.162C846.436 850.715 847.659 850.387 848.211 849.43C848.764 848.474 848.436 847.251 847.479 846.698C846.523 846.146 845.3 846.474 844.747 847.43C844.195 848.387 844.523 849.61 845.479 850.162Z" fill="#DADADA"/>
<path d="M37.5204 457.587C38.477 458.139 39.7001 457.812 40.2524 456.855C40.8047 455.899 40.477 454.675 39.5204 454.123C38.5638 453.571 37.3406 453.899 36.7883 454.855C36.236 455.812 36.5638 457.035 37.5204 457.587Z" fill="#DADADA"/>
<path d="M91.9463 491.32C93.8594 492.424 96.3058 491.769 97.4104 489.856C98.515 487.943 97.8594 485.496 95.9463 484.392C94.0331 483.287 91.5867 483.943 90.4822 485.856C89.3776 487.769 90.0331 490.215 91.9463 491.32Z" fill="#D7D7D7"/>
<path d="M148.372 521.588C149.329 522.14 150.552 521.813 151.104 520.856C151.656 519.899 151.329 518.676 150.372 518.124C149.415 517.572 148.192 517.899 147.64 518.856C147.088 519.813 147.415 521.036 148.372 521.588Z" fill="#DADADA"/>
<path d="M202.798 555.32C204.711 556.424 207.157 555.769 208.262 553.856C209.366 551.943 208.711 549.496 206.798 548.392C204.884 547.287 202.438 547.943 201.333 549.856C200.229 551.769 200.884 554.215 202.798 555.32Z" fill="#DADADA"/>
<path d="M259.223 585.588C260.18 586.14 261.403 585.813 261.955 584.856C262.507 583.899 262.18 582.676 261.223 582.124C260.266 581.572 259.043 581.899 258.491 582.856C257.939 583.813 258.266 585.036 259.223 585.588Z" fill="#DADADA"/>
<path d="M313.649 619.32C315.562 620.424 318.008 619.769 319.113 617.856C320.217 615.943 319.562 613.496 317.649 612.392C315.736 611.287 313.289 611.943 312.185 613.856C311.08 615.769 311.736 618.215 313.649 619.32Z" fill="#D7D7D7"/>
<path d="M370.074 649.588C371.031 650.14 372.254 649.813 372.806 648.856C373.359 647.899 373.031 646.676 372.074 646.124C371.118 645.572 369.895 645.899 369.342 646.856C368.79 647.813 369.118 649.036 370.074 649.588Z" fill="#DADADA"/>
<path d="M424.5 683.32C426.413 684.424 428.86 683.769 429.964 681.856C431.069 679.943 430.413 677.496 428.5 676.392C426.587 675.287 424.14 675.943 423.036 677.856C421.931 679.769 422.587 682.215 424.5 683.32Z" fill="#DADADA"/>
<path d="M480.926 713.588C481.882 714.14 483.105 713.813 483.658 712.856C484.21 711.899 483.882 710.676 482.926 710.124C481.969 709.572 480.746 709.899 480.194 710.856C479.641 711.813 479.969 713.036 480.926 713.588Z" fill="#DADADA"/>
<path d="M535.351 747.32C537.264 748.424 539.711 747.769 540.815 745.856C541.92 743.943 541.264 741.496 539.351 740.392C537.438 739.287 534.992 739.943 533.887 741.856C532.783 743.769 533.438 746.215 535.351 747.32Z" fill="#D7D7D7"/>
<path d="M591.777 777.588C592.734 778.14 593.957 777.813 594.509 776.856C595.061 775.899 594.734 774.676 593.777 774.124C592.82 773.572 591.597 773.899 591.045 774.856C590.493 775.813 590.82 777.036 591.777 777.588Z" fill="#DADADA"/>
<path d="M646.202 811.32C648.116 812.424 650.562 811.769 651.666 809.856C652.771 807.943 652.116 805.496 650.202 804.392C648.289 803.287 645.843 803.943 644.738 805.856C643.634 807.769 644.289 810.215 646.202 811.32Z" fill="#DADADA"/>
<path d="M702.628 841.588C703.585 842.14 704.808 841.813 705.36 840.856C705.912 839.899 705.585 838.676 704.628 838.124C703.671 837.572 702.448 837.899 701.896 838.856C701.344 839.813 701.671 841.036 702.628 841.588Z" fill="#DADADA"/>
<path d="M757.054 875.32C758.967 876.424 761.413 875.769 762.518 873.856C763.622 871.943 762.967 869.496 761.054 868.392C759.141 867.287 756.694 867.943 755.59 869.856C754.485 871.769 755.141 874.215 757.054 875.32Z" fill="#D7D7D7"/>
<path d="M813.48 905.588C814.436 906.14 815.659 905.813 816.212 904.856C816.764 903.899 816.436 902.676 815.48 902.124C814.523 901.572 813.3 901.899 812.748 902.856C812.195 903.813 812.523 905.036 813.48 905.588Z" fill="#DADADA"/>
</svg>
