<svg width="843" height="475" viewBox="0 0 843 475" fill="none" xmlns="http://www.w3.org/2000/svg">
<g clip-path="url(#clip0_2346_6141)">
<rect width="843" height="475" fill="#413A4D"/>
<path d="M590 569L590 -252L-133 -252L-133 569L590 569Z" fill="#2B145C"/>
<path d="M990 569L990 -252L267 -252L267 569L990 569Z" fill="#2B145C"/>
<path d="M329.522 89.415L241.364 247.171" stroke="#514EFF" stroke-width="4" stroke-linejoin="round"/>
<path d="M267.069 121.928C224.788 121.928 190.511 87.6505 190.511 45.3696C190.511 3.08865 224.788 -31.1885 267.069 -31.1885C309.35 -31.1885 343.627 3.08866 343.627 45.3696C343.627 87.6505 309.35 121.928 267.069 121.928Z" stroke="#BAC1FF" stroke-width="4" stroke-linejoin="round"/>
<path d="M255.47 45.336C255.47 51.7424 260.663 56.9357 267.069 56.9357C273.476 56.9357 278.669 51.7424 278.669 45.336C278.669 38.9297 273.476 33.7363 267.069 33.7363C260.663 33.7363 255.47 38.9297 255.47 45.336Z" stroke="#BAC1FF" stroke-width="4" stroke-linejoin="round"/>
<path d="M267.069 121.928C224.788 121.928 190.511 87.6505 190.511 45.3696C190.511 3.08865 224.788 -31.1885 267.069 -31.1885C309.35 -31.1885 343.627 3.08866 343.627 45.3696C343.627 87.6505 309.35 121.928 267.069 121.928Z" stroke="#BAC1FF" stroke-width="4" stroke-linejoin="round"/>
<path d="M255.47 45.336C255.47 51.7424 260.663 56.9357 267.069 56.9357C273.476 56.9357 278.669 51.7424 278.669 45.336C278.669 38.9297 273.476 33.7363 267.069 33.7363C260.663 33.7363 255.47 38.9297 255.47 45.336Z" stroke="#BAC1FF" stroke-width="4" stroke-linejoin="round"/>
<path d="M255.284 263.41C255.284 269.817 260.477 275.01 266.884 275.01C273.29 275.01 278.483 269.817 278.483 263.41C278.483 257.004 273.29 251.811 266.884 251.811C260.477 251.811 255.284 257.004 255.284 263.41Z" stroke="#BAC1FF" stroke-width="4" stroke-linejoin="round"/>
<path d="M55.9544 -1.02822C55.9544 5.37812 61.1478 10.5715 67.5541 10.5715C73.9604 10.5715 79.1538 5.37812 79.1538 -1.02822C79.1538 -7.43456 73.9604 -12.6279 67.5541 -12.6279C61.1478 -12.6279 55.9544 -7.43456 55.9544 -1.02822Z" stroke="#BAC1FF" stroke-width="4" stroke-linejoin="round"/>
<path d="M236.911 263.445C236.911 280.102 250.413 293.605 267.07 293.605C283.726 293.605 297.229 280.102 297.229 263.445C297.229 246.789 283.726 233.286 267.07 233.286C250.413 233.286 236.911 246.789 236.911 263.445Z" stroke="#BAC1FF" stroke-width="4" stroke-linejoin="round"/>
<path d="M37.3954 -1.02924C37.3954 15.6272 50.8981 29.13 67.5546 29.13C84.2111 29.13 97.7139 15.6273 97.7139 -1.02924C97.7139 -17.6857 84.2111 -31.1885 67.5546 -31.1885C50.8981 -31.1885 37.3954 -17.6857 37.3954 -1.02924Z" stroke="#BAC1FF" stroke-width="4" stroke-linejoin="round"/>
<path d="M426.052 463.52L296.489 337.535" stroke="#514EFF" stroke-width="4" stroke-linejoin="round"/>
<path d="M559.391 431.998L610.939 239.257" stroke="#514EFF" stroke-width="4" stroke-linejoin="round"/>
<path d="M410.81 394.78C421.754 353.939 463.734 329.702 504.574 340.645C545.415 351.588 569.652 393.569 558.709 434.409C547.766 475.249 505.785 499.487 464.945 488.544C424.105 477.601 399.867 435.62 410.81 394.78Z" stroke="#BAC1FF" stroke-width="4" stroke-linejoin="round"/>
<path d="M487.795 403.398C481.607 401.74 475.246 405.413 473.588 411.601C471.93 417.789 475.602 424.149 481.79 425.807C487.978 427.465 494.339 423.793 495.997 417.605C497.655 411.417 493.983 405.057 487.795 403.398Z" stroke="#BAC1FF" stroke-width="4" stroke-linejoin="round"/>
<path d="M277.2 346.776C271.012 345.118 264.652 348.791 262.994 354.979C261.336 361.167 265.008 367.527 271.196 369.185C277.384 370.843 283.745 367.171 285.403 360.983C287.061 354.795 283.388 348.434 277.2 346.776Z" stroke="#BAC1FF" stroke-width="4" stroke-linejoin="round"/>
<path d="M584.219 222.682C578.031 221.024 571.67 224.696 570.012 230.884C568.354 237.072 572.026 243.432 578.214 245.091C584.403 246.749 590.763 243.076 592.421 236.888C594.079 230.7 590.407 224.34 584.219 222.682Z" stroke="#BAC1FF" stroke-width="4" stroke-linejoin="round"/>
<path d="M281.922 329.02C265.833 324.709 249.296 334.257 244.984 350.346C240.673 366.435 250.221 382.972 266.31 387.283C282.399 391.594 298.937 382.046 303.248 365.957C307.559 349.868 298.011 333.331 281.922 329.02Z" stroke="#BAC1FF" stroke-width="4" stroke-linejoin="round"/>
<path d="M589.022 204.754C572.933 200.443 556.396 209.991 552.085 226.08C547.774 242.169 557.321 258.706 573.41 263.017C589.499 267.328 606.037 257.781 610.348 241.692C614.659 225.603 605.111 209.065 589.022 204.754Z" stroke="#BAC1FF" stroke-width="4" stroke-linejoin="round"/>
<path d="M409.676 94.253L736.846 181.918" stroke="#514EFF" stroke-width="4" stroke-linejoin="round"/>
<path d="M386.945 107.376C389.599 97.4712 399.771 91.5984 409.676 94.2523C419.581 96.9063 425.454 107.078 422.8 116.983C420.146 126.888 409.974 132.761 400.069 130.107C390.164 127.453 384.291 117.281 386.945 107.376Z" stroke="#BAC1FF" stroke-width="4" stroke-linejoin="round"/>
<path d="M169.256 329.495L-70.249 569" stroke="#514EFF" stroke-width="4" stroke-linejoin="round"/>
<path d="M169.256 303.249C176.507 310.499 176.507 322.245 169.256 329.496C162.006 336.746 150.26 336.746 143.009 329.496C135.759 322.245 135.759 310.499 143.009 303.249C150.26 295.998 162.006 295.998 169.256 303.249Z" stroke="#BAC1FF" stroke-width="4" stroke-linejoin="round"/>
<path d="M729.522 89.415L641.364 247.171" stroke="#514EFF" stroke-width="4" stroke-linejoin="round"/>
<path d="M667.069 121.928C624.788 121.928 590.511 87.6505 590.511 45.3696C590.511 3.08865 624.788 -31.1885 667.069 -31.1885C709.35 -31.1885 743.627 3.08866 743.627 45.3696C743.627 87.6505 709.35 121.928 667.069 121.928Z" stroke="#BAC1FF" stroke-width="4" stroke-linejoin="round"/>
<path d="M655.47 45.336C655.47 51.7424 660.663 56.9357 667.069 56.9357C673.476 56.9357 678.669 51.7424 678.669 45.336C678.669 38.9297 673.476 33.7363 667.069 33.7363C660.663 33.7363 655.47 38.9297 655.47 45.336Z" stroke="#BAC1FF" stroke-width="4" stroke-linejoin="round"/>
<path d="M667.069 121.928C624.788 121.928 590.511 87.6505 590.511 45.3696C590.511 3.08865 624.788 -31.1885 667.069 -31.1885C709.35 -31.1885 743.627 3.08866 743.627 45.3696C743.627 87.6505 709.35 121.928 667.069 121.928Z" stroke="#BAC1FF" stroke-width="4" stroke-linejoin="round"/>
<path d="M655.47 45.336C655.47 51.7424 660.663 56.9357 667.069 56.9357C673.476 56.9357 678.669 51.7424 678.669 45.336C678.669 38.9297 673.476 33.7363 667.069 33.7363C660.663 33.7363 655.47 38.9297 655.47 45.336Z" stroke="#BAC1FF" stroke-width="4" stroke-linejoin="round"/>
<path d="M655.284 263.41C655.284 269.817 660.477 275.01 666.884 275.01C673.29 275.01 678.483 269.817 678.483 263.41C678.483 257.004 673.29 251.811 666.884 251.811C660.477 251.811 655.284 257.004 655.284 263.41Z" stroke="#BAC1FF" stroke-width="4" stroke-linejoin="round"/>
<path d="M455.954 -1.02822C455.954 5.37812 461.148 10.5715 467.554 10.5715C473.96 10.5715 479.154 5.37812 479.154 -1.02822C479.154 -7.43456 473.96 -12.6279 467.554 -12.6279C461.148 -12.6279 455.954 -7.43456 455.954 -1.02822Z" stroke="#BAC1FF" stroke-width="4" stroke-linejoin="round"/>
<path d="M636.911 263.445C636.911 280.102 650.413 293.605 667.07 293.605C683.726 293.605 697.229 280.102 697.229 263.445C697.229 246.789 683.726 233.286 667.07 233.286C650.413 233.286 636.911 246.789 636.911 263.445Z" stroke="#BAC1FF" stroke-width="4" stroke-linejoin="round"/>
<path d="M437.395 -1.02924C437.395 15.6272 450.898 29.13 467.555 29.13C484.211 29.13 497.714 15.6273 497.714 -1.02924C497.714 -17.6857 484.211 -31.1885 467.555 -31.1885C450.898 -31.1885 437.395 -17.6857 437.395 -1.02924Z" stroke="#BAC1FF" stroke-width="4" stroke-linejoin="round"/>
<path d="M826.052 463.52L696.489 337.535" stroke="#514EFF" stroke-width="4" stroke-linejoin="round"/>
<path d="M810.81 394.78C821.754 353.939 863.734 329.702 904.574 340.645C945.415 351.588 969.652 393.569 958.709 434.409C947.766 475.249 905.785 499.487 864.945 488.544C824.105 477.601 799.867 435.62 810.81 394.78Z" stroke="#BAC1FF" stroke-width="4" stroke-linejoin="round"/>
<path d="M677.2 346.776C671.012 345.118 664.652 348.791 662.994 354.979C661.336 361.167 665.008 367.527 671.196 369.185C677.384 370.843 683.745 367.171 685.403 360.983C687.061 354.795 683.388 348.434 677.2 346.776Z" stroke="#BAC1FF" stroke-width="4" stroke-linejoin="round"/>
<path d="M681.922 329.02C665.833 324.709 649.296 334.257 644.984 350.346C640.673 366.435 650.221 382.972 666.31 387.283C682.399 391.594 698.937 382.046 703.248 365.957C707.559 349.868 698.011 333.331 681.922 329.02Z" stroke="#BAC1FF" stroke-width="4" stroke-linejoin="round"/>
<path d="M809.676 94.253L1136.85 181.918" stroke="#514EFF" stroke-width="4" stroke-linejoin="round"/>
<path d="M786.945 107.376C789.599 97.4712 799.771 91.5984 809.676 94.2523C819.581 96.9063 825.454 107.078 822.8 116.983C820.146 126.888 809.974 132.761 800.069 130.107C790.164 127.453 784.291 117.281 786.945 107.376Z" stroke="#BAC1FF" stroke-width="4" stroke-linejoin="round"/>
<path d="M569.256 329.495L329.751 569" stroke="#514EFF" stroke-width="4" stroke-linejoin="round"/>
<path d="M569.256 303.249C576.507 310.499 576.507 322.245 569.256 329.496C562.006 336.746 550.26 336.746 543.009 329.496C535.759 322.245 535.759 310.499 543.009 303.249C550.26 295.998 562.006 295.998 569.256 303.249Z" stroke="#BAC1FF" stroke-width="4" stroke-linejoin="round"/>
</g>
<defs>
<clipPath id="clip0_2346_6141">
<rect width="843" height="475" fill="white"/>
</clipPath>
</defs>
</svg>
