<svg width="1043" height="678" viewBox="0 0 1043 678" fill="none" xmlns="http://www.w3.org/2000/svg">
<path d="M757.25 644.75C783.76 644.75 805.25 623.26 805.25 596.75C805.25 570.24 783.76 548.75 757.25 548.75" stroke="black" stroke-width="2" stroke-linecap="round" stroke-linejoin="round"/>
<path d="M757.25 452.75C730.74 452.75 709.25 474.24 709.25 500.75C709.25 527.26 730.74 548.75 757.25 548.75" stroke="black" stroke-width="2" stroke-linecap="round" stroke-linejoin="round"/>
<path d="M757.25 68.75C730.74 68.75 709.25 90.24 709.25 116.75C709.25 143.26 730.74 164.75 757.25 164.75" stroke="black" stroke-width="2" stroke-linecap="round" stroke-linejoin="round"/>
<path d="M757.25 260.749C651.21 260.749 565.25 346.709 565.25 452.749C565.25 558.789 651.21 644.749 757.25 644.749" stroke="black" stroke-width="2" stroke-linecap="round" stroke-linejoin="round"/>
<path d="M757.25 356.749C677.72 356.749 613.25 421.219 613.25 500.749C613.25 580.279 677.72 644.749 757.25 644.749" stroke="black" stroke-width="2" stroke-linecap="round" stroke-linejoin="round"/>
<path d="M757.25 452.749C704.23 452.749 661.25 495.729 661.25 548.749C661.25 601.769 704.23 644.749 757.25 644.749" stroke="black" stroke-width="2" stroke-linecap="round" stroke-linejoin="round"/>
<path d="M757.25 68.75C637.18 68.75 531.93 132.75 473.25 228.75" stroke="black" stroke-width="2" stroke-linecap="round" stroke-linejoin="round"/>
<path d="M757.25 548.749C730.74 548.749 709.25 570.239 709.25 596.749C709.25 623.259 730.74 644.749 757.25 644.749" stroke="black" stroke-width="2" stroke-linecap="round" stroke-linejoin="round"/>
<path d="M581.25 124.75C581.25 120.332 577.668 116.75 573.25 116.75C568.832 116.75 565.25 120.332 565.25 124.75C565.25 129.168 568.832 132.75 573.25 132.75C577.668 132.75 581.25 129.168 581.25 124.75Z" fill="#46209D" stroke="black" stroke-width="2" stroke-linecap="round" stroke-linejoin="round"/>
<path d="M709.25 268.75C709.25 264.332 705.668 260.75 701.25 260.75C696.832 260.75 693.25 264.332 693.25 268.75C693.25 273.168 696.832 276.75 701.25 276.75C705.668 276.75 709.25 273.168 709.25 268.75Z" fill="#46209D" stroke="black" stroke-width="2" stroke-linecap="round" stroke-linejoin="round"/>
<path d="M781.25 356.75C781.25 343.495 770.505 332.75 757.25 332.75C743.995 332.75 733.25 343.495 733.25 356.75C733.25 370.005 743.995 380.75 757.25 380.75C770.505 380.75 781.25 370.005 781.25 356.75Z" fill="#070CBD" stroke="black" stroke-width="2" stroke-linecap="round" stroke-linejoin="round"/>
<path d="M765.25 356.75C765.25 352.332 761.668 348.75 757.25 348.75C752.832 348.75 749.25 352.332 749.25 356.75C749.25 361.168 752.832 364.75 757.25 364.75C761.668 364.75 765.25 361.168 765.25 356.75Z" fill="#46209D" stroke="black" stroke-width="2" stroke-linecap="round" stroke-linejoin="round"/>
<path d="M677.25 476.75L677.25 492.75L693.25 492.75L693.25 476.75L677.25 476.75Z" fill="#46209D" stroke="black" stroke-width="2" stroke-linecap="round" stroke-linejoin="round"/>
<path d="M737.25 536.75L737.25 568.75L769.25 568.75L769.25 536.75L737.25 536.75Z" fill="#070CBD" stroke="black" stroke-width="1.33" stroke-linecap="round" stroke-linejoin="round"/>
<path d="M757.25 260.75C783.76 260.75 805.25 239.26 805.25 212.75C805.25 186.24 783.76 164.75 757.25 164.75" stroke="black" stroke-width="2" stroke-linecap="round" stroke-linejoin="round"/>
<path d="M757.25 452.75C863.29 452.75 949.25 366.79 949.25 260.75C949.25 154.71 863.29 68.75 757.25 68.75" stroke="black" stroke-width="2" stroke-linecap="round" stroke-linejoin="round"/>
<path d="M757.25 356.75C836.78 356.75 901.25 292.28 901.25 212.75C901.25 133.22 836.78 68.75 757.25 68.75" stroke="black" stroke-width="2" stroke-linecap="round" stroke-linejoin="round"/>
<path d="M757.25 260.75C810.27 260.75 853.25 217.77 853.25 164.75C853.25 111.73 810.27 68.75 757.25 68.75" stroke="black" stroke-width="2" stroke-linecap="round" stroke-linejoin="round"/>
<path d="M757.25 644.75C877.32 644.75 982.57 580.75 1041.25 484.75" stroke="black" stroke-width="2" stroke-linecap="round" stroke-linejoin="round"/>
<path d="M757.25 164.75C783.76 164.75 805.25 143.26 805.25 116.75C805.25 90.24 783.76 68.75 757.25 68.75" stroke="black" stroke-width="2" stroke-linecap="round" stroke-linejoin="round"/>
<path d="M957.25 260.751C957.25 256.333 953.668 252.751 949.25 252.751C944.832 252.751 941.25 256.333 941.25 260.751C941.25 265.169 944.832 268.751 949.25 268.751C953.668 268.751 957.25 265.169 957.25 260.751Z" fill="#070CBD" stroke="black" stroke-width="2" stroke-linecap="round" stroke-linejoin="round"/>
<path d="M949.25 588.75C949.25 584.332 945.668 580.75 941.25 580.75C936.832 580.75 933.25 584.332 933.25 588.75C933.25 593.168 936.832 596.75 941.25 596.75C945.668 596.75 949.25 593.168 949.25 588.75Z" fill="#46209D" stroke="black" stroke-width="2" stroke-linecap="round" stroke-linejoin="round"/>
<path d="M821.25 444.75C821.25 440.332 817.668 436.75 813.25 436.75C808.832 436.75 805.25 440.332 805.25 444.75C805.25 449.168 808.832 452.75 813.25 452.75C817.668 452.75 821.25 449.168 821.25 444.75Z" fill="#46209D" stroke="black" stroke-width="2" stroke-linecap="round" stroke-linejoin="round"/>
<path d="M781.25 356.75C781.25 343.495 770.505 332.75 757.25 332.75C743.995 332.75 733.25 343.495 733.25 356.75C733.25 370.005 743.995 380.75 757.25 380.75C770.505 380.75 781.25 370.005 781.25 356.75Z" fill="#070CBD" stroke="black" stroke-width="2" stroke-linecap="round" stroke-linejoin="round"/>
<path d="M773.25 452.75C773.25 443.913 766.087 436.75 757.25 436.75C748.413 436.75 741.25 443.913 741.25 452.75C741.25 461.587 748.413 468.75 757.25 468.75C766.087 468.75 773.25 461.587 773.25 452.75Z" fill="#070CBD" stroke="black" stroke-width="1.33" stroke-linecap="round" stroke-linejoin="round"/>
<path d="M1006.25 549.751L1006.25 533.751L990.25 533.751L990.25 549.751L1006.25 549.751Z" fill="#46209D" stroke="black" stroke-width="2" stroke-linecap="round" stroke-linejoin="round"/>
<path d="M837.25 236.75L837.25 220.75L821.25 220.75L821.25 236.75L837.25 236.75Z" fill="#46209D" stroke="black" stroke-width="2" stroke-linecap="round" stroke-linejoin="round"/>
<path d="M755.358 608.55L721.254 642.653L755.358 676.757L789.461 642.653L755.358 608.55Z" fill="#070CBD" stroke="black" stroke-width="2.01" stroke-linecap="round" stroke-linejoin="round"/>
<path d="M757.248 249.439L745.935 260.753L757.248 272.067L768.562 260.753L757.248 249.439Z" fill="#46209D" stroke="black" stroke-width="2" stroke-linecap="round" stroke-linejoin="round"/>
<path d="M768.25 63.75L768.25 79.75L784.25 79.75L784.25 63.75L768.25 63.75Z" fill="#46209D" stroke="black" stroke-width="2" stroke-linecap="round" stroke-linejoin="round"/>
<path d="M285.25 33.25C258.74 33.25 237.25 54.74 237.25 81.25C237.25 107.76 258.74 129.25 285.25 129.25" stroke="black" stroke-width="2" stroke-linecap="round" stroke-linejoin="round"/>
<path d="M285.25 225.25C311.76 225.25 333.25 203.76 333.25 177.25C333.25 150.74 311.76 129.25 285.25 129.25" stroke="black" stroke-width="2" stroke-linecap="round" stroke-linejoin="round"/>
<path d="M285.25 609.25C311.76 609.25 333.25 587.76 333.25 561.25C333.25 534.74 311.76 513.25 285.25 513.25" stroke="black" stroke-width="2" stroke-linecap="round" stroke-linejoin="round"/>
<path d="M285.25 417.25C391.29 417.25 477.25 331.29 477.25 225.25C477.25 119.21 391.29 33.25 285.25 33.25" stroke="black" stroke-width="2" stroke-linecap="round" stroke-linejoin="round"/>
<path d="M285.25 321.25C364.78 321.25 429.25 256.78 429.25 177.25C429.25 97.72 364.78 33.25 285.25 33.25" stroke="black" stroke-width="2" stroke-linecap="round" stroke-linejoin="round"/>
<path d="M285.25 225.25C338.27 225.25 381.25 182.27 381.25 129.25C381.25 76.23 338.27 33.25 285.25 33.25" stroke="black" stroke-width="2" stroke-linecap="round" stroke-linejoin="round"/>
<path d="M285.25 609.25C405.32 609.25 510.57 545.25 569.25 449.25" stroke="black" stroke-width="2" stroke-linecap="round" stroke-linejoin="round"/>
<path d="M285.25 129.25C311.76 129.25 333.25 107.76 333.25 81.25C333.25 54.74 311.76 33.25 285.25 33.25" stroke="black" stroke-width="2" stroke-linecap="round" stroke-linejoin="round"/>
<path d="M469.25 225.25C469.25 229.668 472.832 233.25 477.25 233.25C481.668 233.25 485.25 229.668 485.25 225.25C485.25 220.832 481.668 217.25 477.25 217.25C472.832 217.25 469.25 220.832 469.25 225.25Z" fill="#070CBD" stroke="black" stroke-width="2" stroke-linecap="round" stroke-linejoin="round"/>
<path d="M461.25 553.25C461.25 557.668 464.832 561.25 469.25 561.25C473.668 561.25 477.25 557.668 477.25 553.25C477.25 548.832 473.668 545.25 469.25 545.25C464.832 545.25 461.25 548.832 461.25 553.25Z" fill="#46209D" stroke="black" stroke-width="2" stroke-linecap="round" stroke-linejoin="round"/>
<path d="M333.25 409.25C333.25 413.668 336.832 417.25 341.25 417.25C345.668 417.25 349.25 413.668 349.25 409.25C349.25 404.832 345.668 401.25 341.25 401.25C336.832 401.25 333.25 404.832 333.25 409.25Z" fill="#46209D" stroke="black" stroke-width="2" stroke-linecap="round" stroke-linejoin="round"/>
<path d="M261.25 321.25C261.25 334.505 271.995 345.25 285.25 345.25C298.505 345.25 309.25 334.505 309.25 321.25C309.25 307.995 298.505 297.25 285.25 297.25C271.995 297.25 261.25 307.995 261.25 321.25Z" fill="#070CBD" stroke="black" stroke-width="2" stroke-linecap="round" stroke-linejoin="round"/>
<path d="M277.25 321.25C277.25 325.668 280.832 329.25 285.25 329.25C289.668 329.25 293.25 325.668 293.25 321.25C293.25 316.832 289.668 313.25 285.25 313.25C280.832 313.25 277.25 316.832 277.25 321.25Z" fill="#46209D" stroke="black" stroke-width="2" stroke-linecap="round" stroke-linejoin="round"/>
<path d="M365.25 201.25L365.25 185.25L349.25 185.25L349.25 201.25L365.25 201.25Z" fill="#46209D" stroke="black" stroke-width="2" stroke-linecap="round" stroke-linejoin="round"/>
<path d="M305.25 141.25L305.25 109.25L273.25 109.25L273.25 141.25L305.25 141.25Z" fill="#070CBD" stroke="black" stroke-width="1.33" stroke-linecap="round" stroke-linejoin="round"/>
<path d="M285.25 417.25C258.74 417.25 237.25 438.74 237.25 465.25C237.25 491.76 258.74 513.25 285.25 513.25" stroke="black" stroke-width="2" stroke-linecap="round" stroke-linejoin="round"/>
<path d="M285.25 225.25C179.21 225.25 93.25 311.21 93.25 417.25C93.25 523.29 179.21 609.25 285.25 609.25" stroke="black" stroke-width="2" stroke-linecap="round" stroke-linejoin="round"/>
<path d="M285.25 321.25C205.72 321.25 141.25 385.72 141.25 465.25C141.25 544.78 205.72 609.25 285.25 609.25" stroke="black" stroke-width="2" stroke-linecap="round" stroke-linejoin="round"/>
<path d="M285.25 417.25C232.23 417.25 189.25 460.23 189.25 513.25C189.25 566.27 232.23 609.25 285.25 609.25" stroke="black" stroke-width="2" stroke-linecap="round" stroke-linejoin="round"/>
<path d="M285.25 33.25C165.18 33.25 59.93 97.25 1.24999 193.25" stroke="black" stroke-width="2" stroke-linecap="round" stroke-linejoin="round"/>
<path d="M285.25 513.25C258.74 513.25 237.25 534.74 237.25 561.25C237.25 587.76 258.74 609.25 285.25 609.25" stroke="black" stroke-width="2" stroke-linecap="round" stroke-linejoin="round"/>
<path d="M85.25 417.25C85.25 421.668 88.8317 425.25 93.25 425.25C97.6683 425.25 101.25 421.668 101.25 417.25C101.25 412.832 97.6683 409.25 93.25 409.25C88.8317 409.25 85.25 412.832 85.25 417.25Z" fill="#070CBD" stroke="black" stroke-width="2" stroke-linecap="round" stroke-linejoin="round"/>
<path d="M93.25 89.25C93.25 93.6683 96.8317 97.25 101.25 97.25C105.668 97.25 109.25 93.6683 109.25 89.25C109.25 84.8317 105.668 81.25 101.25 81.25C96.8317 81.25 93.25 84.8317 93.25 89.25Z" fill="#46209D" stroke="black" stroke-width="2" stroke-linecap="round" stroke-linejoin="round"/>
<path d="M221.25 233.25C221.25 237.668 224.832 241.25 229.25 241.25C233.668 241.25 237.25 237.668 237.25 233.25C237.25 228.832 233.668 225.25 229.25 225.25C224.832 225.25 221.25 228.832 221.25 233.25Z" fill="#46209D" stroke="black" stroke-width="2" stroke-linecap="round" stroke-linejoin="round"/>
<path d="M261.25 321.25C261.25 334.505 271.995 345.25 285.25 345.25C298.505 345.25 309.25 334.505 309.25 321.25C309.25 307.995 298.505 297.25 285.25 297.25C271.995 297.25 261.25 307.995 261.25 321.25Z" fill="#070CBD" stroke="black" stroke-width="2" stroke-linecap="round" stroke-linejoin="round"/>
<path d="M269.25 225.25C269.25 234.087 276.413 241.25 285.25 241.25C294.087 241.25 301.25 234.087 301.25 225.25C301.25 216.413 294.087 209.25 285.25 209.25C276.413 209.25 269.25 216.413 269.25 225.25Z" fill="#070CBD" stroke="black" stroke-width="1.33" stroke-linecap="round" stroke-linejoin="round"/>
<path d="M36.25 128.25L36.25 144.25L52.25 144.25L52.25 128.25L36.25 128.25Z" fill="#46209D" stroke="black" stroke-width="2" stroke-linecap="round" stroke-linejoin="round"/>
<path d="M205.25 441.25L205.25 457.25L221.25 457.25L221.25 441.25L205.25 441.25Z" fill="#46209D" stroke="black" stroke-width="2" stroke-linecap="round" stroke-linejoin="round"/>
<path d="M287.142 69.4504L321.246 35.3467L287.142 1.24291L253.039 35.3467L287.142 69.4504Z" fill="#070CBD" stroke="black" stroke-width="2.01" stroke-linecap="round" stroke-linejoin="round"/>
<path d="M285.252 428.561L296.565 417.247L285.252 405.933L273.938 417.247L285.252 428.561Z" fill="#46209D" stroke="black" stroke-width="2" stroke-linecap="round" stroke-linejoin="round"/>
<path d="M274.25 614.25L274.25 598.25L258.25 598.25L258.25 614.25L274.25 614.25Z" fill="#46209D" stroke="black" stroke-width="2" stroke-linecap="round" stroke-linejoin="round"/>
<path d="M573.25 452.75C573.25 448.332 569.668 444.75 565.25 444.75C560.832 444.75 557.25 448.332 557.25 452.75C557.25 457.168 560.832 460.75 565.25 460.75C569.668 460.75 573.25 457.168 573.25 452.75Z" fill="#070CBD" stroke="black" stroke-width="2" stroke-linecap="round" stroke-linejoin="round"/>
</svg>
