<svg width="16" height="17" viewBox="0 0 16 17" fill="none" xmlns="http://www.w3.org/2000/svg">
<rect width="16" height="16" transform="translate(0 0.511719)" fill="white" fill-opacity="0.01" style="mix-blend-mode:multiply"/>
<path d="M3 11.0117V10.5117H2V11.0117C2 11.94 2.36875 12.8302 3.02513 13.4866C3.6815 14.143 4.57174 14.5117 5.5 14.5117H7V13.5117H5.5C4.83696 13.5117 4.20107 13.2483 3.73223 12.7795C3.26339 12.3106 3 11.6748 3 11.0117Z" fill="#161616"/>
<path d="M12 6.01172V6.51172H13V6.01172C13 5.08346 12.6313 4.19322 11.9749 3.53685C11.3185 2.88047 10.4283 2.51172 9.5 2.51172H8V3.51172H9.5C9.8283 3.51172 10.1534 3.57638 10.4567 3.70202C10.76 3.82766 11.0356 4.01181 11.2678 4.24395C11.4999 4.4761 11.6841 4.7517 11.8097 5.05501C11.9353 5.35833 12 5.68341 12 6.01172Z" fill="#161616"/>
<path d="M5.5 6.01172H2.5C2.10218 6.01172 1.72064 6.16975 1.43934 6.45106C1.15804 6.73236 1 7.11389 1 7.51172V8.51172H2V7.51172C2 7.37911 2.05268 7.25193 2.14645 7.15817C2.24021 7.0644 2.36739 7.01172 2.5 7.01172H5.5C5.63261 7.01172 5.75979 7.0644 5.85355 7.15817C5.94732 7.25193 6 7.37911 6 7.51172V8.51172H7V7.51172C7 7.11389 6.84196 6.73236 6.56066 6.45106C6.27936 6.16975 5.89782 6.01172 5.5 6.01172Z" fill="#161616"/>
<path d="M4 5.51172C4.39556 5.51172 4.78224 5.39442 5.11114 5.17466C5.44004 4.9549 5.69638 4.64254 5.84776 4.27709C5.99913 3.91163 6.03874 3.5095 5.96157 3.12154C5.8844 2.73358 5.69392 2.37721 5.41421 2.09751C5.13451 1.8178 4.77814 1.62732 4.39018 1.55015C4.00222 1.47298 3.60009 1.51259 3.23463 1.66396C2.86918 1.81534 2.55682 2.07168 2.33706 2.40058C2.1173 2.72948 2 3.11616 2 3.51172C2 4.04215 2.21071 4.55086 2.58579 4.92593C2.96086 5.30101 3.46957 5.51172 4 5.51172ZM4 2.51172C4.19778 2.51172 4.39112 2.57037 4.55557 2.68025C4.72002 2.79013 4.84819 2.94631 4.92388 3.12904C4.99957 3.31176 5.01937 3.51283 4.98079 3.70681C4.9422 3.90079 4.84696 4.07897 4.70711 4.21883C4.56725 4.35868 4.38907 4.45392 4.19509 4.49251C4.00111 4.53109 3.80004 4.51129 3.61732 4.4356C3.43459 4.35991 3.27841 4.23174 3.16853 4.06729C3.05865 3.90284 3 3.7095 3 3.51172C3 3.2465 3.10536 2.99215 3.29289 2.80461C3.48043 2.61708 3.73478 2.51172 4 2.51172Z" fill="#161616"/>
<path d="M13.5 13.0117H10.5C10.1022 13.0117 9.72064 13.1698 9.43934 13.4511C9.15804 13.7324 9 14.1139 9 14.5117V15.5117H10V14.5117C10 14.3791 10.0527 14.2519 10.1464 14.1582C10.2402 14.0644 10.3674 14.0117 10.5 14.0117H13.5C13.6326 14.0117 13.7598 14.0644 13.8536 14.1582C13.9473 14.2519 14 14.3791 14 14.5117V15.5117H15V14.5117C15 14.1139 14.842 13.7324 14.5607 13.4511C14.2794 13.1698 13.8978 13.0117 13.5 13.0117Z" fill="#161616"/>
<path d="M10 10.5117C10 10.9073 10.1173 11.294 10.3371 11.6229C10.5568 11.9518 10.8692 12.2081 11.2346 12.3595C11.6001 12.5109 12.0022 12.5505 12.3902 12.4733C12.7781 12.3961 13.1345 12.2056 13.4142 11.9259C13.6939 11.6462 13.8844 11.2899 13.9616 10.9019C14.0387 10.5139 13.9991 10.1118 13.8478 9.74635C13.6964 9.3809 13.44 9.06854 13.1111 8.84878C12.7822 8.62902 12.3956 8.51172 12 8.51172C11.4696 8.51172 10.9609 8.72243 10.5858 9.09751C10.2107 9.47258 10 9.98129 10 10.5117ZM13 10.5117C13 10.7095 12.9414 10.9028 12.8315 11.0673C12.7216 11.2317 12.5654 11.3599 12.3827 11.4356C12.2 11.5113 11.9989 11.5311 11.8049 11.4925C11.6109 11.4539 11.4327 11.3587 11.2929 11.2188C11.153 11.079 11.0578 10.9008 11.0192 10.7068C10.9806 10.5128 11.0004 10.3118 11.0761 10.129C11.1518 9.94631 11.28 9.79013 11.4444 9.68025C11.6089 9.57037 11.8022 9.51172 12 9.51172C12.2652 9.51172 12.5196 9.61708 12.7071 9.80461C12.8946 9.99215 13 10.2465 13 10.5117Z" fill="#161616"/>
</svg>
