<svg width="551" height="482" viewBox="0 0 551 482" fill="none" xmlns="http://www.w3.org/2000/svg">
<g clip-path="url(#clip0_2336_4038)">
<path d="M81.8624 100.768C60.1818 130.033 45.6943 163.997 39.5623 199.932C33.4302 235.868 35.8245 272.775 46.5529 307.693C57.2812 342.61 76.045 374.565 101.339 400.994C126.632 427.423 157.751 447.59 192.198 459.876C226.646 472.162 263.462 476.225 299.694 471.74C335.925 467.254 370.562 454.345 400.826 434.048C431.091 413.751 456.139 386.631 473.96 354.865C491.782 323.099 501.882 287.57 503.449 251.131L493.33 250.653C491.831 285.514 482.169 319.502 465.12 349.892C448.07 380.282 424.107 406.226 395.155 425.644C366.202 445.061 333.066 457.411 298.405 461.702C263.744 465.993 228.523 462.105 195.568 450.352C162.614 438.598 132.843 419.306 108.646 394.022C84.4484 368.739 66.4978 338.168 56.2344 304.764C45.9709 271.36 43.6805 236.052 49.5467 201.674C55.413 167.295 69.2727 134.804 90.0137 106.806L81.8624 100.768Z" fill="#514EFF"/>
<path d="M510.78 252.181C512.286 217.311 506.039 182.54 492.485 150.353C478.932 118.166 458.407 89.3576 432.377 65.9855C406.346 42.6133 375.453 25.2547 341.905 15.15C308.357 5.04527 272.981 2.44384 238.306 7.53158C203.631 12.6193 170.513 25.2707 141.317 44.5816C112.121 63.8926 87.5691 89.3865 69.4147 119.242C51.2603 149.097 39.9518 182.577 36.2973 217.288C32.6428 252 36.7324 287.087 48.274 320.043L82.3094 308.223C72.5159 280.259 69.0456 250.486 72.1467 221.031C75.2477 191.576 84.8435 163.167 100.248 137.834C115.653 112.5 136.487 90.8675 161.261 74.4813C186.035 58.095 214.137 47.3598 243.561 43.0426C272.984 38.7254 303.002 40.9328 331.469 49.5072C359.936 58.0815 386.15 72.8111 408.238 92.6434C430.326 112.476 447.743 136.921 459.244 164.234C470.744 191.546 476.045 221.05 474.768 250.639L510.78 252.181Z" fill="#6261B3"/>
<path d="M474.715 288.493C487.993 238.938 482.322 186.195 458.799 140.484C435.277 94.7731 395.578 59.3475 347.394 41.0708C299.21 22.7941 245.971 22.9674 197.992 41.5571C150.012 60.1468 110.708 95.8295 87.6942 141.692L150.88 173.258C166.079 142.969 192.036 119.403 223.723 107.126C255.409 94.8491 290.57 94.7347 322.392 106.805C354.214 118.875 380.432 142.271 395.967 172.46C411.501 202.649 415.247 237.481 406.478 270.209L474.715 288.493Z" fill="#2B145C"/>
<mask id="mask0_2336_4038" style="mask-type:alpha" maskUnits="userSpaceOnUse" x="67" y="24" width="420" height="211">
<path d="M486.448 234.551C486.448 181.892 466.546 131.159 430.696 92.4366C394.847 53.7139 345.675 29.8353 292.952 25.5463C240.23 21.2573 187.816 36.8718 146.127 69.2868C104.438 101.702 76.5257 148.544 67.9374 200.505L138.521 212.066C144.193 177.75 162.626 146.814 190.159 125.406C217.691 103.999 252.307 93.6865 287.126 96.5191C321.946 99.3517 354.42 115.122 378.096 140.695C401.772 166.269 414.916 199.773 414.916 234.551H486.448Z" fill="#D9D9D9"/>
</mask>
<g mask="url(#mask0_2336_4038)">
<mask id="mask1_2336_4038" style="mask-type:alpha" maskUnits="userSpaceOnUse" x="65" y="29" width="414" height="412">
<path d="M478.034 234.552C478.034 348.054 385.605 440.065 271.588 440.065C157.571 440.065 65.1426 348.054 65.1426 234.552C65.1426 121.05 157.571 29.0381 271.588 29.0381C385.605 29.0381 478.034 121.05 478.034 234.552ZM135.246 234.552C135.246 309.511 196.289 370.278 271.588 370.278C346.888 370.278 407.93 309.511 407.93 234.552C407.93 159.592 346.888 98.8253 271.588 98.8253C196.289 98.8253 135.246 159.592 135.246 234.552Z" fill="#D9D9D9"/>
</mask>
<g mask="url(#mask1_2336_4038)">
<path d="M146.208 48.049C146.775 48.049 147.234 47.5899 147.234 47.0235C147.234 46.4572 146.775 45.998 146.208 45.998C145.641 45.998 145.182 46.4572 145.182 47.0235C145.182 47.5899 145.641 48.049 146.208 48.049Z" fill="#00D282"/>
<path d="M162.628 48.049C163.195 48.049 163.654 47.5899 163.654 47.0235C163.654 46.4572 163.195 45.998 162.628 45.998C162.061 45.998 161.602 46.4572 161.602 47.0235C161.602 47.5899 162.061 48.049 162.628 48.049Z" fill="#00D282"/>
<path d="M179.048 48.049C179.615 48.049 180.074 47.5899 180.074 47.0235C180.074 46.4572 179.615 45.998 179.048 45.998C178.481 45.998 178.021 46.4572 178.021 47.0235C178.021 47.5899 178.481 48.049 179.048 48.049Z" fill="#00D282"/>
<path d="M195.468 48.049C196.034 48.049 196.494 47.5899 196.494 47.0235C196.494 46.4572 196.034 45.998 195.468 45.998C194.901 45.998 194.441 46.4572 194.441 47.0235C194.441 47.5899 194.901 48.049 195.468 48.049Z" fill="#00D282"/>
<path d="M211.887 48.049C212.453 48.049 212.913 47.5899 212.913 47.0235C212.913 46.4572 212.453 45.998 211.887 45.998C211.32 45.998 210.86 46.4572 210.86 47.0235C210.86 47.5899 211.32 48.049 211.887 48.049Z" fill="#00D282"/>
<path d="M228.307 48.049C228.874 48.049 229.333 47.5899 229.333 47.0235C229.333 46.4572 228.874 45.998 228.307 45.998C227.74 45.998 227.281 46.4572 227.281 47.0235C227.281 47.5899 227.74 48.049 228.307 48.049Z" fill="#00D282"/>
<path d="M244.727 48.049C245.294 48.049 245.753 47.5899 245.753 47.0235C245.753 46.4572 245.294 45.998 244.727 45.998C244.16 45.998 243.701 46.4572 243.701 47.0235C243.701 47.5899 244.16 48.049 244.727 48.049Z" fill="#00D282"/>
<path d="M261.147 48.049C261.714 48.049 262.173 47.5899 262.173 47.0235C262.173 46.4572 261.714 45.998 261.147 45.998C260.58 45.998 260.121 46.4572 260.121 47.0235C260.121 47.5899 260.58 48.049 261.147 48.049Z" fill="#00D282"/>
<path d="M80.5282 31.6525C81.095 31.6525 81.5544 31.1934 81.5544 30.627C81.5544 30.0607 81.095 29.6016 80.5282 29.6016C79.9614 29.6016 79.502 30.0607 79.502 30.627C79.502 31.1934 79.9614 31.6525 80.5282 31.6525Z" fill="#00D282"/>
<path d="M96.9481 31.6525C97.5149 31.6525 97.9744 31.1934 97.9744 30.627C97.9744 30.0607 97.5149 29.6016 96.9481 29.6016C96.3813 29.6016 95.9219 30.0607 95.9219 30.627C95.9219 31.1934 96.3813 31.6525 96.9481 31.6525Z" fill="#00D282"/>
<path d="M113.368 31.6525C113.935 31.6525 114.394 31.1934 114.394 30.627C114.394 30.0607 113.935 29.6016 113.368 29.6016C112.801 29.6016 112.342 30.0607 112.342 30.627C112.342 31.1934 112.801 31.6525 113.368 31.6525Z" fill="#00D282"/>
<path d="M293.987 31.6525C294.553 31.6525 295.013 31.1934 295.013 30.627C295.013 30.0607 294.553 29.6016 293.987 29.6016C293.42 29.6016 292.96 30.0607 292.96 30.627C292.96 31.1934 293.42 31.6525 293.987 31.6525Z" fill="#00D282"/>
<path d="M310.407 31.6525C310.973 31.6525 311.433 31.1934 311.433 30.627C311.433 30.0607 310.973 29.6016 310.407 29.6016C309.84 29.6016 309.38 30.0607 309.38 30.627C309.38 31.1934 309.84 31.6525 310.407 31.6525Z" fill="#00D282"/>
<path d="M326.827 31.6525C327.394 31.6525 327.853 31.1934 327.853 30.627C327.853 30.0607 327.394 29.6016 326.827 29.6016C326.26 29.6016 325.801 30.0607 325.801 30.627C325.801 31.1934 326.26 31.6525 326.827 31.6525Z" fill="#00D282"/>
<path d="M343.246 31.6525C343.813 31.6525 344.272 31.1934 344.272 30.627C344.272 30.0607 343.813 29.6016 343.246 29.6016C342.679 29.6016 342.22 30.0607 342.22 30.627C342.22 31.1934 342.679 31.6525 343.246 31.6525Z" fill="#00D282"/>
<path d="M80.5282 48.0597C81.095 48.0597 81.5544 47.6006 81.5544 47.0343C81.5544 46.4679 81.095 46.0088 80.5282 46.0088C79.9614 46.0088 79.502 46.4679 79.502 47.0343C79.502 47.6006 79.9614 48.0597 80.5282 48.0597Z" fill="#00D282"/>
<path d="M96.9481 48.0597C97.5149 48.0597 97.9744 47.6006 97.9744 47.0343C97.9744 46.4679 97.5149 46.0088 96.9481 46.0088C96.3813 46.0088 95.9219 46.4679 95.9219 47.0343C95.9219 47.6006 96.3813 48.0597 96.9481 48.0597Z" fill="#00D282"/>
<path d="M113.368 48.0597C113.935 48.0597 114.394 47.6006 114.394 47.0343C114.394 46.4679 113.935 46.0088 113.368 46.0088C112.801 46.0088 112.342 46.4679 112.342 47.0343C112.342 47.6006 112.801 48.0597 113.368 48.0597Z" fill="#00D282"/>
<path d="M310.407 48.0597C310.973 48.0597 311.433 47.6006 311.433 47.0343C311.433 46.4679 310.973 46.0088 310.407 46.0088C309.84 46.0088 309.38 46.4679 309.38 47.0343C309.38 47.6006 309.84 48.0597 310.407 48.0597Z" fill="#00D282"/>
<path d="M326.827 48.0597C327.394 48.0597 327.853 47.6006 327.853 47.0343C327.853 46.4679 327.394 46.0088 326.827 46.0088C326.26 46.0088 325.801 46.4679 325.801 47.0343C325.801 47.6006 326.26 48.0597 326.827 48.0597Z" fill="#00D282"/>
<path d="M343.246 48.0597C343.813 48.0597 344.272 47.6006 344.272 47.0343C344.272 46.4679 343.813 46.0088 343.246 46.0088C342.679 46.0088 342.22 46.4679 342.22 47.0343C342.22 47.6006 342.679 48.0597 343.246 48.0597Z" fill="#00D282"/>
<path d="M80.5282 64.4689C81.095 64.4689 81.5544 64.0098 81.5544 63.4434C81.5544 62.8771 81.095 62.418 80.5282 62.418C79.9614 62.418 79.502 62.8771 79.502 63.4434C79.502 64.0098 79.9614 64.4689 80.5282 64.4689Z" fill="#00D282"/>
<path d="M96.9481 64.4689C97.5149 64.4689 97.9744 64.0098 97.9744 63.4434C97.9744 62.8771 97.5149 62.418 96.9481 62.418C96.3813 62.418 95.9219 62.8771 95.9219 63.4434C95.9219 64.0098 96.3813 64.4689 96.9481 64.4689Z" fill="#00D282"/>
<path d="M113.368 64.4689C113.935 64.4689 114.394 64.0098 114.394 63.4434C114.394 62.8771 113.935 62.418 113.368 62.418C112.801 62.418 112.342 62.8771 112.342 63.4434C112.342 64.0098 112.801 64.4689 113.368 64.4689Z" fill="#00D282"/>
<path d="M146.208 64.4689C146.775 64.4689 147.234 64.0098 147.234 63.4434C147.234 62.8771 146.775 62.418 146.208 62.418C145.641 62.418 145.182 62.8771 145.182 63.4434C145.182 64.0098 145.641 64.4689 146.208 64.4689Z" fill="#00D282"/>
<path d="M162.628 64.4689C163.195 64.4689 163.654 64.0098 163.654 63.4434C163.654 62.8771 163.195 62.418 162.628 62.418C162.061 62.418 161.602 62.8771 161.602 63.4434C161.602 64.0098 162.061 64.4689 162.628 64.4689Z" fill="#00D282"/>
<path d="M179.048 64.4689C179.615 64.4689 180.074 64.0098 180.074 63.4434C180.074 62.8771 179.615 62.418 179.048 62.418C178.481 62.418 178.021 62.8771 178.021 63.4434C178.021 64.0098 178.481 64.4689 179.048 64.4689Z" fill="#00D282"/>
<path d="M195.468 64.4689C196.034 64.4689 196.494 64.0098 196.494 63.4434C196.494 62.8771 196.034 62.418 195.468 62.418C194.901 62.418 194.441 62.8771 194.441 63.4434C194.441 64.0098 194.901 64.4689 195.468 64.4689Z" fill="#00D282"/>
<path d="M211.887 64.4689C212.453 64.4689 212.913 64.0098 212.913 63.4434C212.913 62.8771 212.453 62.418 211.887 62.418C211.32 62.418 210.86 62.8771 210.86 63.4434C210.86 64.0098 211.32 64.4689 211.887 64.4689Z" fill="#00D282"/>
<path d="M228.307 64.4689C228.874 64.4689 229.333 64.0098 229.333 63.4434C229.333 62.8771 228.874 62.418 228.307 62.418C227.74 62.418 227.281 62.8771 227.281 63.4434C227.281 64.0098 227.74 64.4689 228.307 64.4689Z" fill="#00D282"/>
<path d="M244.727 64.4689C245.294 64.4689 245.753 64.0098 245.753 63.4434C245.753 62.8771 245.294 62.418 244.727 62.418C244.16 62.418 243.701 62.8771 243.701 63.4434C243.701 64.0098 244.16 64.4689 244.727 64.4689Z" fill="#00D282"/>
<path d="M261.147 64.4689C261.714 64.4689 262.173 64.0098 262.173 63.4434C262.173 62.8771 261.714 62.418 261.147 62.418C260.58 62.418 260.121 62.8771 260.121 63.4434C260.121 64.0098 260.58 64.4689 261.147 64.4689Z" fill="#00D282"/>
<path d="M310.407 64.4689C310.973 64.4689 311.433 64.0098 311.433 63.4434C311.433 62.8771 310.973 62.418 310.407 62.418C309.84 62.418 309.38 62.8771 309.38 63.4434C309.38 64.0098 309.84 64.4689 310.407 64.4689Z" fill="#00D282"/>
<path d="M326.827 64.4689C327.394 64.4689 327.853 64.0098 327.853 63.4434C327.853 62.8771 327.394 62.418 326.827 62.418C326.26 62.418 325.801 62.8771 325.801 63.4434C325.801 64.0098 326.26 64.4689 326.827 64.4689Z" fill="#00D282"/>
<path d="M343.246 64.4689C343.813 64.4689 344.272 64.0098 344.272 63.4434C344.272 62.8771 343.813 62.418 343.246 62.418C342.679 62.418 342.22 62.8771 342.22 63.4434C342.22 64.0098 342.679 64.4689 343.246 64.4689Z" fill="#00D282"/>
<path d="M80.5282 80.8762C81.095 80.8762 81.5544 80.417 81.5544 79.8507C81.5544 79.2843 81.095 78.8252 80.5282 78.8252C79.9614 78.8252 79.502 79.2843 79.502 79.8507C79.502 80.417 79.9614 80.8762 80.5282 80.8762Z" fill="#00D282"/>
<path d="M96.9481 80.8762C97.5149 80.8762 97.9744 80.417 97.9744 79.8507C97.9744 79.2843 97.5149 78.8252 96.9481 78.8252C96.3813 78.8252 95.9219 79.2843 95.9219 79.8507C95.9219 80.417 96.3813 80.8762 96.9481 80.8762Z" fill="#00D282"/>
<path d="M113.368 80.8762C113.935 80.8762 114.394 80.417 114.394 79.8507C114.394 79.2843 113.935 78.8252 113.368 78.8252C112.801 78.8252 112.342 79.2843 112.342 79.8507C112.342 80.417 112.801 80.8762 113.368 80.8762Z" fill="#00D282"/>
<path d="M146.208 80.8762C146.775 80.8762 147.234 80.417 147.234 79.8507C147.234 79.2843 146.775 78.8252 146.208 78.8252C145.641 78.8252 145.182 79.2843 145.182 79.8507C145.182 80.417 145.641 80.8762 146.208 80.8762Z" fill="#00D282"/>
<path d="M162.628 80.8762C163.195 80.8762 163.654 80.417 163.654 79.8507C163.654 79.2843 163.195 78.8252 162.628 78.8252C162.061 78.8252 161.602 79.2843 161.602 79.8507C161.602 80.417 162.061 80.8762 162.628 80.8762Z" fill="#00D282"/>
<path d="M244.727 80.8762C245.294 80.8762 245.753 80.417 245.753 79.8507C245.753 79.2843 245.294 78.8252 244.727 78.8252C244.16 78.8252 243.701 79.2843 243.701 79.8507C243.701 80.417 244.16 80.8762 244.727 80.8762Z" fill="#00D282"/>
<path d="M261.147 80.8752C261.714 80.8752 262.173 80.4161 262.173 79.8497C262.173 79.2833 261.714 78.8242 261.147 78.8242C260.58 78.8242 260.121 79.2833 260.121 79.8497C260.121 80.4161 260.58 80.8752 261.147 80.8752Z" fill="#00D282"/>
<path d="M310.407 80.8762C310.973 80.8762 311.433 80.417 311.433 79.8507C311.433 79.2843 310.973 78.8252 310.407 78.8252C309.84 78.8252 309.38 79.2843 309.38 79.8507C309.38 80.417 309.84 80.8762 310.407 80.8762Z" fill="#00D282"/>
<path d="M326.827 80.8762C327.394 80.8762 327.853 80.417 327.853 79.8507C327.853 79.2843 327.394 78.8252 326.827 78.8252C326.26 78.8252 325.801 79.2843 325.801 79.8507C325.801 80.417 326.26 80.8762 326.827 80.8762Z" fill="#00D282"/>
<path d="M343.246 80.8762C343.813 80.8762 344.272 80.417 344.272 79.8507C344.272 79.2843 343.813 78.8252 343.246 78.8252C342.679 78.8252 342.22 79.2843 342.22 79.8507C342.22 80.417 342.679 80.8762 343.246 80.8762Z" fill="#00D282"/>
<path d="M80.5282 97.2824C81.095 97.2824 81.5544 96.8233 81.5544 96.2569C81.5544 95.6906 81.095 95.2314 80.5282 95.2314C79.9614 95.2314 79.502 95.6906 79.502 96.2569C79.502 96.8233 79.9614 97.2824 80.5282 97.2824Z" fill="#00D282"/>
<path d="M96.9481 97.2824C97.5149 97.2824 97.9744 96.8233 97.9744 96.2569C97.9744 95.6906 97.5149 95.2314 96.9481 95.2314C96.3813 95.2314 95.9219 95.6906 95.9219 96.2569C95.9219 96.8233 96.3813 97.2824 96.9481 97.2824Z" fill="#00D282"/>
<path d="M113.368 97.2824C113.935 97.2824 114.394 96.8233 114.394 96.2569C114.394 95.6906 113.935 95.2314 113.368 95.2314C112.801 95.2314 112.342 95.6906 112.342 96.2569C112.342 96.8233 112.801 97.2824 113.368 97.2824Z" fill="#00D282"/>
<path d="M146.208 97.2824C146.775 97.2824 147.234 96.8233 147.234 96.2569C147.234 95.6906 146.775 95.2314 146.208 95.2314C145.641 95.2314 145.182 95.6906 145.182 96.2569C145.182 96.8233 145.641 97.2824 146.208 97.2824Z" fill="#00D282"/>
<path d="M162.628 97.2824C163.195 97.2824 163.654 96.8233 163.654 96.2569C163.654 95.6906 163.195 95.2314 162.628 95.2314C162.061 95.2314 161.602 95.6906 161.602 96.2569C161.602 96.8233 162.061 97.2824 162.628 97.2824Z" fill="#00D282"/>
<path d="M195.468 97.2824C196.034 97.2824 196.494 96.8233 196.494 96.2569C196.494 95.6906 196.034 95.2314 195.468 95.2314C194.901 95.2314 194.441 95.6906 194.441 96.2569C194.441 96.8233 194.901 97.2824 195.468 97.2824Z" fill="#00D282"/>
<path d="M211.887 97.2824C212.453 97.2824 212.913 96.8233 212.913 96.2569C212.913 95.6906 212.453 95.2314 211.887 95.2314C211.32 95.2314 210.86 95.6906 210.86 96.2569C210.86 96.8233 211.32 97.2824 211.887 97.2824Z" fill="#00D282"/>
<path d="M244.727 97.2824C245.294 97.2824 245.753 96.8233 245.753 96.2569C245.753 95.6906 245.294 95.2314 244.727 95.2314C244.16 95.2314 243.701 95.6906 243.701 96.2569C243.701 96.8233 244.16 97.2824 244.727 97.2824Z" fill="#00D282"/>
<path d="M261.147 97.2824C261.714 97.2824 262.173 96.8233 262.173 96.2569C262.173 95.6906 261.714 95.2314 261.147 95.2314C260.58 95.2314 260.121 95.6906 260.121 96.2569C260.121 96.8233 260.58 97.2824 261.147 97.2824Z" fill="#00D282"/>
<path d="M310.407 97.2824C310.973 97.2824 311.433 96.8233 311.433 96.2569C311.433 95.6906 310.973 95.2314 310.407 95.2314C309.84 95.2314 309.38 95.6906 309.38 96.2569C309.38 96.8233 309.84 97.2824 310.407 97.2824Z" fill="#00D282"/>
<path d="M326.827 97.2824C327.394 97.2824 327.853 96.8233 327.853 96.2569C327.853 95.6906 327.394 95.2314 326.827 95.2314C326.26 95.2314 325.801 95.6906 325.801 96.2569C325.801 96.8233 326.26 97.2824 326.827 97.2824Z" fill="#00D282"/>
<path d="M343.246 97.2824C343.813 97.2824 344.272 96.8233 344.272 96.2569C344.272 95.6906 343.813 95.2314 343.246 95.2314C342.679 95.2314 342.22 95.6906 342.22 96.2569C342.22 96.8233 342.679 97.2824 343.246 97.2824Z" fill="#00D282"/>
<path d="M80.5282 113.691C81.095 113.691 81.5544 113.231 81.5544 112.665C81.5544 112.099 81.095 111.64 80.5282 111.64C79.9614 111.64 79.502 112.099 79.502 112.665C79.502 113.231 79.9614 113.691 80.5282 113.691Z" fill="#00D282"/>
<path d="M96.9481 113.691C97.5149 113.691 97.9744 113.231 97.9744 112.665C97.9744 112.099 97.5149 111.64 96.9481 111.64C96.3813 111.64 95.9219 112.099 95.9219 112.665C95.9219 113.231 96.3813 113.691 96.9481 113.691Z" fill="#00D282"/>
<path d="M113.368 113.691C113.935 113.691 114.394 113.231 114.394 112.665C114.394 112.099 113.935 111.64 113.368 111.64C112.801 111.64 112.342 112.099 112.342 112.665C112.342 113.231 112.801 113.691 113.368 113.691Z" fill="#00D282"/>
<path d="M146.208 113.691C146.775 113.691 147.234 113.231 147.234 112.665C147.234 112.099 146.775 111.64 146.208 111.64C145.641 111.64 145.182 112.099 145.182 112.665C145.182 113.231 145.641 113.691 146.208 113.691Z" fill="#00D282"/>
<path d="M162.628 113.691C163.195 113.691 163.654 113.231 163.654 112.665C163.654 112.099 163.195 111.64 162.628 111.64C162.061 111.64 161.602 112.099 161.602 112.665C161.602 113.231 162.061 113.691 162.628 113.691Z" fill="#00D282"/>
<path d="M195.468 113.691C196.034 113.691 196.494 113.231 196.494 112.665C196.494 112.099 196.034 111.64 195.468 111.64C194.901 111.64 194.441 112.099 194.441 112.665C194.441 113.231 194.901 113.691 195.468 113.691Z" fill="#00D282"/>
<path d="M211.887 113.691C212.453 113.691 212.913 113.231 212.913 112.665C212.913 112.099 212.453 111.64 211.887 111.64C211.32 111.64 210.86 112.099 210.86 112.665C210.86 113.231 211.32 113.691 211.887 113.691Z" fill="#00D282"/>
<path d="M244.727 113.691C245.294 113.691 245.753 113.231 245.753 112.665C245.753 112.099 245.294 111.64 244.727 111.64C244.16 111.64 243.701 112.099 243.701 112.665C243.701 113.231 244.16 113.691 244.727 113.691Z" fill="#00D282"/>
<path d="M261.147 113.691C261.714 113.691 262.173 113.231 262.173 112.665C262.173 112.099 261.714 111.64 261.147 111.64C260.58 111.64 260.121 112.099 260.121 112.665C260.121 113.231 260.58 113.691 261.147 113.691Z" fill="#00D282"/>
<path d="M310.407 113.691C310.973 113.691 311.433 113.231 311.433 112.665C311.433 112.099 310.973 111.64 310.407 111.64C309.84 111.64 309.38 112.099 309.38 112.665C309.38 113.231 309.84 113.691 310.407 113.691Z" fill="#00D282"/>
<path d="M326.827 113.691C327.394 113.691 327.853 113.231 327.853 112.665C327.853 112.099 327.394 111.64 326.827 111.64C326.26 111.64 325.801 112.099 325.801 112.665C325.801 113.231 326.26 113.691 326.827 113.691Z" fill="#00D282"/>
<path d="M343.246 113.691C343.813 113.691 344.272 113.231 344.272 112.665C344.272 112.099 343.813 111.64 343.246 111.64C342.679 111.64 342.22 112.099 342.22 112.665C342.22 113.231 342.679 113.691 343.246 113.691Z" fill="#00D282"/>
<path d="M80.5282 130.097C81.095 130.097 81.5544 129.638 81.5544 129.071C81.5544 128.505 81.095 128.046 80.5282 128.046C79.9614 128.046 79.502 128.505 79.502 129.071C79.502 129.638 79.9614 130.097 80.5282 130.097Z" fill="#00D282"/>
<path d="M96.9481 130.097C97.5149 130.097 97.9744 129.638 97.9744 129.071C97.9744 128.505 97.5149 128.046 96.9481 128.046C96.3813 128.046 95.9219 128.505 95.9219 129.071C95.9219 129.638 96.3813 130.097 96.9481 130.097Z" fill="#00D282"/>
<path d="M113.368 130.097C113.935 130.097 114.394 129.638 114.394 129.071C114.394 128.505 113.935 128.046 113.368 128.046C112.801 128.046 112.342 128.505 112.342 129.071C112.342 129.638 112.801 130.097 113.368 130.097Z" fill="#00D282"/>
<path d="M146.208 130.097C146.775 130.097 147.234 129.638 147.234 129.071C147.234 128.505 146.775 128.046 146.208 128.046C145.641 128.046 145.182 128.505 145.182 129.071C145.182 129.638 145.641 130.097 146.208 130.097Z" fill="#00D282"/>
<path d="M162.628 130.097C163.195 130.097 163.654 129.638 163.654 129.071C163.654 128.505 163.195 128.046 162.628 128.046C162.061 128.046 161.602 128.505 161.602 129.071C161.602 129.638 162.061 130.097 162.628 130.097Z" fill="#00D282"/>
<path d="M244.727 130.097C245.294 130.097 245.753 129.638 245.753 129.071C245.753 128.505 245.294 128.046 244.727 128.046C244.16 128.046 243.701 128.505 243.701 129.071C243.701 129.638 244.16 130.097 244.727 130.097Z" fill="#00D282"/>
<path d="M261.147 130.097C261.714 130.097 262.173 129.638 262.173 129.071C262.173 128.505 261.714 128.046 261.147 128.046C260.58 128.046 260.121 128.505 260.121 129.071C260.121 129.638 260.58 130.097 261.147 130.097Z" fill="#00D282"/>
<path d="M310.407 130.097C310.973 130.097 311.433 129.638 311.433 129.071C311.433 128.505 310.973 128.046 310.407 128.046C309.84 128.046 309.38 128.505 309.38 129.071C309.38 129.638 309.84 130.097 310.407 130.097Z" fill="#00D282"/>
<path d="M326.827 130.097C327.394 130.097 327.853 129.638 327.853 129.071C327.853 128.505 327.394 128.046 326.827 128.046C326.26 128.046 325.801 128.505 325.801 129.071C325.801 129.638 326.26 130.097 326.827 130.097Z" fill="#00D282"/>
<path d="M343.246 130.097C343.813 130.097 344.272 129.638 344.272 129.071C344.272 128.505 343.813 128.046 343.246 128.046C342.679 128.046 342.22 128.505 342.22 129.071C342.22 129.638 342.679 130.097 343.246 130.097Z" fill="#00D282"/>
<path d="M80.5282 146.506C81.095 146.506 81.5544 146.047 81.5544 145.481C81.5544 144.914 81.095 144.455 80.5282 144.455C79.9614 144.455 79.502 144.914 79.502 145.481C79.502 146.047 79.9614 146.506 80.5282 146.506Z" fill="#00D282"/>
<path d="M96.9481 146.506C97.5149 146.506 97.9744 146.047 97.9744 145.481C97.9744 144.914 97.5149 144.455 96.9481 144.455C96.3813 144.455 95.9219 144.914 95.9219 145.481C95.9219 146.047 96.3813 146.506 96.9481 146.506Z" fill="#00D282"/>
<path d="M113.368 146.506C113.935 146.506 114.394 146.047 114.394 145.481C114.394 144.914 113.935 144.455 113.368 144.455C112.801 144.455 112.342 144.914 112.342 145.481C112.342 146.047 112.801 146.506 113.368 146.506Z" fill="#00D282"/>
<path d="M146.208 146.506C146.775 146.506 147.234 146.047 147.234 145.481C147.234 144.914 146.775 144.455 146.208 144.455C145.641 144.455 145.182 144.914 145.182 145.481C145.182 146.047 145.641 146.506 146.208 146.506Z" fill="#00D282"/>
<path d="M162.628 146.506C163.195 146.506 163.654 146.047 163.654 145.481C163.654 144.914 163.195 144.455 162.628 144.455C162.061 144.455 161.602 144.914 161.602 145.481C161.602 146.047 162.061 146.506 162.628 146.506Z" fill="#00D282"/>
<path d="M179.048 146.506C179.615 146.506 180.074 146.047 180.074 145.481C180.074 144.914 179.615 144.455 179.048 144.455C178.481 144.455 178.021 144.914 178.021 145.481C178.021 146.047 178.481 146.506 179.048 146.506Z" fill="#00D282"/>
<path d="M195.468 146.506C196.034 146.506 196.494 146.047 196.494 145.481C196.494 144.914 196.034 144.455 195.468 144.455C194.901 144.455 194.441 144.914 194.441 145.481C194.441 146.047 194.901 146.506 195.468 146.506Z" fill="#00D282"/>
<path d="M211.887 146.506C212.453 146.506 212.913 146.047 212.913 145.481C212.913 144.914 212.453 144.455 211.887 144.455C211.32 144.455 210.86 144.914 210.86 145.481C210.86 146.047 211.32 146.506 211.887 146.506Z" fill="#00D282"/>
<path d="M228.307 146.506C228.874 146.506 229.333 146.047 229.333 145.481C229.333 144.914 228.874 144.455 228.307 144.455C227.74 144.455 227.281 144.914 227.281 145.481C227.281 146.047 227.74 146.506 228.307 146.506Z" fill="#00D282"/>
<path d="M244.727 146.506C245.294 146.506 245.753 146.047 245.753 145.481C245.753 144.914 245.294 144.455 244.727 144.455C244.16 144.455 243.701 144.914 243.701 145.481C243.701 146.047 244.16 146.506 244.727 146.506Z" fill="#00D282"/>
<path d="M261.147 146.506C261.714 146.506 262.173 146.047 262.173 145.481C262.173 144.914 261.714 144.455 261.147 144.455C260.58 144.455 260.121 144.914 260.121 145.481C260.121 146.047 260.58 146.506 261.147 146.506Z" fill="#00D282"/>
<path d="M310.407 146.506C310.973 146.506 311.433 146.047 311.433 145.481C311.433 144.914 310.973 144.455 310.407 144.455C309.84 144.455 309.38 144.914 309.38 145.481C309.38 146.047 309.84 146.506 310.407 146.506Z" fill="#00D282"/>
<path d="M326.827 146.506C327.394 146.506 327.853 146.047 327.853 145.481C327.853 144.914 327.394 144.455 326.827 144.455C326.26 144.455 325.801 144.914 325.801 145.481C325.801 146.047 326.26 146.506 326.827 146.506Z" fill="#00D282"/>
<path d="M343.246 146.506C343.813 146.506 344.272 146.047 344.272 145.481C344.272 144.914 343.813 144.455 343.246 144.455C342.679 144.455 342.22 144.914 342.22 145.481C342.22 146.047 342.679 146.506 343.246 146.506Z" fill="#00D282"/>
<path d="M80.5282 162.914C81.095 162.914 81.5544 162.455 81.5544 161.889C81.5544 161.322 81.095 160.863 80.5282 160.863C79.9614 160.863 79.502 161.322 79.502 161.889C79.502 162.455 79.9614 162.914 80.5282 162.914Z" fill="#00D282"/>
<path d="M96.9481 162.914C97.5149 162.914 97.9744 162.455 97.9744 161.889C97.9744 161.322 97.5149 160.863 96.9481 160.863C96.3813 160.863 95.9219 161.322 95.9219 161.889C95.9219 162.455 96.3813 162.914 96.9481 162.914Z" fill="#00D282"/>
<path d="M113.368 162.914C113.935 162.914 114.394 162.455 114.394 161.889C114.394 161.322 113.935 160.863 113.368 160.863C112.801 160.863 112.342 161.322 112.342 161.889C112.342 162.455 112.801 162.914 113.368 162.914Z" fill="#00D282"/>
<path d="M146.208 162.914C146.775 162.914 147.234 162.455 147.234 161.889C147.234 161.322 146.775 160.863 146.208 160.863C145.641 160.863 145.182 161.322 145.182 161.889C145.182 162.455 145.641 162.914 146.208 162.914Z" fill="#00D282"/>
<path d="M162.628 162.914C163.195 162.914 163.654 162.455 163.654 161.889C163.654 161.322 163.195 160.863 162.628 160.863C162.061 160.863 161.602 161.322 161.602 161.889C161.602 162.455 162.061 162.914 162.628 162.914Z" fill="#00D282"/>
<path d="M179.048 162.914C179.615 162.914 180.074 162.455 180.074 161.889C180.074 161.322 179.615 160.863 179.048 160.863C178.481 160.863 178.021 161.322 178.021 161.889C178.021 162.455 178.481 162.914 179.048 162.914Z" fill="#00D282"/>
<path d="M195.468 162.914C196.034 162.914 196.494 162.455 196.494 161.889C196.494 161.322 196.034 160.863 195.468 160.863C194.901 160.863 194.441 161.322 194.441 161.889C194.441 162.455 194.901 162.914 195.468 162.914Z" fill="#00D282"/>
<path d="M211.887 162.914C212.453 162.914 212.913 162.455 212.913 161.889C212.913 161.322 212.453 160.863 211.887 160.863C211.32 160.863 210.86 161.322 210.86 161.889C210.86 162.455 211.32 162.914 211.887 162.914Z" fill="#00D282"/>
<path d="M228.307 162.914C228.874 162.914 229.333 162.455 229.333 161.889C229.333 161.322 228.874 160.863 228.307 160.863C227.74 160.863 227.281 161.322 227.281 161.889C227.281 162.455 227.74 162.914 228.307 162.914Z" fill="#00D282"/>
<path d="M244.727 162.914C245.294 162.914 245.753 162.455 245.753 161.889C245.753 161.322 245.294 160.863 244.727 160.863C244.16 160.863 243.701 161.322 243.701 161.889C243.701 162.455 244.16 162.914 244.727 162.914Z" fill="#00D282"/>
<path d="M261.147 162.914C261.714 162.914 262.173 162.455 262.173 161.889C262.173 161.322 261.714 160.863 261.147 160.863C260.58 160.863 260.121 161.322 260.121 161.889C260.121 162.455 260.58 162.914 261.147 162.914Z" fill="#00D282"/>
<path d="M310.407 162.914C310.973 162.914 311.433 162.455 311.433 161.889C311.433 161.322 310.973 160.863 310.407 160.863C309.84 160.863 309.38 161.322 309.38 161.889C309.38 162.455 309.84 162.914 310.407 162.914Z" fill="#00D282"/>
<path d="M326.827 162.914C327.394 162.914 327.853 162.455 327.853 161.889C327.853 161.322 327.394 160.863 326.827 160.863C326.26 160.863 325.801 161.322 325.801 161.889C325.801 162.455 326.26 162.914 326.827 162.914Z" fill="#00D282"/>
<path d="M343.246 162.914C343.813 162.914 344.272 162.455 344.272 161.889C344.272 161.322 343.813 160.863 343.246 160.863C342.679 160.863 342.22 161.322 342.22 161.889C342.22 162.455 342.679 162.914 343.246 162.914Z" fill="#00D282"/>
<path d="M80.5282 179.32C81.095 179.32 81.5544 178.861 81.5544 178.295C81.5544 177.729 81.095 177.27 80.5282 177.27C79.9614 177.27 79.502 177.729 79.502 178.295C79.502 178.861 79.9614 179.32 80.5282 179.32Z" fill="#00D282"/>
<path d="M96.9481 179.32C97.5149 179.32 97.9744 178.861 97.9744 178.295C97.9744 177.729 97.5149 177.27 96.9481 177.27C96.3813 177.27 95.9219 177.729 95.9219 178.295C95.9219 178.861 96.3813 179.32 96.9481 179.32Z" fill="#00D282"/>
<path d="M113.368 179.32C113.935 179.32 114.394 178.861 114.394 178.295C114.394 177.729 113.935 177.27 113.368 177.27C112.801 177.27 112.342 177.729 112.342 178.295C112.342 178.861 112.801 179.32 113.368 179.32Z" fill="#00D282"/>
<path d="M310.407 179.32C310.973 179.32 311.433 178.861 311.433 178.295C311.433 177.729 310.973 177.27 310.407 177.27C309.84 177.27 309.38 177.729 309.38 178.295C309.38 178.861 309.84 179.32 310.407 179.32Z" fill="#00D282"/>
<path d="M326.827 179.32C327.394 179.32 327.853 178.861 327.853 178.295C327.853 177.729 327.394 177.27 326.827 177.27C326.26 177.27 325.801 177.729 325.801 178.295C325.801 178.861 326.26 179.32 326.827 179.32Z" fill="#00D282"/>
<path d="M293.976 48.0597C294.543 48.0597 295.003 47.6006 295.003 47.0343C295.003 46.4679 294.543 46.0088 293.976 46.0088C293.41 46.0088 292.95 46.4679 292.95 47.0343C292.95 47.6006 293.41 48.0597 293.976 48.0597Z" fill="#00D282"/>
<path d="M293.976 64.4689C294.543 64.4689 295.003 64.0098 295.003 63.4434C295.003 62.8771 294.543 62.418 293.976 62.418C293.41 62.418 292.95 62.8771 292.95 63.4434C292.95 64.0098 293.41 64.4689 293.976 64.4689Z" fill="#00D282"/>
<path d="M293.976 80.8752C294.543 80.8752 295.003 80.4161 295.003 79.8497C295.003 79.2833 294.543 78.8242 293.976 78.8242C293.41 78.8242 292.95 79.2833 292.95 79.8497C292.95 80.4161 293.41 80.8752 293.976 80.8752Z" fill="#00D282"/>
<path d="M293.976 97.2824C294.543 97.2824 295.003 96.8233 295.003 96.2569C295.003 95.6906 294.543 95.2314 293.976 95.2314C293.41 95.2314 292.95 95.6906 292.95 96.2569C292.95 96.8233 293.41 97.2824 293.976 97.2824Z" fill="#00D282"/>
<path d="M293.976 113.691C294.543 113.691 295.003 113.231 295.003 112.665C295.003 112.099 294.543 111.64 293.976 111.64C293.41 111.64 292.95 112.099 292.95 112.665C292.95 113.231 293.41 113.691 293.976 113.691Z" fill="#00D282"/>
<path d="M293.976 130.097C294.543 130.097 295.003 129.638 295.003 129.071C295.003 128.505 294.543 128.046 293.976 128.046C293.41 128.046 292.95 128.505 292.95 129.071C292.95 129.638 293.41 130.097 293.976 130.097Z" fill="#00D282"/>
<path d="M293.976 146.506C294.543 146.506 295.003 146.047 295.003 145.481C295.003 144.914 294.543 144.455 293.976 144.455C293.41 144.455 292.95 144.914 292.95 145.481C292.95 146.047 293.41 146.506 293.976 146.506Z" fill="#00D282"/>
<path d="M293.976 162.914C294.543 162.914 295.003 162.455 295.003 161.889C295.003 161.322 294.543 160.863 293.976 160.863C293.41 160.863 292.95 161.322 292.95 161.889C292.95 162.455 293.41 162.914 293.976 162.914Z" fill="#00D282"/>
<path d="M293.976 179.32C294.543 179.32 295.003 178.861 295.003 178.295C295.003 177.729 294.543 177.27 293.976 177.27C293.41 177.27 292.95 177.729 292.95 178.295C292.95 178.861 293.41 179.32 293.976 179.32Z" fill="#00D282"/>
<path d="M343.246 179.32C343.813 179.32 344.272 178.861 344.272 178.295C344.272 177.729 343.813 177.27 343.246 177.27C342.679 177.27 342.22 177.729 342.22 178.295C342.22 178.861 342.679 179.32 343.246 179.32Z" fill="#00D282"/>
<path d="M80.5282 195.729C81.095 195.729 81.5544 195.27 81.5544 194.703C81.5544 194.137 81.095 193.678 80.5282 193.678C79.9614 193.678 79.502 194.137 79.502 194.703C79.502 195.27 79.9614 195.729 80.5282 195.729Z" fill="#00D282"/>
<path d="M96.9481 195.729C97.5149 195.729 97.9744 195.27 97.9744 194.703C97.9744 194.137 97.5149 193.678 96.9481 193.678C96.3813 193.678 95.9219 194.137 95.9219 194.703C95.9219 195.27 96.3813 195.729 96.9481 195.729Z" fill="#00D282"/>
<path d="M113.368 195.729C113.935 195.729 114.394 195.27 114.394 194.703C114.394 194.137 113.935 193.678 113.368 193.678C112.801 193.678 112.342 194.137 112.342 194.703C112.342 195.27 112.801 195.729 113.368 195.729Z" fill="#00D282"/>
<path d="M146.208 195.729C146.775 195.729 147.234 195.27 147.234 194.703C147.234 194.137 146.775 193.678 146.208 193.678C145.641 193.678 145.182 194.137 145.182 194.703C145.182 195.27 145.641 195.729 146.208 195.729Z" fill="#00D282"/>
<path d="M162.628 195.729C163.195 195.729 163.654 195.27 163.654 194.703C163.654 194.137 163.195 193.678 162.628 193.678C162.061 193.678 161.602 194.137 161.602 194.703C161.602 195.27 162.061 195.729 162.628 195.729Z" fill="#00D282"/>
<path d="M179.048 195.729C179.615 195.729 180.074 195.27 180.074 194.703C180.074 194.137 179.615 193.678 179.048 193.678C178.481 193.678 178.021 194.137 178.021 194.703C178.021 195.27 178.481 195.729 179.048 195.729Z" fill="#00D282"/>
<path d="M195.468 195.729C196.034 195.729 196.494 195.27 196.494 194.703C196.494 194.137 196.034 193.678 195.468 193.678C194.901 193.678 194.441 194.137 194.441 194.703C194.441 195.27 194.901 195.729 195.468 195.729Z" fill="#00D282"/>
<path d="M211.887 195.729C212.453 195.729 212.913 195.27 212.913 194.703C212.913 194.137 212.453 193.678 211.887 193.678C211.32 193.678 210.86 194.137 210.86 194.703C210.86 195.27 211.32 195.729 211.887 195.729Z" fill="#00D282"/>
<path d="M228.307 195.729C228.874 195.729 229.333 195.27 229.333 194.703C229.333 194.137 228.874 193.678 228.307 193.678C227.74 193.678 227.281 194.137 227.281 194.703C227.281 195.27 227.74 195.729 228.307 195.729Z" fill="#00D282"/>
<path d="M244.727 195.729C245.294 195.729 245.753 195.27 245.753 194.703C245.753 194.137 245.294 193.678 244.727 193.678C244.16 193.678 243.701 194.137 243.701 194.703C243.701 195.27 244.16 195.729 244.727 195.729Z" fill="#00D282"/>
<path d="M261.147 195.729C261.714 195.729 262.173 195.27 262.173 194.703C262.173 194.137 261.714 193.678 261.147 193.678C260.58 193.678 260.121 194.137 260.121 194.703C260.121 195.27 260.58 195.729 261.147 195.729Z" fill="#00D282"/>
<path d="M277.566 195.729C278.133 195.729 278.593 195.27 278.593 194.703C278.593 194.137 278.133 193.678 277.566 193.678C277 193.678 276.54 194.137 276.54 194.703C276.54 195.27 277 195.729 277.566 195.729Z" fill="#00D282"/>
<path d="M310.407 195.729C310.973 195.729 311.433 195.27 311.433 194.703C311.433 194.137 310.973 193.678 310.407 193.678C309.84 193.678 309.38 194.137 309.38 194.703C309.38 195.27 309.84 195.729 310.407 195.729Z" fill="#00D282"/>
<path d="M326.827 195.729C327.394 195.729 327.853 195.27 327.853 194.703C327.853 194.137 327.394 193.678 326.827 193.678C326.26 193.678 325.801 194.137 325.801 194.703C325.801 195.27 326.26 195.729 326.827 195.729Z" fill="#00D282"/>
<path d="M343.246 195.729C343.813 195.729 344.272 195.27 344.272 194.703C344.272 194.137 343.813 193.678 343.246 193.678C342.679 193.678 342.22 194.137 342.22 194.703C342.22 195.27 342.679 195.729 343.246 195.729Z" fill="#00D282"/>
<path d="M80.5282 212.136C81.095 212.136 81.5544 211.677 81.5544 211.11C81.5544 210.544 81.095 210.085 80.5282 210.085C79.9614 210.085 79.502 210.544 79.502 211.11C79.502 211.677 79.9614 212.136 80.5282 212.136Z" fill="#00D282"/>
<path d="M96.9481 212.136C97.5149 212.136 97.9744 211.677 97.9744 211.11C97.9744 210.544 97.5149 210.085 96.9481 210.085C96.3813 210.085 95.9219 210.544 95.9219 211.11C95.9219 211.677 96.3813 212.136 96.9481 212.136Z" fill="#00D282"/>
<path d="M113.368 212.136C113.935 212.136 114.394 211.677 114.394 211.11C114.394 210.544 113.935 210.085 113.368 210.085C112.801 210.085 112.342 210.544 112.342 211.11C112.342 211.677 112.801 212.136 113.368 212.136Z" fill="#00D282"/>
<path d="M310.407 212.136C310.973 212.136 311.433 211.677 311.433 211.11C311.433 210.544 310.973 210.085 310.407 210.085C309.84 210.085 309.38 210.544 309.38 211.11C309.38 211.677 309.84 212.136 310.407 212.136Z" fill="#00D282"/>
<path d="M326.827 212.136C327.394 212.136 327.853 211.677 327.853 211.11C327.853 210.544 327.394 210.085 326.827 210.085C326.26 210.085 325.801 210.544 325.801 211.11C325.801 211.677 326.26 212.136 326.827 212.136Z" fill="#00D282"/>
<path d="M343.246 212.136C343.813 212.136 344.272 211.677 344.272 211.11C344.272 210.544 343.813 210.085 343.246 210.085C342.679 210.085 342.22 210.544 342.22 211.11C342.22 211.677 342.679 212.136 343.246 212.136Z" fill="#00D282"/>
<path d="M80.5282 228.543C81.095 228.543 81.5544 228.084 81.5544 227.518C81.5544 226.951 81.095 226.492 80.5282 226.492C79.9614 226.492 79.502 226.951 79.502 227.518C79.502 228.084 79.9614 228.543 80.5282 228.543Z" fill="#00D282"/>
<path d="M96.9481 228.543C97.5149 228.543 97.9744 228.084 97.9744 227.518C97.9744 226.951 97.5149 226.492 96.9481 226.492C96.3813 226.492 95.9219 226.951 95.9219 227.518C95.9219 228.084 96.3813 228.543 96.9481 228.543Z" fill="#00D282"/>
<path d="M113.368 228.543C113.935 228.543 114.394 228.084 114.394 227.518C114.394 226.951 113.935 226.492 113.368 226.492C112.801 226.492 112.342 226.951 112.342 227.518C112.342 228.084 112.801 228.543 113.368 228.543Z" fill="#00D282"/>
<path d="M129.788 228.543C130.355 228.543 130.814 228.084 130.814 227.518C130.814 226.951 130.355 226.492 129.788 226.492C129.221 226.492 128.762 226.951 128.762 227.518C128.762 228.084 129.221 228.543 129.788 228.543Z" fill="#00D282"/>
<path d="M146.208 228.543C146.775 228.543 147.234 228.084 147.234 227.518C147.234 226.951 146.775 226.492 146.208 226.492C145.641 226.492 145.182 226.951 145.182 227.518C145.182 228.084 145.641 228.543 146.208 228.543Z" fill="#00D282"/>
<path d="M162.628 228.543C163.195 228.543 163.654 228.084 163.654 227.518C163.654 226.951 163.195 226.492 162.628 226.492C162.061 226.492 161.602 226.951 161.602 227.518C161.602 228.084 162.061 228.543 162.628 228.543Z" fill="#00D282"/>
<path d="M179.048 228.543C179.615 228.543 180.074 228.084 180.074 227.518C180.074 226.951 179.615 226.492 179.048 226.492C178.481 226.492 178.021 226.951 178.021 227.518C178.021 228.084 178.481 228.543 179.048 228.543Z" fill="#00D282"/>
<path d="M195.468 228.543C196.034 228.543 196.494 228.084 196.494 227.518C196.494 226.951 196.034 226.492 195.468 226.492C194.901 226.492 194.441 226.951 194.441 227.518C194.441 228.084 194.901 228.543 195.468 228.543Z" fill="#00D282"/>
<path d="M211.887 228.543C212.453 228.543 212.913 228.084 212.913 227.518C212.913 226.951 212.453 226.492 211.887 226.492C211.32 226.492 210.86 226.951 210.86 227.518C210.86 228.084 211.32 228.543 211.887 228.543Z" fill="#00D282"/>
<path d="M228.307 228.543C228.874 228.543 229.333 228.084 229.333 227.518C229.333 226.951 228.874 226.492 228.307 226.492C227.74 226.492 227.281 226.951 227.281 227.518C227.281 228.084 227.74 228.543 228.307 228.543Z" fill="#00D282"/>
<path d="M244.727 228.543C245.294 228.543 245.753 228.084 245.753 227.518C245.753 226.951 245.294 226.492 244.727 226.492C244.16 226.492 243.701 226.951 243.701 227.518C243.701 228.084 244.16 228.543 244.727 228.543Z" fill="#00D282"/>
<path d="M261.147 228.543C261.714 228.543 262.173 228.084 262.173 227.518C262.173 226.951 261.714 226.492 261.147 226.492C260.58 226.492 260.121 226.951 260.121 227.518C260.121 228.084 260.58 228.543 261.147 228.543Z" fill="#00D282"/>
<path d="M277.566 228.543C278.133 228.543 278.593 228.084 278.593 227.518C278.593 226.951 278.133 226.492 277.566 226.492C277 226.492 276.54 226.951 276.54 227.518C276.54 228.084 277 228.543 277.566 228.543Z" fill="#00D282"/>
<path d="M293.987 228.543C294.553 228.543 295.013 228.084 295.013 227.518C295.013 226.951 294.553 226.492 293.987 226.492C293.42 226.492 292.96 226.951 292.96 227.518C292.96 228.084 293.42 228.543 293.987 228.543Z" fill="#00D282"/>
<path d="M310.407 228.543C310.973 228.543 311.433 228.084 311.433 227.518C311.433 226.951 310.973 226.492 310.407 226.492C309.84 226.492 309.38 226.951 309.38 227.518C309.38 228.084 309.84 228.543 310.407 228.543Z" fill="#00D282"/>
<path d="M326.827 228.543C327.394 228.543 327.853 228.084 327.853 227.518C327.853 226.951 327.394 226.492 326.827 226.492C326.26 226.492 325.801 226.951 325.801 227.518C325.801 228.084 326.26 228.543 326.827 228.543Z" fill="#00D282"/>
<path d="M343.246 228.543C343.813 228.543 344.272 228.084 344.272 227.518C344.272 226.951 343.813 226.492 343.246 226.492C342.679 226.492 342.22 226.951 342.22 227.518C342.22 228.084 342.679 228.543 343.246 228.543Z" fill="#00D282"/>
<path d="M129.788 195.723C130.355 195.723 130.814 195.264 130.814 194.697C130.814 194.131 130.355 193.672 129.788 193.672C129.221 193.672 128.762 194.131 128.762 194.697C128.762 195.264 129.221 195.723 129.788 195.723Z" fill="#00D282"/>
<path d="M293.987 195.723C294.553 195.723 295.013 195.264 295.013 194.697C295.013 194.131 294.553 193.672 293.987 193.672C293.42 193.672 292.96 194.131 292.96 194.697C292.96 195.264 293.42 195.723 293.987 195.723Z" fill="#00D282"/>
<path d="M310.407 195.723C310.973 195.723 311.433 195.264 311.433 194.697C311.433 194.131 310.973 193.672 310.407 193.672C309.84 193.672 309.38 194.131 309.38 194.697C309.38 195.264 309.84 195.723 310.407 195.723Z" fill="#00D282"/>
<path d="M129.788 212.132C130.355 212.132 130.814 211.673 130.814 211.107C130.814 210.54 130.355 210.081 129.788 210.081C129.221 210.081 128.762 210.54 128.762 211.107C128.762 211.673 129.221 212.132 129.788 212.132Z" fill="#00D282"/>
<path d="M146.208 212.132C146.775 212.132 147.234 211.673 147.234 211.107C147.234 210.54 146.775 210.081 146.208 210.081C145.641 210.081 145.182 210.54 145.182 211.107C145.182 211.673 145.641 212.132 146.208 212.132Z" fill="#00D282"/>
<path d="M162.628 212.132C163.195 212.132 163.654 211.673 163.654 211.107C163.654 210.54 163.195 210.081 162.628 210.081C162.061 210.081 161.602 210.54 161.602 211.107C161.602 211.673 162.061 212.132 162.628 212.132Z" fill="#00D282"/>
<path d="M179.048 212.132C179.615 212.132 180.074 211.673 180.074 211.107C180.074 210.54 179.615 210.081 179.048 210.081C178.481 210.081 178.021 210.54 178.021 211.107C178.021 211.673 178.481 212.132 179.048 212.132Z" fill="#00D282"/>
<path d="M195.468 212.132C196.034 212.132 196.494 211.673 196.494 211.107C196.494 210.54 196.034 210.081 195.468 210.081C194.901 210.081 194.441 210.54 194.441 211.107C194.441 211.673 194.901 212.132 195.468 212.132Z" fill="#00D282"/>
<path d="M211.887 212.132C212.453 212.132 212.913 211.673 212.913 211.107C212.913 210.54 212.453 210.081 211.887 210.081C211.32 210.081 210.86 210.54 210.86 211.107C210.86 211.673 211.32 212.132 211.887 212.132Z" fill="#00D282"/>
<path d="M228.307 212.132C228.874 212.132 229.333 211.673 229.333 211.107C229.333 210.54 228.874 210.081 228.307 210.081C227.74 210.081 227.281 210.54 227.281 211.107C227.281 211.673 227.74 212.132 228.307 212.132Z" fill="#00D282"/>
<path d="M244.727 212.132C245.294 212.132 245.753 211.673 245.753 211.107C245.753 210.54 245.294 210.081 244.727 210.081C244.16 210.081 243.701 210.54 243.701 211.107C243.701 211.673 244.16 212.132 244.727 212.132Z" fill="#00D282"/>
<path d="M261.147 212.132C261.714 212.132 262.173 211.673 262.173 211.107C262.173 210.54 261.714 210.081 261.147 210.081C260.58 210.081 260.121 210.54 260.121 211.107C260.121 211.673 260.58 212.132 261.147 212.132Z" fill="#00D282"/>
<path d="M277.566 212.132C278.133 212.132 278.593 211.673 278.593 211.107C278.593 210.54 278.133 210.081 277.566 210.081C277 210.081 276.54 210.54 276.54 211.107C276.54 211.673 277 212.132 277.566 212.132Z" fill="#00D282"/>
<path d="M293.987 212.132C294.553 212.132 295.013 211.673 295.013 211.107C295.013 210.54 294.553 210.081 293.987 210.081C293.42 210.081 292.96 210.54 292.96 211.107C292.96 211.673 293.42 212.132 293.987 212.132Z" fill="#00D282"/>
<path d="M310.407 212.132C310.973 212.132 311.433 211.673 311.433 211.107C311.433 210.54 310.973 210.081 310.407 210.081C309.84 210.081 309.38 210.54 309.38 211.107C309.38 211.673 309.84 212.132 310.407 212.132Z" fill="#00D282"/>
<path d="M360.963 93.159C361.232 93.159 361.449 92.9415 361.449 92.6733C361.449 92.405 361.232 92.1875 360.963 92.1875C360.695 92.1875 360.477 92.405 360.477 92.6733C360.477 92.9415 360.695 93.159 360.963 93.159Z" fill="#514EFF"/>
<path d="M368.741 93.159C369.009 93.159 369.227 92.9415 369.227 92.6733C369.227 92.405 369.009 92.1875 368.741 92.1875C368.473 92.1875 368.255 92.405 368.255 92.6733C368.255 92.9415 368.473 93.159 368.741 93.159Z" fill="#514EFF"/>
<path d="M376.518 93.159C376.787 93.159 377.004 92.9415 377.004 92.6733C377.004 92.405 376.787 92.1875 376.518 92.1875C376.25 92.1875 376.032 92.405 376.032 92.6733C376.032 92.9415 376.25 93.159 376.518 93.159Z" fill="#514EFF"/>
<path d="M384.297 93.159C384.565 93.159 384.783 92.9415 384.783 92.6733C384.783 92.405 384.565 92.1875 384.297 92.1875C384.028 92.1875 383.811 92.405 383.811 92.6733C383.811 92.9415 384.028 93.159 384.297 93.159Z" fill="#514EFF"/>
<path d="M392.074 93.159C392.343 93.159 392.561 92.9415 392.561 92.6733C392.561 92.405 392.343 92.1875 392.074 92.1875C391.806 92.1875 391.588 92.405 391.588 92.6733C391.588 92.9415 391.806 93.159 392.074 93.159Z" fill="#514EFF"/>
<path d="M399.852 93.159C400.12 93.159 400.338 92.9415 400.338 92.6733C400.338 92.405 400.12 92.1875 399.852 92.1875C399.583 92.1875 399.366 92.405 399.366 92.6733C399.366 92.9415 399.583 93.159 399.852 93.159Z" fill="#514EFF"/>
<path d="M407.631 93.159C407.899 93.159 408.117 92.9415 408.117 92.6733C408.117 92.405 407.899 92.1875 407.631 92.1875C407.362 92.1875 407.145 92.405 407.145 92.6733C407.145 92.9415 407.362 93.159 407.631 93.159Z" fill="#514EFF"/>
<path d="M415.408 93.159C415.677 93.159 415.895 92.9415 415.895 92.6733C415.895 92.405 415.677 92.1875 415.408 92.1875C415.14 92.1875 414.922 92.405 414.922 92.6733C414.922 92.9415 415.14 93.159 415.408 93.159Z" fill="#514EFF"/>
<path d="M423.186 93.159C423.455 93.159 423.672 92.9415 423.672 92.6733C423.672 92.405 423.455 92.1875 423.186 92.1875C422.918 92.1875 422.7 92.405 422.7 92.6733C422.7 92.9415 422.918 93.159 423.186 93.159Z" fill="#514EFF"/>
<path d="M430.964 93.159C431.233 93.159 431.45 92.9415 431.45 92.6733C431.45 92.405 431.233 92.1875 430.964 92.1875C430.696 92.1875 430.478 92.405 430.478 92.6733C430.478 92.9415 430.696 93.159 430.964 93.159Z" fill="#514EFF"/>
<path d="M438.741 93.159C439.01 93.159 439.228 92.9415 439.228 92.6733C439.228 92.405 439.01 92.1875 438.741 92.1875C438.473 92.1875 438.255 92.405 438.255 92.6733C438.255 92.9415 438.473 93.159 438.741 93.159Z" fill="#514EFF"/>
<path d="M446.519 93.159C446.788 93.159 447.005 92.9415 447.005 92.6733C447.005 92.405 446.788 92.1875 446.519 92.1875C446.251 92.1875 446.033 92.405 446.033 92.6733C446.033 92.9415 446.251 93.159 446.519 93.159Z" fill="#514EFF"/>
<path d="M454.297 93.159C454.566 93.159 454.783 92.9415 454.783 92.6733C454.783 92.405 454.566 92.1875 454.297 92.1875C454.029 92.1875 453.811 92.405 453.811 92.6733C453.811 92.9415 454.029 93.159 454.297 93.159Z" fill="#514EFF"/>
<path d="M462.075 93.159C462.343 93.159 462.561 92.9415 462.561 92.6733C462.561 92.405 462.343 92.1875 462.075 92.1875C461.807 92.1875 461.589 92.405 461.589 92.6733C461.589 92.9415 461.807 93.159 462.075 93.159Z" fill="#514EFF"/>
<path d="M469.853 93.159C470.121 93.159 470.339 92.9415 470.339 92.6733C470.339 92.405 470.121 92.1875 469.853 92.1875C469.584 92.1875 469.367 92.405 469.367 92.6733C469.367 92.9415 469.584 93.159 469.853 93.159Z" fill="#514EFF"/>
<path d="M477.631 93.159C477.899 93.159 478.117 92.9415 478.117 92.6733C478.117 92.405 477.899 92.1875 477.631 92.1875C477.362 92.1875 477.145 92.405 477.145 92.6733C477.145 92.9415 477.362 93.159 477.631 93.159Z" fill="#514EFF"/>
<path d="M360.963 100.93C361.232 100.93 361.449 100.713 361.449 100.445C361.449 100.176 361.232 99.959 360.963 99.959C360.695 99.959 360.477 100.176 360.477 100.445C360.477 100.713 360.695 100.93 360.963 100.93Z" fill="#514EFF"/>
<path d="M368.741 100.93C369.009 100.93 369.227 100.713 369.227 100.445C369.227 100.176 369.009 99.959 368.741 99.959C368.473 99.959 368.255 100.176 368.255 100.445C368.255 100.713 368.473 100.93 368.741 100.93Z" fill="#514EFF"/>
<path d="M376.518 100.93C376.787 100.93 377.004 100.713 377.004 100.445C377.004 100.176 376.787 99.959 376.518 99.959C376.25 99.959 376.032 100.176 376.032 100.445C376.032 100.713 376.25 100.93 376.518 100.93Z" fill="#514EFF"/>
<path d="M384.297 100.93C384.565 100.93 384.783 100.713 384.783 100.445C384.783 100.176 384.565 99.959 384.297 99.959C384.028 99.959 383.811 100.176 383.811 100.445C383.811 100.713 384.028 100.93 384.297 100.93Z" fill="#514EFF"/>
<path d="M392.074 100.93C392.343 100.93 392.561 100.713 392.561 100.445C392.561 100.176 392.343 99.959 392.074 99.959C391.806 99.959 391.588 100.176 391.588 100.445C391.588 100.713 391.806 100.93 392.074 100.93Z" fill="#514EFF"/>
<path d="M399.852 100.93C400.12 100.93 400.338 100.713 400.338 100.445C400.338 100.176 400.12 99.959 399.852 99.959C399.583 99.959 399.366 100.176 399.366 100.445C399.366 100.713 399.583 100.93 399.852 100.93Z" fill="#514EFF"/>
<path d="M407.631 100.93C407.899 100.93 408.117 100.713 408.117 100.445C408.117 100.176 407.899 99.959 407.631 99.959C407.362 99.959 407.145 100.176 407.145 100.445C407.145 100.713 407.362 100.93 407.631 100.93Z" fill="#514EFF"/>
<path d="M415.408 100.93C415.677 100.93 415.895 100.713 415.895 100.445C415.895 100.176 415.677 99.959 415.408 99.959C415.14 99.959 414.922 100.176 414.922 100.445C414.922 100.713 415.14 100.93 415.408 100.93Z" fill="#514EFF"/>
<path d="M423.186 100.93C423.455 100.93 423.672 100.713 423.672 100.445C423.672 100.176 423.455 99.959 423.186 99.959C422.918 99.959 422.7 100.176 422.7 100.445C422.7 100.713 422.918 100.93 423.186 100.93Z" fill="#514EFF"/>
<path d="M430.964 100.93C431.233 100.93 431.45 100.713 431.45 100.445C431.45 100.176 431.233 99.959 430.964 99.959C430.696 99.959 430.478 100.176 430.478 100.445C430.478 100.713 430.696 100.93 430.964 100.93Z" fill="#514EFF"/>
<path d="M438.741 100.93C439.01 100.93 439.228 100.713 439.228 100.445C439.228 100.176 439.01 99.959 438.741 99.959C438.473 99.959 438.255 100.176 438.255 100.445C438.255 100.713 438.473 100.93 438.741 100.93Z" fill="#514EFF"/>
<path d="M446.519 100.93C446.788 100.93 447.005 100.713 447.005 100.445C447.005 100.176 446.788 99.959 446.519 99.959C446.251 99.959 446.033 100.176 446.033 100.445C446.033 100.713 446.251 100.93 446.519 100.93Z" fill="#514EFF"/>
<path d="M454.297 100.93C454.566 100.93 454.783 100.713 454.783 100.445C454.783 100.176 454.566 99.959 454.297 99.959C454.029 99.959 453.811 100.176 453.811 100.445C453.811 100.713 454.029 100.93 454.297 100.93Z" fill="#514EFF"/>
<path d="M462.075 100.93C462.343 100.93 462.561 100.713 462.561 100.445C462.561 100.176 462.343 99.959 462.075 99.959C461.807 99.959 461.589 100.176 461.589 100.445C461.589 100.713 461.807 100.93 462.075 100.93Z" fill="#514EFF"/>
<path d="M469.853 100.93C470.121 100.93 470.339 100.713 470.339 100.445C470.339 100.176 470.121 99.959 469.853 99.959C469.584 99.959 469.367 100.176 469.367 100.445C469.367 100.713 469.584 100.93 469.853 100.93Z" fill="#514EFF"/>
<path d="M360.963 108.703C361.232 108.703 361.449 108.485 361.449 108.217C361.449 107.949 361.232 107.731 360.963 107.731C360.695 107.731 360.477 107.949 360.477 108.217C360.477 108.485 360.695 108.703 360.963 108.703Z" fill="#514EFF"/>
<path d="M368.741 108.703C369.009 108.703 369.227 108.485 369.227 108.217C369.227 107.949 369.009 107.731 368.741 107.731C368.473 107.731 368.255 107.949 368.255 108.217C368.255 108.485 368.473 108.703 368.741 108.703Z" fill="#514EFF"/>
<path d="M376.518 108.703C376.787 108.703 377.004 108.485 377.004 108.217C377.004 107.949 376.787 107.731 376.518 107.731C376.25 107.731 376.032 107.949 376.032 108.217C376.032 108.485 376.25 108.703 376.518 108.703Z" fill="#514EFF"/>
<path d="M384.297 108.703C384.565 108.703 384.783 108.485 384.783 108.217C384.783 107.949 384.565 107.731 384.297 107.731C384.028 107.731 383.811 107.949 383.811 108.217C383.811 108.485 384.028 108.703 384.297 108.703Z" fill="#514EFF"/>
<path d="M392.074 108.703C392.343 108.703 392.561 108.485 392.561 108.217C392.561 107.949 392.343 107.731 392.074 107.731C391.806 107.731 391.588 107.949 391.588 108.217C391.588 108.485 391.806 108.703 392.074 108.703Z" fill="#514EFF"/>
<path d="M399.852 108.703C400.12 108.703 400.338 108.485 400.338 108.217C400.338 107.949 400.12 107.731 399.852 107.731C399.583 107.731 399.366 107.949 399.366 108.217C399.366 108.485 399.583 108.703 399.852 108.703Z" fill="#514EFF"/>
<path d="M407.631 108.703C407.899 108.703 408.117 108.485 408.117 108.217C408.117 107.949 407.899 107.731 407.631 107.731C407.362 107.731 407.145 107.949 407.145 108.217C407.145 108.485 407.362 108.703 407.631 108.703Z" fill="#514EFF"/>
<path d="M415.408 108.703C415.677 108.703 415.895 108.485 415.895 108.217C415.895 107.949 415.677 107.731 415.408 107.731C415.14 107.731 414.922 107.949 414.922 108.217C414.922 108.485 415.14 108.703 415.408 108.703Z" fill="#514EFF"/>
<path d="M423.186 108.703C423.455 108.703 423.672 108.485 423.672 108.217C423.672 107.949 423.455 107.731 423.186 107.731C422.918 107.731 422.7 107.949 422.7 108.217C422.7 108.485 422.918 108.703 423.186 108.703Z" fill="#514EFF"/>
<path d="M430.964 108.703C431.233 108.703 431.45 108.485 431.45 108.217C431.45 107.949 431.233 107.731 430.964 107.731C430.696 107.731 430.478 107.949 430.478 108.217C430.478 108.485 430.696 108.703 430.964 108.703Z" fill="#514EFF"/>
<path d="M438.741 108.703C439.01 108.703 439.228 108.485 439.228 108.217C439.228 107.949 439.01 107.731 438.741 107.731C438.473 107.731 438.255 107.949 438.255 108.217C438.255 108.485 438.473 108.703 438.741 108.703Z" fill="#514EFF"/>
<path d="M446.519 108.703C446.788 108.703 447.005 108.485 447.005 108.217C447.005 107.949 446.788 107.731 446.519 107.731C446.251 107.731 446.033 107.949 446.033 108.217C446.033 108.485 446.251 108.703 446.519 108.703Z" fill="#514EFF"/>
<path d="M454.297 108.703C454.566 108.703 454.783 108.485 454.783 108.217C454.783 107.949 454.566 107.731 454.297 107.731C454.029 107.731 453.811 107.949 453.811 108.217C453.811 108.485 454.029 108.703 454.297 108.703Z" fill="#514EFF"/>
<path d="M462.075 108.703C462.343 108.703 462.561 108.485 462.561 108.217C462.561 107.949 462.343 107.731 462.075 107.731C461.807 107.731 461.589 107.949 461.589 108.217C461.589 108.485 461.807 108.703 462.075 108.703Z" fill="#514EFF"/>
<path d="M469.853 108.703C470.121 108.703 470.339 108.485 470.339 108.217C470.339 107.949 470.121 107.731 469.853 107.731C469.584 107.731 469.367 107.949 469.367 108.217C469.367 108.485 469.584 108.703 469.853 108.703Z" fill="#514EFF"/>
<path d="M360.963 116.473C361.232 116.473 361.449 116.256 361.449 115.988C361.449 115.719 361.232 115.502 360.963 115.502C360.695 115.502 360.477 115.719 360.477 115.988C360.477 116.256 360.695 116.473 360.963 116.473Z" fill="#514EFF"/>
<path d="M368.741 116.473C369.009 116.473 369.227 116.256 369.227 115.988C369.227 115.719 369.009 115.502 368.741 115.502C368.473 115.502 368.255 115.719 368.255 115.988C368.255 116.256 368.473 116.473 368.741 116.473Z" fill="#514EFF"/>
<path d="M376.518 116.473C376.787 116.473 377.004 116.256 377.004 115.988C377.004 115.719 376.787 115.502 376.518 115.502C376.25 115.502 376.032 115.719 376.032 115.988C376.032 116.256 376.25 116.473 376.518 116.473Z" fill="#514EFF"/>
<path d="M384.297 116.473C384.565 116.473 384.783 116.256 384.783 115.988C384.783 115.719 384.565 115.502 384.297 115.502C384.028 115.502 383.811 115.719 383.811 115.988C383.811 116.256 384.028 116.473 384.297 116.473Z" fill="#514EFF"/>
<path d="M392.074 116.473C392.343 116.473 392.561 116.256 392.561 115.988C392.561 115.719 392.343 115.502 392.074 115.502C391.806 115.502 391.588 115.719 391.588 115.988C391.588 116.256 391.806 116.473 392.074 116.473Z" fill="#514EFF"/>
<path d="M399.852 116.473C400.12 116.473 400.338 116.256 400.338 115.988C400.338 115.719 400.12 115.502 399.852 115.502C399.583 115.502 399.366 115.719 399.366 115.988C399.366 116.256 399.583 116.473 399.852 116.473Z" fill="#514EFF"/>
<path d="M407.631 116.473C407.899 116.473 408.117 116.256 408.117 115.988C408.117 115.719 407.899 115.502 407.631 115.502C407.362 115.502 407.145 115.719 407.145 115.988C407.145 116.256 407.362 116.473 407.631 116.473Z" fill="#514EFF"/>
<path d="M415.408 116.473C415.677 116.473 415.895 116.256 415.895 115.988C415.895 115.719 415.677 115.502 415.408 115.502C415.14 115.502 414.922 115.719 414.922 115.988C414.922 116.256 415.14 116.473 415.408 116.473Z" fill="#514EFF"/>
<path d="M423.186 116.473C423.455 116.473 423.672 116.256 423.672 115.988C423.672 115.719 423.455 115.502 423.186 115.502C422.918 115.502 422.7 115.719 422.7 115.988C422.7 116.256 422.918 116.473 423.186 116.473Z" fill="#514EFF"/>
<path d="M430.964 116.473C431.233 116.473 431.45 116.256 431.45 115.988C431.45 115.719 431.233 115.502 430.964 115.502C430.696 115.502 430.478 115.719 430.478 115.988C430.478 116.256 430.696 116.473 430.964 116.473Z" fill="#514EFF"/>
<path d="M438.741 116.473C439.01 116.473 439.228 116.256 439.228 115.988C439.228 115.719 439.01 115.502 438.741 115.502C438.473 115.502 438.255 115.719 438.255 115.988C438.255 116.256 438.473 116.473 438.741 116.473Z" fill="#514EFF"/>
<path d="M446.519 116.473C446.788 116.473 447.005 116.256 447.005 115.988C447.005 115.719 446.788 115.502 446.519 115.502C446.251 115.502 446.033 115.719 446.033 115.988C446.033 116.256 446.251 116.473 446.519 116.473Z" fill="#514EFF"/>
<path d="M454.297 116.473C454.566 116.473 454.783 116.256 454.783 115.988C454.783 115.719 454.566 115.502 454.297 115.502C454.029 115.502 453.811 115.719 453.811 115.988C453.811 116.256 454.029 116.473 454.297 116.473Z" fill="#514EFF"/>
<path d="M462.075 116.473C462.343 116.473 462.561 116.256 462.561 115.988C462.561 115.719 462.343 115.502 462.075 115.502C461.807 115.502 461.589 115.719 461.589 115.988C461.589 116.256 461.807 116.473 462.075 116.473Z" fill="#514EFF"/>
<path d="M469.853 116.473C470.121 116.473 470.339 116.256 470.339 115.988C470.339 115.719 470.121 115.502 469.853 115.502C469.584 115.502 469.367 115.719 469.367 115.988C469.367 116.256 469.584 116.473 469.853 116.473Z" fill="#514EFF"/>
<path d="M360.963 124.247C361.232 124.247 361.449 124.029 361.449 123.761C361.449 123.493 361.232 123.275 360.963 123.275C360.695 123.275 360.477 123.493 360.477 123.761C360.477 124.029 360.695 124.247 360.963 124.247Z" fill="#514EFF"/>
<path d="M368.741 124.247C369.009 124.247 369.227 124.029 369.227 123.761C369.227 123.493 369.009 123.275 368.741 123.275C368.473 123.275 368.255 123.493 368.255 123.761C368.255 124.029 368.473 124.247 368.741 124.247Z" fill="#514EFF"/>
<path d="M376.518 124.247C376.787 124.247 377.004 124.029 377.004 123.761C377.004 123.493 376.787 123.275 376.518 123.275C376.25 123.275 376.032 123.493 376.032 123.761C376.032 124.029 376.25 124.247 376.518 124.247Z" fill="#514EFF"/>
<path d="M384.297 124.247C384.565 124.247 384.783 124.029 384.783 123.761C384.783 123.493 384.565 123.275 384.297 123.275C384.028 123.275 383.811 123.493 383.811 123.761C383.811 124.029 384.028 124.247 384.297 124.247Z" fill="#514EFF"/>
<path d="M392.074 124.247C392.343 124.247 392.561 124.029 392.561 123.761C392.561 123.493 392.343 123.275 392.074 123.275C391.806 123.275 391.588 123.493 391.588 123.761C391.588 124.029 391.806 124.247 392.074 124.247Z" fill="#514EFF"/>
<path d="M399.852 124.247C400.12 124.247 400.338 124.029 400.338 123.761C400.338 123.493 400.12 123.275 399.852 123.275C399.583 123.275 399.366 123.493 399.366 123.761C399.366 124.029 399.583 124.247 399.852 124.247Z" fill="#514EFF"/>
<path d="M407.631 124.247C407.899 124.247 408.117 124.029 408.117 123.761C408.117 123.493 407.899 123.275 407.631 123.275C407.362 123.275 407.145 123.493 407.145 123.761C407.145 124.029 407.362 124.247 407.631 124.247Z" fill="#514EFF"/>
<path d="M415.408 124.247C415.677 124.247 415.895 124.029 415.895 123.761C415.895 123.493 415.677 123.275 415.408 123.275C415.14 123.275 414.922 123.493 414.922 123.761C414.922 124.029 415.14 124.247 415.408 124.247Z" fill="#514EFF"/>
<path d="M423.186 124.247C423.455 124.247 423.672 124.029 423.672 123.761C423.672 123.493 423.455 123.275 423.186 123.275C422.918 123.275 422.7 123.493 422.7 123.761C422.7 124.029 422.918 124.247 423.186 124.247Z" fill="#514EFF"/>
<path d="M430.964 124.247C431.233 124.247 431.45 124.029 431.45 123.761C431.45 123.493 431.233 123.275 430.964 123.275C430.696 123.275 430.478 123.493 430.478 123.761C430.478 124.029 430.696 124.247 430.964 124.247Z" fill="#514EFF"/>
<path d="M438.741 124.247C439.01 124.247 439.228 124.029 439.228 123.761C439.228 123.493 439.01 123.275 438.741 123.275C438.473 123.275 438.255 123.493 438.255 123.761C438.255 124.029 438.473 124.247 438.741 124.247Z" fill="#514EFF"/>
<path d="M446.519 124.247C446.788 124.247 447.005 124.029 447.005 123.761C447.005 123.493 446.788 123.275 446.519 123.275C446.251 123.275 446.033 123.493 446.033 123.761C446.033 124.029 446.251 124.247 446.519 124.247Z" fill="#514EFF"/>
<path d="M454.297 124.247C454.566 124.247 454.783 124.029 454.783 123.761C454.783 123.493 454.566 123.275 454.297 123.275C454.029 123.275 453.811 123.493 453.811 123.761C453.811 124.029 454.029 124.247 454.297 124.247Z" fill="#514EFF"/>
<path d="M462.075 124.247C462.343 124.247 462.561 124.029 462.561 123.761C462.561 123.493 462.343 123.275 462.075 123.275C461.807 123.275 461.589 123.493 461.589 123.761C461.589 124.029 461.807 124.247 462.075 124.247Z" fill="#514EFF"/>
<path d="M469.853 124.247C470.121 124.247 470.339 124.029 470.339 123.761C470.339 123.493 470.121 123.275 469.853 123.275C469.584 123.275 469.367 123.493 469.367 123.761C469.367 124.029 469.584 124.247 469.853 124.247Z" fill="#514EFF"/>
<path d="M360.963 132.019C361.232 132.019 361.449 131.802 361.449 131.534C361.449 131.265 361.232 131.048 360.963 131.048C360.695 131.048 360.477 131.265 360.477 131.534C360.477 131.802 360.695 132.019 360.963 132.019Z" fill="#514EFF"/>
<path d="M368.741 132.019C369.009 132.019 369.227 131.802 369.227 131.534C369.227 131.265 369.009 131.048 368.741 131.048C368.473 131.048 368.255 131.265 368.255 131.534C368.255 131.802 368.473 132.019 368.741 132.019Z" fill="#514EFF"/>
<path d="M376.518 132.019C376.787 132.019 377.004 131.802 377.004 131.534C377.004 131.265 376.787 131.048 376.518 131.048C376.25 131.048 376.032 131.265 376.032 131.534C376.032 131.802 376.25 132.019 376.518 132.019Z" fill="#514EFF"/>
<path d="M384.297 132.019C384.565 132.019 384.783 131.802 384.783 131.534C384.783 131.265 384.565 131.048 384.297 131.048C384.028 131.048 383.811 131.265 383.811 131.534C383.811 131.802 384.028 132.019 384.297 132.019Z" fill="#514EFF"/>
<path d="M392.074 132.019C392.343 132.019 392.561 131.802 392.561 131.534C392.561 131.265 392.343 131.048 392.074 131.048C391.806 131.048 391.588 131.265 391.588 131.534C391.588 131.802 391.806 132.019 392.074 132.019Z" fill="#514EFF"/>
<path d="M399.852 132.019C400.12 132.019 400.338 131.802 400.338 131.534C400.338 131.265 400.12 131.048 399.852 131.048C399.583 131.048 399.366 131.265 399.366 131.534C399.366 131.802 399.583 132.019 399.852 132.019Z" fill="#514EFF"/>
<path d="M407.631 132.019C407.899 132.019 408.117 131.802 408.117 131.534C408.117 131.265 407.899 131.048 407.631 131.048C407.362 131.048 407.145 131.265 407.145 131.534C407.145 131.802 407.362 132.019 407.631 132.019Z" fill="#514EFF"/>
<path d="M415.408 132.019C415.677 132.019 415.895 131.802 415.895 131.534C415.895 131.265 415.677 131.048 415.408 131.048C415.14 131.048 414.922 131.265 414.922 131.534C414.922 131.802 415.14 132.019 415.408 132.019Z" fill="#514EFF"/>
<path d="M423.186 132.019C423.455 132.019 423.672 131.802 423.672 131.534C423.672 131.265 423.455 131.048 423.186 131.048C422.918 131.048 422.7 131.265 422.7 131.534C422.7 131.802 422.918 132.019 423.186 132.019Z" fill="#514EFF"/>
<path d="M430.964 132.019C431.233 132.019 431.45 131.802 431.45 131.534C431.45 131.265 431.233 131.048 430.964 131.048C430.696 131.048 430.478 131.265 430.478 131.534C430.478 131.802 430.696 132.019 430.964 132.019Z" fill="#514EFF"/>
<path d="M438.741 132.019C439.01 132.019 439.228 131.802 439.228 131.534C439.228 131.265 439.01 131.048 438.741 131.048C438.473 131.048 438.255 131.265 438.255 131.534C438.255 131.802 438.473 132.019 438.741 132.019Z" fill="#514EFF"/>
<path d="M446.519 132.019C446.788 132.019 447.005 131.802 447.005 131.534C447.005 131.265 446.788 131.048 446.519 131.048C446.251 131.048 446.033 131.265 446.033 131.534C446.033 131.802 446.251 132.019 446.519 132.019Z" fill="#514EFF"/>
<path d="M454.297 132.019C454.566 132.019 454.783 131.802 454.783 131.534C454.783 131.265 454.566 131.048 454.297 131.048C454.029 131.048 453.811 131.265 453.811 131.534C453.811 131.802 454.029 132.019 454.297 132.019Z" fill="#514EFF"/>
<path d="M462.075 132.019C462.343 132.019 462.561 131.802 462.561 131.534C462.561 131.265 462.343 131.048 462.075 131.048C461.807 131.048 461.589 131.265 461.589 131.534C461.589 131.802 461.807 132.019 462.075 132.019Z" fill="#514EFF"/>
<path d="M469.853 132.019C470.121 132.019 470.339 131.802 470.339 131.534C470.339 131.265 470.121 131.048 469.853 131.048C469.584 131.048 469.367 131.265 469.367 131.534C469.367 131.802 469.584 132.019 469.853 132.019Z" fill="#514EFF"/>
<path d="M360.963 139.792C361.232 139.792 361.449 139.574 361.449 139.306C361.449 139.038 361.232 138.82 360.963 138.82C360.695 138.82 360.477 139.038 360.477 139.306C360.477 139.574 360.695 139.792 360.963 139.792Z" fill="#514EFF"/>
<path d="M392.074 139.792C392.343 139.792 392.561 139.574 392.561 139.306C392.561 139.038 392.343 138.82 392.074 138.82C391.806 138.82 391.588 139.038 391.588 139.306C391.588 139.574 391.806 139.792 392.074 139.792Z" fill="#514EFF"/>
<path d="M399.852 139.792C400.12 139.792 400.338 139.574 400.338 139.306C400.338 139.038 400.12 138.82 399.852 138.82C399.583 138.82 399.366 139.038 399.366 139.306C399.366 139.574 399.583 139.792 399.852 139.792Z" fill="#514EFF"/>
<path d="M407.631 139.792C407.899 139.792 408.117 139.574 408.117 139.306C408.117 139.038 407.899 138.82 407.631 138.82C407.362 138.82 407.145 139.038 407.145 139.306C407.145 139.574 407.362 139.792 407.631 139.792Z" fill="#514EFF"/>
<path d="M415.408 139.792C415.677 139.792 415.895 139.574 415.895 139.306C415.895 139.038 415.677 138.82 415.408 138.82C415.14 138.82 414.922 139.038 414.922 139.306C414.922 139.574 415.14 139.792 415.408 139.792Z" fill="#514EFF"/>
<path d="M423.186 139.792C423.455 139.792 423.672 139.574 423.672 139.306C423.672 139.038 423.455 138.82 423.186 138.82C422.918 138.82 422.7 139.038 422.7 139.306C422.7 139.574 422.918 139.792 423.186 139.792Z" fill="#514EFF"/>
<path d="M430.964 139.792C431.233 139.792 431.45 139.574 431.45 139.306C431.45 139.038 431.233 138.82 430.964 138.82C430.696 138.82 430.478 139.038 430.478 139.306C430.478 139.574 430.696 139.792 430.964 139.792Z" fill="#514EFF"/>
<path d="M438.741 139.792C439.01 139.792 439.228 139.574 439.228 139.306C439.228 139.038 439.01 138.82 438.741 138.82C438.473 138.82 438.255 139.038 438.255 139.306C438.255 139.574 438.473 139.792 438.741 139.792Z" fill="#514EFF"/>
<path d="M446.519 139.792C446.788 139.792 447.005 139.574 447.005 139.306C447.005 139.038 446.788 138.82 446.519 138.82C446.251 138.82 446.033 139.038 446.033 139.306C446.033 139.574 446.251 139.792 446.519 139.792Z" fill="#514EFF"/>
<path d="M454.297 139.792C454.566 139.792 454.783 139.574 454.783 139.306C454.783 139.038 454.566 138.82 454.297 138.82C454.029 138.82 453.811 139.038 453.811 139.306C453.811 139.574 454.029 139.792 454.297 139.792Z" fill="#514EFF"/>
<path d="M462.075 139.792C462.343 139.792 462.561 139.574 462.561 139.306C462.561 139.038 462.343 138.82 462.075 138.82C461.807 138.82 461.589 139.038 461.589 139.306C461.589 139.574 461.807 139.792 462.075 139.792Z" fill="#514EFF"/>
<path d="M469.853 139.792C470.121 139.792 470.339 139.574 470.339 139.306C470.339 139.038 470.121 138.82 469.853 138.82C469.584 138.82 469.367 139.038 469.367 139.306C469.367 139.574 469.584 139.792 469.853 139.792Z" fill="#514EFF"/>
<path d="M360.963 147.563C361.232 147.563 361.449 147.346 361.449 147.078C361.449 146.809 361.232 146.592 360.963 146.592C360.695 146.592 360.477 146.809 360.477 147.078C360.477 147.346 360.695 147.563 360.963 147.563Z" fill="#514EFF"/>
<path d="M376.518 147.563C376.787 147.563 377.004 147.346 377.004 147.078C377.004 146.809 376.787 146.592 376.518 146.592C376.25 146.592 376.032 146.809 376.032 147.078C376.032 147.346 376.25 147.563 376.518 147.563Z" fill="#514EFF"/>
<path d="M392.074 147.563C392.343 147.563 392.561 147.346 392.561 147.078C392.561 146.809 392.343 146.592 392.074 146.592C391.806 146.592 391.588 146.809 391.588 147.078C391.588 147.346 391.806 147.563 392.074 147.563Z" fill="#514EFF"/>
<path d="M399.852 147.563C400.12 147.563 400.338 147.346 400.338 147.078C400.338 146.809 400.12 146.592 399.852 146.592C399.583 146.592 399.366 146.809 399.366 147.078C399.366 147.346 399.583 147.563 399.852 147.563Z" fill="#514EFF"/>
<path d="M407.631 147.563C407.899 147.563 408.117 147.346 408.117 147.078C408.117 146.809 407.899 146.592 407.631 146.592C407.362 146.592 407.145 146.809 407.145 147.078C407.145 147.346 407.362 147.563 407.631 147.563Z" fill="#514EFF"/>
<path d="M415.408 147.563C415.677 147.563 415.895 147.346 415.895 147.078C415.895 146.809 415.677 146.592 415.408 146.592C415.14 146.592 414.922 146.809 414.922 147.078C414.922 147.346 415.14 147.563 415.408 147.563Z" fill="#514EFF"/>
<path d="M423.186 147.563C423.455 147.563 423.672 147.346 423.672 147.078C423.672 146.809 423.455 146.592 423.186 146.592C422.918 146.592 422.7 146.809 422.7 147.078C422.7 147.346 422.918 147.563 423.186 147.563Z" fill="#514EFF"/>
<path d="M430.964 147.563C431.233 147.563 431.45 147.346 431.45 147.078C431.45 146.809 431.233 146.592 430.964 146.592C430.696 146.592 430.478 146.809 430.478 147.078C430.478 147.346 430.696 147.563 430.964 147.563Z" fill="#514EFF"/>
<path d="M438.741 147.563C439.01 147.563 439.228 147.346 439.228 147.078C439.228 146.809 439.01 146.592 438.741 146.592C438.473 146.592 438.255 146.809 438.255 147.078C438.255 147.346 438.473 147.563 438.741 147.563Z" fill="#514EFF"/>
<path d="M446.519 147.563C446.788 147.563 447.005 147.346 447.005 147.078C447.005 146.809 446.788 146.592 446.519 146.592C446.251 146.592 446.033 146.809 446.033 147.078C446.033 147.346 446.251 147.563 446.519 147.563Z" fill="#514EFF"/>
<path d="M454.297 147.563C454.566 147.563 454.783 147.346 454.783 147.078C454.783 146.809 454.566 146.592 454.297 146.592C454.029 146.592 453.811 146.809 453.811 147.078C453.811 147.346 454.029 147.563 454.297 147.563Z" fill="#514EFF"/>
<path d="M462.075 147.563C462.343 147.563 462.561 147.346 462.561 147.078C462.561 146.809 462.343 146.592 462.075 146.592C461.807 146.592 461.589 146.809 461.589 147.078C461.589 147.346 461.807 147.563 462.075 147.563Z" fill="#514EFF"/>
<path d="M469.853 147.563C470.121 147.563 470.339 147.346 470.339 147.078C470.339 146.809 470.121 146.592 469.853 146.592C469.584 146.592 469.367 146.809 469.367 147.078C469.367 147.346 469.584 147.563 469.853 147.563Z" fill="#514EFF"/>
<path d="M360.963 155.335C361.232 155.335 361.449 155.117 361.449 154.849C361.449 154.581 361.232 154.363 360.963 154.363C360.695 154.363 360.477 154.581 360.477 154.849C360.477 155.117 360.695 155.335 360.963 155.335Z" fill="#514EFF"/>
<path d="M392.074 155.335C392.343 155.335 392.561 155.117 392.561 154.849C392.561 154.581 392.343 154.363 392.074 154.363C391.806 154.363 391.588 154.581 391.588 154.849C391.588 155.117 391.806 155.335 392.074 155.335Z" fill="#514EFF"/>
<path d="M399.852 155.335C400.12 155.335 400.338 155.117 400.338 154.849C400.338 154.581 400.12 154.363 399.852 154.363C399.583 154.363 399.366 154.581 399.366 154.849C399.366 155.117 399.583 155.335 399.852 155.335Z" fill="#514EFF"/>
<path d="M407.631 155.335C407.899 155.335 408.117 155.117 408.117 154.849C408.117 154.581 407.899 154.363 407.631 154.363C407.362 154.363 407.145 154.581 407.145 154.849C407.145 155.117 407.362 155.335 407.631 155.335Z" fill="#514EFF"/>
<path d="M415.408 155.335C415.677 155.335 415.895 155.117 415.895 154.849C415.895 154.581 415.677 154.363 415.408 154.363C415.14 154.363 414.922 154.581 414.922 154.849C414.922 155.117 415.14 155.335 415.408 155.335Z" fill="#514EFF"/>
<path d="M423.186 155.335C423.455 155.335 423.672 155.117 423.672 154.849C423.672 154.581 423.455 154.363 423.186 154.363C422.918 154.363 422.7 154.581 422.7 154.849C422.7 155.117 422.918 155.335 423.186 155.335Z" fill="#514EFF"/>
<path d="M430.964 155.335C431.233 155.335 431.45 155.117 431.45 154.849C431.45 154.581 431.233 154.363 430.964 154.363C430.696 154.363 430.478 154.581 430.478 154.849C430.478 155.117 430.696 155.335 430.964 155.335Z" fill="#514EFF"/>
<path d="M438.741 155.335C439.01 155.335 439.228 155.117 439.228 154.849C439.228 154.581 439.01 154.363 438.741 154.363C438.473 154.363 438.255 154.581 438.255 154.849C438.255 155.117 438.473 155.335 438.741 155.335Z" fill="#514EFF"/>
<path d="M446.519 155.335C446.788 155.335 447.005 155.117 447.005 154.849C447.005 154.581 446.788 154.363 446.519 154.363C446.251 154.363 446.033 154.581 446.033 154.849C446.033 155.117 446.251 155.335 446.519 155.335Z" fill="#514EFF"/>
<path d="M454.297 155.335C454.566 155.335 454.783 155.117 454.783 154.849C454.783 154.581 454.566 154.363 454.297 154.363C454.029 154.363 453.811 154.581 453.811 154.849C453.811 155.117 454.029 155.335 454.297 155.335Z" fill="#514EFF"/>
<path d="M462.075 155.335C462.343 155.335 462.561 155.117 462.561 154.849C462.561 154.581 462.343 154.363 462.075 154.363C461.807 154.363 461.589 154.581 461.589 154.849C461.589 155.117 461.807 155.335 462.075 155.335Z" fill="#514EFF"/>
<path d="M469.853 155.335C470.121 155.335 470.339 155.117 470.339 154.849C470.339 154.581 470.121 154.363 469.853 154.363C469.584 154.363 469.367 154.581 469.367 154.849C469.367 155.117 469.584 155.335 469.853 155.335Z" fill="#514EFF"/>
<path d="M360.963 163.107C361.232 163.107 361.449 162.89 361.449 162.621C361.449 162.353 361.232 162.136 360.963 162.136C360.695 162.136 360.477 162.353 360.477 162.621C360.477 162.89 360.695 163.107 360.963 163.107Z" fill="#514EFF"/>
<path d="M368.741 139.792C369.009 139.792 369.227 139.574 369.227 139.306C369.227 139.038 369.009 138.82 368.741 138.82C368.473 138.82 368.255 139.038 368.255 139.306C368.255 139.574 368.473 139.792 368.741 139.792Z" fill="#514EFF"/>
<path d="M376.512 139.792C376.78 139.792 376.998 139.574 376.998 139.306C376.998 139.038 376.78 138.82 376.512 138.82C376.244 138.82 376.026 139.038 376.026 139.306C376.026 139.574 376.244 139.792 376.512 139.792Z" fill="#514EFF"/>
<path d="M368.741 147.563C369.009 147.563 369.227 147.346 369.227 147.078C369.227 146.809 369.009 146.592 368.741 146.592C368.473 146.592 368.255 146.809 368.255 147.078C368.255 147.346 368.473 147.563 368.741 147.563Z" fill="#514EFF"/>
<path d="M368.741 155.335C369.009 155.335 369.227 155.117 369.227 154.849C369.227 154.581 369.009 154.363 368.741 154.363C368.473 154.363 368.255 154.581 368.255 154.849C368.255 155.117 368.473 155.335 368.741 155.335Z" fill="#514EFF"/>
<path d="M368.741 163.107C369.009 163.107 369.227 162.89 369.227 162.621C369.227 162.353 369.009 162.136 368.741 162.136C368.473 162.136 368.255 162.353 368.255 162.621C368.255 162.89 368.473 163.107 368.741 163.107Z" fill="#514EFF"/>
<path d="M376.504 155.335C376.773 155.335 376.99 155.117 376.99 154.849C376.99 154.581 376.773 154.363 376.504 154.363C376.236 154.363 376.018 154.581 376.018 154.849C376.018 155.117 376.236 155.335 376.504 155.335Z" fill="#514EFF"/>
<path d="M384.297 139.792C384.565 139.792 384.783 139.574 384.783 139.306C384.783 139.038 384.565 138.82 384.297 138.82C384.028 138.82 383.811 139.038 383.811 139.306C383.811 139.574 384.028 139.792 384.297 139.792Z" fill="#514EFF"/>
<path d="M384.297 147.563C384.565 147.563 384.783 147.346 384.783 147.078C384.783 146.809 384.565 146.592 384.297 146.592C384.028 146.592 383.811 146.809 383.811 147.078C383.811 147.346 384.028 147.563 384.297 147.563Z" fill="#514EFF"/>
<path d="M384.297 155.335C384.565 155.335 384.783 155.117 384.783 154.849C384.783 154.581 384.565 154.363 384.297 154.363C384.028 154.363 383.811 154.581 383.811 154.849C383.811 155.117 384.028 155.335 384.297 155.335Z" fill="#514EFF"/>
<path d="M384.297 163.107C384.565 163.107 384.783 162.89 384.783 162.621C384.783 162.353 384.565 162.136 384.297 162.136C384.028 162.136 383.811 162.353 383.811 162.621C383.811 162.89 384.028 163.107 384.297 163.107Z" fill="#514EFF"/>
<path d="M376.518 163.107C376.787 163.107 377.004 162.89 377.004 162.621C377.004 162.353 376.787 162.136 376.518 162.136C376.25 162.136 376.032 162.353 376.032 162.621C376.032 162.89 376.25 163.107 376.518 163.107Z" fill="#514EFF"/>
<path d="M392.074 163.107C392.343 163.107 392.561 162.89 392.561 162.621C392.561 162.353 392.343 162.136 392.074 162.136C391.806 162.136 391.588 162.353 391.588 162.621C391.588 162.89 391.806 163.107 392.074 163.107Z" fill="#514EFF"/>
<path d="M399.852 163.107C400.12 163.107 400.338 162.89 400.338 162.621C400.338 162.353 400.12 162.136 399.852 162.136C399.583 162.136 399.366 162.353 399.366 162.621C399.366 162.89 399.583 163.107 399.852 163.107Z" fill="#514EFF"/>
<path d="M407.631 163.107C407.899 163.107 408.117 162.89 408.117 162.621C408.117 162.353 407.899 162.136 407.631 162.136C407.362 162.136 407.145 162.353 407.145 162.621C407.145 162.89 407.362 163.107 407.631 163.107Z" fill="#514EFF"/>
<path d="M415.408 163.107C415.677 163.107 415.895 162.89 415.895 162.621C415.895 162.353 415.677 162.136 415.408 162.136C415.14 162.136 414.922 162.353 414.922 162.621C414.922 162.89 415.14 163.107 415.408 163.107Z" fill="#514EFF"/>
<path d="M423.186 163.107C423.455 163.107 423.672 162.89 423.672 162.621C423.672 162.353 423.455 162.136 423.186 162.136C422.918 162.136 422.7 162.353 422.7 162.621C422.7 162.89 422.918 163.107 423.186 163.107Z" fill="#514EFF"/>
<path d="M430.964 163.107C431.233 163.107 431.45 162.89 431.45 162.621C431.45 162.353 431.233 162.136 430.964 162.136C430.696 162.136 430.478 162.353 430.478 162.621C430.478 162.89 430.696 163.107 430.964 163.107Z" fill="#514EFF"/>
<path d="M438.741 163.107C439.01 163.107 439.228 162.89 439.228 162.621C439.228 162.353 439.01 162.136 438.741 162.136C438.473 162.136 438.255 162.353 438.255 162.621C438.255 162.89 438.473 163.107 438.741 163.107Z" fill="#514EFF"/>
<path d="M446.519 163.107C446.788 163.107 447.005 162.89 447.005 162.621C447.005 162.353 446.788 162.136 446.519 162.136C446.251 162.136 446.033 162.353 446.033 162.621C446.033 162.89 446.251 163.107 446.519 163.107Z" fill="#514EFF"/>
<path d="M454.297 163.107C454.566 163.107 454.783 162.89 454.783 162.621C454.783 162.353 454.566 162.136 454.297 162.136C454.029 162.136 453.811 162.353 453.811 162.621C453.811 162.89 454.029 163.107 454.297 163.107Z" fill="#514EFF"/>
<path d="M462.075 163.107C462.343 163.107 462.561 162.89 462.561 162.621C462.561 162.353 462.343 162.136 462.075 162.136C461.807 162.136 461.589 162.353 461.589 162.621C461.589 162.89 461.807 163.107 462.075 163.107Z" fill="#514EFF"/>
<path d="M469.853 163.107C470.121 163.107 470.339 162.89 470.339 162.621C470.339 162.353 470.121 162.136 469.853 162.136C469.584 162.136 469.367 162.353 469.367 162.621C469.367 162.89 469.584 163.107 469.853 163.107Z" fill="#514EFF"/>
<path d="M360.963 170.88C361.232 170.88 361.449 170.662 361.449 170.394C361.449 170.126 361.232 169.908 360.963 169.908C360.695 169.908 360.477 170.126 360.477 170.394C360.477 170.662 360.695 170.88 360.963 170.88Z" fill="#514EFF"/>
<path d="M368.741 170.88C369.009 170.88 369.227 170.662 369.227 170.394C369.227 170.126 369.009 169.908 368.741 169.908C368.473 169.908 368.255 170.126 368.255 170.394C368.255 170.662 368.473 170.88 368.741 170.88Z" fill="#514EFF"/>
<path d="M376.518 170.88C376.787 170.88 377.004 170.662 377.004 170.394C377.004 170.126 376.787 169.908 376.518 169.908C376.25 169.908 376.032 170.126 376.032 170.394C376.032 170.662 376.25 170.88 376.518 170.88Z" fill="#514EFF"/>
<path d="M415.408 170.88C415.677 170.88 415.895 170.662 415.895 170.394C415.895 170.126 415.677 169.908 415.408 169.908C415.14 169.908 414.922 170.126 414.922 170.394C414.922 170.662 415.14 170.88 415.408 170.88Z" fill="#514EFF"/>
<path d="M423.186 170.88C423.455 170.88 423.672 170.662 423.672 170.394C423.672 170.126 423.455 169.908 423.186 169.908C422.918 169.908 422.7 170.126 422.7 170.394C422.7 170.662 422.918 170.88 423.186 170.88Z" fill="#514EFF"/>
<path d="M430.964 170.88C431.233 170.88 431.45 170.662 431.45 170.394C431.45 170.126 431.233 169.908 430.964 169.908C430.696 169.908 430.478 170.126 430.478 170.394C430.478 170.662 430.696 170.88 430.964 170.88Z" fill="#514EFF"/>
<path d="M438.741 170.88C439.01 170.88 439.228 170.662 439.228 170.394C439.228 170.126 439.01 169.908 438.741 169.908C438.473 169.908 438.255 170.126 438.255 170.394C438.255 170.662 438.473 170.88 438.741 170.88Z" fill="#514EFF"/>
<path d="M446.519 170.88C446.788 170.88 447.005 170.662 447.005 170.394C447.005 170.126 446.788 169.908 446.519 169.908C446.251 169.908 446.033 170.126 446.033 170.394C446.033 170.662 446.251 170.88 446.519 170.88Z" fill="#514EFF"/>
<path d="M454.297 170.88C454.566 170.88 454.783 170.662 454.783 170.394C454.783 170.126 454.566 169.908 454.297 169.908C454.029 169.908 453.811 170.126 453.811 170.394C453.811 170.662 454.029 170.88 454.297 170.88Z" fill="#514EFF"/>
<path d="M462.075 170.88C462.343 170.88 462.561 170.662 462.561 170.394C462.561 170.126 462.343 169.908 462.075 169.908C461.807 169.908 461.589 170.126 461.589 170.394C461.589 170.662 461.807 170.88 462.075 170.88Z" fill="#514EFF"/>
<path d="M469.853 170.88C470.121 170.88 470.339 170.662 470.339 170.394C470.339 170.126 470.121 169.908 469.853 169.908C469.584 169.908 469.367 170.126 469.367 170.394C469.367 170.662 469.584 170.88 469.853 170.88Z" fill="#514EFF"/>
<path d="M360.963 178.651C361.232 178.651 361.449 178.434 361.449 178.165C361.449 177.897 361.232 177.68 360.963 177.68C360.695 177.68 360.477 177.897 360.477 178.165C360.477 178.434 360.695 178.651 360.963 178.651Z" fill="#514EFF"/>
<path d="M368.741 178.651C369.009 178.651 369.227 178.434 369.227 178.165C369.227 177.897 369.009 177.68 368.741 177.68C368.473 177.68 368.255 177.897 368.255 178.165C368.255 178.434 368.473 178.651 368.741 178.651Z" fill="#514EFF"/>
<path d="M376.518 178.651C376.787 178.651 377.004 178.434 377.004 178.165C377.004 177.897 376.787 177.68 376.518 177.68C376.25 177.68 376.032 177.897 376.032 178.165C376.032 178.434 376.25 178.651 376.518 178.651Z" fill="#514EFF"/>
<path d="M392.074 178.651C392.343 178.651 392.561 178.434 392.561 178.165C392.561 177.897 392.343 177.68 392.074 177.68C391.806 177.68 391.588 177.897 391.588 178.165C391.588 178.434 391.806 178.651 392.074 178.651Z" fill="#514EFF"/>
<path d="M399.852 178.651C400.12 178.651 400.338 178.434 400.338 178.165C400.338 177.897 400.12 177.68 399.852 177.68C399.583 177.68 399.366 177.897 399.366 178.165C399.366 178.434 399.583 178.651 399.852 178.651Z" fill="#514EFF"/>
<path d="M415.408 178.651C415.677 178.651 415.895 178.434 415.895 178.165C415.895 177.897 415.677 177.68 415.408 177.68C415.14 177.68 414.922 177.897 414.922 178.165C414.922 178.434 415.14 178.651 415.408 178.651Z" fill="#514EFF"/>
<path d="M423.186 178.651C423.455 178.651 423.672 178.434 423.672 178.165C423.672 177.897 423.455 177.68 423.186 177.68C422.918 177.68 422.7 177.897 422.7 178.165C422.7 178.434 422.918 178.651 423.186 178.651Z" fill="#514EFF"/>
<path d="M430.964 178.651C431.233 178.651 431.45 178.434 431.45 178.165C431.45 177.897 431.233 177.68 430.964 177.68C430.696 177.68 430.478 177.897 430.478 178.165C430.478 178.434 430.696 178.651 430.964 178.651Z" fill="#514EFF"/>
<path d="M438.741 178.651C439.01 178.651 439.228 178.434 439.228 178.165C439.228 177.897 439.01 177.68 438.741 177.68C438.473 177.68 438.255 177.897 438.255 178.165C438.255 178.434 438.473 178.651 438.741 178.651Z" fill="#514EFF"/>
<path d="M446.519 178.651C446.788 178.651 447.005 178.434 447.005 178.165C447.005 177.897 446.788 177.68 446.519 177.68C446.251 177.68 446.033 177.897 446.033 178.165C446.033 178.434 446.251 178.651 446.519 178.651Z" fill="#514EFF"/>
<path d="M454.297 178.651C454.566 178.651 454.783 178.434 454.783 178.165C454.783 177.897 454.566 177.68 454.297 177.68C454.029 177.68 453.811 177.897 453.811 178.165C453.811 178.434 454.029 178.651 454.297 178.651Z" fill="#514EFF"/>
<path d="M462.075 178.651C462.343 178.651 462.561 178.434 462.561 178.165C462.561 177.897 462.343 177.68 462.075 177.68C461.807 177.68 461.589 177.897 461.589 178.165C461.589 178.434 461.807 178.651 462.075 178.651Z" fill="#514EFF"/>
<path d="M469.853 178.651C470.121 178.651 470.339 178.434 470.339 178.165C470.339 177.897 470.121 177.68 469.853 177.68C469.584 177.68 469.367 177.897 469.367 178.165C469.367 178.434 469.584 178.651 469.853 178.651Z" fill="#514EFF"/>
<path d="M360.963 186.425C361.232 186.425 361.449 186.207 361.449 185.939C361.449 185.671 361.232 185.453 360.963 185.453C360.695 185.453 360.477 185.671 360.477 185.939C360.477 186.207 360.695 186.425 360.963 186.425Z" fill="#514EFF"/>
<path d="M368.741 186.425C369.009 186.425 369.227 186.207 369.227 185.939C369.227 185.671 369.009 185.453 368.741 185.453C368.473 185.453 368.255 185.671 368.255 185.939C368.255 186.207 368.473 186.425 368.741 186.425Z" fill="#514EFF"/>
<path d="M376.518 186.425C376.787 186.425 377.004 186.207 377.004 185.939C377.004 185.671 376.787 185.453 376.518 185.453C376.25 185.453 376.032 185.671 376.032 185.939C376.032 186.207 376.25 186.425 376.518 186.425Z" fill="#514EFF"/>
<path d="M392.074 186.425C392.343 186.425 392.561 186.207 392.561 185.939C392.561 185.671 392.343 185.453 392.074 185.453C391.806 185.453 391.588 185.671 391.588 185.939C391.588 186.207 391.806 186.425 392.074 186.425Z" fill="#514EFF"/>
<path d="M399.852 186.425C400.12 186.425 400.338 186.207 400.338 185.939C400.338 185.671 400.12 185.453 399.852 185.453C399.583 185.453 399.366 185.671 399.366 185.939C399.366 186.207 399.583 186.425 399.852 186.425Z" fill="#514EFF"/>
<path d="M415.408 186.425C415.677 186.425 415.895 186.207 415.895 185.939C415.895 185.671 415.677 185.453 415.408 185.453C415.14 185.453 414.922 185.671 414.922 185.939C414.922 186.207 415.14 186.425 415.408 186.425Z" fill="#514EFF"/>
<path d="M423.186 186.425C423.455 186.425 423.672 186.207 423.672 185.939C423.672 185.671 423.455 185.453 423.186 185.453C422.918 185.453 422.7 185.671 422.7 185.939C422.7 186.207 422.918 186.425 423.186 186.425Z" fill="#514EFF"/>
<path d="M430.964 186.425C431.233 186.425 431.45 186.207 431.45 185.939C431.45 185.671 431.233 185.453 430.964 185.453C430.696 185.453 430.478 185.671 430.478 185.939C430.478 186.207 430.696 186.425 430.964 186.425Z" fill="#514EFF"/>
<path d="M438.741 186.425C439.01 186.425 439.228 186.207 439.228 185.939C439.228 185.671 439.01 185.453 438.741 185.453C438.473 185.453 438.255 185.671 438.255 185.939C438.255 186.207 438.473 186.425 438.741 186.425Z" fill="#514EFF"/>
<path d="M446.519 186.425C446.788 186.425 447.005 186.207 447.005 185.939C447.005 185.671 446.788 185.453 446.519 185.453C446.251 185.453 446.033 185.671 446.033 185.939C446.033 186.207 446.251 186.425 446.519 186.425Z" fill="#514EFF"/>
<path d="M454.297 186.425C454.566 186.425 454.783 186.207 454.783 185.939C454.783 185.671 454.566 185.453 454.297 185.453C454.029 185.453 453.811 185.671 453.811 185.939C453.811 186.207 454.029 186.425 454.297 186.425Z" fill="#514EFF"/>
<path d="M462.075 186.425C462.343 186.425 462.561 186.207 462.561 185.939C462.561 185.671 462.343 185.453 462.075 185.453C461.807 185.453 461.589 185.671 461.589 185.939C461.589 186.207 461.807 186.425 462.075 186.425Z" fill="#514EFF"/>
<path d="M469.853 186.425C470.121 186.425 470.339 186.207 470.339 185.939C470.339 185.671 470.121 185.453 469.853 185.453C469.584 185.453 469.367 185.671 469.367 185.939C469.367 186.207 469.584 186.425 469.853 186.425Z" fill="#514EFF"/>
<path d="M360.963 194.195C361.232 194.195 361.449 193.978 361.449 193.709C361.449 193.441 361.232 193.224 360.963 193.224C360.695 193.224 360.477 193.441 360.477 193.709C360.477 193.978 360.695 194.195 360.963 194.195Z" fill="#514EFF"/>
<path d="M368.741 194.195C369.009 194.195 369.227 193.978 369.227 193.709C369.227 193.441 369.009 193.224 368.741 193.224C368.473 193.224 368.255 193.441 368.255 193.709C368.255 193.978 368.473 194.195 368.741 194.195Z" fill="#514EFF"/>
<path d="M376.518 194.195C376.787 194.195 377.004 193.978 377.004 193.709C377.004 193.441 376.787 193.224 376.518 193.224C376.25 193.224 376.032 193.441 376.032 193.709C376.032 193.978 376.25 194.195 376.518 194.195Z" fill="#514EFF"/>
<path d="M415.408 194.195C415.677 194.195 415.895 193.978 415.895 193.709C415.895 193.441 415.677 193.224 415.408 193.224C415.14 193.224 414.922 193.441 414.922 193.709C414.922 193.978 415.14 194.195 415.408 194.195Z" fill="#514EFF"/>
<path d="M423.186 194.195C423.455 194.195 423.672 193.978 423.672 193.709C423.672 193.441 423.455 193.224 423.186 193.224C422.918 193.224 422.7 193.441 422.7 193.709C422.7 193.978 422.918 194.195 423.186 194.195Z" fill="#514EFF"/>
<path d="M430.964 194.195C431.233 194.195 431.45 193.978 431.45 193.709C431.45 193.441 431.233 193.224 430.964 193.224C430.696 193.224 430.478 193.441 430.478 193.709C430.478 193.978 430.696 194.195 430.964 194.195Z" fill="#514EFF"/>
<path d="M438.741 194.195C439.01 194.195 439.228 193.978 439.228 193.709C439.228 193.441 439.01 193.224 438.741 193.224C438.473 193.224 438.255 193.441 438.255 193.709C438.255 193.978 438.473 194.195 438.741 194.195Z" fill="#514EFF"/>
<path d="M446.519 194.195C446.788 194.195 447.005 193.978 447.005 193.709C447.005 193.441 446.788 193.224 446.519 193.224C446.251 193.224 446.033 193.441 446.033 193.709C446.033 193.978 446.251 194.195 446.519 194.195Z" fill="#514EFF"/>
<path d="M454.297 194.195C454.566 194.195 454.783 193.978 454.783 193.709C454.783 193.441 454.566 193.224 454.297 193.224C454.029 193.224 453.811 193.441 453.811 193.709C453.811 193.978 454.029 194.195 454.297 194.195Z" fill="#514EFF"/>
<path d="M462.075 194.195C462.343 194.195 462.561 193.978 462.561 193.709C462.561 193.441 462.343 193.224 462.075 193.224C461.807 193.224 461.589 193.441 461.589 193.709C461.589 193.978 461.807 194.195 462.075 194.195Z" fill="#514EFF"/>
<path d="M469.853 194.195C470.121 194.195 470.339 193.978 470.339 193.709C470.339 193.441 470.121 193.224 469.853 193.224C469.584 193.224 469.367 193.441 469.367 193.709C469.367 193.978 469.584 194.195 469.853 194.195Z" fill="#514EFF"/>
<path d="M477.631 194.195C477.899 194.195 478.117 193.978 478.117 193.709C478.117 193.441 477.899 193.224 477.631 193.224C477.362 193.224 477.145 193.441 477.145 193.709C477.145 193.978 477.362 194.195 477.631 194.195Z" fill="#514EFF"/>
<path d="M360.963 201.968C361.232 201.968 361.449 201.75 361.449 201.482C361.449 201.214 361.232 200.996 360.963 200.996C360.695 200.996 360.477 201.214 360.477 201.482C360.477 201.75 360.695 201.968 360.963 201.968Z" fill="#514EFF"/>
<path d="M368.741 201.968C369.009 201.968 369.227 201.75 369.227 201.482C369.227 201.214 369.009 200.996 368.741 200.996C368.473 200.996 368.255 201.214 368.255 201.482C368.255 201.75 368.473 201.968 368.741 201.968Z" fill="#514EFF"/>
<path d="M376.518 201.968C376.787 201.968 377.004 201.75 377.004 201.482C377.004 201.214 376.787 200.996 376.518 200.996C376.25 200.996 376.032 201.214 376.032 201.482C376.032 201.75 376.25 201.968 376.518 201.968Z" fill="#514EFF"/>
<path d="M384.297 201.968C384.565 201.968 384.783 201.75 384.783 201.482C384.783 201.214 384.565 200.996 384.297 200.996C384.028 200.996 383.811 201.214 383.811 201.482C383.811 201.75 384.028 201.968 384.297 201.968Z" fill="#514EFF"/>
<path d="M392.074 201.968C392.343 201.968 392.561 201.75 392.561 201.482C392.561 201.214 392.343 200.996 392.074 200.996C391.806 200.996 391.588 201.214 391.588 201.482C391.588 201.75 391.806 201.968 392.074 201.968Z" fill="#514EFF"/>
<path d="M399.852 201.968C400.12 201.968 400.338 201.75 400.338 201.482C400.338 201.214 400.12 200.996 399.852 200.996C399.583 200.996 399.366 201.214 399.366 201.482C399.366 201.75 399.583 201.968 399.852 201.968Z" fill="#514EFF"/>
<path d="M407.631 201.968C407.899 201.968 408.117 201.75 408.117 201.482C408.117 201.214 407.899 200.996 407.631 200.996C407.362 200.996 407.145 201.214 407.145 201.482C407.145 201.75 407.362 201.968 407.631 201.968Z" fill="#514EFF"/>
<path d="M415.408 201.968C415.677 201.968 415.895 201.75 415.895 201.482C415.895 201.214 415.677 200.996 415.408 200.996C415.14 200.996 414.922 201.214 414.922 201.482C414.922 201.75 415.14 201.968 415.408 201.968Z" fill="#514EFF"/>
<path d="M423.186 201.968C423.455 201.968 423.672 201.75 423.672 201.482C423.672 201.214 423.455 200.996 423.186 200.996C422.918 200.996 422.7 201.214 422.7 201.482C422.7 201.75 422.918 201.968 423.186 201.968Z" fill="#514EFF"/>
<path d="M430.964 201.968C431.233 201.968 431.45 201.75 431.45 201.482C431.45 201.214 431.233 200.996 430.964 200.996C430.696 200.996 430.478 201.214 430.478 201.482C430.478 201.75 430.696 201.968 430.964 201.968Z" fill="#514EFF"/>
<path d="M438.741 201.968C439.01 201.968 439.228 201.75 439.228 201.482C439.228 201.214 439.01 200.996 438.741 200.996C438.473 200.996 438.255 201.214 438.255 201.482C438.255 201.75 438.473 201.968 438.741 201.968Z" fill="#514EFF"/>
<path d="M446.519 201.968C446.788 201.968 447.005 201.75 447.005 201.482C447.005 201.214 446.788 200.996 446.519 200.996C446.251 200.996 446.033 201.214 446.033 201.482C446.033 201.75 446.251 201.968 446.519 201.968Z" fill="#514EFF"/>
<path d="M454.297 201.968C454.566 201.968 454.783 201.75 454.783 201.482C454.783 201.214 454.566 200.996 454.297 200.996C454.029 200.996 453.811 201.214 453.811 201.482C453.811 201.75 454.029 201.968 454.297 201.968Z" fill="#514EFF"/>
<path d="M462.075 201.968C462.343 201.968 462.561 201.75 462.561 201.482C462.561 201.214 462.343 200.996 462.075 200.996C461.807 200.996 461.589 201.214 461.589 201.482C461.589 201.75 461.807 201.968 462.075 201.968Z" fill="#514EFF"/>
<path d="M469.853 201.968C470.121 201.968 470.339 201.75 470.339 201.482C470.339 201.214 470.121 200.996 469.853 200.996C469.584 200.996 469.367 201.214 469.367 201.482C469.367 201.75 469.584 201.968 469.853 201.968Z" fill="#514EFF"/>
<path d="M477.631 201.968C477.899 201.968 478.117 201.75 478.117 201.482C478.117 201.214 477.899 200.996 477.631 200.996C477.362 200.996 477.145 201.214 477.145 201.482C477.145 201.75 477.362 201.968 477.631 201.968Z" fill="#514EFF"/>
<path d="M360.963 209.74C361.232 209.74 361.449 209.523 361.449 209.254C361.449 208.986 361.232 208.769 360.963 208.769C360.695 208.769 360.477 208.986 360.477 209.254C360.477 209.523 360.695 209.74 360.963 209.74Z" fill="#514EFF"/>
<path d="M368.741 209.74C369.009 209.74 369.227 209.523 369.227 209.254C369.227 208.986 369.009 208.769 368.741 208.769C368.473 208.769 368.255 208.986 368.255 209.254C368.255 209.523 368.473 209.74 368.741 209.74Z" fill="#514EFF"/>
<path d="M376.518 209.74C376.787 209.74 377.004 209.523 377.004 209.254C377.004 208.986 376.787 208.769 376.518 208.769C376.25 208.769 376.032 208.986 376.032 209.254C376.032 209.523 376.25 209.74 376.518 209.74Z" fill="#514EFF"/>
<path d="M384.297 209.74C384.565 209.74 384.783 209.523 384.783 209.254C384.783 208.986 384.565 208.769 384.297 208.769C384.028 208.769 383.811 208.986 383.811 209.254C383.811 209.523 384.028 209.74 384.297 209.74Z" fill="#514EFF"/>
<path d="M392.074 209.74C392.343 209.74 392.561 209.523 392.561 209.254C392.561 208.986 392.343 208.769 392.074 208.769C391.806 208.769 391.588 208.986 391.588 209.254C391.588 209.523 391.806 209.74 392.074 209.74Z" fill="#514EFF"/>
<path d="M399.852 209.74C400.12 209.74 400.338 209.523 400.338 209.254C400.338 208.986 400.12 208.769 399.852 208.769C399.583 208.769 399.366 208.986 399.366 209.254C399.366 209.523 399.583 209.74 399.852 209.74Z" fill="#514EFF"/>
<path d="M407.631 209.74C407.899 209.74 408.117 209.523 408.117 209.254C408.117 208.986 407.899 208.769 407.631 208.769C407.362 208.769 407.145 208.986 407.145 209.254C407.145 209.523 407.362 209.74 407.631 209.74Z" fill="#514EFF"/>
<path d="M415.408 209.74C415.677 209.74 415.895 209.523 415.895 209.254C415.895 208.986 415.677 208.769 415.408 208.769C415.14 208.769 414.922 208.986 414.922 209.254C414.922 209.523 415.14 209.74 415.408 209.74Z" fill="#514EFF"/>
<path d="M423.186 209.74C423.455 209.74 423.672 209.523 423.672 209.254C423.672 208.986 423.455 208.769 423.186 208.769C422.918 208.769 422.7 208.986 422.7 209.254C422.7 209.523 422.918 209.74 423.186 209.74Z" fill="#514EFF"/>
<path d="M430.964 209.74C431.233 209.74 431.45 209.523 431.45 209.254C431.45 208.986 431.233 208.769 430.964 208.769C430.696 208.769 430.478 208.986 430.478 209.254C430.478 209.523 430.696 209.74 430.964 209.74Z" fill="#514EFF"/>
<path d="M438.741 209.74C439.01 209.74 439.228 209.523 439.228 209.254C439.228 208.986 439.01 208.769 438.741 208.769C438.473 208.769 438.255 208.986 438.255 209.254C438.255 209.523 438.473 209.74 438.741 209.74Z" fill="#514EFF"/>
<path d="M446.519 209.74C446.788 209.74 447.005 209.523 447.005 209.254C447.005 208.986 446.788 208.769 446.519 208.769C446.251 208.769 446.033 208.986 446.033 209.254C446.033 209.523 446.251 209.74 446.519 209.74Z" fill="#514EFF"/>
<path d="M454.297 209.74C454.566 209.74 454.783 209.523 454.783 209.254C454.783 208.986 454.566 208.769 454.297 208.769C454.029 208.769 453.811 208.986 453.811 209.254C453.811 209.523 454.029 209.74 454.297 209.74Z" fill="#514EFF"/>
<path d="M462.075 209.74C462.343 209.74 462.561 209.523 462.561 209.254C462.561 208.986 462.343 208.769 462.075 208.769C461.807 208.769 461.589 208.986 461.589 209.254C461.589 209.523 461.807 209.74 462.075 209.74Z" fill="#514EFF"/>
<path d="M469.853 209.74C470.121 209.74 470.339 209.523 470.339 209.254C470.339 208.986 470.121 208.769 469.853 208.769C469.584 208.769 469.367 208.986 469.367 209.254C469.367 209.523 469.584 209.74 469.853 209.74Z" fill="#514EFF"/>
<path d="M477.631 209.74C477.899 209.74 478.117 209.523 478.117 209.254C478.117 208.986 477.899 208.769 477.631 208.769C477.362 208.769 477.145 208.986 477.145 209.254C477.145 209.523 477.362 209.74 477.631 209.74Z" fill="#514EFF"/>
<path d="M477.631 178.649C477.899 178.649 478.117 178.432 478.117 178.163C478.117 177.895 477.899 177.678 477.631 177.678C477.362 177.678 477.145 177.895 477.145 178.163C477.145 178.432 477.362 178.649 477.631 178.649Z" fill="#514EFF"/>
<path d="M477.631 186.421C477.899 186.421 478.117 186.203 478.117 185.935C478.117 185.667 477.899 185.449 477.631 185.449C477.362 185.449 477.145 185.667 477.145 185.935C477.145 186.203 477.362 186.421 477.631 186.421Z" fill="#514EFF"/>
</g>
</g>
</g>
<defs>
<clipPath id="clip0_2336_4038">
<rect width="551" height="482" fill="white"/>
</clipPath>
</defs>
</svg>
