<svg width="270" height="270" viewBox="0 0 270 270" fill="none" xmlns="http://www.w3.org/2000/svg">
<g clip-path="url(#clip0_135_4578)">
<path d="M247.864 84.8636C247.864 85.4406 248.419 85.9084 249.103 85.9084C249.788 85.9084 250.343 85.4406 250.343 84.8636C250.343 84.2865 249.788 83.8187 249.103 83.8187C248.419 83.8187 247.864 84.2865 247.864 84.8636Z" fill="#CED1D8"/>
<path d="M247.864 101.581C247.864 102.158 248.419 102.626 249.103 102.626C249.788 102.626 250.343 102.158 250.343 101.581C250.343 101.004 249.788 100.536 249.103 100.536C248.419 100.536 247.864 101.004 247.864 101.581Z" fill="#CED1D8"/>
<path d="M247.864 118.298C247.864 118.875 248.419 119.343 249.103 119.343C249.788 119.343 250.343 118.875 250.343 118.298C250.343 117.721 249.788 117.253 249.103 117.253C248.419 117.253 247.864 117.721 247.864 118.298Z" fill="#CED1D8"/>
<path d="M247.864 135.016C247.864 135.593 248.419 136.061 249.103 136.061C249.788 136.061 250.343 135.593 250.343 135.016C250.343 134.439 249.788 133.971 249.103 133.971C248.419 133.971 247.864 134.439 247.864 135.016Z" fill="#CED1D8"/>
<path d="M247.864 151.733C247.864 152.31 248.419 152.778 249.103 152.778C249.788 152.778 250.343 152.31 250.343 151.733C250.343 151.156 249.788 150.688 249.103 150.688C248.419 150.688 247.864 151.156 247.864 151.733Z" fill="#CED1D8"/>
<path d="M247.864 168.451C247.864 169.028 248.419 169.496 249.103 169.496C249.788 169.496 250.343 169.028 250.343 168.451C250.343 167.874 249.788 167.406 249.103 167.406C248.419 167.406 247.864 167.874 247.864 168.451Z" fill="#CED1D8"/>
<path d="M247.864 185.168C247.864 185.745 248.419 186.213 249.103 186.213C249.788 186.213 250.343 185.745 250.343 185.168C250.343 184.591 249.788 184.123 249.103 184.123C248.419 184.123 247.864 184.591 247.864 185.168Z" fill="#CED1D8"/>
<path d="M247.864 201.886C247.864 202.463 248.419 202.931 249.103 202.931C249.788 202.931 250.343 202.463 250.343 201.886C250.343 201.309 249.788 200.841 249.103 200.841C248.419 200.841 247.864 201.309 247.864 201.886Z" fill="#CED1D8"/>
<path d="M267.686 1.27629C267.686 1.85334 268.241 2.32113 268.926 2.32113C269.61 2.32113 270.165 1.85334 270.165 1.27629C270.165 0.699236 269.61 0.231445 268.926 0.231445C268.241 0.231445 267.686 0.699236 267.686 1.27629Z" fill="#CED1D8"/>
<path d="M267.686 17.9938C267.686 18.5708 268.241 19.0386 268.926 19.0386C269.61 19.0386 270.165 18.5708 270.165 17.9938C270.165 17.4167 269.61 16.9489 268.926 16.9489C268.241 16.9489 267.686 17.4167 267.686 17.9938Z" fill="#CED1D8"/>
<path d="M267.686 34.7112C267.686 35.2883 268.241 35.7561 268.926 35.7561C269.61 35.7561 270.165 35.2883 270.165 34.7112C270.165 34.1342 269.61 33.6664 268.926 33.6664C268.241 33.6664 267.686 34.1342 267.686 34.7112Z" fill="#CED1D8"/>
<path d="M267.686 51.4287C267.686 52.0057 268.241 52.4735 268.926 52.4735C269.61 52.4735 270.165 52.0057 270.165 51.4287C270.165 50.8516 269.61 50.3838 268.926 50.3838C268.241 50.3838 267.686 50.8516 267.686 51.4287Z" fill="#CED1D8"/>
<path d="M267.686 235.321C267.686 235.898 268.241 236.365 268.926 236.365C269.61 236.365 270.165 235.898 270.165 235.321C270.165 234.743 269.61 234.276 268.926 234.276C268.241 234.276 267.686 234.743 267.686 235.321Z" fill="#CED1D8"/>
<path d="M267.686 252.038C267.686 252.615 268.241 253.083 268.926 253.083C269.61 253.083 270.165 252.615 270.165 252.038C270.165 251.461 269.61 250.993 268.926 250.993C268.241 250.993 267.686 251.461 267.686 252.038Z" fill="#CED1D8"/>
<path d="M267.686 268.755C267.686 269.333 268.241 269.8 268.926 269.8C269.61 269.8 270.165 269.333 270.165 268.755C270.165 268.178 269.61 267.711 268.926 267.711C268.241 267.711 267.686 268.178 267.686 268.755Z" fill="#CED1D8"/>
<path d="M247.851 1.27629C247.851 1.85334 248.406 2.32113 249.091 2.32113C249.776 2.32113 250.331 1.85334 250.331 1.27629C250.331 0.699236 249.776 0.231445 249.091 0.231445C248.406 0.231445 247.851 0.699236 247.851 1.27629Z" fill="#CED1D8"/>
<path d="M247.851 17.9938C247.851 18.5708 248.406 19.0386 249.091 19.0386C249.776 19.0386 250.331 18.5708 250.331 17.9938C250.331 17.4167 249.776 16.9489 249.091 16.9489C248.406 16.9489 247.851 17.4167 247.851 17.9938Z" fill="#CED1D8"/>
<path d="M247.851 34.7112C247.851 35.2883 248.406 35.7561 249.091 35.7561C249.776 35.7561 250.331 35.2883 250.331 34.7112C250.331 34.1342 249.776 33.6664 249.091 33.6664C248.406 33.6664 247.851 34.1342 247.851 34.7112Z" fill="#CED1D8"/>
<path d="M247.851 51.4287C247.851 52.0057 248.406 52.4735 249.091 52.4735C249.776 52.4735 250.331 52.0057 250.331 51.4287C250.331 50.8516 249.776 50.3838 249.091 50.3838C248.406 50.3838 247.851 50.8516 247.851 51.4287Z" fill="#CED1D8"/>
<path d="M247.851 252.038C247.851 252.615 248.406 253.083 249.091 253.083C249.776 253.083 250.331 252.615 250.331 252.038C250.331 251.461 249.776 250.993 249.091 250.993C248.406 250.993 247.851 251.461 247.851 252.038Z" fill="#CED1D8"/>
<path d="M247.851 268.755C247.851 269.333 248.406 269.8 249.091 269.8C249.776 269.8 250.331 269.333 250.331 268.755C250.331 268.178 249.776 267.711 249.091 267.711C248.406 267.711 247.851 268.178 247.851 268.755Z" fill="#CED1D8"/>
<path d="M228.017 1.27629C228.017 1.85334 228.572 2.32113 229.256 2.32113C229.941 2.32113 230.496 1.85334 230.496 1.27629C230.496 0.699236 229.941 0.231445 229.256 0.231445C228.572 0.231445 228.017 0.699236 228.017 1.27629Z" fill="#CED1D8"/>
<path d="M228.017 17.9938C228.017 18.5708 228.572 19.0386 229.256 19.0386C229.941 19.0386 230.496 18.5708 230.496 17.9938C230.496 17.4167 229.941 16.9489 229.256 16.9489C228.572 16.9489 228.017 17.4167 228.017 17.9938Z" fill="#CED1D8"/>
<path d="M228.017 34.7112C228.017 35.2883 228.572 35.7561 229.256 35.7561C229.941 35.7561 230.496 35.2883 230.496 34.7112C230.496 34.1342 229.941 33.6664 229.256 33.6664C228.572 33.6664 228.017 34.1342 228.017 34.7112Z" fill="#CED1D8"/>
<path d="M228.017 51.4287C228.017 52.0057 228.572 52.4735 229.256 52.4735C229.941 52.4735 230.496 52.0057 230.496 51.4287C230.496 50.8516 229.941 50.3838 229.256 50.3838C228.572 50.3838 228.017 50.8516 228.017 51.4287Z" fill="#CED1D8"/>
<path d="M228.017 84.8636C228.017 85.4406 228.572 85.9084 229.256 85.9084C229.941 85.9084 230.496 85.4406 230.496 84.8636C230.496 84.2865 229.941 83.8187 229.256 83.8187C228.572 83.8187 228.017 84.2865 228.017 84.8636Z" fill="#CED1D8"/>
<path d="M228.017 101.581C228.017 102.158 228.572 102.626 229.256 102.626C229.941 102.626 230.496 102.158 230.496 101.581C230.496 101.004 229.941 100.536 229.256 100.536C228.572 100.536 228.017 101.004 228.017 101.581Z" fill="#CED1D8"/>
<path d="M228.017 118.298C228.017 118.875 228.572 119.343 229.256 119.343C229.941 119.343 230.496 118.875 230.496 118.298C230.496 117.721 229.941 117.253 229.256 117.253C228.572 117.253 228.017 117.721 228.017 118.298Z" fill="#CED1D8"/>
<path d="M228.017 135.016C228.017 135.593 228.572 136.061 229.256 136.061C229.941 136.061 230.496 135.593 230.496 135.016C230.496 134.439 229.941 133.971 229.256 133.971C228.572 133.971 228.017 134.439 228.017 135.016Z" fill="#CED1D8"/>
<path d="M228.017 151.733C228.017 152.31 228.572 152.778 229.256 152.778C229.941 152.778 230.496 152.31 230.496 151.733C230.496 151.156 229.941 150.688 229.256 150.688C228.572 150.688 228.017 151.156 228.017 151.733Z" fill="#CED1D8"/>
<path d="M228.017 168.451C228.017 169.028 228.572 169.496 229.256 169.496C229.941 169.496 230.496 169.028 230.496 168.451C230.496 167.874 229.941 167.406 229.256 167.406C228.572 167.406 228.017 167.874 228.017 168.451Z" fill="#CED1D8"/>
<path d="M228.017 185.168C228.017 185.745 228.572 186.213 229.256 186.213C229.941 186.213 230.496 185.745 230.496 185.168C230.496 184.591 229.941 184.123 229.256 184.123C228.572 184.123 228.017 184.591 228.017 185.168Z" fill="#CED1D8"/>
<path d="M228.017 201.886C228.017 202.463 228.572 202.931 229.256 202.931C229.941 202.931 230.496 202.463 230.496 201.886C230.496 201.309 229.941 200.841 229.256 200.841C228.572 200.841 228.017 201.309 228.017 201.886Z" fill="#CED1D8"/>
<path d="M228.017 252.038C228.017 252.615 228.572 253.083 229.256 253.083C229.941 253.083 230.496 252.615 230.496 252.038C230.496 251.461 229.941 250.993 229.256 250.993C228.572 250.993 228.017 251.461 228.017 252.038Z" fill="#CED1D8"/>
<path d="M228.017 268.755C228.017 269.333 228.572 269.8 229.256 269.8C229.941 269.8 230.496 269.333 230.496 268.755C230.496 268.178 229.941 267.711 229.256 267.711C228.572 267.711 228.017 268.178 228.017 268.755Z" fill="#CED1D8"/>
<path d="M208.182 1.27629C208.182 1.85334 208.737 2.32113 209.421 2.32113C210.106 2.32113 210.661 1.85334 210.661 1.27629C210.661 0.699236 210.106 0.231445 209.421 0.231445C208.737 0.231445 208.182 0.699236 208.182 1.27629Z" fill="#CED1D8"/>
<path d="M208.182 17.9938C208.182 18.5708 208.737 19.0386 209.421 19.0386C210.106 19.0386 210.661 18.5708 210.661 17.9938C210.661 17.4167 210.106 16.9489 209.421 16.9489C208.737 16.9489 208.182 17.4167 208.182 17.9938Z" fill="#CED1D8"/>
<path d="M208.182 34.7112C208.182 35.2883 208.737 35.7561 209.421 35.7561C210.106 35.7561 210.661 35.2883 210.661 34.7112C210.661 34.1342 210.106 33.6664 209.421 33.6664C208.737 33.6664 208.182 34.1342 208.182 34.7112Z" fill="#CED1D8"/>
<path d="M208.182 51.4287C208.182 52.0057 208.737 52.4735 209.421 52.4735C210.106 52.4735 210.661 52.0057 210.661 51.4287C210.661 50.8516 210.106 50.3838 209.421 50.3838C208.737 50.3838 208.182 50.8516 208.182 51.4287Z" fill="#CED1D8"/>
<path d="M208.182 84.8636C208.182 85.4406 208.737 85.9084 209.421 85.9084C210.106 85.9084 210.661 85.4406 210.661 84.8636C210.661 84.2865 210.106 83.8187 209.421 83.8187C208.737 83.8187 208.182 84.2865 208.182 84.8636Z" fill="#CED1D8"/>
<path d="M208.182 101.581C208.182 102.158 208.737 102.626 209.421 102.626C210.106 102.626 210.661 102.158 210.661 101.581C210.661 101.004 210.106 100.536 209.421 100.536C208.737 100.536 208.182 101.004 208.182 101.581Z" fill="#CED1D8"/>
<path d="M208.182 185.168C208.182 185.745 208.737 186.213 209.421 186.213C210.106 186.213 210.661 185.745 210.661 185.168C210.661 184.591 210.106 184.123 209.421 184.123C208.737 184.123 208.182 184.591 208.182 185.168Z" fill="#CED1D8"/>
<path d="M208.182 201.886C208.182 202.463 208.737 202.931 209.421 202.931C210.106 202.931 210.661 202.463 210.661 201.886C210.661 201.309 210.106 200.841 209.421 200.841C208.737 200.841 208.182 201.309 208.182 201.886Z" fill="#CED1D8"/>
<path d="M208.182 252.038C208.182 252.615 208.737 253.083 209.421 253.083C210.106 253.083 210.661 252.615 210.661 252.038C210.661 251.461 210.106 250.993 209.421 250.993C208.737 250.993 208.182 251.461 208.182 252.038Z" fill="#CED1D8"/>
<path d="M208.182 268.755C208.182 269.333 208.737 269.8 209.421 269.8C210.106 269.8 210.661 269.333 210.661 268.755C210.661 268.178 210.106 267.711 209.421 267.711C208.737 267.711 208.182 268.178 208.182 268.755Z" fill="#CED1D8"/>
<path d="M188.347 1.27629C188.347 1.85334 188.902 2.32113 189.587 2.32113C190.271 2.32113 190.826 1.85334 190.826 1.27629C190.826 0.699236 190.271 0.231445 189.587 0.231445C188.902 0.231445 188.347 0.699236 188.347 1.27629Z" fill="#CED1D8"/>
<path d="M188.347 17.9938C188.347 18.5708 188.902 19.0386 189.587 19.0386C190.271 19.0386 190.826 18.5708 190.826 17.9938C190.826 17.4167 190.271 16.9489 189.587 16.9489C188.902 16.9489 188.347 17.4167 188.347 17.9938Z" fill="#CED1D8"/>
<path d="M188.347 34.7112C188.347 35.2883 188.902 35.7561 189.587 35.7561C190.271 35.7561 190.826 35.2883 190.826 34.7112C190.826 34.1342 190.271 33.6664 189.587 33.6664C188.902 33.6664 188.347 34.1342 188.347 34.7112Z" fill="#CED1D8"/>
<path d="M188.347 51.4287C188.347 52.0057 188.902 52.4735 189.587 52.4735C190.271 52.4735 190.826 52.0057 190.826 51.4287C190.826 50.8516 190.271 50.3838 189.587 50.3838C188.902 50.3838 188.347 50.8516 188.347 51.4287Z" fill="#CED1D8"/>
<path d="M188.347 84.8636C188.347 85.4406 188.902 85.9084 189.587 85.9084C190.271 85.9084 190.826 85.4406 190.826 84.8636C190.826 84.2865 190.271 83.8187 189.587 83.8187C188.902 83.8187 188.347 84.2865 188.347 84.8636Z" fill="#CED1D8"/>
<path d="M188.347 101.581C188.347 102.158 188.902 102.626 189.587 102.626C190.271 102.626 190.826 102.158 190.826 101.581C190.826 101.004 190.271 100.536 189.587 100.536C188.902 100.536 188.347 101.004 188.347 101.581Z" fill="#CED1D8"/>
<path d="M188.347 135.016C188.347 135.593 188.902 136.061 189.587 136.061C190.271 136.061 190.826 135.593 190.826 135.016C190.826 134.439 190.271 133.971 189.587 133.971C188.902 133.971 188.347 134.439 188.347 135.016Z" fill="#CED1D8"/>
<path d="M188.347 151.733C188.347 152.31 188.902 152.778 189.587 152.778C190.271 152.778 190.826 152.31 190.826 151.733C190.826 151.156 190.271 150.688 189.587 150.688C188.902 150.688 188.347 151.156 188.347 151.733Z" fill="#CED1D8"/>
<path d="M188.347 185.168C188.347 185.745 188.902 186.213 189.587 186.213C190.271 186.213 190.826 185.745 190.826 185.168C190.826 184.591 190.271 184.123 189.587 184.123C188.902 184.123 188.347 184.591 188.347 185.168Z" fill="#CED1D8"/>
<path d="M188.347 201.886C188.347 202.463 188.902 202.931 189.587 202.931C190.271 202.931 190.826 202.463 190.826 201.886C190.826 201.309 190.271 200.841 189.587 200.841C188.902 200.841 188.347 201.309 188.347 201.886Z" fill="#CED1D8"/>
<path d="M188.347 252.038C188.347 252.615 188.902 253.083 189.587 253.083C190.271 253.083 190.826 252.615 190.826 252.038C190.826 251.461 190.271 250.993 189.587 250.993C188.902 250.993 188.347 251.461 188.347 252.038Z" fill="#CED1D8"/>
<path d="M188.347 268.755C188.347 269.333 188.902 269.8 189.587 269.8C190.271 269.8 190.826 269.333 190.826 268.755C190.826 268.178 190.271 267.711 189.587 267.711C188.902 267.711 188.347 268.178 188.347 268.755Z" fill="#CED1D8"/>
<path d="M168.512 1.27629C168.512 1.85334 169.067 2.32113 169.752 2.32113C170.437 2.32113 170.992 1.85334 170.992 1.27629C170.992 0.699236 170.437 0.231445 169.752 0.231445C169.067 0.231445 168.512 0.699236 168.512 1.27629Z" fill="#CED1D8"/>
<path d="M168.512 17.9938C168.512 18.5708 169.067 19.0386 169.752 19.0386C170.437 19.0386 170.992 18.5708 170.992 17.9938C170.992 17.4167 170.437 16.9489 169.752 16.9489C169.067 16.9489 168.512 17.4167 168.512 17.9938Z" fill="#CED1D8"/>
<path d="M168.512 34.7112C168.512 35.2883 169.067 35.7561 169.752 35.7561C170.437 35.7561 170.992 35.2883 170.992 34.7112C170.992 34.1342 170.437 33.6664 169.752 33.6664C169.067 33.6664 168.512 34.1342 168.512 34.7112Z" fill="#CED1D8"/>
<path d="M168.512 51.4287C168.512 52.0057 169.067 52.4735 169.752 52.4735C170.437 52.4735 170.992 52.0057 170.992 51.4287C170.992 50.8516 170.437 50.3838 169.752 50.3838C169.067 50.3838 168.512 50.8516 168.512 51.4287Z" fill="#CED1D8"/>
<path d="M168.512 84.8636C168.512 85.4406 169.067 85.9084 169.752 85.9084C170.437 85.9084 170.992 85.4406 170.992 84.8636C170.992 84.2865 170.437 83.8187 169.752 83.8187C169.067 83.8187 168.512 84.2865 168.512 84.8636Z" fill="#CED1D8"/>
<path d="M168.512 101.581C168.512 102.158 169.067 102.626 169.752 102.626C170.437 102.626 170.992 102.158 170.992 101.581C170.992 101.004 170.437 100.536 169.752 100.536C169.067 100.536 168.512 101.004 168.512 101.581Z" fill="#CED1D8"/>
<path d="M168.512 135.016C168.512 135.593 169.067 136.061 169.752 136.061C170.437 136.061 170.992 135.593 170.992 135.016C170.992 134.439 170.437 133.971 169.752 133.971C169.067 133.971 168.512 134.439 168.512 135.016Z" fill="#CED1D8"/>
<path d="M168.512 151.733C168.512 152.31 169.067 152.778 169.752 152.778C170.437 152.778 170.992 152.31 170.992 151.733C170.992 151.156 170.437 150.688 169.752 150.688C169.067 150.688 168.512 151.156 168.512 151.733Z" fill="#CED1D8"/>
<path d="M168.512 185.168C168.512 185.745 169.067 186.213 169.752 186.213C170.437 186.213 170.992 185.745 170.992 185.168C170.992 184.591 170.437 184.123 169.752 184.123C169.067 184.123 168.512 184.591 168.512 185.168Z" fill="#CED1D8"/>
<path d="M168.512 201.886C168.512 202.463 169.067 202.931 169.752 202.931C170.437 202.931 170.992 202.463 170.992 201.886C170.992 201.309 170.437 200.841 169.752 200.841C169.067 200.841 168.512 201.309 168.512 201.886Z" fill="#CED1D8"/>
<path d="M168.512 252.038C168.512 252.615 169.067 253.083 169.752 253.083C170.437 253.083 170.992 252.615 170.992 252.038C170.992 251.461 170.437 250.993 169.752 250.993C169.067 250.993 168.512 251.461 168.512 252.038Z" fill="#CED1D8"/>
<path d="M168.512 268.755C168.512 269.333 169.067 269.8 169.752 269.8C170.437 269.8 170.992 269.333 170.992 268.755C170.992 268.178 170.437 267.711 169.752 267.711C169.067 267.711 168.512 268.178 168.512 268.755Z" fill="#CED1D8"/>
<path d="M148.678 1.27629C148.678 1.85334 149.233 2.32113 149.917 2.32113C150.602 2.32113 151.157 1.85334 151.157 1.27629C151.157 0.699236 150.602 0.231445 149.917 0.231445C149.233 0.231445 148.678 0.699236 148.678 1.27629Z" fill="#CED1D8"/>
<path d="M148.678 17.9938C148.678 18.5708 149.233 19.0386 149.917 19.0386C150.602 19.0386 151.157 18.5708 151.157 17.9938C151.157 17.4167 150.602 16.9489 149.917 16.9489C149.233 16.9489 148.678 17.4167 148.678 17.9938Z" fill="#CED1D8"/>
<path d="M148.678 34.7112C148.678 35.2883 149.233 35.7561 149.917 35.7561C150.602 35.7561 151.157 35.2883 151.157 34.7112C151.157 34.1342 150.602 33.6664 149.917 33.6664C149.233 33.6664 148.678 34.1342 148.678 34.7112Z" fill="#CED1D8"/>
<path d="M148.678 51.4287C148.678 52.0057 149.233 52.4735 149.917 52.4735C150.602 52.4735 151.157 52.0057 151.157 51.4287C151.157 50.8516 150.602 50.3838 149.917 50.3838C149.233 50.3838 148.678 50.8516 148.678 51.4287Z" fill="#CED1D8"/>
<path d="M148.678 84.8636C148.678 85.4406 149.233 85.9084 149.917 85.9084C150.602 85.9084 151.157 85.4406 151.157 84.8636C151.157 84.2865 150.602 83.8187 149.917 83.8187C149.233 83.8187 148.678 84.2865 148.678 84.8636Z" fill="#CED1D8"/>
<path d="M148.678 101.581C148.678 102.158 149.233 102.626 149.917 102.626C150.602 102.626 151.157 102.158 151.157 101.581C151.157 101.004 150.602 100.536 149.917 100.536C149.233 100.536 148.678 101.004 148.678 101.581Z" fill="#CED1D8"/>
<path d="M148.678 185.168C148.678 185.745 149.233 186.213 149.917 186.213C150.602 186.213 151.157 185.745 151.157 185.168C151.157 184.591 150.602 184.123 149.917 184.123C149.233 184.123 148.678 184.591 148.678 185.168Z" fill="#CED1D8"/>
<path d="M148.678 201.886C148.678 202.463 149.233 202.931 149.917 202.931C150.602 202.931 151.157 202.463 151.157 201.886C151.157 201.309 150.602 200.841 149.917 200.841C149.233 200.841 148.678 201.309 148.678 201.886Z" fill="#CED1D8"/>
<path d="M148.678 252.038C148.678 252.615 149.233 253.083 149.917 253.083C150.602 253.083 151.157 252.615 151.157 252.038C151.157 251.461 150.602 250.993 149.917 250.993C149.233 250.993 148.678 251.461 148.678 252.038Z" fill="#CED1D8"/>
<path d="M148.678 268.755C148.678 269.333 149.233 269.8 149.917 269.8C150.602 269.8 151.157 269.333 151.157 268.755C151.157 268.178 150.602 267.711 149.917 267.711C149.233 267.711 148.678 268.178 148.678 268.755Z" fill="#CED1D8"/>
<path d="M128.843 1.27629C128.843 1.85334 129.398 2.32113 130.083 2.32113C130.767 2.32113 131.322 1.85334 131.322 1.27629C131.322 0.699236 130.767 0.231445 130.083 0.231445C129.398 0.231445 128.843 0.699236 128.843 1.27629Z" fill="#CED1D8"/>
<path d="M128.843 17.9938C128.843 18.5708 129.398 19.0386 130.083 19.0386C130.767 19.0386 131.322 18.5708 131.322 17.9938C131.322 17.4167 130.767 16.9489 130.083 16.9489C129.398 16.9489 128.843 17.4167 128.843 17.9938Z" fill="#CED1D8"/>
<path d="M128.843 34.7112C128.843 35.2883 129.398 35.7561 130.083 35.7561C130.767 35.7561 131.322 35.2883 131.322 34.7112C131.322 34.1342 130.767 33.6664 130.083 33.6664C129.398 33.6664 128.843 34.1342 128.843 34.7112Z" fill="#CED1D8"/>
<path d="M128.843 51.4287C128.843 52.0057 129.398 52.4735 130.083 52.4735C130.767 52.4735 131.322 52.0057 131.322 51.4287C131.322 50.8516 130.767 50.3838 130.083 50.3838C129.398 50.3838 128.843 50.8516 128.843 51.4287Z" fill="#CED1D8"/>
<path d="M128.843 84.8636C128.843 85.4406 129.398 85.9084 130.083 85.9084C130.767 85.9084 131.322 85.4406 131.322 84.8636C131.322 84.2865 130.767 83.8187 130.083 83.8187C129.398 83.8187 128.843 84.2865 128.843 84.8636Z" fill="#CED1D8"/>
<path d="M128.843 101.581C128.843 102.158 129.398 102.626 130.083 102.626C130.767 102.626 131.322 102.158 131.322 101.581C131.322 101.004 130.767 100.536 130.083 100.536C129.398 100.536 128.843 101.004 128.843 101.581Z" fill="#CED1D8"/>
<path d="M128.843 118.298C128.843 118.875 129.398 119.343 130.083 119.343C130.767 119.343 131.322 118.875 131.322 118.298C131.322 117.721 130.767 117.253 130.083 117.253C129.398 117.253 128.843 117.721 128.843 118.298Z" fill="#CED1D8"/>
<path d="M128.843 135.016C128.843 135.593 129.398 136.061 130.083 136.061C130.767 136.061 131.322 135.593 131.322 135.016C131.322 134.439 130.767 133.971 130.083 133.971C129.398 133.971 128.843 134.439 128.843 135.016Z" fill="#CED1D8"/>
<path d="M128.843 151.733C128.843 152.31 129.398 152.778 130.083 152.778C130.767 152.778 131.322 152.31 131.322 151.733C131.322 151.156 130.767 150.688 130.083 150.688C129.398 150.688 128.843 151.156 128.843 151.733Z" fill="#CED1D8"/>
<path d="M128.843 168.451C128.843 169.028 129.398 169.496 130.083 169.496C130.767 169.496 131.322 169.028 131.322 168.451C131.322 167.874 130.767 167.406 130.083 167.406C129.398 167.406 128.843 167.874 128.843 168.451Z" fill="#CED1D8"/>
<path d="M128.843 185.168C128.843 185.745 129.398 186.213 130.083 186.213C130.767 186.213 131.322 185.745 131.322 185.168C131.322 184.591 130.767 184.123 130.083 184.123C129.398 184.123 128.843 184.591 128.843 185.168Z" fill="#CED1D8"/>
<path d="M128.843 201.886C128.843 202.463 129.398 202.931 130.083 202.931C130.767 202.931 131.322 202.463 131.322 201.886C131.322 201.309 130.767 200.841 130.083 200.841C129.398 200.841 128.843 201.309 128.843 201.886Z" fill="#CED1D8"/>
<path d="M128.843 252.038C128.843 252.615 129.398 253.083 130.083 253.083C130.767 253.083 131.322 252.615 131.322 252.038C131.322 251.461 130.767 250.993 130.083 250.993C129.398 250.993 128.843 251.461 128.843 252.038Z" fill="#CED1D8"/>
<path d="M128.843 268.755C128.843 269.333 129.398 269.8 130.083 269.8C130.767 269.8 131.322 269.333 131.322 268.755C131.322 268.178 130.767 267.711 130.083 267.711C129.398 267.711 128.843 268.178 128.843 268.755Z" fill="#CED1D8"/>
<path d="M109.008 1.27629C109.008 1.85334 109.563 2.32113 110.248 2.32113C110.933 2.32113 111.488 1.85334 111.488 1.27629C111.488 0.699236 110.933 0.231445 110.248 0.231445C109.563 0.231445 109.008 0.699236 109.008 1.27629Z" fill="#CED1D8"/>
<path d="M109.008 17.9938C109.008 18.5708 109.563 19.0386 110.248 19.0386C110.933 19.0386 111.488 18.5708 111.488 17.9938C111.488 17.4167 110.933 16.9489 110.248 16.9489C109.563 16.9489 109.008 17.4167 109.008 17.9938Z" fill="#CED1D8"/>
<path d="M109.008 34.7112C109.008 35.2882 109.563 35.756 110.248 35.756C110.933 35.756 111.488 35.2882 111.488 34.7112C111.488 34.1341 110.933 33.6664 110.248 33.6664C109.563 33.6664 109.008 34.1341 109.008 34.7112Z" fill="#CED1D8"/>
<path d="M109.008 51.4287C109.008 52.0057 109.563 52.4735 110.248 52.4735C110.933 52.4735 111.488 52.0057 111.488 51.4287C111.488 50.8516 110.933 50.3838 110.248 50.3838C109.563 50.3838 109.008 50.8516 109.008 51.4287Z" fill="#CED1D8"/>
<path d="M109.008 84.8636C109.008 85.4406 109.563 85.9084 110.248 85.9084C110.933 85.9084 111.488 85.4406 111.488 84.8636C111.488 84.2865 110.933 83.8187 110.248 83.8187C109.563 83.8187 109.008 84.2865 109.008 84.8636Z" fill="#CED1D8"/>
<path d="M109.008 101.581C109.008 102.158 109.563 102.626 110.248 102.626C110.933 102.626 111.488 102.158 111.488 101.581C111.488 101.004 110.933 100.536 110.248 100.536C109.563 100.536 109.008 101.004 109.008 101.581Z" fill="#CED1D8"/>
<path d="M109.008 118.298C109.008 118.875 109.563 119.343 110.248 119.343C110.933 119.343 111.488 118.875 111.488 118.298C111.488 117.721 110.933 117.253 110.248 117.253C109.563 117.253 109.008 117.721 109.008 118.298Z" fill="#CED1D8"/>
<path d="M109.008 135.016C109.008 135.593 109.563 136.061 110.248 136.061C110.933 136.061 111.488 135.593 111.488 135.016C111.488 134.439 110.933 133.971 110.248 133.971C109.563 133.971 109.008 134.439 109.008 135.016Z" fill="#CED1D8"/>
<path d="M109.008 151.733C109.008 152.31 109.563 152.778 110.248 152.778C110.933 152.778 111.488 152.31 111.488 151.733C111.488 151.156 110.933 150.688 110.248 150.688C109.563 150.688 109.008 151.156 109.008 151.733Z" fill="#CED1D8"/>
<path d="M109.008 168.451C109.008 169.028 109.563 169.496 110.248 169.496C110.933 169.496 111.488 169.028 111.488 168.451C111.488 167.874 110.933 167.406 110.248 167.406C109.563 167.406 109.008 167.874 109.008 168.451Z" fill="#CED1D8"/>
<path d="M109.008 185.168C109.008 185.745 109.563 186.213 110.248 186.213C110.933 186.213 111.488 185.745 111.488 185.168C111.488 184.591 110.933 184.123 110.248 184.123C109.563 184.123 109.008 184.591 109.008 185.168Z" fill="#CED1D8"/>
<path d="M109.008 201.886C109.008 202.463 109.563 202.931 110.248 202.931C110.933 202.931 111.488 202.463 111.488 201.886C111.488 201.309 110.933 200.841 110.248 200.841C109.563 200.841 109.008 201.309 109.008 201.886Z" fill="#CED1D8"/>
<path d="M109.008 252.038C109.008 252.615 109.563 253.083 110.248 253.083C110.933 253.083 111.488 252.615 111.488 252.038C111.488 251.461 110.933 250.993 110.248 250.993C109.563 250.993 109.008 251.461 109.008 252.038Z" fill="#CED1D8"/>
<path d="M109.008 268.755C109.008 269.333 109.563 269.8 110.248 269.8C110.933 269.8 111.488 269.333 111.488 268.755C111.488 268.178 110.933 267.711 110.248 267.711C109.563 267.711 109.008 268.178 109.008 268.755Z" fill="#CED1D8"/>
<path d="M89.1736 1.27629C89.1736 1.85334 89.7286 2.32113 90.4133 2.32113C91.0979 2.32113 91.653 1.85334 91.653 1.27629C91.653 0.699236 91.0979 0.231445 90.4133 0.231445C89.7286 0.231445 89.1736 0.699236 89.1736 1.27629Z" fill="#CED1D8"/>
<path d="M89.1736 17.9938C89.1736 18.5708 89.7286 19.0386 90.4133 19.0386C91.0979 19.0386 91.653 18.5708 91.653 17.9938C91.653 17.4167 91.0979 16.9489 90.4133 16.9489C89.7286 16.9489 89.1736 17.4167 89.1736 17.9938Z" fill="#CED1D8"/>
<path d="M89.1736 34.7112C89.1736 35.2882 89.7286 35.756 90.4133 35.756C91.0979 35.756 91.653 35.2882 91.653 34.7112C91.653 34.1341 91.0979 33.6664 90.4133 33.6664C89.7286 33.6664 89.1736 34.1341 89.1736 34.7112Z" fill="#CED1D8"/>
<path d="M89.1736 51.4287C89.1736 52.0057 89.7286 52.4735 90.4133 52.4735C91.0979 52.4735 91.653 52.0057 91.653 51.4287C91.653 50.8516 91.0979 50.3838 90.4133 50.3838C89.7286 50.3838 89.1736 50.8516 89.1736 51.4287Z" fill="#CED1D8"/>
<path d="M89.1736 252.038C89.1736 252.615 89.7286 253.083 90.4133 253.083C91.0979 253.083 91.653 252.615 91.653 252.038C91.653 251.461 91.0979 250.993 90.4133 250.993C89.7286 250.993 89.1736 251.461 89.1736 252.038Z" fill="#CED1D8"/>
<path d="M89.1736 268.755C89.1736 269.333 89.7286 269.8 90.4133 269.8C91.0979 269.8 91.653 269.333 91.653 268.755C91.653 268.178 91.0979 267.711 90.4133 267.711C89.7286 267.711 89.1736 268.178 89.1736 268.755Z" fill="#CED1D8"/>
<path d="M247.851 235.31C247.851 235.887 248.406 236.355 249.091 236.355C249.776 236.355 250.331 235.887 250.331 235.31C250.331 234.733 249.776 234.265 249.091 234.265C248.406 234.265 247.851 234.733 247.851 235.31Z" fill="#CED1D8"/>
<path d="M228.017 235.31C228.017 235.887 228.572 236.355 229.256 236.355C229.941 236.355 230.496 235.887 230.496 235.31C230.496 234.733 229.941 234.265 229.256 234.265C228.572 234.265 228.017 234.733 228.017 235.31Z" fill="#CED1D8"/>
<path d="M208.182 235.31C208.182 235.887 208.737 236.355 209.421 236.355C210.106 236.355 210.661 235.887 210.661 235.31C210.661 234.733 210.106 234.265 209.421 234.265C208.737 234.265 208.182 234.733 208.182 235.31Z" fill="#CED1D8"/>
<path d="M188.347 235.31C188.347 235.887 188.902 236.355 189.587 236.355C190.271 236.355 190.826 235.887 190.826 235.31C190.826 234.733 190.271 234.265 189.587 234.265C188.902 234.265 188.347 234.733 188.347 235.31Z" fill="#CED1D8"/>
<path d="M168.512 235.31C168.512 235.887 169.067 236.355 169.752 236.355C170.437 236.355 170.992 235.887 170.992 235.31C170.992 234.733 170.437 234.265 169.752 234.265C169.067 234.265 168.512 234.733 168.512 235.31Z" fill="#CED1D8"/>
<path d="M148.678 235.31C148.678 235.887 149.233 236.355 149.917 236.355C150.602 236.355 151.157 235.887 151.157 235.31C151.157 234.733 150.602 234.265 149.917 234.265C149.233 234.265 148.678 234.733 148.678 235.31Z" fill="#CED1D8"/>
<path d="M128.843 235.31C128.843 235.887 129.398 236.355 130.083 236.355C130.767 236.355 131.322 235.887 131.322 235.31C131.322 234.733 130.767 234.265 130.083 234.265C129.398 234.265 128.843 234.733 128.843 235.31Z" fill="#CED1D8"/>
<path d="M109.008 235.31C109.008 235.887 109.563 236.355 110.248 236.355C110.933 236.355 111.488 235.887 111.488 235.31C111.488 234.733 110.933 234.265 110.248 234.265C109.563 234.265 109.008 234.733 109.008 235.31Z" fill="#CED1D8"/>
<path d="M89.1736 235.31C89.1736 235.887 89.7286 236.355 90.4133 236.355C91.0979 236.355 91.653 235.887 91.653 235.31C91.653 234.733 91.0979 234.265 90.4133 234.265C89.7286 234.265 89.1736 234.733 89.1736 235.31Z" fill="#CED1D8"/>
<path d="M69.3388 1.27629C69.3388 1.85334 69.8939 2.32113 70.5785 2.32113C71.2632 2.32113 71.8182 1.85334 71.8182 1.27629C71.8182 0.699236 71.2632 0.231445 70.5785 0.231445C69.8939 0.231445 69.3388 0.699236 69.3388 1.27629Z" fill="#CED1D8"/>
<path d="M69.3388 17.9938C69.3388 18.5708 69.8939 19.0386 70.5785 19.0386C71.2632 19.0386 71.8182 18.5708 71.8182 17.9938C71.8182 17.4167 71.2632 16.9489 70.5785 16.9489C69.8939 16.9489 69.3388 17.4167 69.3388 17.9938Z" fill="#CED1D8"/>
<path d="M69.3388 34.7112C69.3388 35.2882 69.8939 35.756 70.5785 35.756C71.2632 35.756 71.8182 35.2882 71.8182 34.7112C71.8182 34.1341 71.2632 33.6664 70.5785 33.6664C69.8939 33.6664 69.3388 34.1341 69.3388 34.7112Z" fill="#CED1D8"/>
<path d="M69.3388 51.4287C69.3388 52.0057 69.8939 52.4735 70.5785 52.4735C71.2632 52.4735 71.8182 52.0057 71.8182 51.4287C71.8182 50.8516 71.2632 50.3838 70.5785 50.3838C69.8939 50.3838 69.3388 50.8516 69.3388 51.4287Z" fill="#CED1D8"/>
<path d="M69.3388 84.8636C69.3388 85.4406 69.8939 85.9084 70.5785 85.9084C71.2632 85.9084 71.8182 85.4406 71.8182 84.8636C71.8182 84.2865 71.2632 83.8187 70.5785 83.8187C69.8939 83.8187 69.3388 84.2865 69.3388 84.8636Z" fill="#CED1D8"/>
<path d="M69.3388 101.581C69.3388 102.158 69.8939 102.626 70.5785 102.626C71.2632 102.626 71.8182 102.158 71.8182 101.581C71.8182 101.004 71.2632 100.536 70.5785 100.536C69.8939 100.536 69.3388 101.004 69.3388 101.581Z" fill="#CED1D8"/>
<path d="M69.3388 118.298C69.3388 118.875 69.8939 119.343 70.5785 119.343C71.2632 119.343 71.8182 118.875 71.8182 118.298C71.8182 117.721 71.2632 117.253 70.5785 117.253C69.8939 117.253 69.3388 117.721 69.3388 118.298Z" fill="#CED1D8"/>
<path d="M69.3388 135.016C69.3388 135.593 69.8939 136.061 70.5785 136.061C71.2632 136.061 71.8182 135.593 71.8182 135.016C71.8182 134.439 71.2632 133.971 70.5785 133.971C69.8939 133.971 69.3388 134.439 69.3388 135.016Z" fill="#CED1D8"/>
<path d="M69.3388 151.733C69.3388 152.31 69.8939 152.778 70.5785 152.778C71.2632 152.778 71.8182 152.31 71.8182 151.733C71.8182 151.156 71.2632 150.688 70.5785 150.688C69.8939 150.688 69.3388 151.156 69.3388 151.733Z" fill="#CED1D8"/>
<path d="M69.3388 168.451C69.3388 169.028 69.8939 169.496 70.5785 169.496C71.2632 169.496 71.8182 169.028 71.8182 168.451C71.8182 167.874 71.2632 167.406 70.5785 167.406C69.8939 167.406 69.3388 167.874 69.3388 168.451Z" fill="#CED1D8"/>
<path d="M69.3388 185.168C69.3388 185.745 69.8939 186.213 70.5785 186.213C71.2632 186.213 71.8182 185.745 71.8182 185.168C71.8182 184.591 71.2632 184.123 70.5785 184.123C69.8939 184.123 69.3388 184.591 69.3388 185.168Z" fill="#CED1D8"/>
<path d="M69.3388 201.886C69.3388 202.463 69.8939 202.931 70.5785 202.931C71.2632 202.931 71.8182 202.463 71.8182 201.886C71.8182 201.309 71.2632 200.841 70.5785 200.841C69.8939 200.841 69.3388 201.309 69.3388 201.886Z" fill="#CED1D8"/>
<path d="M69.3388 218.603C69.3388 219.18 69.8939 219.648 70.5785 219.648C71.2632 219.648 71.8182 219.18 71.8182 218.603C71.8182 218.026 71.2632 217.558 70.5785 217.558C69.8939 217.558 69.3388 218.026 69.3388 218.603Z" fill="#CED1D8"/>
<path d="M69.3388 252.038C69.3388 252.615 69.8939 253.083 70.5785 253.083C71.2632 253.083 71.8182 252.615 71.8182 252.038C71.8182 251.461 71.2632 250.993 70.5785 250.993C69.8939 250.993 69.3388 251.461 69.3388 252.038Z" fill="#CED1D8"/>
<path d="M69.3388 268.755C69.3388 269.333 69.8939 269.8 70.5785 269.8C71.2632 269.8 71.8182 269.333 71.8182 268.755C71.8182 268.178 71.2632 267.711 70.5785 267.711C69.8939 267.711 69.3388 268.178 69.3388 268.755Z" fill="#CED1D8"/>
<path d="M49.5041 1.27629C49.5041 1.85334 50.0591 2.32113 50.7438 2.32113C51.4284 2.32113 51.9835 1.85334 51.9835 1.27629C51.9835 0.699236 51.4284 0.231445 50.7438 0.231445C50.0591 0.231445 49.5041 0.699236 49.5041 1.27629Z" fill="#CED1D8"/>
<path d="M49.5041 17.9938C49.5041 18.5708 50.0591 19.0386 50.7438 19.0386C51.4284 19.0386 51.9835 18.5708 51.9835 17.9938C51.9835 17.4167 51.4284 16.9489 50.7438 16.9489C50.0591 16.9489 49.5041 17.4167 49.5041 17.9938Z" fill="#CED1D8"/>
<path d="M49.5041 34.7112C49.5041 35.2882 50.0591 35.756 50.7438 35.756C51.4284 35.756 51.9835 35.2882 51.9835 34.7112C51.9835 34.1341 51.4284 33.6664 50.7438 33.6664C50.0591 33.6664 49.5041 34.1341 49.5041 34.7112Z" fill="#CED1D8"/>
<path d="M49.5041 51.4287C49.5041 52.0057 50.0591 52.4735 50.7438 52.4735C51.4284 52.4735 51.9835 52.0057 51.9835 51.4287C51.9835 50.8516 51.4284 50.3838 50.7438 50.3838C50.0591 50.3838 49.5041 50.8516 49.5041 51.4287Z" fill="#CED1D8"/>
<path d="M49.5041 252.038C49.5041 252.615 50.0591 253.083 50.7438 253.083C51.4284 253.083 51.9835 252.615 51.9835 252.038C51.9835 251.461 51.4284 250.993 50.7438 250.993C50.0591 250.993 49.5041 251.461 49.5041 252.038Z" fill="#CED1D8"/>
<path d="M49.5041 268.755C49.5041 269.333 50.0591 269.8 50.7438 269.8C51.4284 269.8 51.9835 269.333 51.9835 268.755C51.9835 268.178 51.4284 267.711 50.7438 267.711C50.0591 267.711 49.5041 268.178 49.5041 268.755Z" fill="#CED1D8"/>
<path d="M29.6694 1.27629C29.6694 1.85334 30.2244 2.32113 30.9091 2.32113C31.5937 2.32113 32.1487 1.85334 32.1487 1.27629C32.1487 0.699236 31.5937 0.231445 30.9091 0.231445C30.2244 0.231445 29.6694 0.699236 29.6694 1.27629Z" fill="#CED1D8"/>
<path d="M29.6694 17.9938C29.6694 18.5708 30.2244 19.0386 30.9091 19.0386C31.5937 19.0386 32.1487 18.5708 32.1487 17.9938C32.1487 17.4167 31.5937 16.9489 30.9091 16.9489C30.2244 16.9489 29.6694 17.4167 29.6694 17.9938Z" fill="#CED1D8"/>
<path d="M29.6694 34.7112C29.6694 35.2882 30.2244 35.756 30.9091 35.756C31.5937 35.756 32.1487 35.2882 32.1487 34.7112C32.1487 34.1341 31.5937 33.6664 30.9091 33.6664C30.2244 33.6664 29.6694 34.1341 29.6694 34.7112Z" fill="#CED1D8"/>
<path d="M29.6694 51.4287C29.6694 52.0057 30.2244 52.4735 30.9091 52.4735C31.5937 52.4735 32.1487 52.0057 32.1487 51.4287C32.1487 50.8516 31.5937 50.3838 30.9091 50.3838C30.2244 50.3838 29.6694 50.8516 29.6694 51.4287Z" fill="#CED1D8"/>
<path d="M29.6694 68.1461C29.6694 68.7232 30.2244 69.191 30.9091 69.191C31.5937 69.191 32.1487 68.7232 32.1487 68.1461C32.1487 67.5691 31.5937 67.1013 30.9091 67.1013C30.2244 67.1013 29.6694 67.5691 29.6694 68.1461Z" fill="#CED1D8"/>
<path d="M29.6694 84.8636C29.6694 85.4406 30.2244 85.9084 30.9091 85.9084C31.5937 85.9084 32.1487 85.4406 32.1487 84.8636C32.1487 84.2865 31.5937 83.8187 30.9091 83.8187C30.2244 83.8187 29.6694 84.2865 29.6694 84.8636Z" fill="#CED1D8"/>
<path d="M29.6694 101.581C29.6694 102.158 30.2244 102.626 30.9091 102.626C31.5937 102.626 32.1487 102.158 32.1487 101.581C32.1487 101.004 31.5937 100.536 30.9091 100.536C30.2244 100.536 29.6694 101.004 29.6694 101.581Z" fill="#CED1D8"/>
<path d="M29.6694 118.298C29.6694 118.875 30.2244 119.343 30.9091 119.343C31.5937 119.343 32.1487 118.875 32.1487 118.298C32.1487 117.721 31.5937 117.253 30.9091 117.253C30.2244 117.253 29.6694 117.721 29.6694 118.298Z" fill="#CED1D8"/>
<path d="M29.6694 135.016C29.6694 135.593 30.2244 136.061 30.9091 136.061C31.5937 136.061 32.1487 135.593 32.1487 135.016C32.1487 134.439 31.5937 133.971 30.9091 133.971C30.2244 133.971 29.6694 134.439 29.6694 135.016Z" fill="#CED1D8"/>
<path d="M29.6694 151.733C29.6694 152.31 30.2244 152.778 30.9091 152.778C31.5937 152.778 32.1487 152.31 32.1487 151.733C32.1487 151.156 31.5937 150.688 30.9091 150.688C30.2244 150.688 29.6694 151.156 29.6694 151.733Z" fill="#CED1D8"/>
<path d="M29.6694 168.451C29.6694 169.028 30.2244 169.496 30.9091 169.496C31.5937 169.496 32.1487 169.028 32.1487 168.451C32.1487 167.874 31.5937 167.406 30.9091 167.406C30.2244 167.406 29.6694 167.874 29.6694 168.451Z" fill="#CED1D8"/>
<path d="M29.6694 185.168C29.6694 185.745 30.2244 186.213 30.9091 186.213C31.5937 186.213 32.1487 185.745 32.1487 185.168C32.1487 184.591 31.5937 184.123 30.9091 184.123C30.2244 184.123 29.6694 184.591 29.6694 185.168Z" fill="#CED1D8"/>
<path d="M29.6694 201.886C29.6694 202.463 30.2244 202.931 30.9091 202.931C31.5937 202.931 32.1487 202.463 32.1487 201.886C32.1487 201.309 31.5937 200.841 30.9091 200.841C30.2244 200.841 29.6694 201.309 29.6694 201.886Z" fill="#CED1D8"/>
<path d="M29.6694 218.603C29.6694 219.18 30.2244 219.648 30.9091 219.648C31.5937 219.648 32.1487 219.18 32.1487 218.603C32.1487 218.026 31.5937 217.558 30.9091 217.558C30.2244 217.558 29.6694 218.026 29.6694 218.603Z" fill="#CED1D8"/>
<path d="M29.6694 235.321C29.6694 235.898 30.2244 236.365 30.9091 236.365C31.5937 236.365 32.1487 235.898 32.1487 235.321C32.1487 234.743 31.5937 234.276 30.9091 234.276C30.2244 234.276 29.6694 234.743 29.6694 235.321Z" fill="#CED1D8"/>
<path d="M29.6694 252.038C29.6694 252.615 30.2244 253.083 30.9091 253.083C31.5937 253.083 32.1487 252.615 32.1487 252.038C32.1487 251.461 31.5937 250.993 30.9091 250.993C30.2244 250.993 29.6694 251.461 29.6694 252.038Z" fill="#CED1D8"/>
<path d="M29.6694 268.755C29.6694 269.333 30.2244 269.8 30.9091 269.8C31.5937 269.8 32.1487 269.333 32.1487 268.755C32.1487 268.178 31.5937 267.711 30.9091 267.711C30.2244 267.711 29.6694 268.178 29.6694 268.755Z" fill="#CED1D8"/>
<path d="M9.83469 1.27629C9.83469 1.85334 10.3897 2.32113 11.0744 2.32113C11.759 2.32113 12.314 1.85334 12.314 1.27629C12.314 0.699236 11.759 0.231445 11.0744 0.231445C10.3897 0.231445 9.83469 0.699236 9.83469 1.27629Z" fill="#CED1D8"/>
<path d="M9.83469 17.9938C9.83469 18.5708 10.3897 19.0386 11.0744 19.0386C11.759 19.0386 12.314 18.5708 12.314 17.9938C12.314 17.4167 11.759 16.9489 11.0744 16.9489C10.3897 16.9489 9.83469 17.4167 9.83469 17.9938Z" fill="#CED1D8"/>
<path d="M9.83469 34.7112C9.83469 35.2882 10.3897 35.756 11.0744 35.756C11.759 35.756 12.314 35.2882 12.314 34.7112C12.314 34.1341 11.759 33.6664 11.0744 33.6664C10.3897 33.6664 9.83469 34.1341 9.83469 34.7112Z" fill="#CED1D8"/>
<path d="M9.83469 51.4287C9.83469 52.0057 10.3897 52.4735 11.0744 52.4735C11.759 52.4735 12.314 52.0057 12.314 51.4287C12.314 50.8516 11.759 50.3838 11.0744 50.3838C10.3897 50.3838 9.83469 50.8516 9.83469 51.4287Z" fill="#CED1D8"/>
<path d="M9.83469 68.1461C9.83469 68.7232 10.3897 69.191 11.0744 69.191C11.759 69.191 12.314 68.7232 12.314 68.1461C12.314 67.5691 11.759 67.1013 11.0744 67.1013C10.3897 67.1013 9.83469 67.5691 9.83469 68.1461Z" fill="#CED1D8"/>
<path d="M9.83469 84.8636C9.83469 85.4406 10.3897 85.9084 11.0744 85.9084C11.759 85.9084 12.314 85.4406 12.314 84.8636C12.314 84.2865 11.759 83.8187 11.0744 83.8187C10.3897 83.8187 9.83469 84.2865 9.83469 84.8636Z" fill="#CED1D8"/>
<path d="M9.83469 101.581C9.83469 102.158 10.3897 102.626 11.0744 102.626C11.759 102.626 12.314 102.158 12.314 101.581C12.314 101.004 11.759 100.536 11.0744 100.536C10.3897 100.536 9.83469 101.004 9.83469 101.581Z" fill="#CED1D8"/>
<path d="M9.83469 118.298C9.83469 118.875 10.3897 119.343 11.0744 119.343C11.759 119.343 12.314 118.875 12.314 118.298C12.314 117.721 11.759 117.253 11.0744 117.253C10.3897 117.253 9.83469 117.721 9.83469 118.298Z" fill="#CED1D8"/>
<path d="M9.83469 135.016C9.83469 135.593 10.3897 136.061 11.0744 136.061C11.759 136.061 12.314 135.593 12.314 135.016C12.314 134.439 11.759 133.971 11.0744 133.971C10.3897 133.971 9.83469 134.439 9.83469 135.016Z" fill="#CED1D8"/>
<path d="M9.83469 151.733C9.83469 152.31 10.3897 152.778 11.0744 152.778C11.759 152.778 12.314 152.31 12.314 151.733C12.314 151.156 11.759 150.688 11.0744 150.688C10.3897 150.688 9.83469 151.156 9.83469 151.733Z" fill="#CED1D8"/>
<path d="M9.83469 168.451C9.83469 169.028 10.3897 169.496 11.0744 169.496C11.759 169.496 12.314 169.028 12.314 168.451C12.314 167.874 11.759 167.406 11.0744 167.406C10.3897 167.406 9.83469 167.874 9.83469 168.451Z" fill="#CED1D8"/>
<path d="M9.83469 185.168C9.83469 185.745 10.3897 186.213 11.0744 186.213C11.759 186.213 12.314 185.745 12.314 185.168C12.314 184.591 11.759 184.123 11.0744 184.123C10.3897 184.123 9.83469 184.591 9.83469 185.168Z" fill="#CED1D8"/>
<path d="M9.83469 201.886C9.83469 202.463 10.3897 202.931 11.0744 202.931C11.759 202.931 12.314 202.463 12.314 201.886C12.314 201.309 11.759 200.841 11.0744 200.841C10.3897 200.841 9.83469 201.309 9.83469 201.886Z" fill="#CED1D8"/>
<path d="M9.83469 218.603C9.83469 219.18 10.3897 219.648 11.0744 219.648C11.759 219.648 12.314 219.18 12.314 218.603C12.314 218.026 11.759 217.558 11.0744 217.558C10.3897 217.558 9.83469 218.026 9.83469 218.603Z" fill="#CED1D8"/>
<path d="M9.83469 235.321C9.83469 235.898 10.3897 236.365 11.0744 236.365C11.759 236.365 12.314 235.898 12.314 235.321C12.314 234.743 11.759 234.276 11.0744 234.276C10.3897 234.276 9.83469 234.743 9.83469 235.321Z" fill="#CED1D8"/>
<path d="M9.83469 252.038C9.83469 252.615 10.3897 253.083 11.0744 253.083C11.759 253.083 12.314 252.615 12.314 252.038C12.314 251.461 11.759 250.993 11.0744 250.993C10.3897 250.993 9.83469 251.461 9.83469 252.038Z" fill="#CED1D8"/>
<path d="M9.83469 268.755C9.83469 269.333 10.3897 269.8 11.0744 269.8C11.759 269.8 12.314 269.333 12.314 268.755C12.314 268.178 11.759 267.711 11.0744 267.711C10.3897 267.711 9.83469 268.178 9.83469 268.755Z" fill="#CED1D8"/>
<path d="M69.345 68.1461C69.345 68.7232 69.9 69.191 70.5847 69.191C71.2693 69.191 71.8243 68.7232 71.8243 68.1461C71.8243 67.5691 71.2693 67.1013 70.5847 67.1013C69.9 67.1013 69.345 67.5691 69.345 68.1461Z" fill="#CED1D8"/>
<path d="M69.345 235.321C69.345 235.898 69.9 236.365 70.5847 236.365C71.2693 236.365 71.8243 235.898 71.8243 235.321C71.8243 234.743 71.2693 234.276 70.5847 234.276C69.9 234.276 69.345 234.743 69.345 235.321Z" fill="#CED1D8"/>
<path d="M69.345 252.038C69.345 252.615 69.9 253.083 70.5847 253.083C71.2693 253.083 71.8243 252.615 71.8243 252.038C71.8243 251.461 71.2693 250.993 70.5847 250.993C69.9 250.993 69.345 251.461 69.345 252.038Z" fill="#CED1D8"/>
<path d="M49.5103 68.1461C49.5103 68.7232 50.0653 69.191 50.75 69.191C51.4346 69.191 51.9896 68.7232 51.9896 68.1461C51.9896 67.5691 51.4346 67.1013 50.75 67.1013C50.0653 67.1013 49.5103 67.5691 49.5103 68.1461Z" fill="#CED1D8"/>
<path d="M49.5103 84.8636C49.5103 85.4406 50.0653 85.9084 50.75 85.9084C51.4346 85.9084 51.9896 85.4406 51.9896 84.8636C51.9896 84.2865 51.4346 83.8187 50.75 83.8187C50.0653 83.8187 49.5103 84.2865 49.5103 84.8636Z" fill="#CED1D8"/>
<path d="M49.5103 101.581C49.5103 102.158 50.0653 102.626 50.75 102.626C51.4346 102.626 51.9896 102.158 51.9896 101.581C51.9896 101.004 51.4346 100.536 50.75 100.536C50.0653 100.536 49.5103 101.004 49.5103 101.581Z" fill="#CED1D8"/>
<path d="M49.5103 118.298C49.5103 118.875 50.0653 119.343 50.75 119.343C51.4346 119.343 51.9896 118.875 51.9896 118.298C51.9896 117.721 51.4346 117.253 50.75 117.253C50.0653 117.253 49.5103 117.721 49.5103 118.298Z" fill="#CED1D8"/>
<path d="M49.5103 135.016C49.5103 135.593 50.0653 136.061 50.75 136.061C51.4346 136.061 51.9896 135.593 51.9896 135.016C51.9896 134.439 51.4346 133.971 50.75 133.971C50.0653 133.971 49.5103 134.439 49.5103 135.016Z" fill="#CED1D8"/>
<path d="M49.5103 151.733C49.5103 152.31 50.0653 152.778 50.75 152.778C51.4346 152.778 51.9896 152.31 51.9896 151.733C51.9896 151.156 51.4346 150.688 50.75 150.688C50.0653 150.688 49.5103 151.156 49.5103 151.733Z" fill="#CED1D8"/>
<path d="M49.5103 168.451C49.5103 169.028 50.0653 169.496 50.75 169.496C51.4346 169.496 51.9896 169.028 51.9896 168.451C51.9896 167.874 51.4346 167.406 50.75 167.406C50.0653 167.406 49.5103 167.874 49.5103 168.451Z" fill="#CED1D8"/>
<path d="M49.5103 185.168C49.5103 185.745 50.0653 186.213 50.75 186.213C51.4346 186.213 51.9896 185.745 51.9896 185.168C51.9896 184.591 51.4346 184.123 50.75 184.123C50.0653 184.123 49.5103 184.591 49.5103 185.168Z" fill="#CED1D8"/>
<path d="M49.5103 201.886C49.5103 202.463 50.0653 202.931 50.75 202.931C51.4346 202.931 51.9896 202.463 51.9896 201.886C51.9896 201.309 51.4346 200.841 50.75 200.841C50.0653 200.841 49.5103 201.309 49.5103 201.886Z" fill="#CED1D8"/>
<path d="M49.5103 218.603C49.5103 219.18 50.0653 219.648 50.75 219.648C51.4346 219.648 51.9896 219.18 51.9896 218.603C51.9896 218.026 51.4346 217.558 50.75 217.558C50.0653 217.558 49.5103 218.026 49.5103 218.603Z" fill="#CED1D8"/>
<path d="M49.5103 235.321C49.5103 235.898 50.0653 236.365 50.75 236.365C51.4346 236.365 51.9896 235.898 51.9896 235.321C51.9896 234.743 51.4346 234.276 50.75 234.276C50.0653 234.276 49.5103 234.743 49.5103 235.321Z" fill="#CED1D8"/>
<path d="M49.5103 252.038C49.5103 252.615 50.0653 253.083 50.75 253.083C51.4346 253.083 51.9896 252.615 51.9896 252.038C51.9896 251.461 51.4346 250.993 50.75 250.993C50.0653 250.993 49.5103 251.461 49.5103 252.038Z" fill="#CED1D8"/>
</g>
<defs>
<clipPath id="clip0_135_4578">
<rect width="270" height="270" fill="white" transform="translate(270) rotate(90)"/>
</clipPath>
</defs>
</svg>
