<svg width="1320" height="650" viewBox="0 0 1320 650" fill="none" xmlns="http://www.w3.org/2000/svg">
<g clip-path="url(#clip0_865_1261)">
<rect width="1320" height="650" fill="white"/>
<path d="M1390 -191H-36V800H1390V-191Z" fill="#281558"/>
<path d="M452 413H80V-5.09091L173 -98H452V413Z" fill="#281558" stroke="white" stroke-width="2" stroke-linejoin="round"/>
<path d="M895 366L1301 772" stroke="white" stroke-width="2" stroke-linejoin="round"/>
<path d="M638 413H266V-5.09091L359 -98H638V413Z" fill="#281558" stroke="white" stroke-width="2" stroke-linejoin="round"/>
<path d="M879 505C964.604 505 1034 435.828 1034 350.5C1034 265.172 964.604 196 879 196C793.396 196 724 265.172 724 350.5C724 435.828 793.396 505 879 505Z" fill="#F5F3F8" stroke="white" stroke-width="2" stroke-linejoin="round"/>
<path d="M879 413H507V-5.09091L600 -98H879V413Z" fill="#281558" stroke="white" stroke-width="2" stroke-linejoin="round"/>
<path d="M724 351C724 373.049 728.631 394.012 736.942 413H879V196C793.401 196 724 265.401 724 351Z" fill="#34AAFF"/>
<mask id="mask0_865_1261" style="mask-type:luminance" maskUnits="userSpaceOnUse" x="724" y="195" width="156" height="218">
<path d="M724.172 350.589C724.172 372.615 728.798 393.558 737.101 412.526H879.016V195.745C793.503 195.745 724.172 265.076 724.172 350.589Z" fill="white"/>
</mask>
<g mask="url(#mask0_865_1261)">
<path d="M755.141 226.714H801.594" stroke="white" stroke-width="2" stroke-linejoin="round"/>
<path d="M832.562 226.714H879.016" stroke="white" stroke-width="2" stroke-linejoin="round"/>
<path d="M646.75 195.745H832.562" stroke="white" stroke-width="2" stroke-linejoin="round"/>
<path d="M646.75 257.683H879.016" stroke="white" stroke-width="2" stroke-linejoin="round"/>
<path d="M708.688 288.651H879.016" stroke="white" stroke-width="2" stroke-linejoin="round"/>
<path d="M646.75 319.62H848.047" stroke="white" stroke-width="2" stroke-linejoin="round"/>
<path d="M817.078 350.589H879.016" stroke="white" stroke-width="2" stroke-linejoin="round"/>
<path d="M724.172 350.589H786.109" stroke="white" stroke-width="2" stroke-linejoin="round"/>
<path d="M646.75 381.558H879.016" stroke="white" stroke-width="2" stroke-linejoin="round"/>
</g>
<path d="M724 351C724 373.049 728.631 394.012 736.942 413H879V196C793.401 196 724 265.401 724 351Z" stroke="white" stroke-width="2" stroke-linejoin="round"/>
<path d="M879 134C759.146 134 662 230.922 662 350.5C662 470.078 759.146 567 879 567C998.854 567 1096 470.078 1096 350.5C1096 230.922 998.854 134 879 134ZM879 505.143C793.401 505.143 724 435.902 724 350.5C724 265.098 793.401 195.857 879 195.857C964.599 195.857 1034 265.098 1034 350.5C1034 435.902 964.599 505.143 879 505.143Z" fill="#281558" stroke="white" stroke-width="2" stroke-linejoin="round"/>
<mask id="mask1_865_1261" style="mask-type:luminance" maskUnits="userSpaceOnUse" x="971" y="466" width="419" height="334">
<path d="M1390 466.586H971.922V799.5H1390V466.586Z" fill="white"/>
</mask>
<g mask="url(#mask1_865_1261)">
<path d="M1096.74 535.466L1063.89 568.313L1373.58 877.995L1406.42 845.148L1096.74 535.466Z" fill="#281558" stroke="white" stroke-width="2" stroke-linejoin="round"/>
</g>
</g>
<defs>
<clipPath id="clip0_865_1261">
<rect width="1320" height="650" fill="white"/>
</clipPath>
</defs>
</svg>
