<svg width="654" height="373" viewBox="0 0 654 373" fill="none" xmlns="http://www.w3.org/2000/svg">
<g filter="url(#filter0_d_2335_3847)">
<rect x="4" width="646" height="365" rx="20" fill="#EDE8E1"/>
<path d="M31 195.828C41.0668 208.251 51.1336 220.675 61.1999 212.423C71.2667 204.171 81.3335 175.243 91.4003 170.935C101.467 166.626 111.533 186.937 121.6 187.53C131.667 188.123 141.733 168.997 151.8 162.637C161.867 156.276 171.934 162.68 182 162.637C192.067 162.594 202.134 156.105 212.2 170.935C222.267 185.765 232.333 221.913 242.4 237.316C252.467 252.718 262.533 247.374 272.6 253.911C282.667 260.449 292.733 278.869 302.8 262.209C312.867 245.55 322.934 193.811 333 170.935C343.067 148.058 353.134 154.042 363.2 146.041C373.267 138.041 383.333 116.054 393.4 112.851C403.467 109.648 413.533 125.229 423.6 146.041C433.667 166.854 443.733 192.897 453.8 204.125C463.867 215.353 473.934 211.765 484 220.721C494.067 229.676 504.134 251.177 514.2 229.019C524.267 206.86 534.333 141.043 544.4 112.851C554.467 84.6583 564.533 94.0906 574.6 96.2555C584.667 98.4204 594.734 93.318 604.8 96.2555C614.867 99.193 624.934 110.171 635 121.148" stroke="url(#paint0_linear_2335_3847)" stroke-width="3.84"/>
<path d="M633 254.553C622.917 245.8 612.833 237.047 602.75 242.861C592.667 248.675 582.583 269.056 572.5 272.091C562.417 275.127 552.333 260.817 542.25 260.399C532.166 259.982 522.083 273.456 512 277.938C501.916 282.419 491.833 277.907 481.75 277.938C471.667 277.968 461.583 282.54 451.5 272.091C441.417 261.643 431.333 236.175 421.25 225.323C411.167 214.471 401.083 218.236 391 213.631C380.916 209.025 370.833 196.047 360.75 207.785C350.666 219.522 340.583 255.974 330.5 272.091C320.417 288.209 310.333 283.993 300.25 289.63C290.167 295.267 280.083 310.758 270 313.014C259.916 315.271 249.833 304.293 239.75 289.63C229.666 274.966 219.583 256.618 209.5 248.707C199.416 240.797 189.333 243.325 179.25 237.015C169.167 230.705 159.083 215.557 149 231.169C138.917 246.781 128.833 293.152 118.75 313.014C108.666 332.877 98.5833 326.232 88.4999 324.706C78.4164 323.181 68.333 326.776 58.25 324.706C48.1665 322.637 38.083 314.902 28 307.168" stroke="url(#paint1_linear_2335_3847)" stroke-width="3.84"/>
<path d="M31 296.399C41.0668 296.395 51.1336 296.393 61.1999 288.08C71.2667 279.768 81.3335 263.147 91.4003 254.807C101.467 246.466 111.533 246.406 121.6 246.488C131.667 246.57 141.733 246.794 151.8 246.488C161.867 246.182 171.934 245.346 182 246.488C192.067 247.63 202.134 250.75 212.2 263.125C222.267 275.5 232.333 297.129 242.4 304.717C252.467 312.305 262.533 305.852 272.6 313.036C282.667 320.219 292.733 341.039 302.8 329.673C312.867 318.306 322.934 274.753 333 254.807C343.067 234.86 353.134 238.519 363.2 238.17C373.267 237.82 383.333 233.461 393.4 229.851C403.467 226.241 413.533 223.379 423.6 229.851C433.667 236.324 443.733 252.131 453.8 263.125C463.867 274.119 473.934 280.3 484 288.08C494.067 295.86 504.134 305.239 514.2 288.08C524.267 270.921 534.333 227.224 544.4 213.214C554.467 199.204 564.533 214.881 574.6 196.577C584.667 178.274 594.734 125.989 604.8 105.075C614.867 84.1608 624.934 94.6177 635 105.075" stroke="url(#paint2_linear_2335_3847)" stroke-width="3.84"/>
<path d="M584 72H585" stroke="#AAAAAA" stroke-width="0.075"/>
<line x1="28" y1="345.5" x2="638" y2="345.5" stroke="#494949"/>
<line x1="27.5" y1="346" x2="27.5" y2="19" stroke="#494949"/>
<path d="M581 21.6667C582.473 21.6667 583.667 20.4728 583.667 19C583.667 17.5272 582.473 16.3333 581 16.3333C579.527 16.3333 578.333 17.5272 578.333 19C578.333 20.4728 579.527 21.6667 581 21.6667ZM581.5 328L581.5 326.997L580.5 326.997L580.5 328L581.5 328ZM581.5 324.99L581.5 322.984L580.5 322.984L580.5 324.99L581.5 324.99ZM581.5 320.977L581.5 318.971L580.5 318.971L580.5 320.977L581.5 320.977ZM581.5 316.964L581.5 314.958L580.5 314.958L580.5 316.964L581.5 316.964ZM581.5 312.951L581.5 310.945L580.5 310.945L580.5 312.951L581.5 312.951ZM581.5 308.938L581.5 306.932L580.5 306.932L580.5 308.938L581.5 308.938ZM581.5 304.925L581.5 302.919L580.5 302.919L580.5 304.925L581.5 304.925ZM581.5 300.912L581.5 298.906L580.5 298.906L580.5 300.912L581.5 300.912ZM581.5 296.899L581.5 294.893L580.5 294.893L580.5 296.899L581.5 296.899ZM581.5 292.886L581.5 290.88L580.5 290.88L580.5 292.886L581.5 292.886ZM581.5 288.873L581.5 286.867L580.5 286.867L580.5 288.873L581.5 288.873ZM581.5 284.86L581.5 282.854L580.5 282.854L580.5 284.86L581.5 284.86ZM581.5 280.847L581.5 278.841L580.5 278.841L580.5 280.847L581.5 280.847ZM581.5 276.834L581.5 274.828L580.5 274.828L580.5 276.834L581.5 276.834ZM581.5 272.821L581.5 270.815L580.5 270.815L580.5 272.821L581.5 272.821ZM581.5 268.808L581.5 266.802L580.5 266.802L580.5 268.808L581.5 268.808ZM581.5 264.795L581.5 262.789L580.5 262.789L580.5 264.795L581.5 264.795ZM581.5 260.782L581.5 258.776L580.5 258.776L580.5 260.782L581.5 260.782ZM581.5 256.77L581.5 254.763L580.5 254.763L580.5 256.77L581.5 256.77ZM581.5 252.757L581.5 250.75L580.5 250.75L580.5 252.757L581.5 252.757ZM581.5 248.744L581.5 246.737L580.5 246.737L580.5 248.744L581.5 248.744ZM581.5 244.731L581.5 242.724L580.5 242.724L580.5 244.731L581.5 244.731ZM581.5 240.718L581.5 238.711L580.5 238.711L580.5 240.718L581.5 240.718ZM581.5 236.705L581.5 234.698L580.5 234.698L580.5 236.705L581.5 236.705ZM581.5 232.692L581.5 230.685L580.5 230.685L580.5 232.692L581.5 232.692ZM581.5 228.679L581.5 226.672L580.5 226.672L580.5 228.679L581.5 228.679ZM581.5 224.666L581.5 222.659L580.5 222.659L580.5 224.666L581.5 224.666ZM581.5 220.653L581.5 218.646L580.5 218.646L580.5 220.653L581.5 220.653ZM581.5 216.64L581.5 214.633L580.5 214.633L580.5 216.64L581.5 216.64ZM581.5 212.627L581.5 210.62L580.5 210.62L580.5 212.627L581.5 212.627ZM581.5 208.614L581.5 206.607L580.5 206.607L580.5 208.614L581.5 208.614ZM581.5 204.601L581.5 202.594L580.5 202.594L580.5 204.601L581.5 204.601ZM581.5 200.588L581.5 198.581L580.5 198.581L580.5 200.588L581.5 200.588ZM581.5 196.575L581.5 194.568L580.5 194.568L580.5 196.575L581.5 196.575ZM581.5 192.562L581.5 190.555L580.5 190.555L580.5 192.562L581.5 192.562ZM581.5 188.549L581.5 186.542L580.5 186.542L580.5 188.549L581.5 188.549ZM581.5 184.536L581.5 182.529L580.5 182.529L580.5 184.536L581.5 184.536ZM581.5 180.523L581.5 178.516L580.5 178.516L580.5 180.523L581.5 180.523ZM581.5 176.51L581.5 174.503L580.5 174.503L580.5 176.51L581.5 176.51ZM581.5 172.497L581.5 170.49L580.5 170.49L580.5 172.497L581.5 172.497ZM581.5 168.484L581.5 166.477L580.5 166.477L580.5 168.484L581.5 168.484ZM581.5 164.471L581.5 162.464L580.5 162.464L580.5 164.471L581.5 164.471ZM581.5 160.458L581.5 158.451L580.5 158.451L580.5 160.458L581.5 160.458ZM581.5 156.445L581.5 154.438L580.5 154.438L580.5 156.445L581.5 156.445ZM581.5 152.432L581.5 150.425L580.5 150.425L580.5 152.432L581.5 152.432ZM581.5 148.419L581.5 146.412L580.5 146.412L580.5 148.419L581.5 148.419ZM581.5 144.406L581.5 142.399L580.5 142.399L580.5 144.406L581.5 144.406ZM581.5 140.393L581.5 138.386L580.5 138.386L580.5 140.393L581.5 140.393ZM581.5 136.38L581.5 134.373L580.5 134.373L580.5 136.38L581.5 136.38ZM581.5 132.367L581.5 130.36L580.5 130.36L580.5 132.367L581.5 132.367ZM581.5 128.354L581.5 126.347L580.5 126.347L580.5 128.354L581.5 128.354ZM581.5 124.341L581.5 122.334L580.5 122.334L580.5 124.341L581.5 124.341ZM581.5 120.328L581.5 118.321L580.5 118.321L580.5 120.328L581.5 120.328ZM581.5 116.315L581.5 114.308L580.5 114.308L580.5 116.315L581.5 116.315ZM581.5 112.302L581.5 110.295L580.5 110.295L580.5 112.302L581.5 112.302ZM581.5 108.289L581.5 106.282L580.5 106.282L580.5 108.289L581.5 108.289ZM581.5 104.276L581.5 102.269L580.5 102.269L580.5 104.276L581.5 104.276ZM581.5 100.263L581.5 98.2562L580.5 98.2562L580.5 100.263L581.5 100.263ZM581.5 96.2497L581.5 94.2432L580.5 94.2432L580.5 96.2497L581.5 96.2497ZM581.5 92.2367L581.5 90.2302L580.5 90.2302L580.5 92.2367L581.5 92.2367ZM581.5 88.2237L581.5 86.2172L580.5 86.2172L580.5 88.2237L581.5 88.2237ZM581.5 84.2107L581.5 82.2042L580.5 82.2042L580.5 84.2107L581.5 84.2107ZM581.5 80.1977L581.5 78.1912L580.5 78.1912L580.5 80.1977L581.5 80.1977ZM581.5 76.1847L581.5 74.1782L580.5 74.1782L580.5 76.1847L581.5 76.1847ZM581.5 72.1717L581.5 70.1652L580.5 70.1652L580.5 72.1717L581.5 72.1717ZM581.5 68.1587L581.5 66.1522L580.5 66.1522L580.5 68.1587L581.5 68.1587ZM581.5 64.1457L581.5 62.1392L580.5 62.1392L580.5 64.1457L581.5 64.1457ZM581.5 60.1327L581.5 58.1262L580.5 58.1262L580.5 60.1327L581.5 60.1327ZM581.5 56.1197L581.5 54.1132L580.5 54.1132L580.5 56.1197L581.5 56.1197ZM581.5 52.1067L581.5 50.1002L580.5 50.1002L580.5 52.1067L581.5 52.1067ZM581.5 48.0937L581.5 46.0872L580.5 46.0872L580.5 48.0937L581.5 48.0937ZM581.5 44.0807L581.5 42.0742L580.5 42.0742L580.5 44.0807L581.5 44.0807ZM581.5 40.0677L581.5 38.0612L580.5 38.0612L580.5 40.0677L581.5 40.0677ZM581.5 36.0547L581.5 34.0482L580.5 34.0482L580.5 36.0547L581.5 36.0547ZM581.5 32.0417L581.5 30.0352L580.5 30.0352L580.5 32.0417L581.5 32.0417ZM581.5 28.0287L581.5 26.0222L580.5 26.0222L580.5 28.0287L581.5 28.0287ZM581.5 24.0157L581.5 22.0092L580.5 22.0092L580.5 24.0157L581.5 24.0157ZM581.5 20.0027L581.5 19L580.5 19L580.5 20.0027L581.5 20.0027Z" fill="#34BD94"/>
</g>
<defs>
<filter id="filter0_d_2335_3847" x="0" y="0" width="654" height="373" filterUnits="userSpaceOnUse" color-interpolation-filters="sRGB">
<feFlood flood-opacity="0" result="BackgroundImageFix"/>
<feColorMatrix in="SourceAlpha" type="matrix" values="0 0 0 0 0 0 0 0 0 0 0 0 0 0 0 0 0 0 127 0" result="hardAlpha"/>
<feOffset dy="4"/>
<feGaussianBlur stdDeviation="2"/>
<feComposite in2="hardAlpha" operator="out"/>
<feColorMatrix type="matrix" values="0 0 0 0 0 0 0 0 0 0 0 0 0 0 0 0 0 0 0.25 0"/>
<feBlend mode="normal" in2="BackgroundImageFix" result="effect1_dropShadow_2335_3847"/>
<feBlend mode="normal" in="SourceGraphic" in2="effect1_dropShadow_2335_3847" result="shape"/>
</filter>
<linearGradient id="paint0_linear_2335_3847" x1="623.134" y1="97.5471" x2="51.4349" y2="320.714" gradientUnits="userSpaceOnUse">
<stop stop-color="#4328E7"/>
<stop offset="1" stop-color="#4328E7"/>
</linearGradient>
<linearGradient id="paint1_linear_2335_3847" x1="39.8853" y1="323.796" x2="544.402" y2="43.8035" gradientUnits="userSpaceOnUse">
<stop stop-color="#A495F9"/>
<stop offset="1" stop-color="#B4A8FF"/>
</linearGradient>
<linearGradient id="paint2_linear_2335_3847" x1="628.876" y1="101.322" x2="92.6443" y2="489.903" gradientUnits="userSpaceOnUse">
<stop stop-color="#C11F1F"/>
<stop offset="1" stop-color="#FF0000"/>
</linearGradient>
</defs>
</svg>
