<svg width="551" height="482" viewBox="0 0 551 482" fill="none" xmlns="http://www.w3.org/2000/svg">
<g clip-path="url(#clip0_2337_1069)">
<path d="M538.381 200.591C528.127 153.594 503.344 111.042 467.518 78.9169C431.691 46.7917 386.623 26.7095 338.65 21.4938L331.02 88.87C364.871 92.5503 396.672 106.721 421.952 129.389C447.232 152.058 464.72 182.084 471.956 215.246L538.381 200.591Z" fill="#FFD6D8"/>
<path d="M151.465 105.022C133.676 122.778 119.58 143.872 109.983 167.102C100.387 190.331 95.4766 215.24 95.5336 240.407C95.5907 265.574 100.614 290.506 110.316 313.779C120.018 337.051 134.209 358.21 152.079 376.046C169.95 393.882 191.149 408.046 214.466 417.729C237.784 427.413 262.764 432.426 287.979 432.483C313.194 432.54 338.151 427.64 361.425 418.061C384.699 408.483 405.834 394.414 423.624 376.659L420.854 373.894C403.426 391.288 382.721 405.07 359.921 414.454C337.121 423.837 312.672 428.638 287.97 428.582C263.268 428.526 238.797 423.615 215.954 414.129C193.111 404.642 172.343 390.767 154.837 373.294C137.331 355.821 123.428 335.093 113.923 312.294C104.419 289.495 99.498 265.07 99.4421 240.416C99.3863 215.761 104.196 191.359 113.598 168.603C122.999 145.846 136.808 125.181 154.235 107.787L151.465 105.022Z" fill="#D4BBFF"/>
<path d="M533.229 131.516C512.509 88.1208 478.643 52.3453 436.392 29.2196C394.142 6.09391 345.633 -3.21877 297.685 2.59095L301.34 33.5643C342.79 28.5419 384.726 36.5925 421.25 56.5842C457.775 76.5759 487.051 107.503 504.964 145.017L533.229 131.516Z" fill="#2B145C"/>
<path d="M382.241 20.9141H118.12V231.426H382.241V20.9141Z" fill="white" stroke="#001141" stroke-width="0.75" stroke-linejoin="round"/>
<path d="M381.641 149.609H117.988V206.815H381.641V149.609Z" fill="white" stroke="#001141" stroke-width="0.75" stroke-linejoin="round"/>
<path d="M194.791 196.517C197.956 196.517 200.522 193.7 200.522 190.224C200.522 186.749 197.956 183.932 194.791 183.932C191.625 183.932 189.059 186.749 189.059 190.224C189.059 193.7 191.625 196.517 194.791 196.517Z" fill="white" stroke="#001141" stroke-width="0.75" stroke-linejoin="round"/>
<path d="M212.559 196.517C216.041 196.517 218.863 193.7 218.863 190.224C218.863 186.749 216.041 183.932 212.559 183.932C209.077 183.932 206.254 186.749 206.254 190.224C206.254 193.7 209.077 196.517 212.559 196.517Z" fill="white" stroke="#001141" stroke-width="0.75" stroke-linejoin="round"/>
<path d="M229.754 196.517C233.236 196.517 236.059 193.7 236.059 190.224C236.059 186.749 233.236 183.932 229.754 183.932C226.272 183.932 223.449 186.749 223.449 190.224C223.449 193.7 226.272 196.517 229.754 196.517Z" fill="white" stroke="#001141" stroke-width="0.75" stroke-linejoin="round"/>
<path d="M247.521 196.517C250.687 196.517 253.253 193.7 253.253 190.224C253.253 186.749 250.687 183.932 247.521 183.932C244.356 183.932 241.79 186.749 241.79 190.224C241.79 193.7 244.356 196.517 247.521 196.517Z" fill="#78A9FF" stroke="#001141" stroke-width="0.75" stroke-linejoin="round"/>
<path d="M282.484 196.517C285.966 196.517 288.789 193.7 288.789 190.224C288.789 186.749 285.966 183.932 282.484 183.932C279.002 183.932 276.179 186.749 276.179 190.224C276.179 193.7 279.002 196.517 282.484 196.517Z" fill="#FFD6D8" stroke="#001141" stroke-width="0.75" stroke-linejoin="round"/>
<path d="M300.252 196.517C303.417 196.517 305.983 193.7 305.983 190.224C305.983 186.749 303.417 183.932 300.252 183.932C297.086 183.932 294.52 186.749 294.52 190.224C294.52 193.7 297.086 196.517 300.252 196.517Z" fill="white" stroke="#001141" stroke-width="0.75" stroke-linejoin="round"/>
<path d="M265.29 196.517C268.772 196.517 271.595 193.7 271.595 190.224C271.595 186.749 268.772 183.932 265.29 183.932C261.808 183.932 258.985 186.749 258.985 190.224C258.985 193.7 261.808 196.517 265.29 196.517Z" fill="white" stroke="#001141" stroke-width="0.75" stroke-linejoin="round"/>
<path d="M382.24 20.9141H319.479V31.3743H382.24V20.9141Z" fill="white" stroke="#001141" stroke-width="0.75" stroke-linejoin="round"/>
<path d="M294.52 31.7656H206.254V91.26H294.52V31.7656Z" fill="white" stroke="#001141" stroke-width="0.75" stroke-linejoin="round"/>
<path d="M250.699 74.1964C258.929 74.1964 265.601 67.5373 265.601 59.3228C265.601 51.1084 258.929 44.4492 250.699 44.4492C242.468 44.4492 235.796 51.1084 235.796 59.3228C235.796 67.5373 242.468 74.1964 250.699 74.1964Z" fill="white" stroke="#001141" stroke-width="0.75" stroke-linejoin="round"/>
<path d="M245.561 62.6045V57.5136H248.634V58.0605H246.178V59.7806H248.474V60.3275H246.178V62.0576H248.673V62.6045H245.561ZM250.669 62.6045L249.277 57.5136H249.904L250.968 61.6599H251.017L252.101 57.5136H252.797L253.881 61.6599H253.931L254.995 57.5136H255.621L254.229 62.6045H253.593L252.469 58.5477H252.429L251.306 62.6045H250.669Z" fill="#4589FF"/>
<path d="M294.52 85.5381H206.254V91.2587H294.52V85.5381Z" fill="white" stroke="#001141" stroke-width="0.75" stroke-linejoin="round"/>
<path d="M117.988 31.7656H206.24L206.254 91.26L117.988 91.2451V31.7656Z" fill="white" stroke="#001141" stroke-width="0.75" stroke-linejoin="round"/>
<path d="M161.787 74.1964C170.017 74.1964 176.689 67.5373 176.689 59.3228C176.689 51.1084 170.017 44.4492 161.787 44.4492C153.557 44.4492 146.885 51.1084 146.885 59.3228C146.885 67.5373 153.557 74.1964 161.787 74.1964Z" fill="white" stroke="#001141" stroke-width="0.75" stroke-linejoin="round"/>
<path d="M161.122 57.7863C161.092 57.5344 160.971 57.3389 160.759 57.1997C160.547 57.0605 160.287 56.9909 159.978 56.9909C159.753 56.9909 159.556 57.0273 159.387 57.1002C159.219 57.1731 159.088 57.2734 158.994 57.401C158.901 57.5286 158.855 57.6736 158.855 57.836C158.855 57.9719 158.887 58.0887 158.952 58.1865C159.018 58.2826 159.103 58.363 159.205 58.4276C159.308 58.4906 159.416 58.5428 159.528 58.5843C159.641 58.624 159.745 58.6563 159.839 58.6812L160.356 58.8204C160.489 58.8552 160.636 58.9033 160.799 58.9646C160.963 59.0259 161.119 59.1096 161.269 59.2156C161.419 59.32 161.544 59.4543 161.641 59.6183C161.739 59.7824 161.788 59.9838 161.788 60.2224C161.788 60.4975 161.716 60.7461 161.572 60.9681C161.429 61.1902 161.22 61.3667 160.945 61.4976C160.672 61.6285 160.34 61.694 159.949 61.694C159.584 61.694 159.268 61.6352 159.001 61.5175C158.736 61.3998 158.528 61.2358 158.375 61.0253C158.224 60.8148 158.139 60.5704 158.119 60.292H158.755C158.772 60.4842 158.837 60.6433 158.949 60.7693C159.064 60.8936 159.208 60.9864 159.382 61.0477C159.557 61.1073 159.746 61.1372 159.949 61.1372C160.184 61.1372 160.395 61.099 160.582 61.0228C160.77 60.9449 160.918 60.8372 161.027 60.6997C161.137 60.5605 161.191 60.3981 161.191 60.2124C161.191 60.0434 161.144 59.9059 161.05 59.7998C160.955 59.6937 160.831 59.6076 160.677 59.5413C160.523 59.475 160.356 59.417 160.177 59.3673L159.551 59.1883C159.153 59.074 158.838 58.9107 158.606 58.6986C158.374 58.4865 158.258 58.2089 158.258 57.8659C158.258 57.5808 158.335 57.3322 158.489 57.1201C158.645 56.9063 158.854 56.7406 159.116 56.623C159.379 56.5036 159.673 56.444 159.998 56.444C160.326 56.444 160.618 56.5028 160.873 56.6205C161.128 56.7365 161.331 56.8956 161.48 57.0977C161.631 57.2999 161.71 57.5294 161.718 57.7863H161.122ZM162.802 61.6045V56.5136H163.418V61.0576H165.785V61.6045H162.802Z" fill="#EE5396"/>
<path d="M206.254 85.5381H117.988V91.2587H206.254V85.5381Z" fill="white" stroke="#001141" stroke-width="0.75" stroke-linejoin="round"/>
<path d="M294.52 31.7656H381.64V91.2303L294.578 91.26L294.52 31.7656Z" fill="white" stroke="#001141" stroke-width="0.75" stroke-linejoin="round"/>
<path d="M336.996 74.1964C345.227 74.1964 351.899 67.5373 351.899 59.3228C351.899 51.1084 345.227 44.4492 336.996 44.4492C328.766 44.4492 322.094 51.1084 322.094 59.3228C322.094 67.5373 328.766 74.1964 336.996 74.1964Z" fill="white" stroke="#001141" stroke-width="0.75" stroke-linejoin="round"/>
<path d="M332.763 61.2949V56.204H333.379V60.748H335.746V61.2949H332.763ZM336.7 56.204H337.436L339.166 60.4299H339.226L340.956 56.204H341.692V61.2949H341.115V57.427H341.065L339.474 61.2949H338.918L337.327 57.427H337.277V61.2949H336.7V56.204Z" fill="#24A148"/>
<path d="M381.64 85.5381H294.52V91.2587H381.64V85.5381Z" fill="white" stroke="#001141" stroke-width="0.75" stroke-linejoin="round"/>
<path d="M206.254 91.2607H294.52L294.462 149.611H206.254V91.2607Z" fill="white" stroke="#001141" stroke-width="0.75" stroke-linejoin="round"/>
<path d="M250.699 130.749C258.929 130.749 265.601 124.602 265.601 117.02C265.601 109.437 258.929 103.29 250.699 103.29C242.468 103.29 235.796 109.437 235.796 117.02C235.796 124.602 242.468 130.749 250.699 130.749Z" fill="white" stroke="#001141" stroke-width="0.75" stroke-linejoin="round"/>
<path d="M251.072 116.941H250.456C250.419 116.764 250.356 116.608 250.264 116.474C250.175 116.34 250.066 116.227 249.936 116.136C249.809 116.043 249.667 115.974 249.511 115.927C249.355 115.881 249.193 115.858 249.024 115.858C248.716 115.858 248.437 115.935 248.186 116.091C247.938 116.247 247.74 116.477 247.592 116.78C247.446 117.083 247.373 117.455 247.373 117.896C247.373 118.337 247.446 118.709 247.592 119.012C247.74 119.315 247.938 119.545 248.186 119.701C248.437 119.856 248.716 119.934 249.024 119.934C249.193 119.934 249.355 119.911 249.511 119.865C249.667 119.818 249.809 119.75 249.936 119.658C250.066 119.566 250.175 119.452 250.264 119.318C250.356 119.182 250.419 119.026 250.456 118.85H251.072C251.026 119.111 250.941 119.344 250.819 119.549C250.696 119.754 250.544 119.929 250.361 120.074C250.179 120.216 249.974 120.325 249.747 120.399C249.522 120.474 249.281 120.511 249.024 120.511C248.59 120.511 248.204 120.405 247.866 120.193C247.528 119.981 247.262 119.679 247.068 119.288C246.874 118.897 246.777 118.433 246.777 117.896C246.777 117.359 246.874 116.895 247.068 116.504C247.262 116.113 247.528 115.811 247.866 115.599C248.204 115.387 248.59 115.281 249.024 115.281C249.281 115.281 249.522 115.318 249.747 115.393C249.974 115.467 250.179 115.577 250.361 115.721C250.544 115.863 250.696 116.037 250.819 116.243C250.941 116.447 251.026 116.68 251.072 116.941ZM251.899 120.441V119.994L254.644 115.897H251.87V115.35H255.38V115.798L252.635 119.895H255.409V120.441H251.899Z" fill="#EE5396"/>
<path d="M294.52 142.745H206.254V149.61H294.52V142.745Z" fill="white" stroke="#001141" stroke-width="0.75" stroke-linejoin="round"/>
<path d="M206.254 91.2607H117.988V149.611H206.254V91.2607Z" fill="white" stroke="#001141" stroke-width="0.75" stroke-linejoin="round"/>
<path d="M161.787 130.749C170.017 130.749 176.689 124.602 176.689 117.02C176.689 109.437 170.017 103.29 161.787 103.29C153.557 103.29 146.885 109.437 146.885 117.02C146.885 124.602 153.557 130.749 161.787 130.749Z" fill="white" stroke="#001141" stroke-width="0.75" stroke-linejoin="round"/>
<path d="M157.327 120.441V115.35H160.4V115.897H157.944V117.618H160.241V118.164H157.944V119.895H160.44V120.441H157.327ZM164.295 116.623C164.265 116.371 164.144 116.176 163.932 116.037C163.72 115.897 163.46 115.828 163.152 115.828C162.926 115.828 162.729 115.864 162.56 115.937C162.393 116.01 162.262 116.11 162.167 116.238C162.075 116.366 162.028 116.511 162.028 116.673C162.028 116.809 162.06 116.926 162.125 117.023C162.191 117.12 162.276 117.2 162.379 117.265C162.481 117.328 162.589 117.38 162.702 117.421C162.814 117.461 162.918 117.493 163.012 117.518L163.53 117.657C163.662 117.692 163.81 117.74 163.972 117.801C164.136 117.863 164.293 117.946 164.442 118.053C164.593 118.157 164.717 118.291 164.815 118.455C164.912 118.619 164.961 118.821 164.961 119.059C164.961 119.334 164.889 119.583 164.745 119.805C164.603 120.027 164.394 120.204 164.119 120.335C163.845 120.465 163.513 120.531 163.122 120.531C162.757 120.531 162.442 120.472 162.175 120.354C161.91 120.237 161.701 120.073 161.548 119.862C161.398 119.652 161.312 119.407 161.292 119.129H161.929C161.945 119.321 162.01 119.48 162.123 119.606C162.237 119.73 162.381 119.823 162.555 119.885C162.731 119.944 162.92 119.974 163.122 119.974C163.357 119.974 163.568 119.936 163.756 119.86C163.943 119.782 164.091 119.674 164.201 119.537C164.31 119.397 164.365 119.235 164.365 119.049C164.365 118.88 164.318 118.743 164.223 118.637C164.129 118.531 164.004 118.444 163.85 118.378C163.696 118.312 163.53 118.254 163.351 118.204L162.724 118.025C162.326 117.911 162.012 117.748 161.78 117.536C161.548 117.323 161.432 117.046 161.432 116.703C161.432 116.418 161.509 116.169 161.663 115.957C161.818 115.743 162.027 115.578 162.289 115.46C162.553 115.341 162.847 115.281 163.172 115.281C163.5 115.281 163.791 115.34 164.047 115.457C164.302 115.573 164.504 115.732 164.653 115.935C164.804 116.137 164.883 116.366 164.892 116.623H164.295Z" fill="#24A148"/>
<path d="M206.254 142.745H117.988V149.61H206.254V142.745Z" fill="white" stroke="#001141" stroke-width="0.75" stroke-linejoin="round"/>
<path d="M381.64 91.2607H294.52V149.611H381.64V91.2607Z" fill="white" stroke="#001141" stroke-width="0.75" stroke-linejoin="round"/>
<path d="M536 112H412V195H536V112Z" fill="white" stroke="#001141" stroke-width="0.75" stroke-linejoin="round"/>
<path d="M336.996 130.749C345.227 130.749 351.899 124.602 351.899 117.02C351.899 109.437 345.227 103.29 336.996 103.29C328.766 103.29 322.094 109.437 322.094 117.02C322.094 124.602 328.766 130.749 336.996 130.749Z" fill="white" stroke="#001141" stroke-width="0.75" stroke-linejoin="round"/>
<path d="M472 168C483.598 168 493 159.27 493 148.5C493 137.73 483.598 129 472 129C460.402 129 451 137.73 451 148.5C451 159.27 460.402 168 472 168Z" fill="white" stroke="#001141" stroke-width="0.75" stroke-linejoin="round"/>
<path d="M333.269 120.441V115.35H334.989C335.389 115.35 335.715 115.423 335.969 115.567C336.224 115.709 336.413 115.902 336.536 116.146C336.658 116.39 336.719 116.661 336.719 116.961C336.719 117.261 336.658 117.534 336.536 117.779C336.415 118.024 336.227 118.22 335.974 118.366C335.72 118.51 335.395 118.582 334.999 118.582H333.766V118.035H334.979C335.253 118.035 335.472 117.988 335.638 117.893C335.804 117.799 335.924 117.671 335.999 117.511C336.075 117.348 336.113 117.165 336.113 116.961C336.113 116.757 336.075 116.575 335.999 116.414C335.924 116.254 335.803 116.128 335.636 116.037C335.468 115.944 335.246 115.897 334.969 115.897H333.886V120.441H333.269ZM339.284 120.441H337.713V115.35H339.353C339.847 115.35 340.27 115.452 340.621 115.656C340.972 115.858 341.242 116.149 341.429 116.529C341.616 116.907 341.71 117.359 341.71 117.886C341.71 118.416 341.615 118.873 341.426 119.256C341.237 119.637 340.962 119.93 340.601 120.136C340.24 120.339 339.801 120.441 339.284 120.441ZM338.329 119.895H339.244C339.665 119.895 340.014 119.813 340.29 119.651C340.567 119.489 340.773 119.257 340.909 118.957C341.045 118.657 341.113 118.3 341.113 117.886C341.113 117.475 341.046 117.121 340.912 116.825C340.778 116.526 340.577 116.298 340.31 116.138C340.043 115.978 339.711 115.897 339.313 115.897H338.329V119.895Z" fill="#4589FF"/>
<path d="M468.379 152V146.909H470.099C470.499 146.909 470.825 146.981 471.079 147.125C471.334 147.268 471.523 147.461 471.646 147.705C471.768 147.948 471.829 148.22 471.829 148.52C471.829 148.82 471.768 149.092 471.646 149.338C471.525 149.583 471.337 149.779 471.084 149.924C470.83 150.069 470.505 150.141 470.109 150.141H468.876V149.594H470.089C470.363 149.594 470.582 149.547 470.748 149.452C470.914 149.358 471.034 149.23 471.109 149.069C471.185 148.907 471.223 148.724 471.223 148.52C471.223 148.316 471.185 148.134 471.109 147.973C471.034 147.812 470.913 147.686 470.746 147.595C470.578 147.502 470.356 147.456 470.079 147.456H468.996V152H468.379ZM474.394 152H472.823V146.909H474.463C474.957 146.909 475.38 147.011 475.731 147.215C476.082 147.417 476.352 147.708 476.539 148.087C476.726 148.465 476.82 148.918 476.82 149.445C476.82 149.975 476.725 150.431 476.536 150.814C476.347 151.195 476.072 151.489 475.711 151.694C475.35 151.898 474.911 152 474.394 152ZM473.439 151.453H474.354C474.775 151.453 475.124 151.372 475.4 151.21C475.677 151.047 475.883 150.816 476.019 150.516C476.155 150.216 476.223 149.859 476.223 149.445C476.223 149.034 476.156 148.68 476.022 148.383C475.888 148.085 475.687 147.856 475.42 147.697C475.153 147.536 474.821 147.456 474.423 147.456H473.439V151.453Z" fill="#4589FF"/>
<path d="M381.64 142.745H294.52V149.61H381.64V142.745Z" fill="white" stroke="#001141" stroke-width="0.75" stroke-linejoin="round"/>
<path d="M536 185H412V195H536V185Z" fill="white" stroke="#001141" stroke-width="0.75" stroke-linejoin="round"/>
<path d="M122.596 9.14648H377.764C380.237 9.14648 382.241 11.7795 382.241 15.0304V20.9143H118.12V15.0304C118.12 11.7795 120.123 9.14648 122.596 9.14648Z" fill="white" stroke="#001141" stroke-width="0.75" stroke-linejoin="round"/>
<path d="M130.023 18.036C131.606 18.036 132.889 16.7554 132.889 15.1757C132.889 13.596 131.606 12.3154 130.023 12.3154C128.44 12.3154 127.157 13.596 127.157 15.1757C127.157 16.7554 128.44 18.036 130.023 18.036Z" fill="white" stroke="#001141" stroke-width="0.75" stroke-linejoin="round"/>
<path d="M139.195 18.036C140.778 18.036 142.061 16.7554 142.061 15.1757C142.061 13.596 140.778 12.3154 139.195 12.3154C137.612 12.3154 136.329 13.596 136.329 15.1757C136.329 16.7554 137.612 18.036 139.195 18.036Z" fill="white" stroke="#001141" stroke-width="0.75" stroke-linejoin="round"/>
<path d="M148.365 18.036C149.948 18.036 151.231 16.7554 151.231 15.1757C151.231 13.596 149.948 12.3154 148.365 12.3154C146.782 12.3154 145.499 13.596 145.499 15.1757C145.499 16.7554 146.782 18.036 148.365 18.036Z" fill="white" stroke="#001141" stroke-width="0.75" stroke-linejoin="round"/>
<path d="M328.631 27.4531H363.935" stroke="#001141" stroke-width="0.75" stroke-linejoin="round"/>
<path d="M300.252 87.8252H334.642" stroke="#001141" stroke-width="0.75" stroke-linejoin="round"/>
<path d="M211.986 87.8252H247.522" stroke="#001141" stroke-width="0.75" stroke-linejoin="round"/>
<path d="M123.719 87.8252H159.255" stroke="#001141" stroke-width="0.75" stroke-linejoin="round"/>
<path d="M300.252 146.178H334.642" stroke="#001141" stroke-width="0.75" stroke-linejoin="round"/>
<path d="M211.986 146.178H247.522" stroke="#001141" stroke-width="0.75" stroke-linejoin="round"/>
<path d="M123.719 146.178H159.255" stroke="#001141" stroke-width="0.75" stroke-linejoin="round"/>
<path d="M541 301H206V475H541V301Z" fill="white" stroke="#001141" stroke-width="0.75" stroke-linejoin="round"/>
<path d="M162.338 247H523.616C527.117 247 529.954 249.65 529.954 252.922V258.845H156V252.922C156 249.65 158.837 247 162.338 247Z" fill="white"/>
<path d="M185.1 255.559C186.809 255.559 188.195 254.176 188.195 252.47C188.195 250.763 186.809 249.38 185.1 249.38C183.39 249.38 182.004 250.763 182.004 252.47C182.004 254.176 183.39 255.559 185.1 255.559Z" fill="white"/>
<path d="M165.288 255.559C166.997 255.559 168.383 254.176 168.383 252.47C168.383 250.763 166.997 249.38 165.288 249.38C163.578 249.38 162.192 250.763 162.192 252.47C162.192 254.176 163.578 255.559 165.288 255.559Z" fill="white"/>
<path d="M175.193 255.559C176.902 255.559 178.288 254.176 178.288 252.47C178.288 250.763 176.902 249.38 175.193 249.38C173.483 249.38 172.097 250.763 172.097 252.47C172.097 254.176 173.483 255.559 175.193 255.559Z" fill="white"/>
<path d="M529.954 259.266H156V272.861H529.954V259.266Z" fill="white"/>
<path d="M529.953 272.86H169.62V285.219H529.953V272.86Z" fill="white"/>
<path d="M529.953 285.219H169.62V468.13H529.953V285.219Z" fill="white"/>
<path d="M169.62 272.86L156 272.861V468.13L169.62 468.13V272.86Z" fill="white"/>
<path d="M162.191 464.425C163.559 464.425 164.668 463.041 164.668 461.335C164.668 459.628 163.559 458.245 162.191 458.245C160.823 458.245 159.715 459.628 159.715 461.335C159.715 463.041 160.823 464.425 162.191 464.425Z" fill="white"/>
<path d="M164.668 275.335H159.715V281.514H164.668V275.335Z" fill="white"/>
<path d="M164.668 287.693H159.715V293.872H164.668V287.693Z" fill="white"/>
<path d="M164.668 300.051H159.715V307.467H164.668V300.051Z" fill="white"/>
<path d="M231.534 309.938H220.39V323.532H231.534V309.938Z" fill="#D4BBFF"/>
<path d="M251.347 309.938H238.964V323.532H251.347V309.938Z" fill="#D4BBFF"/>
<path d="M271.158 309.938H257.537V323.532H271.158V309.938Z" fill="#D4BBFF"/>
<path d="M289.732 309.938H277.35V323.532H289.732V309.938Z" fill="#D4BBFF"/>
<path d="M307.067 309.938H295.923V323.532H307.067V309.938Z" fill="#D4BBFF"/>
<path d="M364.026 353.194H351.644V366.789H364.026V353.194Z" fill="#78A9FF"/>
<path d="M383.84 353.194H370.22V366.789H383.84V353.194Z" fill="#78A9FF"/>
<path d="M402.413 353.194H390.03V366.789H402.413V353.194Z" fill="#78A9FF"/>
<path d="M420.988 353.194H409.843V366.789H420.988V353.194Z" fill="#78A9FF"/>
<path d="M440.799 353.194H428.417V366.789H440.799V353.194Z" fill="#78A9FF"/>
<path d="M364.026 372.967H351.644V385.326H364.026V372.967Z" fill="#FFD6D8"/>
<path d="M383.84 372.967H370.22V385.326H383.84V372.967Z" fill="#FFD6D8"/>
<path d="M402.413 372.967H390.03V385.326H402.413V372.967Z" fill="#FFD6D8"/>
<path d="M364.026 391.506H351.644V405.101H364.026V391.506Z" fill="#FFD6D8"/>
<path d="M383.84 391.506H370.22V405.101H383.84V391.506Z" fill="#FFD6D8"/>
<path d="M364.026 410.045H351.644V423.639H364.026V410.045Z" fill="#FFD6D8"/>
<path d="M383.84 410.045H370.22V423.639H383.84V410.045Z" fill="#FFD6D8"/>
<path d="M402.413 391.506H390.03V405.101H402.413V391.506Z" fill="#FFD6D8"/>
<path d="M420.988 372.967H409.843V385.326H420.988V372.967Z" fill="#FFD6D8"/>
<path d="M440.799 372.967H428.417V385.326H440.799V372.967Z" fill="#FFD6D8"/>
<path d="M164.667 313.644H158.476V318.587H164.667V313.644Z" fill="white"/>
<path d="M320.688 334.656H220.39V448.357H320.688V334.656Z" fill="white"/>
<path d="M238.965 359.375H226.582V372.969H238.965V359.375Z" fill="#78A9FF"/>
<path d="M263.729 391.506H251.346V405.101H263.729V391.506Z" fill="#78A9FF"/>
<path d="M263.729 410.045H251.346V423.639H263.729V410.045Z" fill="#78A9FF"/>
<path d="M245.155 366.789H231.534V379.148H245.155V366.789Z" fill="#78A9FF"/>
<path d="M263.729 366.789H251.346V379.148H263.729V366.789Z" fill="#D4BBFF"/>
<path d="M313.258 353.194H302.114V366.789H313.258V353.194Z" fill="#D4BBFF"/>
<path d="M289.732 417.462H277.35V429.82H289.732V417.462Z" fill="#D4BBFF"/>
<path d="M302.115 398.922H289.732V410.045H302.115V398.922Z" fill="#D4BBFF"/>
<path d="M238.965 391.506H226.582V405.101H238.965V391.506Z" fill="#D4BBFF"/>
<path d="M245.155 417.462H231.534V429.82H245.155V417.462Z" fill="#D4BBFF"/>
<path d="M257.537 340.835H245.155V353.194H257.537V340.835Z" fill="#FFD6D8"/>
<path d="M263.729 348.25H251.346V359.373H263.729V348.25Z" fill="#FFD6D8"/>
<path d="M156 272.861H529.954V259.266H156V272.861ZM156 272.861L169.62 272.86M156 272.861V468.13L169.62 468.13M169.62 272.86H529.953V285.219M169.62 272.86V285.219M169.62 272.86V468.13M529.953 285.219H169.62M529.953 285.219V468.13H169.62M169.62 285.219V468.13M271.158 340.835V437.234M313.26 385.326H226.582M174.574 279.039H226.581M517.571 279.039H491.567M485.377 279.039H460.612M162.338 247H523.616C527.117 247 529.954 249.65 529.954 252.922V258.845H156V252.922C156 249.65 158.837 247 162.338 247ZM188.195 252.47C188.195 254.176 186.809 255.559 185.1 255.559C183.39 255.559 182.004 254.176 182.004 252.47C182.004 250.763 183.39 249.38 185.1 249.38C186.809 249.38 188.195 250.763 188.195 252.47ZM168.383 252.47C168.383 254.176 166.997 255.559 165.288 255.559C163.578 255.559 162.192 254.176 162.192 252.47C162.192 250.763 163.578 249.38 165.288 249.38C166.997 249.38 168.383 250.763 168.383 252.47ZM178.288 252.47C178.288 254.176 176.902 255.559 175.193 255.559C173.483 255.559 172.097 254.176 172.097 252.47C172.097 250.763 173.483 249.38 175.193 249.38C176.902 249.38 178.288 250.763 178.288 252.47ZM164.668 461.335C164.668 463.041 163.559 464.425 162.191 464.425C160.823 464.425 159.715 463.041 159.715 461.335C159.715 459.628 160.823 458.245 162.191 458.245C163.559 458.245 164.668 459.628 164.668 461.335ZM159.715 275.335H164.668V281.514H159.715V275.335ZM159.715 287.693H164.668V293.872H159.715V287.693ZM159.715 300.051H164.668V307.467H159.715V300.051ZM220.39 309.938H231.534V323.532H220.39V309.938ZM238.964 309.938H251.347V323.532H238.964V309.938ZM257.537 309.938H271.158V323.532H257.537V309.938ZM277.35 309.938H289.732V323.532H277.35V309.938ZM295.923 309.938H307.067V323.532H295.923V309.938ZM351.644 353.194H364.026V366.789H351.644V353.194ZM370.22 353.194H383.84V366.789H370.22V353.194ZM390.03 353.194H402.413V366.789H390.03V353.194ZM409.843 353.194H420.988V366.789H409.843V353.194ZM428.417 353.194H440.799V366.789H428.417V353.194ZM351.644 372.967H364.026V385.326H351.644V372.967ZM370.22 372.967H383.84V385.326H370.22V372.967ZM390.03 372.967H402.413V385.326H390.03V372.967ZM351.644 391.506H364.026V405.101H351.644V391.506ZM370.22 391.506H383.84V405.101H370.22V391.506ZM351.644 410.045H364.026V423.639H351.644V410.045ZM370.22 410.045H383.84V423.639H370.22V410.045ZM390.03 391.506H402.413V405.101H390.03V391.506ZM409.843 372.967H420.988V385.326H409.843V372.967ZM428.417 372.967H440.799V385.326H428.417V372.967ZM158.476 313.644H164.667V318.587H158.476V313.644ZM428.417 429.821H479.185V461.954H428.417V429.821ZM220.39 334.656H320.688V448.357H220.39V334.656ZM226.582 359.375H238.965V372.969H226.582V359.375ZM251.346 391.506H263.729V405.101H251.346V391.506ZM251.346 410.045H263.729V423.639H251.346V410.045ZM231.534 366.789H245.155V379.148H231.534V366.789ZM251.346 366.789H263.729V379.148H251.346V366.789ZM302.114 353.194H313.258V366.789H302.114V353.194ZM277.35 417.462H289.732V429.82H277.35V417.462ZM289.732 398.922H302.115V410.045H289.732V398.922ZM226.582 391.506H238.965V405.101H226.582V391.506ZM231.534 417.462H245.155V429.82H231.534V417.462ZM245.155 340.835H257.537V353.194H245.155V340.835ZM251.346 348.25H263.729V359.373H251.346V348.25Z" stroke="#001141" stroke-width="0.75" stroke-linejoin="round"/>
</g>
<defs>
<clipPath id="clip0_2337_1069">
<rect width="551" height="482" fill="white"/>
</clipPath>
</defs>
</svg>
