<svg width="16" height="17" viewBox="0 0 16 17" fill="none" xmlns="http://www.w3.org/2000/svg">
<rect width="16" height="16" transform="translate(0 0.512695)" fill="white" fill-opacity="0.01" style="mix-blend-mode:multiply"/>
<path d="M13 11.5127C12.644 11.5145 12.2951 11.6122 11.99 11.7956L8.70705 8.5127L11.9905 5.22925C12.2953 5.41291 12.6441 5.51084 13 5.5127C13.3956 5.5127 13.7822 5.3954 14.1111 5.17564C14.44 4.95587 14.6964 4.64352 14.8478 4.27806C14.9991 3.91261 15.0387 3.51048 14.9616 3.12252C14.8844 2.73455 14.6939 2.37819 14.4142 2.09848C14.1345 1.81878 13.7781 1.6283 13.3902 1.55113C13.0022 1.47396 12.6001 1.51356 12.2346 1.66494C11.8692 1.81631 11.5568 2.07266 11.3371 2.40156C11.1173 2.73045 11 3.11713 11 3.5127C11.0018 3.86859 11.0998 4.21737 11.2835 4.5222L8 7.80565L4.71715 4.5227C4.90056 4.2176 4.99828 3.86868 5 3.5127C5 3.11713 4.8827 2.73045 4.66294 2.40156C4.44318 2.07266 4.13082 1.81631 3.76537 1.66494C3.39992 1.51356 2.99778 1.47396 2.60982 1.55113C2.22186 1.6283 1.86549 1.81878 1.58579 2.09848C1.30608 2.37819 1.1156 2.73455 1.03843 3.12252C0.96126 3.51048 1.00087 3.91261 1.15224 4.27806C1.30362 4.64352 1.55996 4.95587 1.88886 5.17564C2.21776 5.3954 2.60444 5.5127 3 5.5127C3.35599 5.51093 3.70491 5.41318 4.01 5.22975L7.29295 8.5127L4.0095 11.7961C3.70467 11.6125 3.35589 11.5145 3 11.5127C2.60444 11.5127 2.21776 11.63 1.88886 11.8498C1.55996 12.0695 1.30362 12.3819 1.15224 12.7473C1.00087 13.1128 0.96126 13.5149 1.03843 13.9029C1.1156 14.2908 1.30608 14.6472 1.58579 14.9269C1.86549 15.2066 2.22186 15.3971 2.60982 15.4743C2.99778 15.5514 3.39992 15.5118 3.76537 15.3605C4.13082 15.2091 4.44318 14.9527 4.66294 14.6238C4.8827 14.2949 5 13.9083 5 13.5127C4.99818 13.1568 4.90024 12.808 4.71655 12.5032L8 9.21975L11.2829 12.5027C11.0994 12.8078 11.0017 13.1567 11 13.5127C11 13.9083 11.1173 14.2949 11.3371 14.6238C11.5568 14.9527 11.8692 15.2091 12.2346 15.3605C12.6001 15.5118 13.0022 15.5514 13.3902 15.4743C13.7781 15.3971 14.1345 15.2066 14.4142 14.9269C14.6939 14.6472 14.8844 14.2908 14.9616 13.9029C15.0387 13.5149 14.9991 13.1128 14.8478 12.7473C14.6964 12.3819 14.44 12.0695 14.1111 11.8498C13.7822 11.63 13.3956 11.5127 13 11.5127ZM13 2.5127C13.1978 2.5127 13.3911 2.57135 13.5556 2.68123C13.72 2.79111 13.8482 2.94729 13.9239 3.13001C13.9996 3.31274 14.0194 3.51381 13.9808 3.70779C13.9422 3.90177 13.847 4.07995 13.7071 4.2198C13.5673 4.35966 13.3891 4.4549 13.1951 4.49348C13.0011 4.53207 12.8 4.51226 12.6173 4.43658C12.4346 4.36089 12.2784 4.23272 12.1685 4.06827C12.0587 3.90382 12 3.71048 12 3.5127C12.0003 3.24757 12.1058 2.9934 12.2932 2.80593C12.4807 2.61846 12.7349 2.513 13 2.5127ZM3 14.5127C2.80222 14.5127 2.60888 14.454 2.44443 14.3442C2.27998 14.2343 2.15181 14.0781 2.07612 13.8954C2.00043 13.7127 1.98063 13.5116 2.01922 13.3176C2.0578 13.1236 2.15304 12.9454 2.29289 12.8056C2.43275 12.6657 2.61093 12.5705 2.80491 12.5319C2.99889 12.4933 3.19996 12.5131 3.38268 12.5888C3.56541 12.6645 3.72159 12.7927 3.83147 12.9571C3.94135 13.1216 4 13.3149 4 13.5127C3.9997 13.7778 3.89424 14.032 3.70677 14.2195C3.5193 14.4069 3.26512 14.5124 3 14.5127Z" fill="#161616"/>
</svg>
