<svg width="16" height="17" viewBox="0 0 16 17" fill="none" xmlns="http://www.w3.org/2000/svg">
<g clip-path="url(#clip0_3209_177)">
<rect width="16" height="16" transform="translate(0 0.511719)" fill="white" fill-opacity="0.01" style="mix-blend-mode:multiply"/>
<path d="M14 8.51173H9V7.51173H11.5V5.51173C11.5 5.24651 11.6054 4.99216 11.7929 4.80462C11.9804 4.61709 12.2348 4.51173 12.5 4.51173H13.25C13.4368 4.51204 13.617 4.44263 13.7553 4.31709C13.8936 4.19155 13.9801 4.01892 13.9978 3.83297C14.0156 3.64702 13.9633 3.46114 13.8512 3.31171C13.7391 3.16228 13.5753 3.06005 13.3919 3.02503L13.0364 2.95728L12.9991 2.67173C12.9735 2.43002 12.8815 2.20013 12.7332 2.00753C12.5849 1.81493 12.3862 1.66715 12.1591 1.58058C11.8669 1.47994 11.5479 1.49086 11.2633 1.61123C10.9787 1.73161 10.7486 1.95294 10.6173 2.23268L10.4657 2.55628L10.1107 2.51773C9.95254 2.50223 9.79296 2.5243 9.64494 2.58215C9.49692 2.63999 9.36466 2.73197 9.25891 2.85059C9.15316 2.96922 9.07692 3.11114 9.0364 3.26481C8.99587 3.41847 8.99221 3.57953 9.0257 3.73488C9.08657 3.96187 9.22192 4.16183 9.41003 4.3027C9.59813 4.44357 9.8281 4.51719 10.0631 4.51173H10.5V5.51173H10.1091C9.59188 5.52208 9.08941 5.33877 8.70032 4.99777C8.31123 4.65677 8.06359 4.18269 8.006 3.66853C7.98551 3.40393 8.01782 3.1379 8.10106 2.8859C8.1843 2.6339 8.31681 2.40096 8.49088 2.20062C8.66494 2.00029 8.8771 1.83656 9.11501 1.71894C9.35292 1.60133 9.61183 1.53219 9.8767 1.51553C10.1146 1.15789 10.45 0.875819 10.8431 0.702655C11.2362 0.529492 11.6707 0.472467 12.0952 0.538317C12.5197 0.604168 12.9165 0.790143 13.2386 1.07427C13.5608 1.3584 13.7949 1.7288 13.9134 2.14173C14.2718 2.28896 14.5714 2.55084 14.7652 2.88643C14.959 3.22201 15.0361 3.61236 14.9845 3.99643C14.9128 4.42615 14.6888 4.81573 14.3536 5.09396C14.0183 5.37219 13.5942 5.52048 13.1586 5.51173H12.5V7.51173H14V8.51173Z" fill="#161616"/>
<path d="M11 9.51173H9V10.5117H11V9.51173Z" fill="#161616"/>
<path d="M7 9.51173V8.51173H6V10.5117H8V9.51173H7Z" fill="#161616"/>
<path d="M7 5.51173H6V7.51173H7V5.51173Z" fill="#161616"/>
<path d="M8.9425 15.5117L5.9095 13.5827L2 14.5062V2.51173H7V4.51173H6V3.51173H3V13.2422L6.0905 12.5122L9.0575 14.3997L11.409 13.5117H13V10.5117H12V9.51173H14V14.5117H11.591L8.9425 15.5117Z" fill="#161616"/>
</g>
<defs>
<clipPath id="clip0_3209_177">
<rect width="16" height="16" fill="white" transform="translate(0 0.511719)"/>
</clipPath>
</defs>
</svg>
