<svg width="16" height="17" viewBox="0 0 16 17" fill="none" xmlns="http://www.w3.org/2000/svg">
<rect width="16" height="16" transform="translate(0 0.512695)" fill="white" fill-opacity="0.01" style="mix-blend-mode:multiply"/>
<path d="M15 6.5127H14V8.0127H15V6.5127Z" fill="#161616"/>
<path d="M13 4.0127H12V10.5127H13V4.0127Z" fill="#161616"/>
<path d="M11 6.0127H10V8.5127H11V6.0127Z" fill="#161616"/>
<path d="M9 5.0127H8V9.5127H9V5.0127Z" fill="#161616"/>
<path d="M7 6.5127H6V8.0127H7V6.5127Z" fill="#161616"/>
<path d="M6.75 13.5127C7.16421 13.5127 7.5 13.1769 7.5 12.7627C7.5 12.3485 7.16421 12.0127 6.75 12.0127C6.33579 12.0127 6 12.3485 6 12.7627C6 13.1769 6.33579 13.5127 6.75 13.5127Z" fill="#161616"/>
<path d="M10 15.5127H3.5C3.23488 15.5124 2.9807 15.4069 2.79323 15.2195C2.60576 15.032 2.5003 14.7778 2.5 14.5127V2.5127C2.5003 2.24757 2.60576 1.9934 2.79323 1.80592C2.9807 1.61845 3.23488 1.513 3.5 1.5127H10V2.5127H3.5V14.5127H10V12.5127H11V14.5127C10.9997 14.7778 10.8942 15.032 10.7068 15.2195C10.5193 15.4069 10.2651 15.5124 10 15.5127Z" fill="#161616"/>
</svg>
