<svg width="39" height="40" viewBox="0 0 39 40" fill="none" xmlns="http://www.w3.org/2000/svg">
<path d="M38.646 20.1816C38.646 30.6605 30.1512 39.1553 19.6724 39.1553C9.19352 39.1553 0.69873 30.6605 0.69873 20.1816C0.69873 9.70279 9.19352 1.20801 19.6724 1.20801C30.1512 1.20801 38.646 9.70279 38.646 20.1816Z" stroke="#F5EEFF" stroke-width="0.5"/>
<path d="M7.3382 26.6321L12.3592 17.9354C13.4897 15.9774 14.1856 14.8032 14.3649 14.648C14.476 14.6886 14.8765 14.8493 14.9909 14.9154L15.2863 14.4038L13.7053 13.491L13.41 14.0026C13.5243 14.0686 13.8638 14.3352 13.9545 14.4111C13.9098 14.644 13.2306 15.8513 12.1103 17.7917L9.09567 23.0133L11.7342 12.353L10.3887 11.5762L10.0933 12.0877C10.1471 12.1188 10.51 12.4224 10.5571 12.4496C10.5837 12.559 10.5764 12.6959 10.4732 13.2009L6.28733 20.4511C5.15683 22.4091 4.461 23.5833 4.28169 23.7385C4.1706 23.6979 3.77676 23.541 3.66239 23.475L3.36704 23.9866L4.94126 24.8955L5.23662 24.3839C5.12225 24.3179 4.78953 24.0552 4.6988 23.9793C4.74355 23.7464 5.42266 22.5391 6.54297 20.5987L10.24 14.1952L7.17675 26.5389L7.3382 26.6321Z" fill="#F5EEFF"/>
<path d="M20.789 17.5789L20.6051 17.0176C20.4796 17.0587 19.9512 17.1675 19.8341 17.1845C19.6905 16.9957 19.2508 15.7037 18.5467 13.5551L18.052 12.0453C18.3274 12.2123 18.724 12.2752 19.0636 12.1639C20.2447 11.7769 20.1746 9.59205 19.4768 7.46283C18.7347 5.19811 17.589 3.47292 16.3119 3.89141C15.4703 4.16718 14.7027 4.56877 14.0014 4.79858L14.1854 5.35992C14.3109 5.3188 14.7285 5.24624 14.8456 5.22931C14.9892 5.41804 15.4353 6.72945 16.133 8.85867L17.7568 13.814C18.4609 15.9625 18.8711 17.2643 18.8671 17.5014C18.7627 17.557 18.3831 17.7457 18.2576 17.7868L18.4416 18.3482L20.789 17.5789ZM15.6797 4.80595C15.7482 4.74063 15.9348 4.6366 16.0824 4.58822C17.0569 4.26891 17.9882 5.61422 18.6542 7.64666C19.2314 9.40811 19.5113 11.3099 18.4704 11.651C18.2785 11.7138 18.0833 11.6921 17.9124 11.6195L15.6797 4.80595Z" fill="#F5EEFF"/>
<path d="M18.7428 35.9832L18.5488 35.4252C18.424 35.4686 18.0004 35.5512 17.8837 35.5702C17.7367 35.3841 17.2672 34.0809 16.5313 31.9646L14.8188 27.0392C14.0763 24.9036 13.6428 23.6095 13.6425 23.3723C13.7459 23.3148 14.1294 23.1168 14.2541 23.0734L14.0601 22.5155L11.8296 23.291L12.0236 23.849C12.1483 23.8056 12.5646 23.7256 12.6814 23.7065C12.8283 23.8926 13.2979 25.1958 14.0337 27.3122L15.7462 32.2375C16.4887 34.3731 16.9223 35.6673 16.9225 35.9044C16.8191 35.9619 16.443 36.1574 16.3182 36.2008L16.5122 36.7587L18.7428 35.9832Z" fill="#F5EEFF"/>
<path d="M23.6427 34.9559L24.1543 34.6606C24.1116 34.5866 24.0169 34.3004 23.9957 34.2229C24.1432 34.0301 24.975 33.3525 26.5579 32.1426L35.0533 25.6322L34.9679 25.4842L24.9376 29.4991C23.2963 30.1597 22.1838 30.5957 21.9216 30.6304C21.8612 30.5666 21.6568 30.3348 21.618 30.2675L21.1064 30.5629L21.9299 31.9891L22.4414 31.6937C22.3715 31.5726 22.1797 31.1183 22.1352 31.0004C22.4214 30.8442 23.7769 30.2589 25.0168 29.7584L25.9687 29.3702L26.8426 30.8839L25.9462 31.5719C24.8183 32.4294 23.7769 33.1921 23.4947 33.3551C23.4149 33.2576 23.1134 32.8576 23.0435 32.7365L22.5319 33.0319L23.6427 34.9559ZM32.019 26.9355L27.4311 30.4365L26.6581 29.0978L32.019 26.9355Z" fill="#F5EEFF"/>
<path d="M25.2237 26.0257L26.9551 23.0269L26.76 22.9142C26.7498 22.9319 25.5324 24.6987 25.4986 24.7262C25.2001 25.1654 24.5704 24.9665 23.8102 24.5276L23.7161 24.4732C23.42 24.3023 23.3837 24.1167 23.4114 23.9445L27.8315 16.2886C28.9518 14.3481 29.6578 13.1564 29.8371 13.0012C29.9482 13.0418 30.3488 13.2025 30.4632 13.2685L30.7585 12.7569L28.7134 11.5762L28.418 12.0877C28.5324 12.1538 28.8651 12.4164 28.9558 12.4923C28.9111 12.7252 28.232 13.9325 27.1117 15.873L24.5044 20.3889C23.3739 22.347 22.6781 23.5211 22.4988 23.6763C22.3877 23.6357 21.9938 23.4789 21.8795 23.4129L21.5841 23.9244L25.2237 26.0257Z" fill="#F5EEFF"/>
</svg>
