<svg width="39" height="39" viewBox="0 0 39 39" fill="none" xmlns="http://www.w3.org/2000/svg">
<path d="M38.7275 19.5352C38.7275 30.014 30.2328 38.5088 19.7539 38.5088C9.27506 38.5088 0.780273 30.014 0.780273 19.5352C0.780273 9.05631 9.27506 0.561523 19.7539 0.561523C30.2328 0.561523 38.7275 9.05631 38.7275 19.5352Z" stroke="#2E1458" stroke-width="0.5"/>
<path d="M7.41975 25.9857L12.4408 17.289C13.5713 15.3309 14.2671 14.1567 14.4464 14.0015C14.5575 14.0422 14.9581 14.2029 15.0725 14.2689L15.3678 13.7573L13.7869 12.8446L13.4915 13.3561C13.6059 13.4222 13.9453 13.6887 14.0361 13.7646C13.9913 13.9975 13.3122 15.2048 12.1919 17.1452L9.17721 22.3668L11.8157 11.7065L10.4702 10.9297L10.1749 11.4413C10.2287 11.4723 10.5916 11.7759 10.6387 11.8031C10.6652 11.9125 10.6579 12.0494 10.5548 12.5544L6.36887 19.8046C5.23837 21.7627 4.54254 22.9368 4.36324 23.092C4.25214 23.0514 3.8583 22.8946 3.74393 22.8285L3.44858 23.3401L5.02281 24.249L5.31816 23.7374C5.2038 23.6714 4.87107 23.4087 4.78034 23.3328C4.8251 23.0999 5.5042 21.8926 6.62451 19.9522L10.3216 13.5487L7.25829 25.8924L7.41975 25.9857Z" fill="#2E1458"/>
<path d="M20.8706 16.9324L20.6866 16.3711C20.5611 16.4122 20.0327 16.5211 19.9157 16.538C19.7721 16.3493 19.3323 15.0572 18.6283 12.9086L18.1335 11.3988C18.4089 11.5658 18.8056 11.6287 19.1452 11.5174C20.3263 11.1304 20.2561 8.94557 19.5584 6.81635C18.8162 4.55163 17.6705 2.82644 16.3934 3.24493C15.5519 3.5207 14.7843 3.92229 14.083 4.1521L14.2669 4.71344C14.3924 4.67231 14.8101 4.59976 14.9271 4.58283C15.0707 4.77156 15.5168 6.08297 16.2146 8.21219L17.8384 13.1675C18.5425 15.316 18.9527 16.6178 18.9486 16.8549C18.8443 16.9105 18.4647 17.0992 18.3392 17.1403L18.5231 17.7017L20.8706 16.9324ZM15.7612 4.15947C15.8297 4.09414 16.0163 3.99012 16.164 3.94174C17.1384 3.62242 18.0697 4.96774 18.7357 7.00018C19.313 8.76162 19.5928 10.6634 18.552 11.0045C18.36 11.0674 18.1649 11.0456 17.994 10.973L15.7612 4.15947Z" fill="#2E1458"/>
<path d="M18.8243 35.3367L18.6303 34.7787C18.5056 34.8221 18.082 34.9047 17.9652 34.9237C17.8183 34.7376 17.3487 33.4344 16.6129 31.3181L14.9004 26.3927C14.1578 24.2571 13.7243 22.963 13.7241 22.7258C13.8275 22.6683 14.2109 22.4703 14.3357 22.4269L14.1417 21.869L11.9111 22.6445L12.1051 23.2025C12.2299 23.1591 12.6461 23.0791 12.7629 23.06C12.9099 23.2462 13.3794 24.5494 14.1153 26.6657L15.8278 31.591C16.5703 33.7266 17.0038 35.0208 17.004 35.2579C16.9006 35.3154 16.5245 35.5109 16.3998 35.5543L16.5938 36.1122L18.8243 35.3367Z" fill="#2E1458"/>
<path d="M23.7243 34.3094L24.2359 34.0141C24.1931 33.9401 24.0985 33.6539 24.0773 33.5764C24.2247 33.3836 25.0565 32.706 26.6395 31.4961L35.1349 24.9857L35.0494 24.8377L25.0192 28.8526C23.3778 29.5132 22.2653 29.9492 22.0032 29.9839C21.9428 29.9201 21.7384 29.6883 21.6995 29.621L21.188 29.9164L22.0114 31.3426L22.523 31.0473C22.4531 30.9262 22.2613 30.4718 22.2168 30.354C22.5029 30.1977 23.8585 29.6124 25.0983 29.1119L26.0502 28.7237L26.9242 30.2374L26.0277 30.9254C24.8999 31.7829 23.8585 32.5456 23.5762 32.7086C23.4964 32.6111 23.1949 32.2111 23.125 32.09L22.6134 32.3854L23.7243 34.3094ZM32.1006 26.289L27.5126 29.7901L26.7397 28.4513L32.1006 26.289Z" fill="#2E1458"/>
<path d="M25.3052 25.3793L27.0366 22.3804L26.8415 22.2678C26.8313 22.2854 25.6139 24.0522 25.5801 24.0797C25.2817 24.5189 24.652 24.32 23.8918 23.8811L23.7976 23.8267C23.5016 23.6558 23.4652 23.4702 23.4929 23.298L27.9131 15.6421C29.0334 13.7017 29.7394 12.5099 29.9187 12.3547C30.0298 12.3953 30.4303 12.556 30.5447 12.622L30.8401 12.1105L28.7949 10.9297L28.4996 11.4413C28.6139 11.5073 28.9467 11.77 29.0374 11.8459C28.9926 12.0787 28.3135 13.2861 27.1932 15.2265L24.5859 19.7424C23.4554 21.7005 22.7596 22.8747 22.5803 23.0299C22.4692 22.9892 22.0754 22.8324 21.961 22.7664L21.6656 23.278L25.3052 25.3793Z" fill="#2E1458"/>
</svg>
