<?xml version="1.0" encoding="utf-8"?>
<!-- Generator: Adobe Illustrator 19.2.1, SVG Export Plug-In . SVG Version: 6.00 Build 0)  -->
<svg version="1.1" id="layer" xmlns="http://www.w3.org/2000/svg" xmlns:xlink="http://www.w3.org/1999/xlink" x="0px" y="0px"
	 viewBox="0 0 652 652" style="enable-background:new 0 0 652 652;" xml:space="preserve">
<style type="text/css">
	.st0{fill:#005A84;}
	.st1{fill:#D1D2D4;}
</style>
<g>
	<g>
		<path class="st0" d="M211.5,286.2h7.4l9.3,28.9l9.5-29h5.8l9.5,29l9.3-28.9h7.1l-13.6,39.2H250l-9.5-28l-9.4,28h-5.9L211.5,286.2z
			"/>
		<path class="st0" d="M294.5,325.7c-3,0-5.7-0.5-8.2-1.5c-2.5-1.1-4.6-2.5-6.4-4.3c-1.8-1.9-3.2-4-4.2-6.4s-1.5-5-1.5-7.8v-0.1
			c0-2.7,0.5-5.4,1.5-7.8c1-2.4,2.4-4.6,4.3-6.4c1.9-1.9,4-3.3,6.5-4.4c2.5-1.1,5.3-1.6,8.2-1.6c3,0,5.7,0.5,8.2,1.5
			c2.5,1.1,4.6,2.5,6.4,4.3c1.8,1.9,3.2,4,4.2,6.4c1,2.4,1.5,5,1.5,7.8v0.1c0,2.7-0.5,5.4-1.5,7.8s-2.4,4.6-4.3,6.4
			c-1.9,1.9-4,3.3-6.5,4.4S297.6,325.7,294.5,325.7z M294.7,319.5c1.9,0,3.7-0.3,5.3-1.1c1.5-0.8,3-1.8,4.2-3
			c1.1-1.2,2.1-2.7,2.6-4.4c0.7-1.6,1-3.4,1-5.4v-0.1c0-1.9-0.3-3.7-1-5.4c-0.7-1.6-1.5-3.2-2.7-4.4c-1.2-1.2-2.5-2.2-4.2-3
			c-1.6-0.8-3.4-1.1-5.3-1.1s-3.7,0.3-5.3,1.1c-1.5,0.8-3,1.8-4.2,3c-1.1,1.2-2.1,2.7-2.6,4.4c-0.7,1.6-1,3.4-1,5.4v0.1
			c0,1.9,0.3,3.7,1,5.4c0.7,1.6,1.5,3.2,2.7,4.4c1.2,1.2,2.5,2.2,4.2,3C291,319.1,292.8,319.5,294.7,319.5z"/>
		<path class="st0" d="M325.5,286.2h17.3c2.4,0,4.6,0.3,6.5,1c1.9,0.7,3.5,1.6,4.7,2.9c1,1.1,1.9,2.3,2.4,3.7s0.9,3,0.9,4.7v0.1
			c0,1.6-0.2,3.1-0.7,4.3c-0.4,1.3-1.1,2.4-1.9,3.4c-0.8,1-1.8,1.9-3,2.5c-1.1,0.7-2.4,1.2-3.7,1.5l10.5,14.7h-8l-9.5-13.6h-0.3
			h-8.5v13.6h-6.8L325.5,286.2L325.5,286.2z M342.3,305.4c2.4,0,4.4-0.5,5.8-1.8c1.4-1.2,2.2-2.7,2.2-4.7v-0.1
			c0-2.1-0.7-3.7-2.1-4.8c-1.4-1.1-3.4-1.6-5.9-1.6h-10v13.2h10V305.4z"/>
		<path class="st0" d="M369.1,286.2h6.8v32.7h20.4v6.1h-27.2L369.1,286.2L369.1,286.2z"/>
		<path class="st0" d="M406.8,286.2h14.5c3.1,0,5.8,0.4,8.3,1.4c2.5,1,4.7,2.3,6.6,4.1c1.9,1.8,3.3,3.8,4.3,6.1
			c1,2.3,1.5,4.9,1.5,7.7v0.1c0,2.7-0.5,5.3-1.5,7.7c-1,2.4-2.4,4.4-4.3,6.1c-1.9,1.8-4.1,3.1-6.6,4.1c-2.5,1-5.4,1.5-8.3,1.5h-14.5
			V286.2z M421.2,318.9c2.1,0,3.8-0.3,5.6-1c1.6-0.7,3.1-1.5,4.3-2.7c1.2-1.2,2.1-2.5,2.7-4.2c0.7-1.6,1-3.4,1-5.3v-0.1
			c0-1.9-0.3-3.6-1-5.3c-0.7-1.6-1.5-3.1-2.7-4.2c-1.2-1.2-2.6-2.1-4.3-2.7c-1.6-0.7-3.5-1-5.6-1h-7.7V319h7.7V318.9z"/>
		<path class="st0" d="M449.5,286.2h7.4l9.3,28.9l9.5-29h5.8l9.5,29l9.3-28.9h7.1L494,325.4h-5.9l-9.5-28l-9.5,28H463L449.5,286.2z"
			/>
		<path class="st0" d="M519.4,286.2h6.8v39h-6.8V286.2z"/>
		<path class="st0" d="M541.1,286.2h14.5c3.1,0,5.8,0.4,8.3,1.4c2.5,1,4.7,2.3,6.6,4.1c1.9,1.8,3.3,3.8,4.3,6.1
			c1,2.3,1.5,4.9,1.5,7.7v0.1c0,2.7-0.5,5.3-1.5,7.7c-1,2.4-2.4,4.4-4.3,6.1s-4.1,3.1-6.6,4.1c-2.5,1-5.4,1.5-8.3,1.5h-14.5V286.2
			L541.1,286.2z M555.6,318.9c2.1,0,3.8-0.3,5.6-1c1.8-0.7,3.1-1.5,4.3-2.7c1.2-1.2,2.1-2.5,2.7-4.2c0.7-1.6,1-3.4,1-5.3v-0.1
			c0-1.9-0.3-3.6-1-5.3c-0.7-1.6-1.5-3.1-2.7-4.2c-1.2-1.2-2.6-2.1-4.3-2.7c-1.6-0.7-3.5-1-5.6-1h-7.7V319h7.7V318.9z"/>
		<path class="st0" d="M589.1,286.2h28.8v6.1h-22.1v10h19.5v6.1h-19.5v10.4H618v6.1h-29.1v-38.9H589.1z"/>
	</g>
	<g>
		<path class="st1" d="M80.4,359.4c0.7-0.1,1.2-0.1,1.9-0.2l2.9-0.3c0.2,0,0.5-0.1,0.8-0.1l6.4-0.4c0.3,0,0.7,0,0.9-0.1
			c-1.5-1.4-3.1-3-4.3-4.7c-2.5,0.2-5,0.5-7.5,1c-0.5,0.1-1.1,0.2-1.6,0.2c-1.1,0.2-2.2,0.3-3.3,0.5l-6.7,1.5l-1.5,0.4
			c-3.4-9.1-5.7-18.4-6.9-27.8c1.5,0.1,3.2,0.1,4.9,0.1h1.6c3.1,0.1,6.4,0.2,9.7,0.2c1.3,0,2.7,0,4.2,0.1c2.6,0,5.3,0.1,7.9,0.1H92
			c0.1-0.1,0.2-0.2,0.4-0.3c-2.5-1.6-5-3.4-7.2-5.3c-1.2,0-2.3,0-3.5,0.1c-1.4,0-2.7,0.1-4.1,0.1c-3.4,0-6.6,0.1-9.8,0.2h-1.5
			c-1.9,0-3.6,0.1-5.4,0.2c-0.9-9.5-0.5-19.1,1-28.5v-0.1l4.8,1.4c0.2,0.1,0.3,0.1,0.4,0.1l7.7,1.8c1.1,0.2,2.3,0.4,3.4,0.5
			c1-1.8,2.4-3.2,4.2-4.5l-3.3-0.3c-1.1-0.1-2.2-0.2-3.3-0.4l-5-0.9l-8.2-1.6c0.5-2.9,1.2-5.6,2-8.2c0.1-0.4-0.1-0.8-0.4-1
			c-0.3-0.1-0.8,0-1,0.3c-0.1,0.1-1.6,3.1-3.3,8.1c-0.1,0-0.2,0-0.2-0.1c-0.5-0.1-1.1-0.3-1.6-0.4l-1.9-0.4
			c-0.7-0.1-1.2-0.3-1.6-0.4l-1-0.3c-0.8-0.2-1.4-0.4-2.1-0.7c-0.3-0.1-0.7-0.2-1-0.3c-0.5-0.2-1.1-0.3-1.6-0.5
			c-3.1-1.2-4.9-1.9-4.9-1.9c-0.4-0.1-0.8,0-1,0.4c-0.2,0.3,0,0.8,0.3,1c0,0,1.6,1,4.6,2.5c1.2,0.7,2.5,1.2,4.2,2l1.3,0.5
			c0.5,0.2,1.1,0.4,1.8,0.7l2.6,1c0.3,0.1,0.8,0.2,1.1,0.4c-0.3,1-0.5,2.1-0.9,3.2c-2.2,8.7-3.1,17.7-2.5,26.8
			c-4.7,0.2-9.3,0.4-14.2,0.8c-1.2,0.1-2.3,0.1-3.2,0.2l-2.6,0.2c-0.4,0-0.8,0.3-0.8,0.8c0,0.4,0.3,0.8,0.8,0.8l2.5,0.2
			c0.9,0.1,2,0.1,3.2,0.2c4.9,0.3,9.7,0.5,14.5,0.8c0.8,8,2.6,15.9,5.5,23.7c0.7,1.9,1.4,3.7,2.3,5.7c-0.9,0.3-1.8,0.7-2.6,0.9
			l-2.4,0.9c-0.5,0.2-1.1,0.4-1.5,0.7l-1.2,0.5c-1.4,0.7-2.7,1.2-3.8,1.8c-2.6,1.4-4.2,2.3-4.2,2.3c-0.3,0.2-0.5,0.7-0.3,1
			c0.2,0.3,0.5,0.5,1,0.4c0,0,1.6-0.5,4.5-1.6c0.8-0.3,1.6-0.5,2.6-0.9c0.8-0.2,1.6-0.5,2.5-0.8c0.4-0.1,1-0.3,1.5-0.4l1.6-0.4
			c0.5-0.1,1-0.2,1.5-0.4c0.7-0.2,1.3-0.3,2.1-0.5h0.1c4.9,10.1,12,20.7,19,28.2c0.1,0.2,0.3,0.2,0.5,0.2c0.2,0,0.3-0.1,0.5-0.2
			c0.3-0.2,0.4-0.8,0.1-1.1c0-0.1-5-7.1-10.6-18c-1.8-3.4-3.3-6.8-4.7-10.2l7.7-1.4C78.4,359.6,79.4,359.5,80.4,359.4z"/>
		<path class="st1" d="M168.7,326.5l-2.6-0.2c-0.9-0.1-1.9-0.1-3.2-0.2c-4.9-0.3-9.9-0.5-14.7-0.8c0.5-9.2-0.2-18.4-2.5-27.3
			c-0.1-0.5-0.3-1.1-0.4-1.6l1-0.3c1.1-0.3,2.1-0.8,3.2-1.1l2.6-1c0.7-0.2,1.2-0.4,1.8-0.7l1.3-0.5c1.6-0.8,3-1.3,4.2-2
			c2.9-1.5,4.5-2.5,4.5-2.5c0.3-0.2,0.5-0.7,0.3-1c-0.2-0.3-0.5-0.5-1-0.4c0,0-1.9,0.7-4.9,1.9c-0.9,0.3-1.9,0.7-3,1
			c-0.9,0.2-1.8,0.5-2.7,0.9c-0.4,0.2-1,0.3-1.6,0.4l-1.9,0.4c-0.5,0.1-1.1,0.3-1.6,0.4c-0.8,0.2-1.5,0.4-2.3,0.5l-0.9,0.2
			c-1.9-5.9-3.6-9.2-3.7-9.4c-0.2-0.3-0.7-0.5-1-0.3c-0.3,0.1-0.5,0.5-0.4,1c0.9,3,1.5,6.1,2.2,9.4l-0.4,0.1l-9.7,1.8
			c-1.1,0.1-2.1,0.2-3.2,0.4c-0.7,0.1-1.3,0.1-2,0.2l-2.2,0.2c1.6,1.3,3.1,2.9,4.1,4.6c0.3,0,0.7-0.1,1-0.1c1.2-0.2,2.4-0.3,3.6-0.7
			l7.4-1.6l2.3-0.7c1.3,9.1,1.6,18.4,0.8,27.8c-1.5-0.1-3.2-0.1-4.8-0.1l-2.2-0.1c-3-0.1-5.9-0.2-9-0.2c-1.3,0-2.7,0-4.2-0.1
			c-0.9,0-2.2,0.4-2.9,1c-1.6,1.3-3.4,2.5-5,3.7c-0.3,0.2-0.2,0.9,0.2,0.9c2.6,0,5.2-0.1,7.7-0.1c1.4,0,2.7-0.1,4.2-0.1
			c3.1,0,6.1-0.1,9-0.2l2.2-0.1c1.5,0,3-0.1,4.4-0.1c-1.1,9.1-3.3,18.3-6.5,27.2c0,0.1-0.1,0.1-0.1,0.1l-7-1.6
			c-1-0.2-2.1-0.3-3.2-0.5c-0.5-0.1-1.1-0.2-1.8-0.2c-1.9-0.3-3.8-0.5-5.8-0.8c-1.3,1.6-2.7,3.2-4.4,4.6l5.8,0.4
			c0.2,0,0.5,0.1,0.8,0.1l4.7,0.5c1,0.1,2,0.2,3,0.3l4.5,0.8l2,0.4c-0.4,1.1-0.8,2.1-1.2,3.2c-6.3,14.9-12.6,25.2-12.7,25.4
			c-0.2,0.3-0.1,0.8,0.2,1.1c0.1,0.1,0.3,0.2,0.4,0.2c0.2,0,0.4-0.1,0.5-0.2c7.4-7.9,13.1-18.8,17.3-28.5l1.5,0.3
			c0.8,0.2,1.4,0.3,2.1,0.5c0.5,0.1,1,0.2,1.4,0.4l1.6,0.4c0.5,0.1,1,0.2,1.5,0.4l1,0.3c0.7,0.2,1.3,0.4,1.9,0.5
			c0.3,0.1,0.7,0.2,0.9,0.3c0.5,0.1,1,0.3,1.4,0.4c2.9,1.1,4.5,1.6,4.5,1.6c0.1,0,0.2,0,0.2,0c0.3,0,0.5-0.2,0.8-0.4
			c0.2-0.3,0-0.8-0.3-1c0,0-1.4-0.9-4.2-2.3c-1.1-0.5-2.3-1.1-3.8-1.8l-1.2-0.5c-0.5-0.2-1-0.4-1.5-0.7l-2.4-0.9
			c-0.9-0.3-1.9-0.7-2.9-1l-1.2-0.3c0.8-2,1.5-4,2.2-5.8c2.9-7.7,4.6-15.4,5.4-23.2c5-0.2,10-0.4,15-0.8c1.2-0.1,2.3-0.1,3.2-0.2
			l2.6-0.2c0.4,0,0.8-0.3,0.8-0.8C169.5,326.8,169.2,326.5,168.7,326.5z"/>
		<path class="st1" d="M102.4,243.2c-44.9,0-81.4,35.5-81.4,78.9S57.6,401,102.4,401s81.4-35.5,81.4-78.9S147.3,243.2,102.4,243.2z
			 M102.4,397.7c-40.4,0-73.3-33.9-73.3-75.6s32.8-75.6,73.3-75.6c40.4,0,73.3,33.9,73.3,75.6C175.8,363.8,142.8,397.7,102.4,397.7z
			"/>
	</g>
	<g>
		<path class="st0" d="M96.9,291l-3.8-5.5l-18.9-3.1c2.4,3.4,4.1,5.5,8.2,6.1L96.9,291z"/>
		<path class="st0" d="M90.6,282.3c-2.1-2.9-5-4.8-8.5-5.4l-16.9-2.7c1.9,3.3,4.2,6.4,7.9,7l18.8,3.1L90.6,282.3z"/>
		<path class="st0" d="M108.5,291l14.6-2.4c4.2-0.7,5.8-2.7,8.2-6.1l-19,3.1L108.5,291z"/>
		<path class="st0" d="M114.7,282.3l-1.4,2l18.8-3.1c3.7-0.7,6.1-3.7,7.9-7l-16.9,2.7C119.8,277.4,116.8,279.3,114.7,282.3z"/>
		<path class="st0" d="M146,266.1c0,0-28.6,4.7-28.8,4.7c-4.5,0.8-7.7,3.4-8.9,7.7c0,0.1-1.1,3.6-2.2,7.6c0.2-7.2,0.3-11.7,0.3-11.7
			l-1.2-3.2c1.2-0.9,2.1-2.3,2.1-4c0-2.6-2.1-4.7-4.5-4.7c-2.4,0-4.7,2.2-4.7,4.7c0,1.8,0.9,3.2,2.2,4.1l-1.3,3.1
			c0,0,0.1,4.5,0.2,11.9c-1.2-4-2.2-7.6-2.3-7.7c-1.2-4.3-4.4-6.9-8.9-7.7c-0.1,0-28.8-4.7-28.8-4.7c-0.4,3.3,3.6,6,6.9,6.6
			l16.7,2.7c3.4,0.5,6.4,2.4,8.5,5.3c0.4,0.7,5,7,8,11.3c0.2,8.7,0.4,19.8,0.8,31.4C95,319.7,90,316.1,87.7,312
			c-2.5-4.6-2-11,4.4-9.1c2.7,0.8,6-0.7,5.9-4c-0.1-2.7-5.7-4.7-10.9-2.2c-1.5,0.8-5.5,3.1-6.9,7.4c-3.6,11.3,7.4,18.6,17.6,25.1
			c-6,4.7-10.6,9.9-9.4,16.2c1.1,5.9,6.5,10.2,11.5,14.2c-1.2,1.2-2.2,2.3-2.2,2.3c-7.7,8.8-3.6,15.5,3.2,19.9c-1.5,1-3.1,2-4.4,2.9
			c-1,0.7-0.4,1.1,0.2,0.9c1.8-0.5,3.6-1.3,5.3-2.1c0.2,4.5,0.4,7.1,0.5,7.1c0.1,0,0.3-2.9,0.5-7.6c2,1,4.1,1.9,6,2.5
			c0.8,0.2,1.3-0.2,0.2-0.9c-1.3-0.9-2.9-1.9-4.4-2.9c6.9-4.4,10.9-11.1,3.2-19.9c0,0-1.1-1.1-2.2-2.3c5-4,10.4-8.2,11.5-14.2
			c1.2-6.4-3.4-11.5-9.4-16.2c10.2-6.5,21.3-13.8,17.6-25.1c-1.4-4.4-5.3-6.6-6.9-7.4c-5-2.6-10.6-0.7-10.9,2.2
			c-0.2,3.3,3.2,4.7,5.8,4c6.3-1.9,6.9,4.4,4.4,9.1c-2.4,4.3-7.7,8.1-13.2,12.1c0.3-11.9,0.5-23.2,0.8-32.1c3-4.3,7.5-10.5,8-11.2
			c2.1-2.9,5-4.7,8.5-5.3l16.7-2.7C142.4,272.2,146.5,269.4,146,266.1z M94.3,347.3c-2.6-4.8,0.8-8.9,6.1-12.8
			c0.2,7,0.4,13.9,0.5,20.4C98.6,352.6,95.4,349.4,94.3,347.3z M100.6,364.4l0.8-0.7c0.2,6,0.4,11.4,0.5,15.8
			C97.1,375.6,94,370.6,100.6,364.4z M103.4,380.2c0.2-4.6,0.4-10.5,0.7-17.1l1.5,1.3C112.5,371.1,108.7,376.1,103.4,380.2z
			 M111.9,347.3c-1.3,2.4-5,6-7.6,8.3c0.2-6.9,0.4-14.4,0.7-21.8C110.8,338.1,114.5,342.3,111.9,347.3z"/>
	</g>
	<g>
		<path class="st1" d="M234.3,353.9c-1,0.9-2,1.6-2.9,2.1c-1,0.5-2.1,0.8-3.5,0.8c-1,0-2-0.2-2.9-0.7c-0.9-0.4-1.6-1-2.3-1.6
			c-0.7-0.7-1.2-1.5-1.5-2.5c-0.3-1-0.5-2-0.5-3.1v-0.1c0-1.1,0.2-2.1,0.5-3.1c0.3-1,0.9-1.8,1.5-2.5c0.7-0.7,1.4-1.2,2.3-1.6
			s1.9-0.7,2.9-0.7c1.2,0,2.4,0.2,3.4,0.8c1,0.5,2,1.2,2.9,2l0.1,0.1l2.9-3.3l-0.1-0.1c-0.5-0.5-1.1-1-1.8-1.4
			c-0.7-0.4-1.3-0.8-2-1.1c-0.8-0.3-1.5-0.5-2.4-0.8s-1.9-0.2-2.9-0.2c-1.8,0-3.4,0.3-4.8,1c-1.4,0.7-2.7,1.5-3.7,2.5
			c-1.1,1.1-1.9,2.3-2.5,3.8c-0.5,1.4-0.9,3-0.9,4.6v0.1c0,1.6,0.3,3.2,0.9,4.6c0.5,1.4,1.4,2.7,2.5,3.7c1.1,1.1,2.3,1.9,3.7,2.5
			c1.4,0.7,3,0.9,4.7,0.9c1.1,0,2.1-0.1,3-0.3s1.8-0.4,2.4-0.9c0.8-0.3,1.4-0.8,2.1-1.3c0.7-0.4,1.3-1.1,1.9-1.6l0.1-0.1l-2.9-2.9
			L234.3,353.9z"/>
		<polygon class="st1" points="253.7,337.5 249.3,337.5 249.3,360.5 265.6,360.5 265.6,356.6 253.7,356.6 		"/>
		<rect x="278" y="337.5" class="st1" width="4.4" height="23.1"/>
		<polygon class="st1" points="312.2,352.7 300.4,337.5 296.4,337.5 296.4,360.5 300.8,360.5 300.8,344.8 313,360.5 316.6,360.5 
			316.6,337.5 312.2,337.5 		"/>
		<rect x="330.7" y="337.5" class="st1" width="4.4" height="23.1"/>
		<path class="st1" d="M366.3,353.9c-1,0.9-2,1.6-2.9,2.1c-1,0.5-2.1,0.8-3.5,0.8c-1.1,0-2-0.2-2.9-0.7c-0.9-0.4-1.6-1-2.3-1.6
			c-0.7-0.7-1.2-1.5-1.5-2.5c-0.3-1-0.5-2-0.5-3.1v-0.1c0-1.1,0.2-2.1,0.5-3.1c0.3-1,0.9-1.8,1.5-2.5c0.7-0.7,1.4-1.2,2.3-1.6
			c0.9-0.4,1.9-0.7,2.9-0.7c1.2,0,2.4,0.2,3.4,0.8c1,0.5,2,1.2,2.9,2l0.1,0.1l2.9-3.3l-0.1-0.1c-0.5-0.5-1.1-1-1.8-1.4
			c-0.7-0.4-1.3-0.8-2-1.1c-0.8-0.3-1.5-0.5-2.4-0.8c-0.9-0.2-1.9-0.2-2.9-0.2c-1.8,0-3.4,0.3-4.8,1c-1.4,0.7-2.7,1.5-3.7,2.5
			c-1.1,1.1-1.9,2.3-2.5,3.8c-0.5,1.4-0.9,3-0.9,4.6v0.1c0,1.6,0.3,3.2,0.9,4.6c0.5,1.4,1.4,2.7,2.5,3.7c1.1,1.1,2.3,1.9,3.7,2.5
			c1.4,0.7,3,0.9,4.7,0.9c1.1,0,2.1-0.1,3-0.3c0.9-0.2,1.8-0.4,2.4-0.9c0.8-0.3,1.4-0.8,2.1-1.3c0.7-0.4,1.3-1.1,1.9-1.6l0.1-0.1
			l-2.9-2.9L366.3,353.9z"/>
		<path class="st1" d="M389.5,337.4l-10.1,23.3h4.5l2.3-5.5h10.4l2.3,5.5h4.7l-10.2-23.3H389.5z M395,351.2h-7.1l3.5-8.3L395,351.2z
			"/>
		<polygon class="st1" points="419.7,337.5 415.4,337.5 415.4,360.5 431.6,360.5 431.6,356.6 419.7,356.6 		"/>
		<polygon class="st1" points="460.3,341.6 467.5,341.6 467.5,360.5 471.9,360.5 471.9,341.6 479.2,341.6 479.2,337.5 460.3,337.5 
					"/>
		<path class="st1" d="M506.9,351.1c0.7-0.4,1.2-0.9,1.8-1.5c0.4-0.5,0.9-1.3,1.1-2.1c0.3-0.8,0.4-1.6,0.4-2.6v-0.1
			c0-1-0.2-2-0.5-2.7c-0.3-0.9-0.8-1.6-1.4-2.2c-0.8-0.8-1.6-1.3-2.9-1.8c-1.1-0.4-2.4-0.7-3.8-0.7h-10.3v23.1h4.4v-7.9h4.7l5.6,7.9
			h5.2l-6.1-8.7C505.7,351.6,506.4,351.4,506.9,351.1z M505.9,345L505.9,345c0,1.2-0.4,2.1-1.2,2.6c-0.8,0.7-1.9,1-3.3,1h-5.6v-7.2
			h5.6c1.4,0,2.5,0.3,3.3,0.9C505.4,343.1,505.9,343.8,505.9,345z"/>
		<rect x="523.4" y="337.5" class="st1" width="4.4" height="23.1"/>
		<path class="st1" d="M549.9,337.4l-10.1,23.3h4.5l2.3-5.5H557l2.3,5.5h4.7l-10.1-23.3H549.9z M555.5,351.2h-7.2l3.5-8.3
			L555.5,351.2z"/>
		<polygon class="st1" points="580.2,337.5 575.8,337.5 575.8,360.5 592.1,360.5 592.1,356.6 580.2,356.6 		"/>
		<path class="st1" d="M620.2,351.3c-0.3-0.8-0.8-1.3-1.4-1.9c-0.7-0.5-1.4-1-2.3-1.4c-0.9-0.3-2-0.7-3.2-1c-1.1-0.2-2-0.5-2.6-0.8
			s-1.2-0.4-1.6-0.8c-0.3-0.2-0.7-0.5-0.8-0.8c-0.1-0.3-0.2-0.7-0.2-1.1v-0.1c0-0.7,0.3-1.3,0.9-1.8c0.7-0.4,1.4-0.8,2.6-0.8
			c1,0,2,0.2,3,0.5c1,0.4,2,1,3.1,1.8l0.2,0.1l2.4-3.3l-0.1-0.1c-1.2-1-2.4-1.6-3.8-2.2c-1.3-0.4-2.9-0.8-4.5-0.8
			c-1.1,0-2.2,0.2-3.2,0.5c-1,0.3-1.8,0.8-2.5,1.4c-0.7,0.5-1.2,1.3-1.6,2.2c-0.4,0.9-0.5,1.8-0.5,2.7v0.1c0,1.1,0.2,2,0.5,2.7
			c0.3,0.8,0.9,1.4,1.5,2c0.7,0.5,1.4,1,2.4,1.3c1,0.3,2.1,0.7,3.3,1c1.1,0.2,1.9,0.4,2.5,0.7c0.7,0.2,1.1,0.4,1.5,0.8
			c0.3,0.2,0.5,0.5,0.7,0.8c0.1,0.3,0.2,0.7,0.2,1v0.1c0,0.8-0.3,1.4-1,1.9c-0.7,0.4-1.6,0.8-2.9,0.8c-1.4,0-2.6-0.2-3.7-0.8
			c-1.1-0.5-2.2-1.2-3.3-2.2l-0.1-0.1l-2.6,3.2l0.1,0.1c1.3,1.2,2.9,2.2,4.5,2.7c1.6,0.5,3.3,0.9,5,0.9c1.2,0,2.3-0.1,3.3-0.4
			c1-0.3,1.9-0.8,2.6-1.3c0.8-0.5,1.3-1.3,1.8-2.2c0.4-0.9,0.7-1.9,0.7-3v-0.1C620.7,352.9,620.6,352.1,620.2,351.3z"/>
	</g>
</g>
</svg>
