<svg width="35" height="35" viewBox="0 0 35 35" fill="none" xmlns="http://www.w3.org/2000/svg">
<path d="M33.8851 10.291C34.8289 12.5206 34.7829 15.0064 33.7732 17.1835C33.8346 17.3064 33.888 17.4327 33.9415 17.559C34.8269 19.6505 34.8475 21.9638 33.9939 24.0701C33.0858 26.3113 31.2942 28.0376 29.0413 28.8611C28.2506 31.1269 26.5531 32.9437 24.3272 33.8861C22.1013 34.8284 19.6154 34.7826 17.4382 33.7731C15.2788 34.8176 12.7922 34.9023 10.551 33.9944C8.44451 33.1412 6.79956 31.5202 5.91249 29.4247C5.85904 29.2985 5.80558 29.1722 5.76001 29.0426C3.49403 28.2522 1.67723 26.555 0.735029 24.3294C-0.207168 22.1037 -0.162831 19.614 0.84689 17.4369C0.785539 17.314 0.732081 17.1877 0.678623 17.0614C-0.206775 14.9699 -0.22738 12.6566 0.626146 10.5503C1.5343 8.30913 3.3259 6.58278 5.57884 5.75931C6.36949 3.49345 8.06695 1.67665 10.2929 0.734342C12.5188 -0.207966 15.0047 -0.162175 17.1819 0.847277C19.3413 -0.197171 21.8279 -0.28192 24.0691 0.625966C26.1756 1.47924 27.8205 3.10026 28.7076 5.19567C28.7611 5.32195 28.8145 5.44822 28.8601 5.57784C31.1261 6.36823 32.9429 8.0654 33.8867 10.295L33.8851 10.291Z" fill="#231F20"/>
<path d="M29.2811 12.2405C29.9628 13.8508 29.9296 15.6461 29.2004 17.2184C29.2447 17.3072 29.2833 17.3984 29.3219 17.4896C29.9613 19.0001 29.9762 20.6708 29.3598 22.1921C28.7039 23.8107 27.41 25.0575 25.7828 25.6522C25.2118 27.2887 23.9859 28.6008 22.3783 29.2814C20.7707 29.9619 18.9753 29.9289 17.4028 29.1998C15.8433 29.9541 14.0474 30.0153 12.4287 29.3596C10.9074 28.7434 9.71939 27.5727 9.07873 26.0593C9.04012 25.9681 9.00151 25.8769 8.9686 25.7833C7.33206 25.2125 6.01992 23.9867 5.33945 22.3793C4.65897 20.7719 4.69099 18.9738 5.42024 17.4014C5.37593 17.3126 5.33732 17.2214 5.29871 17.1302C4.65926 15.6197 4.64437 13.949 5.26081 12.4278C5.9167 10.8091 7.21063 9.56233 8.83776 8.96761C9.40878 7.33115 10.6347 6.01902 12.2423 5.33846C13.8499 4.65791 15.6453 4.69098 17.2178 5.42003C18.7773 4.6657 20.5732 4.6045 22.1919 5.26019C23.7132 5.87645 24.9012 7.04718 25.5419 8.56053C25.5805 8.65173 25.6191 8.74293 25.652 8.83655C27.2885 9.40739 28.6007 10.6331 29.2824 12.2434L29.2811 12.2405Z" fill="#FFCC33"/>
</svg>
