<svg width="295" height="294" viewBox="0 0 295 294" fill="none" xmlns="http://www.w3.org/2000/svg">
<path d="M143.153 147.357C143.153 147.357 291.233 80.9869 294.323 127.107C297.653 176.867 143.153 147.357 143.153 147.357Z" fill="#231F20"/>
<path d="M149.433 146.797C149.433 146.797 287.623 90.6468 290.113 127.877C292.803 168.047 149.433 146.797 149.433 146.797Z" fill="#4D4DFF"/>
<path d="M211.643 140.417C211.643 140.417 266.083 124.057 266.523 133.277C267.003 143.227 211.643 140.417 211.643 140.417Z" fill="#D2D3D4"/>
<path d="M144.133 149.667C144.133 149.667 224.923 8.9369 254.523 44.4269C286.473 82.7269 144.123 149.667 144.123 149.667H144.133Z" fill="#231F20"/>
<path d="M148.883 145.517C148.883 145.517 227.673 18.8669 251.573 47.5269C277.363 78.4469 148.883 145.517 148.883 145.517Z" fill="#4D4DFF"/>
<path d="M195.463 103.797C195.463 103.797 229.893 58.5568 235.673 65.7668C241.903 73.5368 195.463 103.797 195.463 103.797Z" fill="#D2D3D4"/>
<path d="M146.273 150.957C146.273 150.957 128.913 -10.3826 173.733 0.927381C222.093 13.1374 146.273 150.957 146.273 150.957Z" fill="#231F20"/>
<path d="M147.673 144.807C147.673 144.807 136.983 -3.96265 173.153 5.16735C212.193 15.0273 147.673 144.807 147.673 144.807Z" fill="#4D4DFF"/>
<path d="M160.833 83.6774C160.833 83.6774 162.093 26.8474 171.003 29.2774C180.613 31.8974 160.833 83.6774 160.833 83.6774Z" fill="#D2D3D4"/>
<path d="M148.763 150.747C148.763 150.747 39.8928 30.4171 82.7928 13.2271C129.093 -5.32294 148.763 150.737 148.763 150.737V150.747Z" fill="#231F20"/>
<path d="M146.283 144.947C146.283 144.947 50.1827 30.8669 84.8227 16.9969C122.203 2.0269 146.283 144.947 146.283 144.947Z" fill="#4D4DFF"/>
<path d="M121.003 87.7471C121.003 87.7471 88.6226 41.0271 97.2526 37.7571C106.573 34.2271 121.003 87.7471 121.003 87.7471Z" fill="#D2D3D4"/>
<path d="M150.663 149.107C150.663 149.107 -8.14698 115.757 16.463 76.6275C43.023 34.4075 150.663 149.097 150.663 149.097V149.107Z" fill="#231F20"/>
<path d="M145.243 145.867C145.243 145.867 0.443148 110.067 20.3131 78.4873C41.7531 44.4073 145.243 145.867 145.243 145.867Z" fill="#4D4DFF"/>
<path d="M91.1729 114.458C91.1729 114.458 37.5129 95.6976 42.5729 87.9676C48.0429 79.6376 91.1729 114.458 91.1729 114.458Z" fill="#D2D3D4"/>
<path d="M151.223 146.667C151.223 146.667 3.14307 213.027 0.0530664 166.917C-3.27693 117.157 151.223 146.667 151.223 146.667Z" fill="#231F20"/>
<path d="M144.943 147.227C144.943 147.227 6.75297 203.378 4.26297 166.148C1.57297 125.978 144.943 147.227 144.943 147.227Z" fill="#4D4DFF"/>
<path d="M82.7332 153.607C82.7332 153.607 28.2932 169.967 27.8532 160.747C27.3732 150.797 82.7332 153.607 82.7332 153.607Z" fill="#D2D3D4"/>
<path d="M150.253 144.357C150.253 144.357 69.4627 285.087 39.8527 249.597C7.90268 211.297 150.253 144.357 150.253 144.357Z" fill="#231F20"/>
<path d="M145.503 148.507C145.503 148.507 66.7128 275.157 42.8128 246.497C17.0228 215.577 145.503 148.507 145.503 148.507Z" fill="#4D4DFF"/>
<path d="M98.9228 190.228C98.9228 190.228 64.4928 235.468 58.7128 228.258C52.4828 220.488 98.9228 190.228 98.9228 190.228Z" fill="#D2D3D4"/>
<path d="M148.103 143.067C148.103 143.067 165.463 304.407 120.643 293.097C72.283 280.887 148.103 143.067 148.103 143.067Z" fill="#231F20"/>
<path d="M146.703 149.217C146.703 149.217 157.403 297.987 121.223 288.857C82.183 278.997 146.703 149.217 146.703 149.217Z" fill="#4D4DFF"/>
<path d="M133.543 210.347C133.543 210.347 132.283 267.177 123.373 264.747C113.763 262.127 133.543 210.347 133.543 210.347Z" fill="#D2D3D4"/>
<path d="M145.613 143.277C145.613 143.277 254.493 263.607 211.583 280.787C165.283 299.337 145.613 143.277 145.613 143.277Z" fill="#231F20"/>
<path d="M148.093 149.077C148.093 149.077 244.193 263.147 209.553 277.027C172.173 291.997 148.093 149.077 148.093 149.077Z" fill="#4D4DFF"/>
<path d="M173.373 206.277C173.373 206.277 205.753 252.997 197.123 256.267C187.803 259.797 173.373 206.277 173.373 206.277Z" fill="#D2D3D4"/>
<path d="M143.723 144.917C143.723 144.917 302.533 178.267 277.923 217.387C251.363 259.607 143.723 144.917 143.723 144.917Z" fill="#231F20"/>
<path d="M149.133 148.157C149.133 148.157 293.933 183.957 274.063 215.537C252.623 249.617 149.133 148.157 149.133 148.157Z" fill="#4D4DFF"/>
<path d="M203.213 179.567C203.213 179.567 256.873 198.327 251.813 206.057C246.343 214.387 203.213 179.567 203.213 179.567Z" fill="#D2D3D4"/>
<path d="M124.688 141.672L124.568 139.75C124.563 139.671 124.561 139.571 124.561 139.326C124.561 136.661 125.589 134.175 127.47 132.294C129.474 130.29 132.181 129.254 134.978 129.394L136.87 129.489L138.142 128.085C140.025 126.007 142.671 124.827 145.503 124.827C148.335 124.827 150.981 126.007 152.864 128.085L154.136 129.489L156.028 129.394C158.824 129.254 161.531 130.29 163.535 132.294C165.418 134.176 166.444 136.655 166.444 139.326C166.444 139.571 166.443 139.671 166.438 139.75L166.318 141.672L167.745 142.964C169.823 144.847 171.003 147.493 171.003 150.324C171.003 153.157 169.822 155.809 167.745 157.69L166.318 158.983L166.438 160.904C166.443 160.983 166.444 161.083 166.444 161.329C166.444 163.993 165.417 166.479 163.535 168.36C161.531 170.364 158.824 171.4 156.028 171.26L154.136 171.165L152.864 172.569C150.981 174.647 148.335 175.827 145.503 175.827C142.671 175.827 140.025 174.647 138.142 172.569L136.87 171.165L134.978 171.26C132.181 171.4 129.474 170.364 127.47 168.36C125.588 166.478 124.561 163.999 124.561 161.329C124.561 161.083 124.563 160.983 124.568 160.904L124.688 158.983L123.261 157.69C121.184 155.809 120.004 153.165 120.003 150.327C120.004 147.49 121.184 144.846 123.261 142.964L124.688 141.672Z" fill="#F3F0E4" stroke="#231F20" stroke-width="8"/>
<path d="M130.003 150.329C130.003 148.244 130.874 146.288 132.405 144.901C132.398 144.783 132.398 144.665 132.398 144.547C132.398 142.591 133.158 140.75 134.542 139.366C136.015 137.894 138.015 137.126 140.078 137.229C141.466 135.698 143.422 134.827 145.503 134.827C147.584 134.827 149.54 135.698 150.928 137.229C152.991 137.126 154.991 137.894 156.464 139.366C157.848 140.75 158.608 142.587 158.608 144.547C158.608 144.665 158.608 144.783 158.6 144.901C160.132 146.288 161.003 148.244 161.003 150.325C161.003 152.406 160.132 154.366 158.6 155.753C158.608 155.871 158.608 155.99 158.608 156.108C158.608 158.063 157.848 159.905 156.464 161.288C154.991 162.761 152.991 163.528 150.928 163.425C149.54 164.956 147.584 165.827 145.503 165.827C143.421 165.827 141.466 164.956 140.078 163.425C138.015 163.528 136.015 162.761 134.542 161.288C133.158 159.905 132.398 158.067 132.398 156.108C132.398 155.99 132.398 155.871 132.405 155.753C130.874 154.366 130.003 152.41 130.003 150.325L130.003 150.329Z" fill="#FF9933"/>
</svg>
