<svg width="294" height="294" viewBox="0 0 294 294" fill="none" xmlns="http://www.w3.org/2000/svg">
<path d="M141.919 145.267C141.919 145.267 293.549 87.4673 293.999 133.677C294.479 183.547 141.919 145.267 141.919 145.267Z" fill="#231F20"/>
<path d="M148.219 145.068C148.219 145.068 289.389 96.8976 289.749 134.208C290.139 174.468 148.219 145.068 148.219 145.068Z" fill="#4D4DFF"/>
<path d="M210.689 142.258C210.689 142.258 265.979 129.028 265.889 138.268C265.799 148.228 210.689 142.258 210.689 142.258Z" fill="#D2D3D4"/>
<path d="M142.629 147.447C142.629 147.447 238.929 16.837 264.299 55.477C291.669 97.167 142.629 147.447 142.629 147.447Z" fill="#231F20"/>
<path d="M147.819 143.857C147.819 143.857 240.539 27.017 261.009 58.207C283.109 91.867 147.819 143.857 147.819 143.857Z" fill="#4D4DFF"/>
<path d="M198.849 107.717C198.849 107.717 238.209 66.6971 243.129 74.5171C248.439 82.9471 198.849 107.717 198.849 107.717Z" fill="#D2D3D4"/>
<path d="M144.389 148.887C144.389 148.887 154.799 -13.053 197.029 5.73698C242.599 26.017 144.389 148.887 144.389 148.887Z" fill="#231F20"/>
<path d="M146.819 143.067C146.819 143.067 161.649 -5.35306 195.739 9.81694C232.529 26.1869 146.819 143.067 146.819 143.067Z" fill="#4D4DFF"/>
<path d="M170.219 85.0771C170.219 85.0771 181.159 29.2871 189.519 33.2071C198.539 37.4271 170.219 85.0771 170.219 85.0771Z" fill="#D2D3D4"/>
<path d="M146.659 149.147C146.659 149.147 67.8588 7.28679 113.549 0.266787C162.849 -7.31321 146.659 149.147 146.659 149.147Z" fill="#231F20"/>
<path d="M145.559 142.937C145.559 142.937 77.7888 10.0566 114.669 4.3866C154.469 -1.7334 145.559 142.927 145.559 142.927V142.937Z" fill="#4D4DFF"/>
<path d="M133.879 81.4969C133.879 81.4969 112.919 28.6569 122.069 27.4269C131.949 26.0969 133.879 81.4969 133.879 81.4969Z" fill="#D2D3D4"/>
<path d="M148.709 148.137C148.709 148.137 5.72875 71.3968 40.3587 40.7968C77.7287 7.76684 148.709 148.147 148.709 148.147V148.137Z" fill="#231F20"/>
<path d="M144.419 143.507C144.419 143.507 15.5787 68.3667 43.5387 43.6567C73.7087 16.9967 144.429 143.507 144.429 143.507H144.419Z" fill="#4D4DFF"/>
<path d="M101.389 98.1367C101.389 98.1367 55.1887 65.0167 62.2187 59.0367C69.8087 52.5867 101.389 98.1367 101.389 98.1367Z" fill="#D2D3D4"/>
<path d="M149.888 146.187C149.888 146.187 -11.8915 158.927 0.698479 114.457C14.2885 66.4672 149.878 146.187 149.878 146.187H149.888Z" fill="#231F20"/>
<path d="M143.778 144.607C143.778 144.607 -5.24174 151.047 4.91826 115.147C15.8883 76.4071 143.768 144.607 143.768 144.607H143.778Z" fill="#4D4DFF"/>
<path d="M83.0487 129.707C83.0487 129.707 26.2787 126.817 28.9587 117.987C31.8587 108.457 83.0487 129.707 83.0487 129.707Z" fill="#D2D3D4"/>
<path d="M149.819 143.897C149.819 143.897 20.6187 242.087 7.16868 197.867C-7.35132 150.147 149.819 143.907 149.819 143.907V143.897Z" fill="#231F20"/>
<path d="M143.829 145.877C143.829 145.877 21.9485 231.867 11.0885 196.167C-0.631467 157.647 143.829 145.877 143.829 145.877Z" fill="#4D4DFF"/>
<path d="M84.6787 166.177C84.6787 166.177 35.3587 194.447 32.8387 185.557C30.1187 175.967 84.6787 166.177 84.6787 166.177Z" fill="#D2D3D4"/>
<path d="M148.529 142.017C148.529 142.017 92.9186 294.467 57.6986 264.537C19.6886 232.247 148.529 142.017 148.529 142.017Z" fill="#231F20"/>
<path d="M144.558 146.917C144.558 146.917 88.5185 285.147 60.0785 260.987C29.3985 234.917 144.558 146.917 144.558 146.917Z" fill="#4D4DFF"/>
<path d="M105.769 195.967C105.769 195.967 79.5586 246.417 72.6386 240.297C65.1686 233.697 105.769 195.967 105.769 195.967Z" fill="#D2D3D4"/>
<path d="M146.429 141.127C146.429 141.127 182.069 299.437 136.249 293.307C86.8189 286.687 146.429 141.127 146.429 141.127Z" fill="#231F20"/>
<path d="M145.729 147.397C145.729 147.397 173.319 293.977 136.329 289.027C96.4189 283.687 145.729 147.397 145.729 147.397Z" fill="#4D4DFF"/>
<path d="M139.629 209.637C139.629 209.637 144.849 266.247 135.729 264.847C125.879 263.337 139.629 209.637 139.629 209.637Z" fill="#D2D3D4"/>
<path d="M144.179 141.517C144.179 141.517 259.749 255.427 217.889 275.037C172.729 296.197 144.179 141.517 144.179 141.517Z" fill="#231F20"/>
<path d="M146.989 147.167C146.989 147.167 249.449 255.567 215.659 271.397C179.199 288.477 146.989 147.167 146.989 147.167Z" fill="#4D4DFF"/>
<path d="M175.499 202.827C175.499 202.827 210.499 247.627 202.059 251.377C192.959 255.427 175.499 202.827 175.499 202.827Z" fill="#D2D3D4"/>
<path d="M142.499 143.067C142.499 143.067 301.309 176.417 276.699 215.537C250.139 257.757 142.499 143.067 142.499 143.067Z" fill="#231F20"/>
<path d="M147.909 146.297C147.909 146.297 292.709 182.097 272.839 213.677C251.399 247.757 147.909 146.297 147.909 146.297Z" fill="#4D4DFF"/>
<path d="M201.989 177.708C201.989 177.708 255.649 196.468 250.589 204.198C245.119 212.528 201.989 177.708 201.989 177.708Z" fill="#D2D3D4"/>
<path d="M127.685 139.845L127.565 137.923C127.56 137.844 127.558 137.744 127.558 137.498C127.558 134.834 128.586 132.348 130.468 130.467C132.471 128.463 135.179 127.427 137.975 127.567L139.867 127.662L141.139 126.258C143.022 124.18 145.668 123 148.5 123C151.332 123 153.978 124.18 155.861 126.258L157.133 127.662L159.025 127.567C161.821 127.427 164.529 128.463 166.532 130.467C168.415 132.349 169.442 134.828 169.442 137.498C169.442 137.744 169.44 137.844 169.435 137.923L169.315 139.845L170.742 141.137C172.82 143.02 174 145.666 174 148.496C174 151.33 172.819 153.981 170.742 155.863L169.315 157.155L169.435 159.077C169.44 159.156 169.442 159.256 169.442 159.501C169.442 162.166 168.414 164.652 166.532 166.533C164.529 168.537 161.821 169.573 159.025 169.433L157.133 169.338L155.861 170.742C153.978 172.82 151.332 174 148.5 174C145.668 174 143.022 172.82 141.139 170.742L139.867 169.338L137.975 169.433C135.179 169.573 132.471 168.537 130.468 166.533C128.585 164.651 127.558 162.172 127.558 159.501C127.558 159.256 127.56 159.156 127.565 159.077L127.685 157.155L126.258 155.863C124.181 153.981 123.001 151.338 123 148.5C123.001 145.662 124.181 143.018 126.258 141.137L127.685 139.845Z" fill="#F3F0E4" stroke="#231F20" stroke-width="8"/>
<path d="M133 148.502C133 146.417 133.871 144.461 135.403 143.074C135.395 142.956 135.395 142.838 135.395 142.72C135.395 140.764 136.155 138.922 137.539 137.539C139.012 136.066 141.012 135.299 143.075 135.402C144.463 133.871 146.419 133 148.5 133C150.581 133 152.537 133.871 153.925 135.402C155.988 135.299 157.988 136.066 159.461 137.539C160.845 138.922 161.605 140.76 161.605 142.72C161.605 142.838 161.605 142.956 161.597 143.074C163.129 144.461 164 146.417 164 148.498C164 150.579 163.129 152.539 161.597 153.926C161.605 154.044 161.605 154.162 161.605 154.28C161.605 156.236 160.845 158.077 159.461 159.461C157.988 160.934 155.988 161.701 153.925 161.598C152.537 163.129 150.581 164 148.5 164C146.419 164 144.463 163.129 143.075 161.598C141.012 161.701 139.012 160.934 137.539 159.461C136.155 158.077 135.395 156.24 135.395 154.28C135.395 154.162 135.395 154.044 135.403 153.926C133.871 152.539 133 150.583 133 148.498L133 148.502Z" fill="#FF9933"/>
</svg>
