<svg width="229" height="227" viewBox="0 0 229 227" fill="none" xmlns="http://www.w3.org/2000/svg">
<path d="M183.88 140.4C206.28 161.13 180.62 229.29 158.22 208.56C135.82 187.83 105.89 118.21 115.37 107.96C124.85 97.7101 161.48 119.67 183.88 140.4Z" fill="#231F20"/>
<path d="M178.93 144.58C195.26 159.69 177.52 217.28 162.8 200.6C140.53 175.36 119.16 124.75 126.07 117.28C132.98 109.81 162.6 129.47 178.93 144.57V144.58Z" fill="#2E3192"/>
<path d="M167.8 188.83C171.633 188.83 174.74 185.723 174.74 181.89C174.74 178.057 171.633 174.95 167.8 174.95C163.967 174.95 160.86 178.057 160.86 181.89C160.86 185.723 163.967 188.83 167.8 188.83Z" fill="#E6E7E8"/>
<path d="M188.14 98.1098C218.19 103.43 233.46 174.65 203.41 169.33C173.36 164.01 110.54 121.61 112.97 107.87C115.41 94.1198 158.09 92.7998 188.14 98.1198V98.1098Z" fill="#231F20"/>
<path d="M186.23 104.3C208.13 108.18 224.35 166.22 202.95 160.15C170.57 150.96 125.23 119.94 127.01 109.92C128.78 99.8997 164.33 100.42 186.23 104.3Z" fill="#2E3192"/>
<path d="M197.05 148.65C200.883 148.65 203.99 145.543 203.99 141.71C203.99 137.877 200.883 134.77 197.05 134.77C193.217 134.77 190.11 137.877 190.11 141.71C190.11 145.543 193.217 148.65 197.05 148.65Z" fill="#E6E7E8"/>
<path d="M168.86 60.2301C197.02 48.4601 248.36 100.12 220.2 111.89C192.04 123.66 116.28 121.96 110.89 109.08C105.51 96.2002 140.7 72.0102 168.86 60.2402V60.2301Z" fill="#231F20"/>
<path d="M170.6 66.47C191.12 57.89 236.15 97.95 214.86 104.41C182.65 114.19 127.74 112.6 123.81 103.21C119.89 93.82 150.07 75.05 170.59 66.47H170.6Z" fill="#2E3192"/>
<path d="M199.92 99.0402C203.753 99.0402 206.86 95.933 206.86 92.1002C206.86 88.2673 203.753 85.1602 199.92 85.1602C196.087 85.1602 192.98 88.2673 192.98 92.1002C192.98 95.933 196.087 99.0402 199.92 99.0402Z" fill="#E6E7E8"/>
<path d="M132.16 38.7898C149.49 13.6598 220.61 29.3598 203.28 54.4898C185.95 79.6198 121.3 119.15 109.8 111.22C98.3103 103.29 114.83 63.9198 132.16 38.7898Z" fill="#231F20"/>
<path d="M137 43.0997C149.63 24.7897 209.16 34.1497 194.75 51.0898C172.94 76.7297 125.89 105.08 117.51 99.2998C109.13 93.5198 124.37 61.4097 137 43.0997Z" fill="#2E3192"/>
<path d="M175.52 55.7399C179.353 55.7399 182.46 52.6327 182.46 48.7999C182.46 44.967 179.353 41.8599 175.52 41.8599C171.687 41.8599 168.58 44.967 168.58 48.7999C168.58 52.6327 171.687 55.7399 175.52 55.7399Z" fill="#E6E7E8"/>
<path d="M89.6999 40.5899C90.6899 10.0899 159.01 -15.1601 158.02 15.3499C157.03 45.8499 124.01 114.07 110.05 113.61C96.0999 113.16 88.7099 71.0999 89.6999 40.5899Z" fill="#231F20"/>
<path d="M96.0997 41.5998C96.8197 19.3698 151.97 -4.95019 149 17.0998C144.51 50.4598 120.26 99.7498 110.09 99.4198C99.9197 99.0898 95.3797 63.8298 96.0997 41.5998Z" fill="#2E3192"/>
<path d="M131.59 32.5099C135.423 32.5099 138.53 29.4027 138.53 25.5699C138.53 21.737 135.423 18.6299 131.59 18.6299C127.757 18.6299 124.65 21.737 124.65 25.5699C124.65 29.4027 127.757 32.5099 131.59 32.5099Z" fill="#E6E7E8"/>
<path d="M54.9501 65.0701C39.2901 38.8701 83.1201 -19.2999 98.7701 6.90012C114.43 33.1001 123.53 108.33 111.54 115.5C99.5601 122.66 70.6001 91.2701 54.9401 65.0801L54.9501 65.0701Z" fill="#231F20"/>
<path d="M60.8799 62.4501C49.4699 43.3601 82.7099 -6.90988 92.1399 13.2401C106.4 43.7301 112.64 98.3101 103.91 103.53C95.1799 108.75 72.2999 81.5501 60.8899 62.4501H60.8799Z" fill="#2E3192"/>
<path d="M82.0699 36.7203C85.9027 36.7203 89.0099 33.6132 89.0099 29.7803C89.0099 25.9475 85.9027 22.8403 82.0699 22.8403C78.237 22.8403 75.1299 25.9475 75.1299 29.7803C75.1299 33.6132 78.237 36.7203 82.0699 36.7203Z" fill="#E6E7E8"/>
<path d="M38.9502 104.44C11.6102 90.8698 17.0302 18.2298 44.3702 31.8098C71.7102 45.3798 120.04 103.76 113.83 116.26C107.62 128.76 66.2902 118.01 38.9602 104.44H38.9502Z" fill="#231F20"/>
<path d="M42.5302 99.0399C22.6102 89.1499 23.4002 28.8899 42.2202 40.7399C70.7002 58.6799 105.46 101.22 100.93 110.33C96.4002 119.44 62.4502 108.93 42.5302 99.0299V99.0399Z" fill="#2E3192"/>
<path d="M42.69 67.0397C46.5229 67.0397 49.63 63.9325 49.63 60.0997C49.63 56.2668 46.5229 53.1597 42.69 53.1597C38.8571 53.1597 35.75 56.2668 35.75 60.0997C35.75 63.9325 38.8571 67.0397 42.69 67.0397Z" fill="#E6E7E8"/>
<path d="M46.7799 146.22C16.4499 149.58 -18.2701 85.5502 12.0699 82.1902C42.3999 78.8302 114.62 101.81 116.16 115.69C117.7 129.57 77.1199 142.87 46.7799 146.22Z" fill="#231F20"/>
<path d="M46.8599 139.74C24.7499 142.19 -7.16015 91.0701 15.0799 90.8601C48.7399 90.5501 100.98 107.55 102.1 117.66C103.22 127.77 68.9699 137.28 46.8599 139.73V139.74Z" fill="#2E3192"/>
<path d="M25.9498 113.83C29.7826 113.83 32.8898 110.723 32.8898 106.89C32.8898 103.057 29.7826 99.9502 25.9498 99.9502C22.1169 99.9502 19.0098 103.057 19.0098 106.89C19.0098 110.723 22.1169 113.83 25.9498 113.83Z" fill="#E6E7E8"/>
<path d="M75.9502 177.13C52.2502 196.36 -11.5698 161.26 12.1302 142.03C35.8302 122.8 109.01 103.09 117.8 113.93C126.6 124.77 99.6502 157.9 75.9402 177.13H75.9502Z" fill="#231F20"/>
<path d="M72.5202 171.63C55.2402 185.64 0.760174 159.89 19.3602 147.69C47.5102 129.24 100.65 115.29 107.06 123.19C113.47 131.09 89.8002 157.61 72.5202 171.62V171.63Z" fill="#2E3192"/>
<path d="M37.1602 162.25C40.9931 162.25 44.1002 159.143 44.1002 155.31C44.1002 151.477 40.9931 148.37 37.1602 148.37C33.3274 148.37 30.2202 151.477 30.2202 155.31C30.2202 159.143 33.3274 162.25 37.1602 162.25Z" fill="#E6E7E8"/>
<path d="M117.2 187.36C107.65 216.35 34.9902 221.32 44.5402 192.33C54.0902 163.34 104.99 107.2 118.25 111.56C131.51 115.93 126.75 158.36 117.2 187.35V187.36Z" fill="#231F20"/>
<path d="M111.34 184.59C104.38 205.72 44.6202 213.51 53.6802 193.19C67.3802 162.45 104.54 121.99 114.21 125.17C123.88 128.35 118.3 163.46 111.34 184.59Z" fill="#2E3192"/>
<path d="M72.7701 196.91C76.6029 196.91 79.7101 193.803 79.7101 189.97C79.7101 186.137 76.6029 183.03 72.7701 183.03C68.9372 183.03 65.8301 186.137 65.8301 189.97C65.8301 193.803 68.9372 196.91 72.7701 196.91Z" fill="#E6E7E8"/>
<path d="M157.43 173.67C165.07 203.22 106.63 246.69 98.99 217.14C91.35 187.59 103.81 112.84 117.33 109.34C130.85 105.84 149.79 144.12 157.43 173.67Z" fill="#231F20"/>
<path d="M151.01 174.51C156.58 196.05 110.52 234.91 107.15 212.92C102.06 179.65 111.44 125.52 121.3 122.97C131.15 120.42 145.44 152.97 151.01 174.51Z" fill="#2E3192"/>
<path d="M121.47 206.82C125.303 206.82 128.41 203.713 128.41 199.88C128.41 196.047 125.303 192.94 121.47 192.94C117.637 192.94 114.53 196.047 114.53 199.88C114.53 203.713 117.637 206.82 121.47 206.82Z" fill="#E6E7E8"/>
<path d="M92.6848 102.845L92.5647 100.923C92.5597 100.844 92.5585 100.744 92.5585 100.498C92.5585 97.8341 93.5861 95.3481 95.4675 93.4668C97.4715 91.4632 100.179 90.4269 102.975 90.5669L104.867 90.6617L106.139 89.2578C108.022 87.1797 110.668 86 113.5 86C116.332 86 118.978 87.1797 120.861 89.2578L122.133 90.6617L124.025 90.5669C126.821 90.4269 129.529 91.4632 131.532 93.4668C133.415 95.3488 134.442 97.8282 134.442 100.498C134.442 100.744 134.44 100.844 134.435 100.923L134.315 102.845L135.742 104.137C137.82 106.02 139 108.666 139 111.496C139 114.33 137.819 116.981 135.742 118.863L134.315 120.155L134.435 122.077C134.44 122.156 134.442 122.256 134.442 122.501C134.442 125.166 133.414 127.652 131.532 129.533C129.529 131.537 126.821 132.573 124.025 132.433L122.133 132.338L120.861 133.742C118.978 135.82 116.332 137 113.5 137C110.668 137 108.022 135.82 106.139 133.742L104.867 132.338L102.975 132.433C100.179 132.573 97.4715 131.537 95.4675 129.533C93.5853 127.651 92.5585 125.172 92.5585 122.501C92.5585 122.256 92.5597 122.156 92.5647 122.077L92.6848 120.155L91.258 118.863C89.1813 116.981 88.001 114.338 88 111.5C88.001 108.662 89.1813 106.018 91.258 104.137L92.6848 102.845Z" fill="#F3F0E4" stroke="#231F20" stroke-width="8"/>
<path d="M98 111.502C98 109.417 98.871 107.461 100.403 106.074C100.395 105.956 100.395 105.838 100.395 105.72C100.395 103.764 101.155 101.922 102.539 100.539C104.012 99.0664 106.012 98.2989 108.075 98.4022C109.463 96.8708 111.419 96 113.5 96C115.581 96 117.537 96.8708 118.925 98.4022C120.988 98.2989 122.988 99.0664 124.461 100.539C125.845 101.922 126.605 103.76 126.605 105.72C126.605 105.838 126.605 105.956 126.597 106.074C128.129 107.461 129 109.417 129 111.498C129 113.579 128.129 115.539 126.597 116.926C126.605 117.044 126.605 117.162 126.605 117.28C126.605 119.236 125.845 121.077 124.461 122.461C122.988 123.934 120.988 124.701 118.925 124.598C117.537 126.129 115.581 127 113.5 127C111.419 127 109.463 126.129 108.075 124.598C106.012 124.701 104.012 123.934 102.539 122.461C101.155 121.077 100.395 119.24 100.395 117.28C100.395 117.162 100.395 117.044 100.403 116.926C98.871 115.539 98 113.583 98 111.498L98 111.502Z" fill="#FF9933"/>
</svg>
