<svg width="257" height="257" viewBox="0 0 257 257" fill="none" xmlns="http://www.w3.org/2000/svg">
<path d="M126.89 128.13C126.89 128.13 256.14 82.9102 256.14 128.73C256.14 178.17 126.89 128.13 126.89 128.13Z" fill="black"/>
<path d="M132.24 128.431C132.24 128.431 252.52 91.9305 252.52 128.911C252.52 168.821 132.24 128.431 132.24 128.431Z" fill="#4D4DFF"/>
<path d="M171 128.51C171 128.51 218.06 119.8 217.91 128.94C217.75 138.8 171 128.51 171 128.51Z" fill="#D1D3D4"/>
<path d="M127.08 128.71C127.08 128.71 216.4 24.9299 239.31 64.5999C264.03 107.41 127.08 128.71 127.08 128.71Z" fill="black"/>
<path d="M131.86 126.289C131.86 126.289 217.78 34.5395 236.27 66.5695C256.22 101.129 131.86 126.289 131.86 126.289Z" fill="#4D4DFF"/>
<path d="M165.47 106.99C165.47 106.99 201.87 75.9102 206.31 83.9002C211.1 92.5202 165.47 106.99 165.47 106.99Z" fill="#D1D3D4"/>
<path d="M127.53 129.12C127.53 129.12 153 -5.41993 192.67 17.4901C235.48 42.2101 127.53 129.12 127.53 129.12Z" fill="black"/>
<path d="M130.47 124.63C130.47 124.63 159 2.21047 191.03 20.7105C225.59 40.6605 130.47 124.64 130.47 124.64V124.63Z" fill="#4D4DFF"/>
<path d="M149.92 91.1098C149.92 91.1098 165.91 45.9998 173.75 50.6998C182.21 55.7698 149.92 91.1098 149.92 91.1098Z" fill="#D1D3D4"/>
<path d="M128.13 129.25C128.13 129.25 82.9102 0 128.73 0C178.17 0 128.13 129.25 128.13 129.25Z" fill="black"/>
<path d="M128.43 123.89C128.43 123.89 91.9301 3.61035 128.91 3.61035C168.82 3.61035 128.43 123.89 128.43 123.89Z" fill="#4D4DFF"/>
<path d="M128.51 85.1399C128.51 85.1399 119.8 38.0799 128.94 38.2299C138.8 38.3899 128.51 85.1399 128.51 85.1399Z" fill="#D1D3D4"/>
<path d="M128.71 129.061C128.71 129.061 24.9298 39.7305 64.6098 16.8305C107.42 -7.88948 128.72 129.061 128.72 129.061H128.71Z" fill="black"/>
<path d="M126.29 124.27C126.29 124.27 34.54 38.3504 66.57 19.8604C101.13 -0.08957 126.29 124.27 126.29 124.27Z" fill="#4D4DFF"/>
<path d="M106.99 90.6699C106.99 90.6699 75.9102 54.2699 83.9002 49.8299C92.5202 45.0399 106.99 90.6699 106.99 90.6699Z" fill="#D1D3D4"/>
<path d="M129.12 128.6C129.12 128.6 -5.41993 103.14 17.4901 63.4598C42.2101 20.6498 129.12 128.6 129.12 128.6Z" fill="black"/>
<path d="M124.63 125.66C124.63 125.66 2.20998 97.1401 20.71 65.1101C40.66 30.5501 124.64 125.67 124.64 125.67L124.63 125.66Z" fill="#4D4DFF"/>
<path d="M91.1098 106.22C91.1098 106.22 45.9998 90.2297 50.6998 82.3897C55.7698 73.9297 91.1098 106.22 91.1098 106.22Z" fill="#D1D3D4"/>
<path d="M129.25 128C129.25 128 0 173.22 0 127.4C0 77.9599 129.25 128 129.25 128Z" fill="black"/>
<path d="M123.89 127.7C123.89 127.7 3.60986 164.2 3.60986 127.22C3.60986 87.3097 123.89 127.7 123.89 127.7Z" fill="#4D4DFF"/>
<path d="M85.1399 127.62C85.1399 127.62 38.0799 136.33 38.2299 127.19C38.3899 117.33 85.1399 127.62 85.1399 127.62Z" fill="#D1D3D4"/>
<path d="M129.06 127.42C129.06 127.42 39.73 231.2 16.83 191.53C-7.88997 148.72 129.06 127.42 129.06 127.42Z" fill="black"/>
<path d="M124.27 129.84C124.27 129.84 38.3499 221.59 19.8599 189.56C-0.0900583 155 124.27 129.84 124.27 129.84Z" fill="#4D4DFF"/>
<path d="M90.6699 149.15C90.6699 149.15 54.2699 180.23 49.8299 172.24C45.0399 163.62 90.6699 149.15 90.6699 149.15Z" fill="#D1D3D4"/>
<path d="M128.6 127.01C128.6 127.01 103.14 261.55 63.4598 238.64C20.6498 213.92 128.6 127.01 128.6 127.01Z" fill="black"/>
<path d="M125.67 131.5C125.67 131.5 97.1401 253.92 65.1101 235.43C30.5501 215.48 125.67 131.5 125.67 131.5Z" fill="#4D4DFF"/>
<path d="M106.22 165.02C106.22 165.02 90.2301 210.13 82.3901 205.43C73.9301 200.36 106.22 165.02 106.22 165.02Z" fill="#D1D3D4"/>
<path d="M128 126.89C128 126.89 173.22 256.14 127.4 256.14C77.9599 256.14 128 126.89 128 126.89Z" fill="black"/>
<path d="M127.7 132.24C127.7 132.24 164.2 252.52 127.22 252.52C87.3101 252.52 127.7 132.24 127.7 132.24Z" fill="#4D4DFF"/>
<path d="M127.62 171C127.62 171 136.33 218.06 127.19 217.91C117.33 217.75 127.62 171 127.62 171Z" fill="#D1D3D4"/>
<path d="M127.42 127.08C127.42 127.08 231.2 216.4 191.53 239.31C148.72 264.03 127.42 127.08 127.42 127.08Z" fill="black"/>
<path d="M129.84 131.859C129.84 131.859 221.59 217.779 189.56 236.269C155 256.219 129.84 131.859 129.84 131.859Z" fill="#4D4DFF"/>
<path d="M149.15 165.47C149.15 165.47 180.23 201.87 172.24 206.31C163.62 211.1 149.15 165.47 149.15 165.47Z" fill="#D1D3D4"/>
<path d="M127.01 127.53C127.01 127.53 261.55 152.99 238.64 192.67C213.92 235.48 127.01 127.53 127.01 127.53Z" fill="black"/>
<path d="M131.5 130.47C131.5 130.47 253.92 159 235.43 191.03C215.48 225.59 131.5 130.47 131.5 130.47Z" fill="#4D4DFF"/>
<path d="M165.02 149.92C165.02 149.92 210.13 165.91 205.43 173.75C200.36 182.21 165.02 149.92 165.02 149.92Z" fill="#D1D3D4"/>
<path d="M128.002 145C125.581 145 123.31 143.989 121.699 142.21C121.561 142.219 121.424 142.219 121.287 142.219C119.016 142.219 116.878 141.336 115.271 139.729C113.561 138.019 112.67 135.696 112.79 133.3C111.011 131.689 110 129.417 110 127C110 124.583 111.011 122.311 112.79 120.7C112.67 118.304 113.561 115.981 115.271 114.271C116.878 112.664 119.012 111.781 121.287 111.781C121.424 111.781 121.561 111.781 121.699 111.79C123.31 110.011 125.581 109 127.998 109C130.415 109 132.69 110.011 134.301 111.79C134.439 111.781 134.576 111.781 134.713 111.781C136.984 111.781 139.122 112.664 140.729 114.271C142.439 115.981 143.33 118.304 143.21 120.7C144.989 122.311 146 124.583 146 127C146 129.417 144.989 131.689 143.21 133.3C143.33 135.696 142.439 138.019 140.729 139.729C139.122 141.336 136.988 142.219 134.713 142.219C134.576 142.219 134.439 142.219 134.301 142.21C132.69 143.989 130.419 145 127.998 145H128.002Z" fill="#262626"/>
<path d="M128.002 140C126.253 140 124.613 139.27 123.449 137.985C123.35 137.991 123.251 137.991 123.152 137.991C121.512 137.991 119.967 137.354 118.807 136.193C117.572 134.958 116.928 133.28 117.015 131.55C115.73 130.386 115 128.746 115 127C115 125.254 115.73 123.614 117.015 122.45C116.928 120.72 117.572 119.042 118.807 117.807C119.967 116.646 121.509 116.009 123.152 116.009C123.251 116.009 123.35 116.009 123.449 116.015C124.613 114.73 126.253 114 127.998 114C129.744 114 131.387 114.73 132.551 116.015C132.65 116.009 132.749 116.009 132.848 116.009C134.488 116.009 136.033 116.646 137.193 117.807C138.428 119.042 139.072 120.72 138.985 122.45C140.27 123.614 141 125.254 141 127C141 128.746 140.27 130.386 138.985 131.55C139.072 133.28 138.428 134.958 137.193 136.193C136.033 137.354 134.491 137.991 132.848 137.991C132.749 137.991 132.65 137.991 132.551 137.985C131.387 139.27 129.747 140 127.998 140H128.002Z" fill="white"/>
</svg>
