<svg width="300" height="301" viewBox="0 0 300 301" fill="none" xmlns="http://www.w3.org/2000/svg">
<path d="M147.21 150.414C147.21 150.414 303.33 106.144 299.72 152.224C295.83 201.944 147.21 150.414 147.21 150.414Z" fill="#231F20"/>
<path d="M153.51 150.754C153.51 150.754 298.36 115.164 295.45 152.364C292.31 192.504 153.51 150.754 153.51 150.754Z" fill="#4D4DFF"/>
<path d="M215.98 153.434C215.98 153.434 272.22 145.114 271.32 154.304C270.35 164.224 215.98 153.434 215.98 153.434Z" fill="#D2D3D4"/>
<path d="M147.35 150.954C147.35 150.954 265.01 39.2043 283.23 81.6843C302.89 127.524 147.35 150.954 147.35 150.954Z" fill="#231F20"/>
<path d="M153.09 148.344C153.09 148.344 264.81 49.5143 279.51 83.8043C295.38 120.804 153.09 148.344 153.09 148.344Z" fill="#4D4DFF"/>
<path d="M209.65 121.674C209.65 121.674 255.58 88.1743 259.05 96.7243C262.8 105.954 209.65 121.674 209.65 121.674Z" fill="#D2D3D4"/>
<path d="M147.73 151.374C147.73 151.374 199.98 -2.25581 235.85 26.8942C274.56 58.3442 147.73 151.384 147.73 151.384V151.374Z" fill="#231F20"/>
<path d="M151.6 146.394C151.6 146.394 204.59 6.96404 233.55 30.494C264.8 55.884 151.6 146.394 151.6 146.394Z" fill="#4D4DFF"/>
<path d="M189.29 96.4943C189.29 96.4943 214.39 45.4843 221.44 51.4443C229.05 57.8743 189.29 96.4943 189.29 96.4943Z" fill="#D2D3D4"/>
<path d="M148.26 151.564C148.26 151.564 123.13 -8.74553 168.44 0.384472C217.33 10.2445 148.26 151.564 148.26 151.564Z" fill="#231F20"/>
<path d="M149.37 145.355C149.37 145.355 131.5 -2.72534 168.07 4.65466C207.54 12.6147 149.37 145.365 149.37 145.365V145.355Z" fill="#4D4DFF"/>
<path d="M159.56 83.6643C159.56 83.6643 158.08 26.8343 167.09 28.8343C176.82 30.9943 159.56 83.6643 159.56 83.6643Z" fill="#D2D3D4"/>
<path d="M148.82 151.494C148.82 151.494 52.07 21.2142 96.43 8.25419C144.3 -5.73581 148.82 151.494 148.82 151.494Z" fill="#231F20"/>
<path d="M146.92 145.474C146.92 145.474 62.2701 22.6644 98.0901 12.1944C136.74 0.904354 146.92 145.474 146.92 145.474Z" fill="#4D4DFF"/>
<path d="M127.27 86.1142C127.27 86.1142 99.55 36.4842 108.46 34.0642C118.08 31.4542 127.27 86.1142 127.27 86.1142Z" fill="#D2D3D4"/>
<path d="M149.28 151.164C149.28 151.164 3.06977 80.7743 36.3298 48.6743C72.2198 14.0343 149.29 151.154 149.29 151.154L149.28 151.164Z" fill="#231F20"/>
<path d="M144.8 146.724C144.8 146.724 12.7797 77.3144 39.6297 51.4044C68.5997 23.4444 144.81 146.724 144.81 146.724H144.8Z" fill="#4D4DFF"/>
<path d="M99.8098 103.294C99.8098 103.294 52.1998 72.2341 58.9598 65.9441C66.2598 59.1641 99.8098 103.294 99.8098 103.294Z" fill="#D2D3D4"/>
<path d="M149.54 150.655C149.54 150.655 -12.6401 156.285 1.89988 112.405C17.5799 65.0546 149.54 150.655 149.54 150.655Z" fill="#231F20"/>
<path d="M143.51 148.815C143.51 148.815 -5.64988 148.705 6.08012 113.285C18.7401 75.0647 143.51 148.815 143.51 148.815Z" fill="#4D4DFF"/>
<path d="M83.4899 131.255C83.4899 131.255 26.8999 125.875 29.9699 117.165C33.2799 107.765 83.4899 131.255 83.4899 131.255Z" fill="#D2D3D4"/>
<path d="M149.53 150.094C149.53 150.094 8.54999 230.444 1.01999 184.834C-7.10001 135.624 149.53 150.094 149.53 150.094Z" fill="#231F20"/>
<path d="M143.33 151.264C143.33 151.264 11.2101 220.484 5.14009 183.664C-1.40991 143.934 143.34 151.254 143.34 151.254L143.33 151.264Z" fill="#4D4DFF"/>
<path d="M82.03 163.614C82.03 163.614 29.42 185.154 28.09 176.014C26.66 166.154 82.03 163.614 82.03 163.614Z" fill="#D2D3D4"/>
<path d="M149.26 149.594C149.26 149.594 61.76 286.254 33.91 249.374C3.85 209.574 149.26 149.594 149.26 149.594Z" fill="#231F20"/>
<path d="M144.32 153.514C144.32 153.514 59.5 276.204 37.01 246.434C12.75 214.304 144.32 153.514 144.32 153.514Z" fill="#4D4DFF"/>
<path d="M95.77 192.934C95.77 192.934 59.2 236.454 53.77 228.984C47.92 220.924 95.77 192.934 95.77 192.934Z" fill="#D2D3D4"/>
<path d="M148.79 149.284C148.79 149.284 134.83 310.954 93.0201 291.244C47.9101 269.974 148.79 149.284 148.79 149.284Z" fill="#231F20"/>
<path d="M146.23 155.044C146.23 155.044 128.15 303.104 94.4001 287.184C57.9801 270.014 146.23 155.044 146.23 155.044Z" fill="#4D4DFF"/>
<path d="M121.57 212.514C121.57 212.514 109.41 268.044 101.14 263.954C92.2101 259.534 121.57 212.514 121.57 212.514Z" fill="#D2D3D4"/>
<path d="M148.23 149.225C148.23 149.225 211 298.865 164.82 300.835C114.99 302.965 148.23 149.225 148.23 149.225Z" fill="#231F20"/>
<path d="M148.64 155.515C148.64 155.515 201.43 295.015 164.15 296.605C123.92 298.325 148.64 155.515 148.64 155.515Z" fill="#4D4DFF"/>
<path d="M153.51 217.854C153.51 217.854 168.55 272.675 159.32 272.895C149.36 273.125 153.51 217.854 153.51 217.854Z" fill="#D2D3D4"/>
<path d="M147.7 149.424C147.7 149.424 272.82 252.754 232.85 275.964C189.72 301.004 147.7 149.424 147.7 149.424Z" fill="#231F20"/>
<path d="M150.99 154.814C150.99 154.814 262.57 253.804 230.3 272.534C195.48 292.744 150.99 154.814 150.99 154.814Z" fill="#4D4DFF"/>
<path d="M184.28 207.754C184.28 207.754 223.07 249.304 215 253.794C206.29 258.634 184.28 207.754 184.28 207.754Z" fill="#D2D3D4"/>
<path d="M147.33 149.864C147.33 149.864 306.14 183.214 281.53 222.334C254.97 264.554 147.33 149.864 147.33 149.864Z" fill="#231F20"/>
<path d="M152.75 153.094C152.75 153.094 297.55 188.894 277.68 220.474C256.24 254.554 152.75 153.094 152.75 153.094Z" fill="#4D4DFF"/>
<path d="M206.82 184.504C206.82 184.504 260.48 203.264 255.42 210.994C249.95 219.324 206.82 184.504 206.82 184.504Z" fill="#D2D3D4"/>
<path d="M119.685 140.849L119.565 138.928C119.56 138.848 119.558 138.748 119.558 138.503C119.558 135.838 120.586 133.352 122.468 131.471C124.471 129.468 127.179 128.431 129.975 128.571L131.867 128.666L133.139 127.262C135.022 125.184 137.668 124.004 140.5 124.004C143.332 124.004 145.978 125.184 147.861 127.262L149.133 128.666L151.025 128.571C153.821 128.431 156.529 129.468 158.532 131.471C160.415 133.353 161.442 135.833 161.442 138.503C161.442 138.748 161.44 138.848 161.435 138.928L161.315 140.849L162.742 142.142C164.82 144.024 166 146.67 166 149.501C166 152.334 164.819 154.986 162.742 156.867L161.315 158.16L161.435 160.081C161.44 160.161 161.442 160.26 161.442 160.506C161.442 163.17 160.414 165.656 158.532 167.538C156.529 169.541 153.821 170.577 151.025 170.437L149.133 170.343L147.861 171.747C145.978 173.825 143.332 175.004 140.5 175.004C137.668 175.004 135.022 173.825 133.139 171.747L131.867 170.343L129.975 170.437C127.179 170.577 124.471 169.541 122.468 167.538C120.585 165.656 119.558 163.176 119.558 160.506C119.558 160.261 119.56 160.161 119.565 160.081L119.685 158.16L118.258 156.867C116.181 154.986 115.001 152.342 115 149.504C115.001 146.667 116.181 144.023 118.258 142.142L119.685 140.849Z" fill="#F3F0E4" stroke="#231F20" stroke-width="8"/>
<path d="M125 149.506C125 147.421 125.871 145.466 127.403 144.078C127.395 143.96 127.395 143.842 127.395 143.724C127.395 141.768 128.155 139.927 129.539 138.543C131.012 137.071 133.012 136.303 135.075 136.407C136.463 134.875 138.419 134.004 140.5 134.004C142.581 134.004 144.537 134.875 145.925 136.407C147.988 136.303 149.988 137.071 151.461 138.543C152.845 139.927 153.605 141.765 153.605 143.724C153.605 143.842 153.605 143.96 153.597 144.078C155.129 145.466 156 147.421 156 149.503C156 151.584 155.129 153.543 153.597 154.931C153.605 155.049 153.605 155.167 153.605 155.285C153.605 157.241 152.845 159.082 151.461 160.466C149.988 161.938 147.988 162.706 145.925 162.602C144.537 164.134 142.581 165.004 140.5 165.004C138.419 165.004 136.463 164.134 135.075 162.602C133.012 162.705 131.012 161.938 129.539 160.466C128.155 159.082 127.395 157.244 127.395 155.285C127.395 155.167 127.395 155.049 127.403 154.931C125.871 153.543 125 151.587 125 149.503L125 149.506Z" fill="#FF9933"/>
</svg>
