<svg width="303" height="299" viewBox="0 0 303 299" fill="none" xmlns="http://www.w3.org/2000/svg">
<path d="M150.116 149.08C150.116 149.08 307.666 110.22 302.476 156.15C296.866 205.71 150.116 149.08 150.116 149.08Z" fill="#231F20"/>
<path d="M156.396 149.64C156.396 149.64 302.386 119.07 298.196 156.14C293.666 196.15 156.396 149.64 156.396 149.64Z" fill="#4D4DFF"/>
<path d="M218.746 154.48C218.746 154.48 275.236 148.1 274.026 157.26C272.716 167.14 218.746 154.48 218.746 154.48Z" fill="#D2D3D4"/>
<path d="M150.216 149.59C150.216 149.59 275.306 46.22 290.546 89.85C306.996 136.93 150.216 149.59 150.216 149.59Z" fill="#231F20"/>
<path d="M156.126 147.38C156.126 147.38 274.396 56.4902 286.706 91.7202C299.986 129.73 156.126 147.38 156.126 147.38Z" fill="#4D4DFF"/>
<path d="M214.396 124.68C214.396 124.68 262.526 94.4302 265.406 103.2C268.516 112.67 214.396 124.68 214.396 124.68Z" fill="#D2D3D4"/>
<path d="M150.546 150.01C150.546 150.01 218.396 2.59966 251.056 35.2997C286.306 70.5797 150.536 150.01 150.536 150.01H150.546Z" fill="#231F20"/>
<path d="M154.896 145.449C154.896 145.449 222.026 12.2494 248.396 38.6394C276.856 67.1194 154.906 145.439 154.906 145.439L154.896 145.449Z" fill="#4D4DFF"/>
<path d="M197.556 99.7198C197.556 99.7198 227.786 51.5798 234.196 58.2398C241.106 65.4198 197.556 99.7198 197.556 99.7198Z" fill="#D2D3D4"/>
<path d="M151.006 150.25C151.006 150.25 148.186 -12.0001 191.806 3.27992C238.876 19.7799 151.016 150.24 151.016 150.24L151.006 150.25Z" fill="#231F20"/>
<path d="M152.956 144.25C152.956 144.25 155.636 -4.89027 190.856 7.44973C228.856 20.7697 152.966 144.24 152.966 144.24L152.956 144.25Z" fill="#4D4DFF"/>
<path d="M171.546 84.5398C171.546 84.5398 177.896 28.0498 186.556 31.2698C195.896 34.7398 171.546 84.5398 171.546 84.5398Z" fill="#D2D3D4"/>
<path d="M151.536 150.26C151.536 150.26 78.5962 5.29986 124.526 0.149864C174.086 -5.41014 151.536 150.26 151.536 150.26Z" fill="#231F20"/>
<path d="M150.686 144.01C150.686 144.01 88.3963 8.48002 125.476 4.32002C165.486 -0.169981 150.686 144.01 150.686 144.01Z" fill="#4D4DFF"/>
<path d="M141.526 82.1497C141.526 82.1497 122.736 28.4997 131.936 27.6397C141.856 26.7197 141.526 82.1497 141.526 82.1497Z" fill="#D2D3D4"/>
<path d="M152.016 150.04C152.016 150.04 23.4062 51.0898 62.5462 26.5098C104.786 -0.000199556 152.016 150.03 152.016 150.03V150.04Z" fill="#231F20"/>
<path d="M148.536 144.77C148.536 144.77 33.6161 49.6896 65.2161 29.8596C99.3161 8.45962 148.536 144.78 148.536 144.78V144.77Z" fill="#4D4DFF"/>
<path d="M113.446 93.0098C113.446 93.0098 73.2363 52.8197 81.1563 48.0597C89.6963 42.9297 113.446 93.0098 113.446 93.0098Z" fill="#D2D3D4"/>
<path d="M152.346 149.63C152.346 149.63 -6.46387 116.28 18.1461 77.1597C44.7061 34.9397 152.346 149.63 152.346 149.63Z" fill="#231F20"/>
<path d="M146.936 146.4C146.936 146.4 2.13602 110.6 22.006 79.0098C43.446 44.9298 146.936 146.39 146.936 146.39V146.4Z" fill="#4D4DFF"/>
<path d="M92.8561 114.99C92.8561 114.99 39.1961 96.2298 44.2561 88.4998C49.7261 80.1698 92.8561 114.99 92.8561 114.99Z" fill="#D2D3D4"/>
<path d="M152.476 149.12C152.476 149.12 -5.07405 187.98 0.125946 142.05C5.73595 92.4899 152.486 149.12 152.486 149.12H152.476Z" fill="#231F20"/>
<path d="M146.196 148.56C146.196 148.56 0.206113 179.13 4.39611 142.05C8.92611 102.04 146.196 148.55 146.196 148.55V148.56Z" fill="#4D4DFF"/>
<path d="M83.846 143.72C83.846 143.72 27.356 150.1 28.566 140.94C29.876 131.06 83.846 143.72 83.846 143.72Z" fill="#D2D3D4"/>
<path d="M152.366 148.61C152.366 148.61 27.2762 251.98 12.0362 208.34C-4.4138 161.26 152.366 148.6 152.366 148.6V148.61Z" fill="#231F20"/>
<path d="M146.466 150.82C146.466 150.82 28.196 241.71 15.886 206.49C2.60596 168.48 146.466 150.83 146.466 150.83V150.82Z" fill="#4D4DFF"/>
<path d="M88.1962 173.52C88.1962 173.52 40.0662 203.77 37.1862 195C34.0762 185.53 88.1962 173.52 88.1962 173.52Z" fill="#D2D3D4"/>
<path d="M152.046 148.19C152.046 148.19 84.1962 295.6 51.5262 262.9C16.2762 227.62 152.046 148.19 152.046 148.19Z" fill="#231F20"/>
<path d="M147.686 152.75C147.686 152.75 80.5661 285.95 54.1961 259.55C25.7361 231.07 147.686 152.75 147.686 152.75Z" fill="#4D4DFF"/>
<path d="M105.036 198.48C105.036 198.48 74.806 246.62 68.396 239.96C61.486 232.78 105.036 198.48 105.036 198.48Z" fill="#D2D3D4"/>
<path d="M151.576 147.95C151.576 147.95 154.406 310.2 110.786 294.91C63.716 278.41 151.576 147.95 151.576 147.95Z" fill="#231F20"/>
<path d="M149.626 153.95C149.626 153.95 146.946 303.08 111.736 290.74C73.7359 277.42 149.626 153.95 149.626 153.95Z" fill="#4D4DFF"/>
<path d="M131.046 213.66C131.046 213.66 124.696 270.15 116.036 266.93C106.696 263.46 131.046 213.66 131.046 213.66Z" fill="#D2D3D4"/>
<path d="M151.056 147.94C151.056 147.94 223.996 292.9 178.066 298.05C128.506 303.61 151.056 147.94 151.056 147.94Z" fill="#231F20"/>
<path d="M151.896 154.19C151.896 154.19 214.186 289.72 177.106 293.88C137.096 298.37 151.896 154.19 151.896 154.19Z" fill="#4D4DFF"/>
<path d="M161.056 216.05C161.056 216.05 179.846 269.7 170.646 270.56C160.726 271.48 161.056 216.05 161.056 216.05Z" fill="#D2D3D4"/>
<path d="M150.576 148.16C150.576 148.16 279.186 247.11 240.046 271.68C197.806 298.19 150.576 148.16 150.576 148.16Z" fill="#231F20"/>
<path d="M154.056 153.419C154.056 153.419 268.986 248.499 237.376 268.339C203.276 289.739 154.056 153.419 154.056 153.419Z" fill="#4D4DFF"/>
<path d="M189.146 205.18C189.146 205.18 229.356 245.37 221.436 250.13C212.896 255.26 189.146 205.18 189.146 205.18Z" fill="#D2D3D4"/>
<path d="M150.236 148.57C150.236 148.57 309.046 181.92 284.436 221.04C257.876 263.26 150.236 148.57 150.236 148.57Z" fill="#231F20"/>
<path d="M155.656 151.8C155.656 151.8 300.456 187.6 280.586 219.18C259.146 253.26 155.656 151.8 155.656 151.8Z" fill="#4D4DFF"/>
<path d="M209.726 183.21C209.726 183.21 263.386 201.97 258.326 209.7C252.856 218.03 209.726 183.21 209.726 183.21Z" fill="#D2D3D4"/>
<path d="M133.685 140.849L133.565 138.928C133.56 138.848 133.558 138.748 133.558 138.503C133.558 135.838 134.586 133.352 136.468 131.471C138.471 129.468 141.179 128.431 143.975 128.571L145.867 128.666L147.139 127.262C149.022 125.184 151.668 124.004 154.5 124.004C157.332 124.004 159.978 125.184 161.861 127.262L163.133 128.666L165.025 128.571C167.821 128.431 170.529 129.468 172.532 131.471C174.415 133.353 175.442 135.833 175.442 138.503C175.442 138.748 175.44 138.848 175.435 138.928L175.315 140.849L176.742 142.142C178.82 144.024 180 146.67 180 149.501C180 152.334 178.819 154.986 176.742 156.867L175.315 158.16L175.435 160.081C175.44 160.161 175.442 160.26 175.442 160.506C175.442 163.17 174.414 165.656 172.532 167.538C170.529 169.541 167.821 170.577 165.025 170.437L163.133 170.343L161.861 171.747C159.978 173.825 157.332 175.004 154.5 175.004C151.668 175.004 149.022 173.825 147.139 171.747L145.867 170.343L143.975 170.437C141.179 170.577 138.471 169.541 136.468 167.538C134.585 165.656 133.558 163.176 133.558 160.506C133.558 160.261 133.56 160.161 133.565 160.081L133.685 158.16L132.258 156.867C130.181 154.986 129.001 152.342 129 149.504C129.001 146.667 130.181 144.023 132.258 142.142L133.685 140.849Z" fill="#F3F0E4" stroke="#231F20" stroke-width="8"/>
<path d="M139 149.506C139 147.421 139.871 145.466 141.403 144.078C141.395 143.96 141.395 143.842 141.395 143.724C141.395 141.768 142.155 139.927 143.539 138.543C145.012 137.071 147.012 136.303 149.075 136.407C150.463 134.875 152.419 134.004 154.5 134.004C156.581 134.004 158.537 134.875 159.925 136.407C161.988 136.303 163.988 137.071 165.461 138.543C166.845 139.927 167.605 141.765 167.605 143.724C167.605 143.842 167.605 143.96 167.597 144.078C169.129 145.466 170 147.421 170 149.503C170 151.584 169.129 153.543 167.597 154.931C167.605 155.049 167.605 155.167 167.605 155.285C167.605 157.241 166.845 159.082 165.461 160.466C163.988 161.938 161.988 162.706 159.925 162.602C158.537 164.134 156.581 165.004 154.5 165.004C152.419 165.004 150.463 164.134 149.075 162.602C147.012 162.705 145.012 161.938 143.539 160.466C142.155 159.082 141.395 157.244 141.395 155.285C141.395 155.167 141.395 155.049 141.403 154.931C139.871 153.543 139 151.587 139 149.503L139 149.506Z" fill="#FF9933"/>
</svg>
