<svg width="302" height="301" viewBox="0 0 302 301" fill="none" xmlns="http://www.w3.org/2000/svg">
<path d="M148.874 151.239C148.874 151.239 307.514 117.109 300.954 162.859C293.864 212.229 148.874 151.239 148.874 151.239Z" fill="#231F20"/>
<path d="M155.133 152C155.133 152 301.973 125.81 296.673 162.74C290.953 202.59 155.133 152 155.133 152Z" fill="#4D4DFF"/>
<path d="M217.313 158.699C217.313 158.699 273.963 154.019 272.483 163.129C270.883 172.959 217.313 158.699 217.313 158.699Z" fill="#D2D3D4"/>
<path d="M148.953 151.729C148.953 151.729 280.003 56.0293 292.613 100.489C306.213 148.469 148.953 151.729 148.953 151.729Z" fill="#231F20"/>
<path d="M154.983 149.869C154.983 149.869 278.473 66.2191 288.653 102.119C299.633 140.859 154.983 149.869 154.983 149.869Z" fill="#4D4DFF"/>
<path d="M214.503 130.699C214.503 130.699 264.353 103.379 266.703 112.309C269.233 121.949 214.503 130.699 214.503 130.699Z" fill="#D2D3D4"/>
<path d="M149.223 152.139C149.223 152.139 230.013 11.4091 259.613 46.8991C291.563 85.1991 149.213 152.139 149.213 152.139H149.223Z" fill="#231F20"/>
<path d="M153.974 147.989C153.974 147.989 232.764 21.339 256.664 49.999C282.454 80.919 153.974 147.989 153.974 147.989Z" fill="#4D4DFF"/>
<path d="M200.553 106.269C200.553 106.269 234.983 61.029 240.763 68.239C246.993 76.009 200.553 106.269 200.553 106.269Z" fill="#D2D3D4"/>
<path d="M149.633 152.409C149.633 152.409 166.203 -9.02076 207.683 11.3692C252.443 33.3692 149.633 152.409 149.633 152.409Z" fill="#231F20"/>
<path d="M152.283 146.679C152.283 146.679 172.753 -1.06077 206.243 15.3892C242.383 33.1492 152.283 146.679 152.283 146.679Z" fill="#4D4DFF"/>
<path d="M177.874 89.6193C177.874 89.6193 190.924 34.2893 199.134 38.5193C207.994 43.0793 177.874 89.6193 177.874 89.6193Z" fill="#D2D3D4"/>
<path d="M150.123 152.479C150.123 152.479 99.5929 -1.73082 145.783 0.0191771C195.623 1.90918 150.123 152.479 150.123 152.479Z" fill="#231F20"/>
<path d="M150.213 146.169C150.213 146.169 108.823 2.87915 146.103 4.28915C186.333 5.80915 150.213 146.179 150.213 146.179V146.169Z" fill="#4D4DFF"/>
<path d="M150.383 83.6393C150.383 83.6393 139.803 27.7893 149.023 28.3093C158.973 28.8793 150.383 83.6393 150.383 83.6393Z" fill="#D2D3D4"/>
<path d="M150.593 152.349C150.593 152.349 41.7129 32.0294 84.6229 14.8394C130.923 -3.71064 150.593 152.349 150.593 152.349Z" fill="#231F20"/>
<path d="M148.113 146.549C148.113 146.549 52.0128 32.4792 86.6528 18.6092C124.033 3.6392 148.113 146.559 148.113 146.559V146.549Z" fill="#4D4DFF"/>
<path d="M122.833 89.3594C122.833 89.3594 90.4527 42.6394 99.0827 39.3694C108.403 35.8394 122.833 89.3594 122.833 89.3594Z" fill="#D2D3D4"/>
<path d="M150.973 152.039C150.973 152.039 2.57321 86.3994 34.7732 53.2494C69.5232 17.4794 150.973 152.039 150.973 152.039Z" fill="#231F20"/>
<path d="M146.353 147.749C146.353 147.749 12.1634 82.6295 38.1634 55.8695C66.2234 26.9895 146.353 147.759 146.353 147.759V147.749Z" fill="#4D4DFF"/>
<path d="M99.9931 105.79C99.9931 105.79 51.4031 76.2796 57.9631 69.7796C65.0431 62.7696 99.9931 105.79 99.9931 105.79Z" fill="#D2D3D4"/>
<path d="M151.203 151.599C151.203 151.599 -11.0667 151.999 4.86326 108.609C22.0633 61.7892 151.203 151.599 151.203 151.599Z" fill="#231F20"/>
<path d="M145.233 149.569C145.233 149.569 -3.84683 144.649 9.01317 109.629C22.8932 71.8393 145.223 149.569 145.223 149.569H145.233Z" fill="#4D4DFF"/>
<path d="M85.8032 130.089C85.8032 130.089 29.4132 122.889 32.7632 114.289C36.3732 104.999 85.8032 130.089 85.8032 130.089Z" fill="#D2D3D4"/>
<path d="M151.223 151.109C151.223 151.109 3.14307 217.479 0.0530664 171.359C-3.27693 121.599 151.223 151.109 151.223 151.109Z" fill="#231F20"/>
<path d="M144.943 151.679C144.943 151.679 6.75297 207.829 4.26297 170.599C1.57297 130.429 144.943 151.679 144.943 151.679Z" fill="#4D4DFF"/>
<path d="M82.7332 158.049C82.7332 158.049 28.2932 174.409 27.8532 165.189C27.3732 155.239 82.7332 158.049 82.7332 158.049Z" fill="#D2D3D4"/>
<path d="M151.043 150.649C151.043 150.649 42.7634 271.509 21.1834 230.639C-2.10657 186.529 151.043 150.649 151.043 150.649Z" fill="#231F20"/>
<path d="M145.534 153.729C145.534 153.729 42.1336 261.229 24.7136 228.229C5.91359 192.619 145.534 153.729 145.534 153.729Z" fill="#4D4DFF"/>
<path d="M91.3037 184.85C91.3037 184.85 48.2237 221.94 44.0637 213.69C39.5837 204.79 91.3037 184.85 91.3037 184.85Z" fill="#D2D3D4"/>
<path d="M150.693 150.309C150.693 150.309 100.923 304.759 64.5932 276.199C25.3832 245.379 150.693 150.309 150.693 150.309Z" fill="#231F20"/>
<path d="M146.913 155.359C146.913 155.359 96.1731 295.619 66.8431 272.559C35.1931 247.679 146.913 155.359 146.913 155.359Z" fill="#4D4DFF"/>
<path d="M110.023 205.849C110.023 205.849 85.7533 257.259 78.6033 251.409C70.8933 245.099 110.023 205.849 110.023 205.849Z" fill="#D2D3D4"/>
<path d="M150.233 150.129C150.233 150.129 167.593 311.469 122.773 300.159C74.4134 287.949 150.233 150.129 150.233 150.129Z" fill="#231F20"/>
<path d="M148.833 156.279C148.833 156.279 159.533 305.049 123.353 295.919C84.3133 286.059 148.833 156.279 148.833 156.279Z" fill="#4D4DFF"/>
<path d="M135.673 217.419C135.673 217.419 134.413 274.249 125.503 271.819C115.893 269.199 135.673 217.419 135.673 217.419Z" fill="#D2D3D4"/>
<path d="M149.743 150.159C149.743 150.159 231.223 290.489 185.683 298.379C136.543 306.889 149.743 150.159 149.743 150.159Z" fill="#231F20"/>
<path d="M150.963 156.349C150.963 156.349 221.253 287.909 184.483 294.279C144.813 301.149 150.963 156.349 150.963 156.349Z" fill="#4D4DFF"/>
<path d="M163.803 217.549C163.803 217.549 185.763 269.979 176.643 271.389C166.793 272.899 163.803 217.549 163.803 217.549Z" fill="#D2D3D4"/>
<path d="M149.303 150.389C149.303 150.389 280.823 245.449 242.423 271.179C200.993 298.949 149.303 150.389 149.303 150.389Z" fill="#231F20"/>
<path d="M152.943 155.539C152.943 155.539 270.663 247.139 239.663 267.909C206.213 290.329 152.943 155.539 152.943 155.539Z" fill="#4D4DFF"/>
<path d="M189.563 206.229C189.563 206.229 230.953 245.199 223.183 250.189C214.803 255.579 189.563 206.229 189.563 206.229Z" fill="#D2D3D4"/>
<path d="M149.003 150.769C149.003 150.769 307.813 184.119 283.203 223.239C256.643 265.459 149.003 150.769 149.003 150.769Z" fill="#231F20"/>
<path d="M154.414 153.999C154.414 153.999 299.214 189.799 279.344 221.379C257.904 255.459 154.414 153.999 154.414 153.999Z" fill="#4D4DFF"/>
<path d="M208.493 185.409C208.493 185.409 262.153 204.169 257.093 211.899C251.623 220.229 208.493 185.409 208.493 185.409Z" fill="#D2D3D4"/>
<path d="M129.685 138.849L129.565 136.928C129.56 136.848 129.558 136.748 129.558 136.503C129.558 133.838 130.586 131.352 132.468 129.471C134.471 127.468 137.179 126.431 139.975 126.571L141.867 126.666L143.139 125.262C145.022 123.184 147.668 122.004 150.5 122.004C153.332 122.004 155.978 123.184 157.861 125.262L159.133 126.666L161.025 126.571C163.821 126.431 166.529 127.468 168.532 129.471C170.415 131.353 171.442 133.833 171.442 136.503C171.442 136.748 171.44 136.848 171.435 136.928L171.315 138.849L172.742 140.142C174.82 142.024 176 144.67 176 147.501C176 150.334 174.819 152.986 172.742 154.867L171.315 156.16L171.435 158.081C171.44 158.161 171.442 158.26 171.442 158.506C171.442 161.17 170.414 163.656 168.532 165.538C166.529 167.541 163.821 168.577 161.025 168.437L159.133 168.343L157.861 169.747C155.978 171.825 153.332 173.004 150.5 173.004C147.668 173.004 145.022 171.825 143.139 169.747L141.867 168.343L139.975 168.437C137.179 168.577 134.471 167.541 132.468 165.538C130.585 163.656 129.558 161.176 129.558 158.506C129.558 158.261 129.56 158.161 129.565 158.081L129.685 156.16L128.258 154.867C126.181 152.986 125.001 150.342 125 147.504C125.001 144.667 126.181 142.023 128.258 140.142L129.685 138.849Z" fill="#F3F0E4" stroke="#231F20" stroke-width="8"/>
<path d="M135 147.506C135 145.421 135.871 143.466 137.403 142.078C137.395 141.96 137.395 141.842 137.395 141.724C137.395 139.768 138.155 137.927 139.539 136.543C141.012 135.071 143.012 134.303 145.075 134.407C146.463 132.875 148.419 132.004 150.5 132.004C152.581 132.004 154.537 132.875 155.925 134.407C157.988 134.303 159.988 135.071 161.461 136.543C162.845 137.927 163.605 139.765 163.605 141.724C163.605 141.842 163.605 141.96 163.597 142.078C165.129 143.466 166 145.421 166 147.503C166 149.584 165.129 151.543 163.597 152.931C163.605 153.049 163.605 153.167 163.605 153.285C163.605 155.241 162.845 157.082 161.461 158.466C159.988 159.938 157.988 160.706 155.925 160.602C154.537 162.134 152.581 163.004 150.5 163.004C148.419 163.004 146.463 162.134 145.075 160.602C143.012 160.705 141.012 159.938 139.539 158.466C138.155 157.082 137.395 155.244 137.395 153.285C137.395 153.167 137.395 153.049 137.403 152.931C135.871 151.543 135 149.587 135 147.503L135 147.506Z" fill="#FF9933"/>
</svg>
