<svg width="302" height="302" viewBox="0 0 302 302" fill="none" xmlns="http://www.w3.org/2000/svg">
<path d="M149.64 150.735C149.64 150.735 309.12 120.775 301.36 166.335C292.98 215.505 149.64 150.735 149.64 150.735Z" fill="#231F20"/>
<path d="M155.88 151.644C155.88 151.644 303.36 129.304 297.09 166.094C290.33 205.784 155.88 151.644 155.88 151.644Z" fill="#4D4DFF"/>
<path d="M217.85 159.974C217.85 159.974 274.61 156.774 272.88 165.844C271.02 175.634 217.85 159.974 217.85 159.974Z" fill="#D2D3D4"/>
<path d="M149.69 151.184C149.69 151.184 285.57 62.4642 295.83 107.534C306.9 156.164 149.69 151.184 149.69 151.184Z" fill="#231F20"/>
<path d="M155.81 149.644C155.81 149.644 283.51 72.5742 291.8 108.954C300.74 148.214 155.81 149.644 155.81 149.644Z" fill="#4D4DFF"/>
<path d="M216.25 133.624C216.25 133.624 267.46 108.944 269.34 117.984C271.37 127.744 216.25 133.624 216.25 133.624Z" fill="#D2D3D4"/>
<path d="M149.92 151.595C149.92 151.595 241.5 17.6345 268.23 55.3445C297.07 96.0345 149.92 151.595 149.92 151.595Z" fill="#231F20"/>
<path d="M154.98 147.824C154.98 147.824 243.47 27.7443 265.04 58.1943C288.32 91.0443 154.98 147.824 154.98 147.824Z" fill="#4D4DFF"/>
<path d="M204.69 109.885C204.69 109.885 242.56 67.4847 247.76 75.1247C253.37 83.3647 204.69 109.885 204.69 109.885Z" fill="#D2D3D4"/>
<path d="M150.28 151.874C150.28 151.874 183.63 -6.93555 222.76 17.6744C264.98 44.2344 150.29 151.874 150.29 151.874H150.28Z" fill="#231F20"/>
<path d="M153.521 146.454C153.521 146.454 189.32 1.66435 220.9 21.5244C254.98 42.9644 153.521 146.454 153.521 146.454Z" fill="#4D4DFF"/>
<path d="M184.93 92.3844C184.93 92.3844 203.69 38.7244 211.42 43.7844C219.75 49.2544 184.93 92.3844 184.93 92.3844Z" fill="#D2D3D4"/>
<path d="M150.73 151.994C150.73 151.994 120.76 -7.48572 166.33 0.274275C215.5 8.65428 150.73 151.994 150.73 151.994Z" fill="#231F20"/>
<path d="M151.64 145.754C151.64 145.754 129.3 -1.71561 166.09 4.54439C205.78 11.3044 151.64 145.754 151.64 145.754Z" fill="#4D4DFF"/>
<path d="M159.97 83.7841C159.97 83.7841 156.77 27.0241 165.84 28.7541C175.63 30.6141 159.97 83.7841 159.97 83.7841Z" fill="#D2D3D4"/>
<path d="M151.18 151.944C151.18 151.944 62.4701 16.0644 107.54 5.80443C156.17 -5.26557 151.19 151.944 151.19 151.944H151.18Z" fill="#231F20"/>
<path d="M149.64 145.824C149.64 145.824 72.5703 18.1242 108.95 9.83423C148.21 0.894233 149.64 145.824 149.64 145.824Z" fill="#4D4DFF"/>
<path d="M133.61 85.3845C133.61 85.3845 108.93 34.1745 117.97 32.2945C127.73 30.2645 133.61 85.3845 133.61 85.3845Z" fill="#D2D3D4"/>
<path d="M151.59 151.714C151.59 151.714 17.6297 60.1343 55.3397 33.4043C96.0297 4.56426 151.59 151.714 151.59 151.714Z" fill="#231F20"/>
<path d="M147.819 146.654C147.819 146.654 27.7394 58.1643 58.1894 36.5943C91.0394 13.3143 147.819 146.654 147.819 146.654Z" fill="#4D4DFF"/>
<path d="M109.88 96.9445C109.88 96.9445 67.4798 59.0745 75.1198 53.8745C83.3598 48.2645 109.88 96.9445 109.88 96.9445Z" fill="#D2D3D4"/>
<path d="M151.87 151.355C151.87 151.355 -6.93995 118.005 17.6701 78.8745C44.2301 36.6545 151.87 151.345 151.87 151.345V151.355Z" fill="#231F20"/>
<path d="M146.45 148.114C146.45 148.114 1.65996 112.314 21.52 80.7344C42.96 46.6544 146.45 148.114 146.45 148.114Z" fill="#4D4DFF"/>
<path d="M92.38 116.714C92.38 116.714 38.72 97.9544 43.78 90.2244C49.25 81.8944 92.38 116.714 92.38 116.714Z" fill="#D2D3D4"/>
<path d="M151.99 150.904C151.99 150.904 -7.49012 180.874 0.269881 135.304C8.64988 86.1343 151.99 150.904 151.99 150.904Z" fill="#231F20"/>
<path d="M145.75 149.994C145.75 149.994 -1.72 172.334 4.54 135.544C11.3 95.8542 145.75 149.994 145.75 149.994Z" fill="#4D4DFF"/>
<path d="M83.7797 141.664C83.7797 141.664 27.0197 144.864 28.7497 135.794C30.6097 126.004 83.7797 141.664 83.7797 141.664Z" fill="#D2D3D4"/>
<path d="M151.94 150.454C151.94 150.454 16.06 239.164 5.80004 194.094C-5.26996 145.464 151.94 150.444 151.94 150.444V150.454Z" fill="#231F20"/>
<path d="M145.82 151.994C145.82 151.994 18.1198 229.064 9.82984 192.684C0.889839 153.424 145.82 151.994 145.82 151.994Z" fill="#4D4DFF"/>
<path d="M85.3801 168.024C85.3801 168.024 34.1701 192.704 32.2901 183.664C30.2601 173.904 85.3801 168.024 85.3801 168.024Z" fill="#D2D3D4"/>
<path d="M151.71 150.044C151.71 150.044 60.1304 284.004 33.4004 246.294C4.56036 205.604 151.71 150.044 151.71 150.044Z" fill="#231F20"/>
<path d="M146.65 153.814C146.65 153.814 58.1604 273.894 36.5904 243.444C13.3104 210.594 146.65 153.814 146.65 153.814Z" fill="#4D4DFF"/>
<path d="M96.9406 191.754C96.9406 191.754 59.0705 234.154 53.8705 226.514C48.2605 218.274 96.9406 191.754 96.9406 191.754Z" fill="#D2D3D4"/>
<path d="M151.35 149.764C151.35 149.764 118 308.574 78.8799 283.964C36.6599 257.404 151.35 149.764 151.35 149.764Z" fill="#231F20"/>
<path d="M148.11 155.184C148.11 155.184 112.31 299.984 80.73 280.114C46.65 258.674 148.11 155.184 148.11 155.184Z" fill="#4D4DFF"/>
<path d="M116.71 209.254C116.71 209.254 97.95 262.914 90.22 257.854C81.89 252.384 116.71 209.254 116.71 209.254Z" fill="#D2D3D4"/>
<path d="M150.9 149.645C150.9 149.645 180.86 309.125 135.3 301.365C86.1299 292.985 150.9 149.645 150.9 149.645Z" fill="#231F20"/>
<path d="M149.99 155.885C149.99 155.885 172.33 303.365 135.54 297.095C95.8498 290.335 149.99 155.885 149.99 155.885Z" fill="#4D4DFF"/>
<path d="M141.66 217.854C141.66 217.854 144.86 274.614 135.79 272.884C126 271.024 141.66 217.854 141.66 217.854Z" fill="#D2D3D4"/>
<path d="M150.45 149.694C150.45 149.694 239.17 285.574 194.1 295.834C145.47 306.904 150.45 149.694 150.45 149.694Z" fill="#231F20"/>
<path d="M151.99 155.814C151.99 155.814 229.06 283.514 192.68 291.804C153.42 300.744 151.99 155.814 151.99 155.814Z" fill="#4D4DFF"/>
<path d="M168.02 216.254C168.02 216.254 192.7 267.464 183.66 269.344C173.9 271.374 168.02 216.254 168.02 216.254Z" fill="#D2D3D4"/>
<path d="M150.04 149.924C150.04 149.924 284 241.504 246.29 268.234C205.6 297.074 150.04 149.924 150.04 149.924Z" fill="#231F20"/>
<path d="M153.81 154.984C153.81 154.984 273.89 243.474 243.44 265.044C210.59 288.324 153.81 154.984 153.81 154.984Z" fill="#4D4DFF"/>
<path d="M191.75 204.694C191.75 204.694 234.15 242.564 226.51 247.764C218.27 253.374 191.75 204.694 191.75 204.694Z" fill="#D2D3D4"/>
<path d="M149.76 150.284C149.76 150.284 308.57 183.634 283.96 222.754C257.4 264.974 149.76 150.284 149.76 150.284Z" fill="#231F20"/>
<path d="M155.18 153.524C155.18 153.524 299.98 189.324 280.11 220.904C258.67 254.984 155.18 153.524 155.18 153.524Z" fill="#4D4DFF"/>
<path d="M209.25 184.924C209.25 184.924 262.91 203.684 257.85 211.414C252.38 219.744 209.25 184.924 209.25 184.924Z" fill="#D2D3D4"/>
<path d="M129.685 142.849L129.565 140.928C129.56 140.848 129.558 140.748 129.558 140.503C129.558 137.838 130.586 135.352 132.468 133.471C134.471 131.468 137.179 130.431 139.975 130.571L141.867 130.666L143.139 129.262C145.022 127.184 147.668 126.004 150.5 126.004C153.332 126.004 155.978 127.184 157.861 129.262L159.133 130.666L161.025 130.571C163.821 130.431 166.529 131.468 168.532 133.471C170.415 135.353 171.442 137.833 171.442 140.503C171.442 140.748 171.44 140.848 171.435 140.928L171.315 142.849L172.742 144.142C174.82 146.024 176 148.67 176 151.501C176 154.334 174.819 156.986 172.742 158.867L171.315 160.16L171.435 162.081C171.44 162.161 171.442 162.26 171.442 162.506C171.442 165.17 170.414 167.656 168.532 169.538C166.529 171.541 163.821 172.577 161.025 172.437L159.133 172.343L157.861 173.747C155.978 175.825 153.332 177.004 150.5 177.004C147.668 177.004 145.022 175.825 143.139 173.747L141.867 172.343L139.975 172.437C137.179 172.577 134.471 171.541 132.468 169.538C130.585 167.656 129.558 165.176 129.558 162.506C129.558 162.261 129.56 162.161 129.565 162.081L129.685 160.16L128.258 158.867C126.181 156.986 125.001 154.342 125 151.504C125.001 148.667 126.181 146.023 128.258 144.142L129.685 142.849Z" fill="#F3F0E4" stroke="#231F20" stroke-width="8"/>
<path d="M135 151.506C135 149.421 135.871 147.466 137.403 146.078C137.395 145.96 137.395 145.842 137.395 145.724C137.395 143.768 138.155 141.927 139.539 140.543C141.012 139.071 143.012 138.303 145.075 138.407C146.463 136.875 148.419 136.004 150.5 136.004C152.581 136.004 154.537 136.875 155.925 138.407C157.988 138.303 159.988 139.071 161.461 140.543C162.845 141.927 163.605 143.765 163.605 145.724C163.605 145.842 163.605 145.96 163.597 146.078C165.129 147.466 166 149.421 166 151.503C166 153.584 165.129 155.543 163.597 156.931C163.605 157.049 163.605 157.167 163.605 157.285C163.605 159.241 162.845 161.082 161.461 162.466C159.988 163.938 157.988 164.706 155.925 164.602C154.537 166.134 152.581 167.004 150.5 167.004C148.419 167.004 146.463 166.134 145.075 164.602C143.012 164.705 141.012 163.938 139.539 162.466C138.155 161.082 137.395 159.244 137.395 157.285C137.395 157.167 137.395 157.049 137.403 156.931C135.871 155.543 135 153.587 135 151.503L135 151.506Z" fill="#FF9933"/>
</svg>
