<svg width="302" height="302" viewBox="0 0 302 302" fill="none" xmlns="http://www.w3.org/2000/svg">
<path d="M150.18 150.244C150.18 150.244 310.31 123.974 301.5 169.344C291.99 218.304 150.18 150.244 150.18 150.244Z" fill="#231F20"/>
<path d="M156.39 151.304C156.39 151.304 304.34 132.374 297.23 169.004C289.55 208.524 156.39 151.304 156.39 151.304Z" fill="#4D4DFF"/>
<path d="M218.16 161.054C218.16 161.054 274.98 159.164 273.04 168.194C270.95 177.934 218.16 161.054 218.16 161.054Z" fill="#D2D3D4"/>
<path d="M150.21 150.674C150.21 150.674 290.04 68.3242 298.21 113.824C307.03 162.914 150.21 150.674 150.21 150.674Z" fill="#231F20"/>
<path d="M156.39 149.414C156.39 149.414 287.52 78.3241 294.11 115.044C301.23 154.674 156.39 149.414 156.39 149.414Z" fill="#4D4DFF"/>
<path d="M217.51 136.194C217.51 136.194 269.81 113.914 271.27 123.024C272.84 132.864 217.51 136.194 217.51 136.194Z" fill="#D2D3D4"/>
<path d="M150.4 151.065C150.4 151.065 251.04 23.7645 275.09 63.2345C301.04 105.825 150.4 151.065 150.4 151.065Z" fill="#231F20"/>
<path d="M155.71 147.655C155.71 147.655 252.3 33.9946 271.72 65.8546C292.67 100.235 155.71 147.655 155.71 147.655Z" fill="#4D4DFF"/>
<path d="M207.93 113.255C207.93 113.255 248.65 73.5847 253.3 81.5547C258.32 90.1647 207.93 113.255 207.93 113.255Z" fill="#D2D3D4"/>
<path d="M150.72 151.354C150.72 151.354 198.58 -3.69575 235.27 24.4142C274.86 54.7542 150.72 151.354 150.72 151.354Z" fill="#231F20"/>
<path d="M154.44 146.264C154.44 146.264 203.45 5.38401 233.07 28.084C265.03 52.574 154.45 146.264 154.45 146.264H154.44Z" fill="#4D4DFF"/>
<path d="M190.71 95.3144C190.71 95.3144 214.35 43.6144 221.57 49.3644C229.36 55.5744 190.71 95.3144 190.71 95.3144Z" fill="#D2D3D4"/>
<path d="M151.13 151.514C151.13 151.514 139.74 -10.3556 184.11 2.60439C231.98 16.5944 151.13 151.514 151.13 151.514Z" fill="#231F20"/>
<path d="M152.76 145.424C152.76 145.424 147.56 -3.64585 183.38 6.82415C222.03 18.1142 152.76 145.424 152.76 145.424Z" fill="#4D4DFF"/>
<path d="M168.169 84.8146C168.169 84.8146 171.529 28.0646 180.349 30.8246C189.859 33.8046 168.169 84.8146 168.169 84.8146Z" fill="#D2D3D4"/>
<path d="M151.56 151.524C151.56 151.524 82.4697 4.68427 128.52 0.754275C178.21 -3.49573 151.56 151.524 151.56 151.524Z" fill="#231F20"/>
<path d="M150.88 145.244C150.88 145.244 92.1897 8.12421 129.37 4.94421C169.49 1.51421 150.88 145.254 150.88 145.254V145.244Z" fill="#4D4DFF"/>
<path d="M143.36 83.1741C143.36 83.1741 126 29.0441 135.21 28.4341C145.15 27.7741 143.36 83.1741 143.36 83.1741Z" fill="#D2D3D4"/>
<path d="M151.97 151.365C151.97 151.365 34.5 39.4046 76.02 19.1046C120.82 -2.81539 151.97 151.365 151.97 151.365Z" fill="#231F20"/>
<path d="M149.07 145.764C149.07 145.764 44.8 39.1045 78.32 22.7045C114.49 5.0145 149.07 145.764 149.07 145.764Z" fill="#4D4DFF"/>
<path d="M119.63 90.5946C119.63 90.5946 83.8802 46.3946 92.2502 42.4946C101.28 38.2846 119.63 90.5946 119.63 90.5946Z" fill="#D2D3D4"/>
<path d="M152.29 151.074C152.29 151.074 2.30966 89.1143 33.6897 55.1743C67.5497 18.5543 152.29 151.074 152.29 151.074Z" fill="#231F20"/>
<path d="M147.56 146.894C147.56 146.894 11.8098 85.1043 37.1398 57.7043C64.4698 28.1443 147.56 146.894 147.56 146.894Z" fill="#4D4DFF"/>
<path d="M100.18 106.094C100.18 106.094 50.8798 77.7844 57.2798 71.1344C64.1798 63.9444 100.18 106.094 100.18 106.094Z" fill="#D2D3D4"/>
<path d="M152.49 150.684C152.49 150.684 -9.75013 147.084 7.24987 104.104C25.5999 57.7243 152.48 150.684 152.48 150.684H152.49Z" fill="#231F20"/>
<path d="M146.57 148.504C146.57 148.504 -2.34016 139.914 11.3798 105.224C26.1898 67.7844 146.57 148.504 146.57 148.504Z" fill="#4D4DFF"/>
<path d="M87.6499 127.564C87.6499 127.564 31.4499 118.984 35.0099 110.464C38.8499 101.274 87.6499 127.564 87.6499 127.564Z" fill="#D2D3D4"/>
<path d="M152.53 150.255C152.53 150.255 -0.0501686 205.505 0.279831 159.285C0.629831 109.415 152.53 150.255 152.53 150.255Z" fill="#231F20"/>
<path d="M146.22 150.355C146.22 150.355 4.26965 196.145 4.52965 158.835C4.81965 118.575 146.22 150.355 146.22 150.355Z" fill="#4D4DFF"/>
<path d="M83.71 152.115C83.71 152.115 28.21 164.415 28.45 155.175C28.71 145.215 83.71 152.115 83.71 152.115Z" fill="#D2D3D4"/>
<path d="M152.41 149.834C152.41 149.834 30.0997 256.474 13.6997 213.254C-3.99033 166.624 152.41 149.834 152.41 149.834Z" fill="#231F20"/>
<path d="M146.57 152.205C146.57 152.205 30.7395 246.185 17.5095 211.295C3.22954 173.645 146.57 152.205 146.57 152.205Z" fill="#4D4DFF"/>
<path d="M88.9199 176.435C88.9199 176.435 41.6099 207.945 38.4999 199.255C35.1499 189.875 88.9199 176.435 88.9199 176.435Z" fill="#D2D3D4"/>
<path d="M152.15 149.484C152.15 149.484 76.6098 293.104 45.7198 258.724C12.3798 221.624 152.15 149.484 152.15 149.484Z" fill="#231F20"/>
<path d="M147.56 153.814C147.56 153.814 73.4997 283.284 48.5597 255.534C21.6497 225.584 147.56 153.814 147.56 153.814Z" fill="#4D4DFF"/>
<path d="M102.55 197.225C102.55 197.225 69.8197 243.705 63.7797 236.715C57.2597 229.175 102.55 197.225 102.55 197.225Z" fill="#D2D3D4"/>
<path d="M151.79 149.254C151.79 149.254 133.24 310.464 92.0096 289.564C47.5196 267.014 151.79 149.254 151.79 149.254Z" fill="#231F20"/>
<path d="M149.06 154.944C149.06 154.944 126.77 302.424 93.4896 285.564C57.5796 267.364 149.06 154.944 149.06 154.944Z" fill="#4D4DFF"/>
<path d="M122.78 211.694C122.78 211.694 109.05 266.854 100.89 262.524C92.0897 257.854 122.78 211.694 122.78 211.694Z" fill="#D2D3D4"/>
<path d="M151.36 149.174C151.36 149.174 192.3 306.204 146.3 301.614C96.6697 296.664 151.36 149.174 151.36 149.174Z" fill="#231F20"/>
<path d="M150.88 155.464C150.88 155.464 183.38 301.044 146.25 297.334C106.19 293.334 150.88 155.464 150.88 155.464Z" fill="#4D4DFF"/>
<path d="M146.86 217.864C146.86 217.864 153.98 274.264 144.81 273.174C134.92 271.994 146.86 217.864 146.86 217.864Z" fill="#D2D3D4"/>
<path d="M150.93 149.254C150.93 149.254 245.83 280.884 201.28 293.224C153.21 306.534 150.93 149.254 150.93 149.254Z" fill="#231F20"/>
<path d="M152.75 155.294C152.75 155.294 235.64 279.304 199.68 289.254C160.88 299.994 152.75 155.294 152.75 155.294Z" fill="#4D4DFF"/>
<path d="M171.56 214.935C171.56 214.935 198.57 264.955 189.63 267.245C179.98 269.715 171.56 214.935 171.56 214.935Z" fill="#D2D3D4"/>
<path d="M150.56 149.474C150.56 149.474 286.6 237.944 249.52 265.534C209.51 295.304 150.56 149.474 150.56 149.474Z" fill="#231F20"/>
<path d="M154.44 154.454C154.44 154.454 276.53 240.144 246.59 262.414C214.29 286.454 154.44 154.454 154.44 154.454Z" fill="#4D4DFF"/>
<path d="M193.52 203.274C193.52 203.274 236.78 240.154 229.27 245.524C221.16 251.314 193.52 203.274 193.52 203.274Z" fill="#D2D3D4"/>
<path d="M150.3 149.824C150.3 149.824 309.11 183.174 284.5 222.294C257.94 264.514 150.3 149.824 150.3 149.824Z" fill="#231F20"/>
<path d="M155.71 153.064C155.71 153.064 300.51 188.864 280.64 220.444C259.2 254.524 155.71 153.064 155.71 153.064Z" fill="#4D4DFF"/>
<path d="M209.79 184.464C209.79 184.464 263.45 203.224 258.39 210.954C252.92 219.284 209.79 184.464 209.79 184.464Z" fill="#D2D3D4"/>
<path d="M129.685 145.849L129.565 143.928C129.56 143.848 129.558 143.748 129.558 143.503C129.558 140.838 130.586 138.352 132.468 136.471C134.471 134.468 137.179 133.431 139.975 133.571L141.867 133.666L143.139 132.262C145.022 130.184 147.668 129.004 150.5 129.004C153.332 129.004 155.978 130.184 157.861 132.262L159.133 133.666L161.025 133.571C163.821 133.431 166.529 134.468 168.532 136.471C170.415 138.353 171.442 140.833 171.442 143.503C171.442 143.748 171.44 143.848 171.435 143.928L171.315 145.849L172.742 147.142C174.82 149.024 176 151.67 176 154.501C176 157.334 174.819 159.986 172.742 161.867L171.315 163.16L171.435 165.081C171.44 165.161 171.442 165.26 171.442 165.506C171.442 168.17 170.414 170.656 168.532 172.538C166.529 174.541 163.821 175.577 161.025 175.437L159.133 175.343L157.861 176.747C155.978 178.825 153.332 180.004 150.5 180.004C147.668 180.004 145.022 178.825 143.139 176.747L141.867 175.343L139.975 175.437C137.179 175.577 134.471 174.541 132.468 172.538C130.585 170.656 129.558 168.176 129.558 165.506C129.558 165.261 129.56 165.161 129.565 165.081L129.685 163.16L128.258 161.867C126.181 159.986 125.001 157.342 125 154.504C125.001 151.667 126.181 149.023 128.258 147.142L129.685 145.849Z" fill="#F3F0E4" stroke="#231F20" stroke-width="8"/>
<path d="M135 154.506C135 152.421 135.871 150.466 137.403 149.078C137.395 148.96 137.395 148.842 137.395 148.724C137.395 146.768 138.155 144.927 139.539 143.543C141.012 142.071 143.012 141.303 145.075 141.407C146.463 139.875 148.419 139.004 150.5 139.004C152.581 139.004 154.537 139.875 155.925 141.407C157.988 141.303 159.988 142.071 161.461 143.543C162.845 144.927 163.605 146.765 163.605 148.724C163.605 148.842 163.605 148.96 163.597 149.078C165.129 150.466 166 152.421 166 154.503C166 156.584 165.129 158.543 163.597 159.931C163.605 160.049 163.605 160.167 163.605 160.285C163.605 162.241 162.845 164.082 161.461 165.466C159.988 166.938 157.988 167.706 155.925 167.602C154.537 169.134 152.581 170.004 150.5 170.004C148.419 170.004 146.463 169.134 145.075 167.602C143.012 167.705 141.012 166.938 139.539 165.466C138.155 164.082 137.395 162.244 137.395 160.285C137.395 160.167 137.395 160.049 137.403 159.931C135.871 158.543 135 156.587 135 154.503L135 154.506Z" fill="#FF9933"/>
</svg>
