<svg width="301" height="303" viewBox="0 0 301 303" fill="none" xmlns="http://www.w3.org/2000/svg">
<path d="M149.12 151.154C149.12 151.154 309.76 128.174 300.01 173.354C289.5 222.104 149.12 151.154 149.12 151.154Z" fill="#231F20"/>
<path d="M155.31 152.344C155.31 152.344 303.62 136.464 295.75 172.934C287.26 212.294 155.31 152.344 155.31 152.344Z" fill="#4D4DFF"/>
<path d="M216.87 163.364C216.87 163.364 273.71 162.644 271.59 171.634C269.3 181.334 216.87 163.364 216.87 163.364Z" fill="#D2D3D4"/>
<path d="M149.14 151.565C149.14 151.565 292.23 75.0345 298.53 120.825C305.32 170.235 149.14 151.565 149.14 151.565Z" fill="#231F20"/>
<path d="M155.37 150.565C155.37 150.565 289.3 84.9147 294.39 121.875C299.87 161.765 155.37 150.565 155.37 150.565Z" fill="#4D4DFF"/>
<path d="M216.98 139.864C216.98 139.864 270.15 119.744 271.23 128.914C272.4 138.804 216.98 139.864 216.98 139.864Z" fill="#D2D3D4"/>
<path d="M149.3 151.945C149.3 151.945 257.59 31.0846 279.16 71.9646C302.44 116.075 149.3 151.945 149.3 151.945Z" fill="#231F20"/>
<path d="M154.81 148.875C154.81 148.875 258.21 41.3746 275.63 74.3746C294.43 109.985 154.81 148.875 154.81 148.875Z" fill="#4D4DFF"/>
<path d="M209.05 117.745C209.05 117.745 252.13 80.6548 256.29 88.9048C260.77 97.8048 209.05 117.745 209.05 117.745Z" fill="#D2D3D4"/>
<path d="M149.58 152.244C149.58 152.244 210 1.63431 244.26 32.6643C281.22 66.1443 149.58 152.244 149.58 152.244Z" fill="#231F20"/>
<path d="M153.71 147.474C153.71 147.474 214.11 11.0843 241.77 36.1343C271.61 63.1643 153.72 147.464 153.72 147.464L153.71 147.474Z" fill="#4D4DFF"/>
<path d="M194.03 99.6742C194.03 99.6742 221.83 50.0842 228.55 56.4142C235.81 63.2442 194.03 99.6742 194.03 99.6742Z" fill="#D2D3D4"/>
<path d="M149.95 152.425C149.95 152.425 155.21 -9.76544 198.02 7.68456C244.21 26.5046 149.95 152.435 149.95 152.435V152.425Z" fill="#231F20"/>
<path d="M152.2 146.535C152.2 146.535 162.31 -2.28542 196.86 11.7946C234.15 26.9846 152.19 146.525 152.19 146.525L152.2 146.535Z" fill="#4D4DFF"/>
<path d="M173.74 87.8246C173.74 87.8246 182.9 31.7246 191.38 35.3646C200.53 39.3046 173.74 87.8246 173.74 87.8246Z" fill="#D2D3D4"/>
<path d="M150.36 152.474C150.36 152.474 99.8297 -1.73571 146.02 0.0142943C195.86 1.90429 150.36 152.474 150.36 152.474Z" fill="#231F20"/>
<path d="M150.45 146.164C150.45 146.164 109.06 2.87426 146.34 4.28426C186.57 5.80426 150.45 146.174 150.45 146.174V146.164Z" fill="#4D4DFF"/>
<path d="M150.61 83.6344C150.61 83.6344 140.03 27.7844 149.25 28.3044C159.2 28.8744 150.61 83.6344 150.61 83.6344Z" fill="#D2D3D4"/>
<path d="M150.76 152.385C150.76 152.385 50.5399 24.7546 94.5399 10.6046C142.02 -4.66542 150.76 152.385 150.76 152.385Z" fill="#231F20"/>
<path d="M148.69 146.425C148.69 146.425 60.7798 25.9245 96.2998 14.5045C134.63 2.17453 148.69 146.425 148.69 146.425Z" fill="#4D4DFF"/>
<path d="M127.45 87.6045C127.45 87.6045 98.3997 38.7345 107.25 36.0745C116.79 33.2045 127.45 87.6045 127.45 87.6045Z" fill="#D2D3D4"/>
<path d="M151.1 152.154C151.1 152.154 13.2699 66.5043 49.7799 38.1543C89.1699 7.56429 151.1 152.154 151.1 152.154Z" fill="#231F20"/>
<path d="M147.12 147.264C147.12 147.264 23.2998 64.1042 52.7698 41.2142C84.5698 16.5242 147.12 147.264 147.12 147.264Z" fill="#4D4DFF"/>
<path d="M107.05 99.2542C107.05 99.2542 63.0396 63.2642 70.4396 57.7442C78.4196 51.7842 107.05 99.2542 107.05 99.2542Z" fill="#D2D3D4"/>
<path d="M151.35 151.825C151.35 151.825 -7.45997 118.485 17.15 79.3545C43.71 37.1345 151.35 151.825 151.35 151.825Z" fill="#231F20"/>
<path d="M145.93 148.594C145.93 148.594 1.13016 112.794 21.0002 81.2144C42.4402 47.1344 145.93 148.594 145.93 148.594Z" fill="#4D4DFF"/>
<path d="M91.86 117.185C91.86 117.185 38.2 98.4246 43.26 90.6946C48.73 82.3646 91.86 117.185 91.86 117.185Z" fill="#D2D3D4"/>
<path d="M151.47 151.434C151.47 151.434 -9.1698 174.415 0.570202 129.235C11.0802 80.4845 151.46 151.434 151.46 151.434H151.47Z" fill="#231F20"/>
<path d="M145.27 150.244C145.27 150.244 -3.03968 166.134 4.83032 129.654C13.3203 90.2944 145.27 150.244 145.27 150.244Z" fill="#4D4DFF"/>
<path d="M83.7202 139.235C83.7202 139.235 26.8802 139.955 29.0002 130.965C31.2902 121.265 83.7202 139.235 83.7202 139.235Z" fill="#D2D3D4"/>
<path d="M151.44 151.024C151.44 151.024 8.35011 227.564 2.05011 181.774C-4.73989 132.364 151.44 151.034 151.44 151.034V151.024Z" fill="#231F20"/>
<path d="M145.21 152.024C145.21 152.024 11.2799 217.684 6.19987 180.714C0.719869 140.824 145.22 152.024 145.22 152.024H145.21Z" fill="#4D4DFF"/>
<path d="M83.6003 162.724C83.6003 162.724 30.4303 182.844 29.3503 173.674C28.1803 163.784 83.6003 162.724 83.6003 162.724Z" fill="#D2D3D4"/>
<path d="M151.28 150.645C151.28 150.645 43.0002 271.505 21.4202 230.635C-1.86975 186.525 151.28 150.645 151.28 150.645Z" fill="#231F20"/>
<path d="M145.77 153.725C145.77 153.725 42.3704 261.225 24.9504 228.225C6.1504 192.615 145.77 153.725 145.77 153.725Z" fill="#4D4DFF"/>
<path d="M91.5405 184.845C91.5405 184.845 48.4605 221.935 44.3005 213.685C39.8205 204.785 91.5405 184.845 91.5405 184.845Z" fill="#D2D3D4"/>
<path d="M151 150.354C151 150.354 90.5801 300.964 56.3201 269.934C19.3601 236.454 151 150.354 151 150.354Z" fill="#231F20"/>
<path d="M146.87 155.125C146.87 155.125 86.4701 291.505 58.8201 266.455C28.9801 239.425 146.87 155.125 146.87 155.125Z" fill="#4D4DFF"/>
<path d="M106.55 202.924C106.55 202.924 78.7499 252.514 72.0299 246.184C64.7699 239.354 106.55 202.924 106.55 202.924Z" fill="#D2D3D4"/>
<path d="M150.63 150.165C150.63 150.165 145.37 312.355 102.56 294.915C56.3699 276.095 150.63 150.165 150.63 150.165Z" fill="#231F20"/>
<path d="M148.39 156.064C148.39 156.064 138.28 304.884 103.72 290.794C66.4301 275.604 148.39 156.064 148.39 156.064Z" fill="#4D4DFF"/>
<path d="M126.85 214.765C126.85 214.765 117.69 270.865 109.21 267.225C100.06 263.285 126.85 214.765 126.85 214.765Z" fill="#D2D3D4"/>
<path d="M150.23 150.114C150.23 150.114 200.75 304.324 154.57 302.574C104.73 300.684 150.23 150.114 150.23 150.114Z" fill="#231F20"/>
<path d="M150.13 156.424C150.13 156.424 191.53 299.724 154.24 298.314C114.01 296.794 150.13 156.424 150.13 156.424Z" fill="#4D4DFF"/>
<path d="M149.97 218.954C149.97 218.954 160.55 274.804 151.33 274.284C141.38 273.714 149.97 218.954 149.97 218.954Z" fill="#D2D3D4"/>
<path d="M149.83 150.214C149.83 150.214 250.05 277.844 206.05 291.994C158.57 307.264 149.83 150.214 149.83 150.214Z" fill="#231F20"/>
<path d="M151.89 156.174C151.89 156.174 239.8 276.674 204.28 288.094C165.95 300.424 151.89 156.174 151.89 156.174Z" fill="#4D4DFF"/>
<path d="M173.13 214.984C173.13 214.984 202.18 263.854 193.33 266.514C183.79 269.384 173.13 214.984 173.13 214.984Z" fill="#D2D3D4"/>
<path d="M149.48 150.435C149.48 150.435 287.31 236.085 250.8 264.435C211.41 295.025 149.48 150.435 149.48 150.435Z" fill="#231F20"/>
<path d="M153.47 155.325C153.47 155.325 277.29 238.485 247.82 261.375C216.02 286.065 153.47 155.325 153.47 155.325Z" fill="#4D4DFF"/>
<path d="M193.54 203.334C193.54 203.334 237.55 239.324 230.15 244.844C222.17 250.804 193.54 203.334 193.54 203.334Z" fill="#D2D3D4"/>
<path d="M149.24 150.764C149.24 150.764 308.05 184.114 283.44 223.234C256.88 265.454 149.24 150.764 149.24 150.764Z" fill="#231F20"/>
<path d="M154.65 153.994C154.65 153.994 299.45 189.794 279.58 221.374C258.14 255.454 154.65 153.994 154.65 153.994Z" fill="#4D4DFF"/>
<path d="M208.73 185.404C208.73 185.404 262.39 204.164 257.33 211.894C251.86 220.224 208.73 185.404 208.73 185.404Z" fill="#D2D3D4"/>
<path d="M123.685 142.849L123.565 140.928C123.56 140.848 123.558 140.748 123.558 140.503C123.558 137.838 124.586 135.352 126.468 133.471C128.471 131.468 131.179 130.431 133.975 130.571L135.867 130.666L137.139 129.262C139.022 127.184 141.668 126.004 144.5 126.004C147.332 126.004 149.978 127.184 151.861 129.262L153.133 130.666L155.025 130.571C157.821 130.431 160.529 131.468 162.532 133.471C164.415 135.353 165.442 137.833 165.442 140.503C165.442 140.748 165.44 140.848 165.435 140.928L165.315 142.849L166.742 144.142C168.82 146.024 170 148.67 170 151.501C170 154.334 168.819 156.986 166.742 158.867L165.315 160.16L165.435 162.081C165.44 162.161 165.442 162.26 165.442 162.506C165.442 165.17 164.414 167.656 162.532 169.538C160.529 171.541 157.821 172.577 155.025 172.437L153.133 172.343L151.861 173.747C149.978 175.825 147.332 177.004 144.5 177.004C141.668 177.004 139.022 175.825 137.139 173.747L135.867 172.343L133.975 172.437C131.179 172.577 128.471 171.541 126.468 169.538C124.585 167.656 123.558 165.176 123.558 162.506C123.558 162.261 123.56 162.161 123.565 162.081L123.685 160.16L122.258 158.867C120.181 156.986 119.001 154.342 119 151.504C119.001 148.667 120.181 146.023 122.258 144.142L123.685 142.849Z" fill="#F3F0E4" stroke="#231F20" stroke-width="8"/>
<path d="M129 151.506C129 149.421 129.871 147.466 131.403 146.078C131.395 145.96 131.395 145.842 131.395 145.724C131.395 143.768 132.155 141.927 133.539 140.543C135.012 139.071 137.012 138.303 139.075 138.407C140.463 136.875 142.419 136.004 144.5 136.004C146.581 136.004 148.537 136.875 149.925 138.407C151.988 138.303 153.988 139.071 155.461 140.543C156.845 141.927 157.605 143.765 157.605 145.724C157.605 145.842 157.605 145.96 157.597 146.078C159.129 147.466 160 149.421 160 151.503C160 153.584 159.129 155.543 157.597 156.931C157.605 157.049 157.605 157.167 157.605 157.285C157.605 159.241 156.845 161.082 155.461 162.466C153.988 163.938 151.988 164.706 149.925 164.602C148.537 166.134 146.581 167.004 144.5 167.004C142.419 167.004 140.463 166.134 139.075 164.602C137.012 164.705 135.012 163.938 133.539 162.466C132.155 161.082 131.395 159.244 131.395 157.285C131.395 157.167 131.395 157.049 131.403 156.931C129.871 155.543 129 153.587 129 151.503L129 151.506Z" fill="#FF9933"/>
</svg>
