<svg width="301" height="303" viewBox="0 0 301 303" fill="none" xmlns="http://www.w3.org/2000/svg">
<path d="M148.976 151.155C148.976 151.155 309.616 128.175 299.866 173.355C289.356 222.105 148.976 151.155 148.976 151.155Z" fill="#231F20"/>
<path d="M155.166 152.345C155.166 152.345 303.476 136.465 295.606 172.935C287.116 212.295 155.166 152.345 155.166 152.345Z" fill="#4D4DFF"/>
<path d="M216.726 163.365C216.726 163.365 273.566 162.645 271.446 171.635C269.156 181.335 216.726 163.365 216.726 163.365Z" fill="#D2D3D4"/>
<path d="M148.996 151.565C148.996 151.565 292.086 75.035 298.386 120.825C305.176 170.235 148.996 151.565 148.996 151.565Z" fill="#231F20"/>
<path d="M155.226 150.565C155.226 150.565 289.156 84.9152 294.246 121.875C299.726 161.765 155.226 150.565 155.226 150.565Z" fill="#4D4DFF"/>
<path d="M216.835 139.865C216.835 139.865 270.005 119.745 271.085 128.915C272.255 138.805 216.835 139.865 216.835 139.865Z" fill="#D2D3D4"/>
<path d="M149.155 151.945C149.155 151.945 257.445 31.0851 279.015 71.9651C302.295 116.075 149.155 151.945 149.155 151.945Z" fill="#231F20"/>
<path d="M154.665 148.875C154.665 148.875 258.065 41.3751 275.485 74.3751C294.285 109.985 154.665 148.875 154.665 148.875Z" fill="#4D4DFF"/>
<path d="M208.905 117.745C208.905 117.745 251.985 80.6552 256.145 88.9052C260.625 97.8052 208.905 117.745 208.905 117.745Z" fill="#D2D3D4"/>
<path d="M149.436 152.245C149.436 152.245 209.856 1.6348 244.116 32.6648C281.076 66.1448 149.436 152.245 149.436 152.245Z" fill="#231F20"/>
<path d="M153.565 147.475C153.565 147.475 213.965 11.0848 241.625 36.1348C271.465 63.1648 153.575 147.465 153.575 147.465L153.565 147.475Z" fill="#4D4DFF"/>
<path d="M193.886 99.6747C193.886 99.6747 221.686 50.0847 228.406 56.4147C235.666 63.2447 193.886 99.6747 193.886 99.6747Z" fill="#D2D3D4"/>
<path d="M149.806 152.425C149.806 152.425 155.066 -9.76495 197.876 7.68505C244.066 26.505 149.806 152.435 149.806 152.435V152.425Z" fill="#231F20"/>
<path d="M152.056 146.535C152.056 146.535 162.166 -2.28493 196.716 11.7951C234.006 26.9851 152.046 146.525 152.046 146.525L152.056 146.535Z" fill="#4D4DFF"/>
<path d="M173.596 87.8251C173.596 87.8251 182.756 31.7251 191.236 35.3651C200.386 39.3051 173.596 87.8251 173.596 87.8251Z" fill="#D2D3D4"/>
<path d="M150.215 152.475C150.215 152.475 99.6852 -1.73522 145.875 0.0147826C195.715 1.90478 150.215 152.475 150.215 152.475Z" fill="#231F20"/>
<path d="M150.305 146.165C150.305 146.165 108.915 2.87475 146.195 4.28475C186.425 5.80475 150.305 146.175 150.305 146.175V146.165Z" fill="#4D4DFF"/>
<path d="M150.465 83.6349C150.465 83.6349 139.885 27.7849 149.105 28.3049C159.055 28.8749 150.465 83.6349 150.465 83.6349Z" fill="#D2D3D4"/>
<path d="M150.615 152.385C150.615 152.385 50.3954 24.7551 94.3954 10.6051C141.875 -4.66494 150.615 152.385 150.615 152.385Z" fill="#231F20"/>
<path d="M148.545 146.425C148.545 146.425 60.6353 25.925 96.1553 14.505C134.485 2.17501 148.545 146.425 148.545 146.425Z" fill="#4D4DFF"/>
<path d="M127.305 87.605C127.305 87.605 98.2552 38.735 107.105 36.075C116.645 33.205 127.305 87.605 127.305 87.605Z" fill="#D2D3D4"/>
<path d="M150.955 152.155C150.955 152.155 13.1253 66.5048 49.6353 38.1548C89.0253 7.56478 150.955 152.155 150.955 152.155Z" fill="#231F20"/>
<path d="M146.975 147.265C146.975 147.265 23.1553 64.1047 52.6253 41.2147C84.4253 16.5247 146.975 147.265 146.975 147.265Z" fill="#4D4DFF"/>
<path d="M106.905 99.2547C106.905 99.2547 62.8951 63.2647 70.2951 57.7447C78.2751 51.7847 106.905 99.2547 106.905 99.2547Z" fill="#D2D3D4"/>
<path d="M151.206 151.825C151.206 151.825 -7.6045 118.485 17.0055 79.355C43.5655 37.135 151.206 151.825 151.206 151.825Z" fill="#231F20"/>
<path d="M145.786 148.595C145.786 148.595 0.985629 112.795 20.8556 81.2149C42.2956 47.1349 145.786 148.595 145.786 148.595Z" fill="#4D4DFF"/>
<path d="M91.7154 117.185C91.7154 117.185 38.0554 98.4251 43.1154 90.6951C48.5854 82.3651 91.7154 117.185 91.7154 117.185Z" fill="#D2D3D4"/>
<path d="M151.326 151.435C151.326 151.435 -9.31433 174.415 0.425671 129.235C10.9357 80.485 151.316 151.435 151.316 151.435H151.326Z" fill="#231F20"/>
<path d="M145.126 150.245C145.126 150.245 -3.18421 166.135 4.68579 129.655C13.1758 90.2949 145.126 150.245 145.126 150.245Z" fill="#4D4DFF"/>
<path d="M83.5757 139.235C83.5757 139.235 26.7357 139.955 28.8557 130.965C31.1457 121.265 83.5757 139.235 83.5757 139.235Z" fill="#D2D3D4"/>
<path d="M151.296 151.025C151.296 151.025 8.20558 227.565 1.90558 181.775C-4.88442 132.365 151.296 151.035 151.296 151.035V151.025Z" fill="#231F20"/>
<path d="M145.065 152.025C145.065 152.025 11.1353 217.685 6.05534 180.715C0.575338 140.825 145.075 152.025 145.075 152.025H145.065Z" fill="#4D4DFF"/>
<path d="M83.4558 162.725C83.4558 162.725 30.2858 182.845 29.2058 173.675C28.0358 163.785 83.4558 162.725 83.4558 162.725Z" fill="#D2D3D4"/>
<path d="M151.136 150.645C151.136 150.645 42.8557 271.505 21.2757 230.635C-2.01428 186.525 151.136 150.645 151.136 150.645Z" fill="#231F20"/>
<path d="M145.626 153.725C145.626 153.725 42.2259 261.225 24.8059 228.225C6.00587 192.615 145.626 153.725 145.626 153.725Z" fill="#4D4DFF"/>
<path d="M91.396 184.845C91.396 184.845 48.316 221.935 44.156 213.685C39.676 204.785 91.396 184.845 91.396 184.845Z" fill="#D2D3D4"/>
<path d="M150.856 150.355C150.856 150.355 90.4356 300.965 56.1756 269.935C19.2156 236.455 150.856 150.355 150.856 150.355Z" fill="#231F20"/>
<path d="M146.726 155.125C146.726 155.125 86.3255 291.505 58.6755 266.455C28.8355 239.425 146.726 155.125 146.726 155.125Z" fill="#4D4DFF"/>
<path d="M106.405 202.925C106.405 202.925 78.6054 252.515 71.8854 246.185C64.6254 239.355 106.405 202.925 106.405 202.925Z" fill="#D2D3D4"/>
<path d="M150.485 150.165C150.485 150.165 145.225 312.355 102.415 294.915C56.2254 276.095 150.485 150.165 150.485 150.165Z" fill="#231F20"/>
<path d="M148.246 156.065C148.246 156.065 138.136 304.885 103.576 290.795C66.2856 275.605 148.246 156.065 148.246 156.065Z" fill="#4D4DFF"/>
<path d="M126.705 214.765C126.705 214.765 117.545 270.865 109.065 267.225C99.9153 263.285 126.705 214.765 126.705 214.765Z" fill="#D2D3D4"/>
<path d="M150.085 150.115C150.085 150.115 200.605 304.325 154.425 302.575C104.585 300.685 150.085 150.115 150.085 150.115Z" fill="#231F20"/>
<path d="M149.985 156.425C149.985 156.425 191.385 299.725 154.095 298.315C113.865 296.795 149.985 156.425 149.985 156.425Z" fill="#4D4DFF"/>
<path d="M149.825 218.955C149.825 218.955 160.405 274.805 151.185 274.285C141.235 273.715 149.825 218.955 149.825 218.955Z" fill="#D2D3D4"/>
<path d="M149.686 150.215C149.686 150.215 249.906 277.845 205.906 291.995C158.426 307.265 149.686 150.215 149.686 150.215Z" fill="#231F20"/>
<path d="M151.746 156.175C151.746 156.175 239.656 276.675 204.136 288.095C165.806 300.425 151.746 156.175 151.746 156.175Z" fill="#4D4DFF"/>
<path d="M172.985 214.985C172.985 214.985 202.035 263.855 193.185 266.515C183.645 269.385 172.985 214.985 172.985 214.985Z" fill="#D2D3D4"/>
<path d="M149.335 150.435C149.335 150.435 287.165 236.085 250.655 264.435C211.265 295.025 149.335 150.435 149.335 150.435Z" fill="#231F20"/>
<path d="M153.326 155.325C153.326 155.325 277.146 238.485 247.676 261.375C215.876 286.065 153.326 155.325 153.326 155.325Z" fill="#4D4DFF"/>
<path d="M193.396 203.335C193.396 203.335 237.406 239.325 230.006 244.845C222.026 250.805 193.396 203.335 193.396 203.335Z" fill="#D2D3D4"/>
<path d="M149.096 150.765C149.096 150.765 307.906 184.115 283.296 223.235C256.736 265.455 149.096 150.765 149.096 150.765Z" fill="#231F20"/>
<path d="M154.506 153.995C154.506 153.995 299.306 189.795 279.436 221.375C257.996 255.455 154.506 153.995 154.506 153.995Z" fill="#4D4DFF"/>
<path d="M208.586 185.405C208.586 185.405 262.246 204.165 257.186 211.895C251.716 220.225 208.586 185.405 208.586 185.405Z" fill="#D2D3D4"/>
<path d="M152.858 171C150.436 171 148.165 169.989 146.554 168.21C146.417 168.219 146.28 168.219 146.143 168.219C143.872 168.219 141.733 167.336 140.126 165.729C138.416 164.019 137.525 161.696 137.645 159.3C135.867 157.689 134.855 155.418 134.855 153C134.855 150.583 135.867 148.312 137.645 146.7C137.525 144.305 138.416 141.982 140.126 140.272C141.733 138.665 143.867 137.782 146.143 137.782C146.28 137.782 146.417 137.782 146.554 137.79C148.165 136.012 150.436 135 152.853 135C155.27 135 157.546 136.012 159.157 137.79C159.294 137.782 159.431 137.782 159.568 137.782C161.839 137.782 163.978 138.665 165.585 140.272C167.294 141.982 168.186 144.305 168.066 146.7C169.844 148.312 170.855 150.583 170.855 153C170.855 155.418 169.844 157.689 168.066 159.3C168.186 161.696 167.294 164.019 165.585 165.729C163.978 167.336 161.844 168.219 159.568 168.219C159.431 168.219 159.294 168.219 159.157 168.21C157.546 169.989 155.274 171 152.853 171H152.858Z" fill="#231F20"/>
<path d="M152.857 166C151.108 166 149.468 165.27 148.304 163.985C148.205 163.992 148.106 163.992 148.007 163.992C146.367 163.992 144.823 163.354 143.662 162.193C142.427 160.958 141.784 159.281 141.87 157.55C140.586 156.387 139.855 154.746 139.855 153C139.855 151.255 140.586 149.614 141.87 148.45C141.784 146.72 142.427 145.043 143.662 143.808C144.823 142.647 146.364 142.009 148.007 142.009C148.106 142.009 148.205 142.009 148.304 142.015C149.468 140.731 151.108 140 152.854 140C154.599 140 156.243 140.731 157.406 142.015C157.506 142.009 157.605 142.009 157.704 142.009C159.344 142.009 160.888 142.647 162.049 143.808C163.284 145.043 163.927 146.72 163.841 148.45C165.125 149.614 165.855 151.255 165.855 153C165.855 154.746 165.125 156.387 163.841 157.55C163.927 159.281 163.284 160.958 162.049 162.193C160.888 163.354 159.347 163.992 157.704 163.992C157.605 163.992 157.506 163.992 157.406 163.985C156.243 165.27 154.603 166 152.854 166H152.857Z" fill="#FFCC33"/>
</svg>
