<svg width="302" height="302" viewBox="0 0 302 302" fill="none" xmlns="http://www.w3.org/2000/svg">
<path d="M150.213 150.888C150.213 150.888 311.243 130.868 300.673 175.858C289.263 224.408 150.213 150.888 150.213 150.888Z" fill="#231F20"/>
<path d="M156.383 152.188C156.383 152.188 304.963 139.028 296.423 175.358C287.213 214.558 156.383 152.188 156.383 152.188Z" fill="#4D4DFF"/>
<path d="M217.723 164.338C217.723 164.338 274.573 164.658 272.283 173.608C269.823 183.258 217.723 164.338 217.723 164.338Z" fill="#D2D3D4"/>
<path d="M150.223 151.278C150.223 151.278 296.033 80.0481 300.643 126.038C305.613 175.668 150.223 151.278 150.223 151.278Z" fill="#231F20"/>
<path d="M156.483 150.508C156.483 150.508 292.733 89.818 296.463 126.948C300.483 167.008 156.483 150.508 156.483 150.508Z" fill="#4D4DFF"/>
<path d="M218.443 142.078C218.443 142.078 272.313 123.928 273.063 133.128C273.863 143.058 218.443 142.078 218.443 142.078Z" fill="#D2D3D4"/>
<path d="M150.364 151.638C150.364 151.638 265.144 36.928 284.434 78.928C305.254 124.248 150.364 151.638 150.364 151.638Z" fill="#231F20"/>
<path d="M156.034 148.878C156.034 148.878 265.204 47.2381 280.774 81.1481C297.584 117.738 156.034 148.878 156.034 148.878Z" fill="#4D4DFF"/>
<path d="M211.904 120.788C211.904 120.788 256.964 86.128 260.654 94.588C264.644 103.718 211.904 120.788 211.904 120.788Z" fill="#D2D3D4"/>
<path d="M150.614 151.938C150.614 151.938 221.924 6.17817 253.814 39.6382C288.224 75.7482 150.614 151.938 150.614 151.938Z" fill="#231F20"/>
<path d="M155.074 147.488C155.074 147.488 225.324 15.9079 251.064 42.9179C278.844 72.0679 155.074 147.488 155.074 147.488Z" fill="#4D4DFF"/>
<path d="M198.794 102.778C198.794 102.778 230.154 55.3683 236.394 62.1683C243.124 69.5083 198.794 102.778 198.794 102.778Z" fill="#D2D3D4"/>
<path d="M150.943 152.148C150.943 152.148 171.063 -8.88195 212.083 12.4181C256.353 35.3981 150.943 152.148 150.943 152.148Z" fill="#231F20"/>
<path d="M153.713 146.478C153.713 146.478 177.433 -0.781957 210.553 16.408C246.293 34.958 153.713 146.478 153.713 146.478Z" fill="#4D4DFF"/>
<path d="M180.553 89.998C180.553 89.998 194.823 34.968 202.933 39.378C211.683 44.138 180.553 89.998 180.553 89.998Z" fill="#D2D3D4"/>
<path d="M151.324 152.228C151.324 152.228 118.063 -6.6021 163.783 0.217905C213.113 7.5779 151.324 152.228 151.324 152.228Z" fill="#231F20"/>
<path d="M152.103 145.968C152.103 145.968 126.723 -1.01218 163.633 4.49782C203.453 10.4378 152.113 145.978 152.113 145.978L152.103 145.968Z" fill="#4D4DFF"/>
<path d="M159.153 83.8378C159.153 83.8378 154.783 27.1578 163.883 28.6978C173.703 30.3578 159.153 83.8378 159.153 83.8378Z" fill="#D2D3D4"/>
<path d="M151.703 152.188C151.703 152.188 68.6833 12.7581 114.133 4.36807C163.183 -4.69193 151.703 152.188 151.703 152.188Z" fill="#231F20"/>
<path d="M150.423 146.008C150.423 146.008 78.6932 15.2381 115.383 8.45807C154.973 1.14807 150.423 146.008 150.423 146.008Z" fill="#4D4DFF"/>
<path d="M136.903 84.9583C136.903 84.9583 114.363 32.7683 123.473 31.2683C133.303 29.6483 136.903 84.9583 136.903 84.9583Z" fill="#D2D3D4"/>
<path d="M152.064 152.018C152.064 152.018 28.2636 47.1078 68.5236 24.4078C111.974 -0.08216 152.064 152.018 152.064 152.018Z" fill="#231F20"/>
<path d="M148.833 146.598C148.833 146.598 38.5234 46.1981 71.0334 27.8781C106.103 8.10808 148.833 146.598 148.833 146.598Z" fill="#4D4DFF"/>
<path d="M116.224 93.2377C116.224 93.2377 77.9637 51.1977 86.0937 46.8177C94.8637 42.0877 116.224 93.2377 116.224 93.2377Z" fill="#D2D3D4"/>
<path d="M152.333 151.748C152.333 151.748 1.18338 92.7181 31.8934 58.1781C65.0334 20.9081 152.333 151.748 152.333 151.748Z" fill="#231F20"/>
<path d="M147.523 147.668C147.523 147.668 10.5931 88.5183 35.3931 60.6383C62.1431 30.5483 147.533 147.668 147.533 147.668H147.523Z" fill="#4D4DFF"/>
<path d="M99.3632 107.788C99.3632 107.788 49.5232 80.4482 55.7932 73.6682C62.5532 66.3482 99.3632 107.788 99.3632 107.788Z" fill="#D2D3D4"/>
<path d="M152.514 151.398C152.514 151.398 -9.6165 144.648 8.2135 102.008C27.4535 55.9978 152.514 151.408 152.514 151.408V151.398Z" fill="#231F20"/>
<path d="M146.643 149.098C146.643 149.098 -2.07661 137.628 12.3234 103.198C27.8634 66.0579 146.643 149.098 146.643 149.098Z" fill="#4D4DFF"/>
<path d="M88.1334 127.018C88.1334 127.018 32.1134 117.338 35.8434 108.888C39.8634 99.7678 88.1334 127.018 88.1334 127.018Z" fill="#D2D3D4"/>
<path d="M152.563 151.018C152.563 151.018 -2.97658 197.268 0.0434153 151.148C3.30342 101.378 152.563 151.018 152.563 151.018Z" fill="#231F20"/>
<path d="M146.264 150.748C146.264 150.748 1.88355 188.178 4.32355 150.948C6.95355 110.768 146.264 150.748 146.264 150.748Z" fill="#4D4DFF"/>
<path d="M83.7636 148.858C83.7636 148.858 27.6436 157.898 28.4136 148.698C29.2536 138.768 83.7636 148.858 83.7636 148.858Z" fill="#D2D3D4"/>
<path d="M152.493 150.638C152.493 150.638 20.3934 244.888 8.28341 200.278C-4.78659 152.148 152.493 150.628 152.493 150.628V150.638Z" fill="#231F20"/>
<path d="M146.444 152.428C146.444 152.428 22.0336 234.708 12.2536 198.708C1.69355 159.858 146.444 152.428 146.444 152.428Z" fill="#4D4DFF"/>
<path d="M86.7133 170.938C86.7133 170.938 36.5633 197.708 34.3133 188.758C31.8833 179.098 86.7133 170.938 86.7133 170.938Z" fill="#D2D3D4"/>
<path d="M152.294 150.298C152.294 150.298 57.9636 282.338 32.0136 244.078C4.02359 202.798 152.294 150.298 152.294 150.298Z" fill="#231F20"/>
<path d="M147.154 153.958C147.154 153.958 56.2038 272.178 35.2638 241.298C12.6638 207.978 147.154 153.958 147.154 153.958Z" fill="#4D4DFF"/>
<path d="M96.6735 190.858C96.6735 190.858 57.9336 232.458 52.8936 224.718C47.4636 216.368 96.6735 190.858 96.6735 190.858Z" fill="#D2D3D4"/>
<path d="M152.003 150.038C152.003 150.038 105.653 305.548 68.6933 277.798C28.8133 247.848 152.003 150.038 152.003 150.038Z" fill="#231F20"/>
<path d="M148.333 155.168C148.333 155.168 100.703 296.518 70.8635 274.108C38.6735 249.928 148.333 155.168 148.333 155.168Z" fill="#4D4DFF"/>
<path d="M112.563 206.468C112.563 206.468 89.4334 258.398 82.1534 252.708C74.3034 246.578 112.563 206.468 112.563 206.468Z" fill="#D2D3D4"/>
<path d="M151.644 149.898C151.644 149.898 158.304 312.038 114.334 297.778C66.8936 282.398 151.644 149.898 151.644 149.898Z" fill="#231F20"/>
<path d="M149.833 155.938C149.833 155.938 150.673 305.098 115.183 293.588C76.8834 281.168 149.833 155.938 149.833 155.938Z" fill="#4D4DFF"/>
<path d="M132.664 216.068C132.664 216.068 127.644 272.698 118.914 269.678C109.494 266.428 132.664 216.068 132.664 216.068Z" fill="#D2D3D4"/>
<path d="M151.254 149.878C151.254 149.878 210.194 301.068 163.984 301.868C114.114 302.728 151.254 149.878 151.254 149.878Z" fill="#231F20"/>
<path d="M151.504 156.178C151.504 156.178 200.734 296.978 163.424 297.618C123.164 298.308 151.504 156.178 151.504 156.178Z" fill="#4D4DFF"/>
<path d="M154.794 218.628C154.794 218.628 168.434 273.818 159.204 273.798C149.244 273.778 154.794 218.628 154.794 218.628Z" fill="#D2D3D4"/>
<path d="M150.883 149.978C150.883 149.978 255.723 273.838 212.273 289.598C165.383 306.598 150.883 149.978 150.883 149.978Z" fill="#231F20"/>
<path d="M153.163 155.858C153.163 155.858 245.443 273.048 210.363 285.768C172.513 299.498 153.163 155.858 153.163 155.858Z" fill="#4D4DFF"/>
<path d="M176.543 213.858C176.543 213.858 207.363 261.628 198.623 264.608C189.193 267.828 176.543 213.858 176.543 213.858Z" fill="#D2D3D4"/>
<path d="M150.563 150.198C150.563 150.198 289.943 233.308 253.963 262.318C215.143 293.628 150.563 150.198 150.563 150.198Z" fill="#231F20"/>
<path d="M154.633 155.018C154.633 155.018 279.963 235.898 250.913 259.318C219.573 284.588 154.633 155.018 154.633 155.018Z" fill="#4D4DFF"/>
<path d="M195.573 202.288C195.573 202.288 240.233 237.458 232.933 243.118C225.063 249.228 195.573 202.288 195.573 202.288Z" fill="#D2D3D4"/>
<path d="M150.333 150.518C150.333 150.518 309.143 183.868 284.533 222.988C257.973 265.208 150.333 150.518 150.333 150.518Z" fill="#231F20"/>
<path d="M155.744 153.748C155.744 153.748 300.544 189.548 280.674 221.128C259.234 255.208 155.744 153.748 155.744 153.748Z" fill="#4D4DFF"/>
<path d="M209.824 185.158C209.824 185.158 263.484 203.918 258.424 211.648C252.954 219.978 209.824 185.158 209.824 185.158Z" fill="#D2D3D4"/>
<path d="M133.685 145.849L133.565 143.928C133.56 143.848 133.558 143.748 133.558 143.503C133.558 140.838 134.586 138.352 136.468 136.471C138.471 134.468 141.179 133.431 143.975 133.571L145.867 133.666L147.139 132.262C149.022 130.184 151.668 129.004 154.5 129.004C157.332 129.004 159.978 130.184 161.861 132.262L163.133 133.666L165.025 133.571C167.821 133.431 170.529 134.468 172.532 136.471C174.415 138.353 175.442 140.833 175.442 143.503C175.442 143.748 175.44 143.848 175.435 143.928L175.315 145.849L176.742 147.142C178.82 149.024 180 151.67 180 154.501C180 157.334 178.819 159.986 176.742 161.867L175.315 163.16L175.435 165.081C175.44 165.161 175.442 165.26 175.442 165.506C175.442 168.17 174.414 170.656 172.532 172.538C170.529 174.541 167.821 175.577 165.025 175.437L163.133 175.343L161.861 176.747C159.978 178.825 157.332 180.004 154.5 180.004C151.668 180.004 149.022 178.825 147.139 176.747L145.867 175.343L143.975 175.437C141.179 175.577 138.471 174.541 136.468 172.538C134.585 170.656 133.558 168.176 133.558 165.506C133.558 165.261 133.56 165.161 133.565 165.081L133.685 163.16L132.258 161.867C130.181 159.986 129.001 157.342 129 154.504C129.001 151.667 130.181 149.023 132.258 147.142L133.685 145.849Z" fill="#F3F0E4" stroke="#231F20" stroke-width="8"/>
<path d="M139 154.506C139 152.421 139.871 150.466 141.403 149.078C141.395 148.96 141.395 148.842 141.395 148.724C141.395 146.768 142.155 144.927 143.539 143.543C145.012 142.071 147.012 141.303 149.075 141.407C150.463 139.875 152.419 139.004 154.5 139.004C156.581 139.004 158.537 139.875 159.925 141.407C161.988 141.303 163.988 142.071 165.461 143.543C166.845 144.927 167.605 146.765 167.605 148.724C167.605 148.842 167.605 148.96 167.597 149.078C169.129 150.466 170 152.421 170 154.503C170 156.584 169.129 158.543 167.597 159.931C167.605 160.049 167.605 160.167 167.605 160.285C167.605 162.241 166.845 164.082 165.461 165.466C163.988 166.938 161.988 167.706 159.925 167.602C158.537 169.134 156.581 170.004 154.5 170.004C152.419 170.004 150.463 169.134 149.075 167.602C147.012 167.705 145.012 166.938 143.539 165.466C142.155 164.082 141.395 162.244 141.395 160.285C141.395 160.167 141.395 160.049 141.403 159.931C139.871 158.543 139 156.587 139 154.503L139 154.506Z" fill="#FF9933"/>
</svg>
