<svg width="67" height="154" viewBox="0 0 67 154" fill="none" xmlns="http://www.w3.org/2000/svg">
<path d="M31.9212 129.25C31.9212 129.25 -13.2988 0 32.5212 0C81.9612 0 31.9212 129.25 31.9212 129.25Z" fill="#231F20"/>
<path d="M32.2211 123.89C32.2211 123.89 -4.27893 3.60986 32.7011 3.60986C72.6111 3.60986 32.2211 123.89 32.2211 123.89Z" fill="#4D4DFF"/>
<path d="M32.301 85.1399C32.301 85.1399 23.591 38.0799 32.731 38.2299C42.591 38.3899 32.301 85.1399 32.301 85.1399Z" fill="#D2D3D4"/>
<path d="M50.0844 113.634C51.0282 115.864 50.9822 118.35 49.9725 120.527C50.0339 120.65 50.0873 120.776 50.1408 120.902C51.0262 122.994 51.0468 125.307 50.1932 127.413C49.2851 129.655 47.4935 131.381 45.2406 132.204C44.4499 134.47 42.7524 136.287 40.5265 137.229C38.3006 138.172 35.8147 138.126 33.6375 137.116C31.4781 138.161 28.9915 138.246 26.7503 137.338C24.6438 136.485 22.9989 134.863 22.1118 132.768C22.0583 132.642 22.0049 132.516 21.9593 132.386C19.6933 131.596 17.8765 129.898 16.9343 127.673C15.9921 125.447 16.0365 122.957 17.0462 120.78C16.9848 120.657 16.9314 120.531 16.8779 120.405C15.9925 118.313 15.9719 116 16.8254 113.894C17.7336 111.652 19.5252 109.926 21.7781 109.103C22.5688 106.837 24.2663 105.02 26.4922 104.078C28.7181 103.135 31.204 103.181 33.3812 104.191C35.5406 103.146 38.0272 103.061 40.2684 103.969C42.3749 104.823 44.0198 106.444 44.9069 108.539C44.9604 108.665 45.0138 108.792 45.0594 108.921C47.3254 109.712 49.1422 111.409 50.086 113.638L50.0844 113.634Z" fill="#231F20"/>
<path d="M45.4798 115.585C46.1615 117.195 46.1283 118.99 45.399 120.562C45.4433 120.651 45.4819 120.742 45.5205 120.834C46.16 122.344 46.1749 124.015 45.5584 125.536C44.9025 127.155 43.6086 128.402 41.9815 128.996C41.4105 130.633 40.1845 131.945 38.5769 132.625C36.9693 133.306 35.1739 133.273 33.6015 132.544C32.0419 133.298 30.2461 133.359 28.6274 132.704C27.1061 132.087 25.918 130.917 25.2774 129.403C25.2388 129.312 25.2002 129.221 25.1673 129.127C23.5307 128.556 22.2186 127.331 21.5381 125.723C20.8576 124.116 20.8896 122.318 21.6189 120.745C21.5746 120.657 21.536 120.565 21.4974 120.474C20.8579 118.964 20.843 117.293 21.4595 115.772C22.1154 114.153 23.4093 112.906 25.0364 112.312C25.6074 110.675 26.8334 109.363 28.441 108.682C30.0486 108.002 31.844 108.035 33.4164 108.764C34.976 108.01 36.7718 107.949 38.3905 108.604C39.9118 109.22 41.0999 110.391 41.7405 111.905C41.7791 111.996 41.8177 112.087 41.8506 112.181C43.4872 112.751 44.7993 113.977 45.481 115.587L45.4798 115.585Z" fill="#FFCC33"/>
</svg>
