<svg width="301" height="301" viewBox="0 0 301 301" fill="none" xmlns="http://www.w3.org/2000/svg">
<path d="M148.894 149.873C148.894 149.873 310.234 132.513 298.924 177.333C286.714 225.693 148.894 149.873 148.894 149.873Z" fill="#231F20"/>
<path d="M155.043 151.273C155.043 151.273 303.813 140.573 294.683 176.753C284.823 215.793 155.043 151.273 155.043 151.273Z" fill="#4D4DFF"/>
<path d="M216.173 164.433C216.173 164.433 273.003 165.693 270.573 174.603C267.953 184.213 216.173 164.433 216.173 164.433Z" fill="#D2D3D4"/>
<path d="M148.894 150.243C148.894 150.243 296.974 83.8727 300.064 129.993C303.394 179.753 148.894 150.243 148.894 150.243Z" fill="#231F20"/>
<path d="M155.173 149.673C155.173 149.673 293.363 93.5228 295.853 130.753C298.543 170.923 155.173 149.673 155.173 149.673Z" fill="#4D4DFF"/>
<path d="M217.384 143.303C217.384 143.303 271.824 126.943 272.264 136.163C272.744 146.113 217.384 143.303 217.384 143.303Z" fill="#D2D3D4"/>
<path d="M149.003 150.593C149.003 150.593 269.333 41.7129 286.513 84.6229C305.063 130.923 149.003 150.593 149.003 150.593Z" fill="#231F20"/>
<path d="M154.813 148.113C154.813 148.113 268.883 52.0128 282.763 86.6528C297.733 124.033 154.813 148.113 154.813 148.113Z" fill="#4D4DFF"/>
<path d="M212.003 122.823C212.003 122.823 258.723 90.4429 261.993 99.0729C265.523 108.393 212.003 122.823 212.003 122.823Z" fill="#D2D3D4"/>
<path d="M149.223 150.893C149.223 150.893 230.013 10.163 259.623 45.653C291.573 83.953 149.223 150.893 149.223 150.893Z" fill="#231F20"/>
<path d="M153.973 146.743C153.973 146.743 232.763 20.0929 256.663 48.7529C282.453 79.6729 153.973 146.743 153.973 146.743Z" fill="#4D4DFF"/>
<path d="M200.553 105.023C200.553 105.023 234.983 59.7829 240.763 66.9929C246.993 74.7629 200.553 105.023 200.553 105.023Z" fill="#D2D3D4"/>
<path d="M149.523 151.103C149.523 151.103 182.873 -7.70704 221.993 16.903C264.213 43.463 149.523 151.103 149.523 151.103Z" fill="#231F20"/>
<path d="M152.764 145.693C152.764 145.693 188.564 0.892855 220.144 20.7629C254.224 42.2029 152.764 145.693 152.764 145.693Z" fill="#4D4DFF"/>
<path d="M184.173 91.6231C184.173 91.6231 202.933 37.9631 210.663 43.0231C218.993 48.4931 184.173 91.6231 184.173 91.6231Z" fill="#D2D3D4"/>
<path d="M149.883 151.223C149.883 151.223 132.523 -10.117 177.343 1.19301C225.703 13.403 149.883 151.223 149.883 151.223Z" fill="#231F20"/>
<path d="M151.283 145.073C151.283 145.073 140.583 -3.69703 176.763 5.43297C215.803 15.293 151.283 145.073 151.283 145.073Z" fill="#4D4DFF"/>
<path d="M164.443 83.9328C164.443 83.9328 165.703 27.1028 174.613 29.5328C184.223 32.1528 164.443 83.9328 164.443 83.9328Z" fill="#D2D3D4"/>
<path d="M150.243 151.223C150.243 151.223 83.8732 3.14307 129.993 0.0530664C179.753 -3.27693 150.243 151.223 150.243 151.223Z" fill="#231F20"/>
<path d="M149.683 144.933C149.683 144.933 93.533 6.74321 130.763 4.25321C170.933 1.56321 149.683 144.933 149.683 144.933Z" fill="#4D4DFF"/>
<path d="M143.303 82.7332C143.303 82.7332 126.943 28.2932 136.163 27.8532C146.113 27.3732 143.303 82.7332 143.303 82.7332Z" fill="#D2D3D4"/>
<path d="M150.603 151.103C150.603 151.103 41.7232 30.7733 84.6332 13.5933C130.933 -4.95673 150.603 151.103 150.603 151.103Z" fill="#231F20"/>
<path d="M148.123 145.303C148.123 145.303 52.0231 31.2333 86.6631 17.3533C124.043 2.38334 148.123 145.303 148.123 145.303Z" fill="#4D4DFF"/>
<path d="M122.833 88.1133C122.833 88.1133 90.4532 41.3933 99.0832 38.1233C108.403 34.5933 122.833 88.1133 122.833 88.1133Z" fill="#D2D3D4"/>
<path d="M150.903 150.883C150.903 150.883 10.1732 70.0931 45.6632 40.4831C83.9632 8.53305 150.903 150.883 150.903 150.883Z" fill="#231F20"/>
<path d="M146.743 146.133C146.743 146.133 20.0934 67.3432 48.7534 43.4432C79.6734 17.6532 146.743 146.133 146.743 146.133Z" fill="#4D4DFF"/>
<path d="M105.023 99.5532C105.023 99.5532 59.7834 65.1232 66.9934 59.3432C74.7634 53.1132 105.023 99.5532 105.023 99.5532Z" fill="#D2D3D4"/>
<path d="M151.113 150.583C151.113 150.583 -7.69678 117.233 16.9132 78.1128C43.4732 35.8928 151.113 150.583 151.113 150.583Z" fill="#231F20"/>
<path d="M145.703 147.353C145.703 147.353 0.903109 111.553 20.7731 79.9727C42.2131 45.8927 145.703 147.353 145.703 147.353Z" fill="#4D4DFF"/>
<path d="M91.6231 115.943C91.6231 115.943 37.9631 97.1829 43.0231 89.4529C48.4931 81.1229 91.6231 115.943 91.6231 115.943Z" fill="#D2D3D4"/>
<path d="M151.223 150.233C151.223 150.233 -10.117 167.593 1.19301 122.773C13.403 74.4129 151.223 150.233 151.223 150.233Z" fill="#231F20"/>
<path d="M145.073 148.833C145.073 148.833 -3.69703 159.533 5.43297 123.353C15.293 84.3129 145.073 148.833 145.073 148.833Z" fill="#4D4DFF"/>
<path d="M83.943 135.673C83.943 135.673 27.1131 134.413 29.5431 125.503C32.163 115.893 83.943 135.673 83.943 135.673Z" fill="#D2D3D4"/>
<path d="M151.223 149.863C151.223 149.863 3.14307 216.233 0.0530664 170.113C-3.27693 120.353 151.223 149.863 151.223 149.863Z" fill="#231F20"/>
<path d="M144.943 150.433C144.943 150.433 6.75297 206.583 4.26297 169.353C1.57297 129.183 144.943 150.433 144.943 150.433Z" fill="#4D4DFF"/>
<path d="M82.7332 156.803C82.7332 156.803 28.2932 173.163 27.8532 163.943C27.3732 153.993 82.7332 156.803 82.7332 156.803Z" fill="#D2D3D4"/>
<path d="M151.113 149.513C151.113 149.513 30.783 258.393 13.603 215.483C-4.94697 169.183 151.113 149.513 151.113 149.513Z" fill="#231F20"/>
<path d="M145.313 151.993C145.313 151.993 31.2431 248.093 17.3631 213.453C2.39311 176.073 145.313 151.993 145.313 151.993Z" fill="#4D4DFF"/>
<path d="M88.1133 177.283C88.1133 177.283 41.3933 209.663 38.1233 201.033C34.5933 191.713 88.1133 177.283 88.1133 177.283Z" fill="#D2D3D4"/>
<path d="M150.893 149.213C150.893 149.213 70.1033 289.943 40.4933 254.453C8.54331 216.153 150.893 149.213 150.893 149.213Z" fill="#231F20"/>
<path d="M146.143 153.363C146.143 153.363 67.3535 280.013 43.4535 251.353C17.6635 220.433 146.143 153.363 146.143 153.363Z" fill="#4D4DFF"/>
<path d="M99.5635 195.083C99.5635 195.083 65.1334 240.323 59.3534 233.113C53.1234 225.343 99.5635 195.083 99.5635 195.083Z" fill="#D2D3D4"/>
<path d="M150.594 148.993C150.594 148.993 117.244 307.803 78.1236 283.193C35.9035 256.633 150.594 148.993 150.594 148.993Z" fill="#231F20"/>
<path d="M147.354 154.413C147.354 154.413 111.554 299.213 79.9737 279.343C45.8937 257.903 147.354 154.413 147.354 154.413Z" fill="#4D4DFF"/>
<path d="M115.954 208.483C115.954 208.483 97.1936 262.143 89.4636 257.083C81.1336 251.613 115.954 208.483 115.954 208.483Z" fill="#D2D3D4"/>
<path d="M150.243 148.883C150.243 148.883 167.603 310.223 122.783 298.913C74.4232 286.703 150.243 148.883 150.243 148.883Z" fill="#231F20"/>
<path d="M148.833 155.033C148.833 155.033 159.533 303.803 123.353 294.673C84.3133 284.813 148.833 155.033 148.833 155.033Z" fill="#4D4DFF"/>
<path d="M135.673 216.173C135.673 216.173 134.413 273.003 125.503 270.573C115.893 267.953 135.673 216.173 135.673 216.173Z" fill="#D2D3D4"/>
<path d="M149.874 148.883C149.874 148.883 216.244 296.963 170.124 300.053C120.364 303.383 149.874 148.883 149.874 148.883Z" fill="#231F20"/>
<path d="M150.434 155.173C150.434 155.173 206.584 293.363 169.354 295.853C129.184 298.543 150.434 155.173 150.434 155.173Z" fill="#4D4DFF"/>
<path d="M156.813 217.373C156.813 217.373 173.173 271.813 163.953 272.253C154.003 272.733 156.813 217.373 156.813 217.373Z" fill="#D2D3D4"/>
<path d="M149.523 149.003C149.523 149.003 258.403 269.333 215.493 286.513C169.193 305.063 149.523 149.003 149.523 149.003Z" fill="#231F20"/>
<path d="M152.003 154.803C152.003 154.803 248.103 268.873 213.463 282.753C176.083 297.723 152.003 154.803 152.003 154.803Z" fill="#4D4DFF"/>
<path d="M177.283 211.993C177.283 211.993 209.663 258.713 201.033 261.983C191.713 265.513 177.283 211.993 177.283 211.993Z" fill="#D2D3D4"/>
<path d="M149.223 149.223C149.223 149.223 289.953 230.013 254.463 259.623C216.163 291.573 149.223 149.223 149.223 149.223Z" fill="#231F20"/>
<path d="M153.373 153.973C153.373 153.973 280.023 232.763 251.363 256.663C220.443 282.453 153.373 153.973 153.373 153.973Z" fill="#4D4DFF"/>
<path d="M195.093 200.553C195.093 200.553 240.333 234.983 233.123 240.763C225.353 246.993 195.093 200.553 195.093 200.553Z" fill="#D2D3D4"/>
<path d="M149.003 149.523C149.003 149.523 307.813 182.873 283.203 221.993C256.643 264.213 149.003 149.523 149.003 149.523Z" fill="#231F20"/>
<path d="M154.423 152.753C154.423 152.753 299.223 188.553 279.353 220.133C257.913 254.213 154.423 152.753 154.423 152.753Z" fill="#4D4DFF"/>
<path d="M208.493 184.163C208.493 184.163 262.153 202.923 257.093 210.653C251.623 218.983 208.493 184.163 208.493 184.163Z" fill="#D2D3D4"/>
<path d="M152.858 171C150.436 171 148.165 169.989 146.554 168.21C146.417 168.219 146.28 168.219 146.143 168.219C143.872 168.219 141.733 167.336 140.126 165.729C138.416 164.019 137.525 161.696 137.645 159.3C135.867 157.689 134.855 155.418 134.855 153C134.855 150.583 135.867 148.312 137.645 146.7C137.525 144.305 138.416 141.982 140.126 140.272C141.733 138.665 143.867 137.782 146.143 137.782C146.28 137.782 146.417 137.782 146.554 137.79C148.165 136.012 150.436 135 152.853 135C155.27 135 157.546 136.012 159.157 137.79C159.294 137.782 159.431 137.782 159.568 137.782C161.839 137.782 163.978 138.665 165.585 140.272C167.294 141.982 168.186 144.305 168.066 146.7C169.844 148.312 170.855 150.583 170.855 153C170.855 155.418 169.844 157.689 168.066 159.3C168.186 161.696 167.294 164.019 165.585 165.729C163.978 167.336 161.844 168.219 159.568 168.219C159.431 168.219 159.294 168.219 159.157 168.21C157.546 169.989 155.274 171 152.853 171H152.858Z" fill="#231F20"/>
<path d="M152.857 166C151.108 166 149.468 165.27 148.304 163.985C148.205 163.992 148.106 163.992 148.007 163.992C146.367 163.992 144.823 163.354 143.662 162.193C142.427 160.958 141.784 159.281 141.87 157.55C140.586 156.387 139.855 154.746 139.855 153C139.855 151.255 140.586 149.614 141.87 148.45C141.784 146.72 142.427 145.043 143.662 143.808C144.823 142.647 146.364 142.009 148.007 142.009C148.106 142.009 148.205 142.009 148.304 142.015C149.468 140.731 151.108 140 152.854 140C154.599 140 156.243 140.731 157.406 142.015C157.506 142.009 157.605 142.009 157.704 142.009C159.344 142.009 160.888 142.647 162.049 143.808C163.284 145.043 163.927 146.72 163.841 148.45C165.125 149.614 165.855 151.255 165.855 153C165.855 154.746 165.125 156.387 163.841 157.55C163.927 159.281 163.284 160.958 162.049 162.193C160.888 163.354 159.347 163.992 157.704 163.992C157.605 163.992 157.506 163.992 157.406 163.985C156.243 165.27 154.603 166 152.854 166H152.857Z" fill="#FFCC33"/>
</svg>
