<svg width="301" height="301" viewBox="0 0 301 301" fill="none" xmlns="http://www.w3.org/2000/svg">
<path d="M148.894 149.878C148.894 149.878 310.234 132.518 298.924 177.338C286.714 225.698 148.894 149.878 148.894 149.878Z" fill="#231F20"/>
<path d="M155.043 151.278C155.043 151.278 303.813 140.578 294.683 176.758C284.823 215.798 155.043 151.278 155.043 151.278Z" fill="#4D4DFF"/>
<path d="M216.173 164.438C216.173 164.438 273.003 165.697 270.573 174.607C267.953 184.217 216.173 164.438 216.173 164.438Z" fill="#D2D3D4"/>
<path d="M148.894 150.247C148.894 150.247 296.974 83.8771 300.064 129.997C303.394 179.757 148.894 150.247 148.894 150.247Z" fill="#231F20"/>
<path d="M155.173 149.677C155.173 149.677 293.363 93.5272 295.853 130.757C298.543 170.927 155.173 149.677 155.173 149.677Z" fill="#4D4DFF"/>
<path d="M217.384 143.307C217.384 143.307 271.824 126.947 272.264 136.167C272.744 146.117 217.384 143.307 217.384 143.307Z" fill="#D2D3D4"/>
<path d="M149.003 150.597C149.003 150.597 269.333 41.7173 286.513 84.6273C305.063 130.927 149.003 150.597 149.003 150.597Z" fill="#231F20"/>
<path d="M154.813 148.117C154.813 148.117 268.883 52.0172 282.763 86.6572C297.733 124.037 154.813 148.117 154.813 148.117Z" fill="#4D4DFF"/>
<path d="M212.003 122.827C212.003 122.827 258.723 90.4473 261.993 99.0773C265.523 108.397 212.003 122.827 212.003 122.827Z" fill="#D2D3D4"/>
<path d="M149.223 150.897C149.223 150.897 230.013 10.1674 259.623 45.6574C291.573 83.9574 149.223 150.897 149.223 150.897Z" fill="#231F20"/>
<path d="M153.973 146.747C153.973 146.747 232.763 20.0973 256.663 48.7573C282.453 79.6773 153.973 146.747 153.973 146.747Z" fill="#4D4DFF"/>
<path d="M200.553 105.027C200.553 105.027 234.983 59.7873 240.763 66.9973C246.993 74.7673 200.553 105.027 200.553 105.027Z" fill="#D2D3D4"/>
<path d="M149.523 151.107C149.523 151.107 182.873 -7.70264 221.993 16.9074C264.213 43.4674 149.523 151.107 149.523 151.107Z" fill="#231F20"/>
<path d="M152.764 145.697C152.764 145.697 188.564 0.89725 220.144 20.7673C254.224 42.2073 152.764 145.697 152.764 145.697Z" fill="#4D4DFF"/>
<path d="M184.173 91.6275C184.173 91.6275 202.933 37.9675 210.663 43.0275C218.993 48.4975 184.173 91.6275 184.173 91.6275Z" fill="#D2D3D4"/>
<path d="M149.883 151.227C149.883 151.227 132.523 -10.1126 177.343 1.1974C225.703 13.4074 149.883 151.227 149.883 151.227Z" fill="#231F20"/>
<path d="M151.283 145.077C151.283 145.077 140.583 -3.69264 176.763 5.43736C215.803 15.2974 151.283 145.077 151.283 145.077Z" fill="#4D4DFF"/>
<path d="M164.443 83.9372C164.443 83.9372 165.703 27.1072 174.613 29.5372C184.223 32.1572 164.443 83.9372 164.443 83.9372Z" fill="#D2D3D4"/>
<path d="M150.243 151.227C150.243 151.227 83.8732 3.14746 129.993 0.0574609C179.753 -3.27254 150.243 151.227 150.243 151.227Z" fill="#231F20"/>
<path d="M149.683 144.938C149.683 144.938 93.533 6.7476 130.763 4.2576C170.933 1.5676 149.683 144.938 149.683 144.938Z" fill="#4D4DFF"/>
<path d="M143.303 82.7376C143.303 82.7376 126.943 28.2976 136.163 27.8576C146.113 27.3776 143.303 82.7376 143.303 82.7376Z" fill="#D2D3D4"/>
<path d="M150.603 151.108C150.603 151.108 41.7232 30.7777 84.6332 13.5977C130.933 -4.95234 150.603 151.108 150.603 151.108Z" fill="#231F20"/>
<path d="M148.123 145.308C148.123 145.308 52.0231 31.2377 86.6631 17.3577C124.043 2.38774 148.123 145.308 148.123 145.308Z" fill="#4D4DFF"/>
<path d="M122.833 88.1177C122.833 88.1177 90.4532 41.3977 99.0832 38.1277C108.403 34.5977 122.833 88.1177 122.833 88.1177Z" fill="#D2D3D4"/>
<path d="M150.903 150.887C150.903 150.887 10.1732 70.0975 45.6632 40.4874C83.9632 8.53745 150.903 150.887 150.903 150.887Z" fill="#231F20"/>
<path d="M146.743 146.138C146.743 146.138 20.0934 67.3476 48.7534 43.4476C79.6734 17.6576 146.743 146.138 146.743 146.138Z" fill="#4D4DFF"/>
<path d="M105.023 99.5576C105.023 99.5576 59.7834 65.1276 66.9934 59.3476C74.7634 53.1176 105.023 99.5576 105.023 99.5576Z" fill="#D2D3D4"/>
<path d="M151.113 150.587C151.113 150.587 -7.69678 117.237 16.9132 78.1172C43.4732 35.8972 151.113 150.587 151.113 150.587Z" fill="#231F20"/>
<path d="M145.703 147.357C145.703 147.357 0.903109 111.557 20.7731 79.9771C42.2131 45.8971 145.703 147.357 145.703 147.357Z" fill="#4D4DFF"/>
<path d="M91.6231 115.947C91.6231 115.947 37.9631 97.1873 43.0231 89.4573C48.4931 81.1273 91.6231 115.947 91.6231 115.947Z" fill="#D2D3D4"/>
<path d="M151.223 150.237C151.223 150.237 -10.117 167.597 1.19301 122.777C13.403 74.4173 151.223 150.237 151.223 150.237Z" fill="#231F20"/>
<path d="M145.073 148.837C145.073 148.837 -3.69703 159.537 5.43297 123.357C15.293 84.3172 145.073 148.837 145.073 148.837Z" fill="#4D4DFF"/>
<path d="M83.943 135.677C83.943 135.677 27.1131 134.417 29.5431 125.507C32.163 115.897 83.943 135.677 83.943 135.677Z" fill="#D2D3D4"/>
<path d="M151.223 149.867C151.223 149.867 3.14307 216.237 0.0530664 170.117C-3.27693 120.357 151.223 149.867 151.223 149.867Z" fill="#231F20"/>
<path d="M144.943 150.437C144.943 150.437 6.75297 206.587 4.26297 169.357C1.57297 129.187 144.943 150.437 144.943 150.437Z" fill="#4D4DFF"/>
<path d="M82.7332 156.807C82.7332 156.807 28.2932 173.167 27.8532 163.947C27.3732 153.997 82.7332 156.807 82.7332 156.807Z" fill="#D2D3D4"/>
<path d="M151.113 149.517C151.113 149.517 30.783 258.397 13.603 215.487C-4.94697 169.187 151.113 149.517 151.113 149.517Z" fill="#231F20"/>
<path d="M145.313 151.997C145.313 151.997 31.2431 248.097 17.3631 213.457C2.39311 176.077 145.313 151.997 145.313 151.997Z" fill="#4D4DFF"/>
<path d="M88.1133 177.287C88.1133 177.287 41.3933 209.667 38.1233 201.037C34.5933 191.717 88.1133 177.287 88.1133 177.287Z" fill="#D2D3D4"/>
<path d="M150.893 149.217C150.893 149.217 70.1033 289.947 40.4933 254.457C8.54331 216.157 150.893 149.217 150.893 149.217Z" fill="#231F20"/>
<path d="M146.143 153.367C146.143 153.367 67.3535 280.017 43.4535 251.357C17.6635 220.437 146.143 153.367 146.143 153.367Z" fill="#4D4DFF"/>
<path d="M99.5635 195.087C99.5635 195.087 65.1334 240.327 59.3534 233.117C53.1234 225.347 99.5635 195.087 99.5635 195.087Z" fill="#D2D3D4"/>
<path d="M150.594 148.998C150.594 148.998 117.244 307.808 78.1236 283.198C35.9035 256.638 150.594 148.998 150.594 148.998Z" fill="#231F20"/>
<path d="M147.354 154.417C147.354 154.417 111.554 299.218 79.9737 279.348C45.8937 257.908 147.354 154.417 147.354 154.417Z" fill="#4D4DFF"/>
<path d="M115.954 208.487C115.954 208.487 97.1936 262.147 89.4636 257.087C81.1336 251.617 115.954 208.487 115.954 208.487Z" fill="#D2D3D4"/>
<path d="M150.243 148.887C150.243 148.887 167.603 310.227 122.783 298.917C74.4232 286.707 150.243 148.887 150.243 148.887Z" fill="#231F20"/>
<path d="M148.833 155.037C148.833 155.037 159.533 303.807 123.353 294.677C84.3133 284.817 148.833 155.037 148.833 155.037Z" fill="#4D4DFF"/>
<path d="M135.673 216.177C135.673 216.177 134.413 273.007 125.503 270.577C115.893 267.957 135.673 216.177 135.673 216.177Z" fill="#D2D3D4"/>
<path d="M149.874 148.887C149.874 148.887 216.244 296.967 170.124 300.057C120.364 303.387 149.874 148.887 149.874 148.887Z" fill="#231F20"/>
<path d="M150.434 155.177C150.434 155.177 206.584 293.367 169.354 295.857C129.184 298.547 150.434 155.177 150.434 155.177Z" fill="#4D4DFF"/>
<path d="M156.813 217.377C156.813 217.377 173.173 271.817 163.953 272.257C154.003 272.737 156.813 217.377 156.813 217.377Z" fill="#D2D3D4"/>
<path d="M149.523 149.007C149.523 149.007 258.403 269.337 215.493 286.517C169.193 305.067 149.523 149.007 149.523 149.007Z" fill="#231F20"/>
<path d="M152.003 154.807C152.003 154.807 248.103 268.877 213.463 282.757C176.083 297.727 152.003 154.807 152.003 154.807Z" fill="#4D4DFF"/>
<path d="M177.283 211.997C177.283 211.997 209.663 258.717 201.033 261.987C191.713 265.517 177.283 211.997 177.283 211.997Z" fill="#D2D3D4"/>
<path d="M149.223 149.228C149.223 149.228 289.953 230.018 254.463 259.628C216.163 291.578 149.223 149.228 149.223 149.228Z" fill="#231F20"/>
<path d="M153.373 153.978C153.373 153.978 280.023 232.768 251.363 256.668C220.443 282.458 153.373 153.978 153.373 153.978Z" fill="#4D4DFF"/>
<path d="M195.093 200.558C195.093 200.558 240.333 234.988 233.123 240.768C225.353 246.998 195.093 200.558 195.093 200.558Z" fill="#D2D3D4"/>
<path d="M149.003 149.527C149.003 149.527 307.813 182.877 283.203 221.997C256.643 264.217 149.003 149.527 149.003 149.527Z" fill="#231F20"/>
<path d="M154.423 152.757C154.423 152.757 299.223 188.557 279.353 220.137C257.913 254.217 154.423 152.757 154.423 152.757Z" fill="#4D4DFF"/>
<path d="M208.493 184.167C208.493 184.167 262.153 202.928 257.093 210.658C251.623 218.988 208.493 184.167 208.493 184.167Z" fill="#D2D3D4"/>
<path d="M131.685 146.849L131.565 144.928C131.56 144.848 131.558 144.748 131.558 144.503C131.558 141.838 132.586 139.352 134.468 137.471C136.471 135.468 139.179 134.431 141.975 134.571L143.867 134.666L145.139 133.262C147.022 131.184 149.668 130.004 152.5 130.004C155.332 130.004 157.978 131.184 159.861 133.262L161.133 134.666L163.025 134.571C165.821 134.431 168.529 135.468 170.532 137.471C172.415 139.353 173.442 141.833 173.442 144.503C173.442 144.748 173.44 144.848 173.435 144.928L173.315 146.849L174.742 148.142C176.82 150.024 178 152.67 178 155.501C178 158.334 176.819 160.986 174.742 162.867L173.315 164.16L173.435 166.081C173.44 166.161 173.442 166.26 173.442 166.506C173.442 169.17 172.414 171.656 170.532 173.538C168.529 175.541 165.821 176.577 163.025 176.437L161.133 176.343L159.861 177.747C157.978 179.825 155.332 181.004 152.5 181.004C149.668 181.004 147.022 179.825 145.139 177.747L143.867 176.343L141.975 176.437C139.179 176.577 136.471 175.541 134.468 173.538C132.585 171.656 131.558 169.176 131.558 166.506C131.558 166.261 131.56 166.161 131.565 166.081L131.685 164.16L130.258 162.867C128.181 160.986 127.001 158.342 127 155.504C127.001 152.667 128.181 150.023 130.258 148.142L131.685 146.849Z" fill="#F3F0E4" stroke="#231F20" stroke-width="8"/>
<path d="M137 155.506C137 153.421 137.871 151.466 139.403 150.078C139.395 149.96 139.395 149.842 139.395 149.724C139.395 147.768 140.155 145.927 141.539 144.543C143.012 143.071 145.012 142.303 147.075 142.407C148.463 140.875 150.419 140.004 152.5 140.004C154.581 140.004 156.537 140.875 157.925 142.407C159.988 142.303 161.988 143.071 163.461 144.543C164.845 145.927 165.605 147.765 165.605 149.724C165.605 149.842 165.605 149.96 165.597 150.078C167.129 151.466 168 153.421 168 155.503C168 157.584 167.129 159.543 165.597 160.931C165.605 161.049 165.605 161.167 165.605 161.285C165.605 163.241 164.845 165.082 163.461 166.466C161.988 167.938 159.988 168.706 157.925 168.602C156.537 170.134 154.581 171.004 152.5 171.004C150.419 171.004 148.463 170.134 147.075 168.602C145.012 168.705 143.012 167.938 141.539 166.466C140.155 165.082 139.395 163.244 139.395 161.285C139.395 161.167 139.395 161.049 139.403 160.931C137.871 159.543 137 157.587 137 155.503L137 155.506Z" fill="#FF9933"/>
</svg>
