<svg width="214" height="136" viewBox="0 0 214 136" fill="none" xmlns="http://www.w3.org/2000/svg">
<path d="M105.48 111.246C105.48 111.246 -17.889 51.8279 14.5107 19.4283C49.47 -15.5311 105.48 111.246 105.48 111.246Z" fill="#231F20"/>
<path d="M101.902 107.244C101.902 107.244 -8.95799 48.0024 17.1908 21.8536C45.4114 -6.36701 101.902 107.244 101.902 107.244Z" fill="#4D4DFF"/>
<path d="M74.5583 79.7869C74.5583 79.7869 35.1229 52.6693 41.692 46.3124C48.7772 39.4535 74.5583 79.7869 74.5583 79.7869Z" fill="#D2D3D4"/>
<path d="M111 110.363C111 110.363 170.414 -13.0033 202.812 19.396C237.766 54.3537 111 110.363 111 110.363Z" fill="#231F20"/>
<path d="M115.002 106.787C115.002 106.787 174.244 -4.0779 200.397 22.072C228.616 50.287 115.002 106.787 115.002 106.787Z" fill="#4D4DFF"/>
<path d="M142.465 79.4429C142.465 79.4429 169.585 40.0085 175.942 46.5775C182.801 53.6643 142.465 79.4429 142.465 79.4429Z" fill="#D2D3D4"/>
<path d="M125.086 95.6344C126.03 97.864 125.984 100.35 124.974 102.527C125.035 102.65 125.089 102.776 125.142 102.902C126.028 104.994 126.048 107.307 125.195 109.413C124.287 111.655 122.495 113.381 120.242 114.204C119.451 116.47 117.754 118.287 115.528 119.229C113.302 120.172 110.816 120.126 108.639 119.116C106.48 120.161 103.993 120.246 101.752 119.338C99.6453 118.485 98.0003 116.863 97.1133 114.768C97.0598 114.642 97.0063 114.516 96.9608 114.386C94.6948 113.596 92.878 111.898 91.9358 109.673C90.9936 107.447 91.0379 104.957 92.0477 102.78C91.9863 102.657 91.9328 102.531 91.8794 102.405C90.994 100.313 90.9734 98 91.8269 95.8936C92.7351 93.6525 94.5267 91.9261 96.7796 91.1026C97.5703 88.8368 99.2677 87.02 101.494 86.0777C103.72 85.1354 106.205 85.1812 108.383 86.1906C110.542 85.1462 113.029 85.0614 115.27 85.9693C117.376 86.8226 119.021 88.4436 119.908 90.539C119.962 90.6653 120.015 90.7916 120.061 90.9212C122.327 91.7116 124.144 93.4087 125.088 95.6383L125.086 95.6344Z" fill="#231F20"/>
<path d="M120.481 97.5845C121.163 99.1948 121.13 100.99 120.4 102.562C120.445 102.651 120.483 102.742 120.522 102.834C121.161 104.344 121.176 106.015 120.56 107.536C119.904 109.155 118.61 110.402 116.983 110.996C116.412 112.633 115.186 113.945 113.578 114.625C111.971 115.306 110.175 115.273 108.603 114.544C107.043 115.298 105.248 115.359 103.629 114.704C102.108 114.087 100.92 112.917 100.279 111.403C100.24 111.312 100.202 111.221 100.169 111.127C98.5322 110.556 97.22 109.331 96.5396 107.723C95.8591 106.116 95.8911 104.318 96.6204 102.745C96.576 102.657 96.5374 102.565 96.4988 102.474C95.8594 100.964 95.8445 99.293 96.4609 97.7718C97.1168 96.1532 98.4107 94.9064 100.038 94.3116C100.609 92.6752 101.835 91.363 103.442 90.6825C105.05 90.0019 106.845 90.035 108.418 90.764C109.977 90.0097 111.773 89.9485 113.392 90.6042C114.913 91.2205 116.101 92.3912 116.742 93.9046C116.781 93.9958 116.819 94.087 116.852 94.1806C118.489 94.7514 119.801 95.9771 120.482 97.5874L120.481 97.5845Z" fill="#FFCC33"/>
</svg>
