<svg width="228" height="203" viewBox="0 0 228 203" fill="none" xmlns="http://www.w3.org/2000/svg">
<path d="M114.285 129.25C114.285 129.25 69.0649 0 114.885 0C164.325 0 114.285 129.25 114.285 129.25Z" fill="#231F20"/>
<path d="M114.585 123.89C114.585 123.89 78.0848 3.60986 115.065 3.60986C154.975 3.60986 114.585 123.89 114.585 123.89Z" fill="#4D4DFF"/>
<path d="M114.665 85.1399C114.665 85.1399 105.955 38.0799 115.095 38.2299C124.955 38.3899 114.665 85.1399 114.665 85.1399Z" fill="#D2D3D4"/>
<path d="M115.215 127.42C115.215 127.42 25.8848 231.2 2.98481 191.53C-21.7352 148.72 115.215 127.42 115.215 127.42Z" fill="#231F20"/>
<path d="M110.425 129.84C110.425 129.84 24.5047 221.59 6.01473 189.56C-13.9353 155 110.425 129.84 110.425 129.84Z" fill="#4D4DFF"/>
<path d="M76.8247 149.15C76.8247 149.15 40.4247 180.23 35.9847 172.24C31.1947 163.62 76.8247 149.15 76.8247 149.15Z" fill="#D2D3D4"/>
<path d="M113.165 127.53C113.165 127.53 247.705 152.99 224.795 192.67C200.075 235.48 113.165 127.53 113.165 127.53Z" fill="#231F20"/>
<path d="M117.655 130.47C117.655 130.47 240.075 159 221.585 191.03C201.635 225.59 117.655 130.47 117.655 130.47Z" fill="#4D4DFF"/>
<path d="M151.174 149.92C151.174 149.92 196.284 165.91 191.584 173.75C186.514 182.21 151.174 149.92 151.174 149.92Z" fill="#D2D3D4"/>
<path d="M127.34 143.182C125.628 144.894 123.307 145.785 120.91 145.667C120.819 145.77 120.722 145.867 120.625 145.964C119.019 147.57 116.883 148.458 114.61 148.457C112.192 148.457 109.919 147.445 108.31 145.666C105.913 145.784 103.592 144.893 101.883 143.184C100.174 141.475 99.2825 139.154 99.4005 136.757C97.6217 135.147 96.6094 132.875 96.6093 130.457C96.6091 128.184 97.4938 126.051 99.1028 124.442C99.1998 124.345 99.2967 124.248 99.3998 124.157C99.2814 121.76 100.172 119.439 101.881 117.73C103.59 116.021 105.914 115.127 108.311 115.245C108.402 115.142 108.499 115.045 108.596 114.948C110.202 113.342 112.338 112.455 114.611 112.455C117.029 112.455 119.302 113.467 120.911 115.246C123.308 115.128 125.629 116.019 127.339 117.728C129.048 119.437 129.939 121.759 129.821 124.156C131.6 125.765 132.612 128.037 132.612 130.456C132.612 132.728 131.727 134.862 130.118 136.471C130.021 136.568 129.925 136.664 129.821 136.755C129.94 139.152 129.049 141.473 127.337 143.185L127.34 143.182Z" fill="#231F20"/>
<path d="M123.804 139.647C122.567 140.884 120.891 141.527 119.16 141.442C119.094 141.516 119.024 141.586 118.954 141.656C117.794 142.816 116.251 143.457 114.61 143.457C112.864 143.457 111.222 142.726 110.06 141.441C108.329 141.526 106.652 140.883 105.418 139.648C104.184 138.414 103.54 136.738 103.625 135.006C102.341 133.844 101.609 132.203 101.609 130.456C101.609 128.815 102.248 127.274 103.41 126.112C103.48 126.042 103.55 125.972 103.625 125.907C103.539 124.175 104.183 122.499 105.417 121.265C106.651 120.031 108.33 119.385 110.061 119.47C110.126 119.396 110.197 119.326 110.267 119.256C111.426 118.096 112.969 117.455 114.611 117.455C116.357 117.455 117.999 118.186 119.161 119.471C120.892 119.386 122.568 120.029 123.803 121.264C125.037 122.498 125.681 124.175 125.595 125.906C126.88 127.068 127.611 128.709 127.611 130.456C127.611 132.097 126.972 133.638 125.81 134.8C125.74 134.87 125.67 134.94 125.596 135.006C125.681 136.737 125.038 138.413 123.802 139.65L123.804 139.647Z" fill="#FFCC33"/>
</svg>
