<svg width="221" height="221" viewBox="0 0 221 221" fill="none" xmlns="http://www.w3.org/2000/svg">
<path d="M109.354 111.022C109.354 111.022 165.878 -13.6952 199.022 17.9405C234.781 52.0745 109.354 111.022 109.354 111.022Z" fill="#231F20"/>
<path d="M113.262 107.351C113.262 107.351 169.905 -4.86384 196.661 20.6697C225.529 48.2197 113.262 107.351 113.262 107.351Z" fill="#4D4DFF"/>
<path d="M140.08 79.3751C140.08 79.3751 166.275 39.3196 172.782 45.7387C179.805 52.6639 140.08 79.3751 140.08 79.3751Z" fill="#D2D3D4"/>
<path d="M111.022 110.892C111.022 110.892 -13.6928 54.3586 17.943 21.2142C52.0672 -14.5464 111.022 110.892 111.022 110.892Z" fill="#231F20"/>
<path d="M107.353 106.975C107.353 106.975 -4.86151 50.331 20.6721 23.5759C48.222 -5.29275 107.353 106.975 107.353 106.975Z" fill="#4D4DFF"/>
<path d="M79.3774 80.1564C79.3774 80.1564 39.3219 53.9619 45.741 47.4542C52.6661 40.4314 79.3774 80.1564 79.3774 80.1564Z" fill="#D2D3D4"/>
<path d="M110.892 109.224C110.892 109.224 54.3683 233.941 21.2239 202.305C-14.5343 168.171 110.892 109.224 110.892 109.224Z" fill="#231F20"/>
<path d="M106.975 112.892C106.975 112.892 50.3311 225.107 23.576 199.573C-5.29266 172.023 106.975 112.892 106.975 112.892Z" fill="#4D4DFF"/>
<path d="M80.156 140.868C80.156 140.868 53.9616 180.923 47.4538 174.504C40.4311 167.579 80.156 140.868 80.156 140.868Z" fill="#D2D3D4"/>
<path d="M109.225 109.354C109.225 109.354 233.941 165.877 202.306 199.022C168.172 234.78 109.225 109.354 109.225 109.354Z" fill="#231F20"/>
<path d="M112.893 113.271C112.893 113.271 225.108 169.915 199.574 196.67C172.024 225.539 112.893 113.271 112.893 113.271Z" fill="#4D4DFF"/>
<path d="M140.872 140.08C140.872 140.08 180.927 166.275 174.508 172.782C167.583 179.805 140.872 140.08 140.872 140.08Z" fill="#D2D3D4"/>
<path d="M123.103 123.1C121.391 124.812 119.07 125.703 116.673 125.585C116.582 125.688 116.485 125.785 116.388 125.882C114.782 127.488 112.646 128.376 110.373 128.375C107.955 128.375 105.682 127.363 104.073 125.584C101.676 125.702 99.3551 124.811 97.6459 123.102C95.9367 121.393 95.0457 119.072 95.1637 116.675C93.3848 115.065 92.3726 112.793 92.3724 110.374C92.3723 108.102 93.257 105.969 94.866 104.36C94.963 104.263 95.0599 104.166 95.163 104.075C95.0446 101.678 95.9354 99.3566 97.6444 97.6476C99.3533 95.9386 101.678 95.0449 104.074 95.1632C104.165 95.0602 104.262 94.9632 104.359 94.8662C105.965 93.2603 108.102 92.3725 110.374 92.3727C112.792 92.3728 115.065 93.3851 116.674 95.1639C119.071 95.0459 121.393 95.9369 123.102 97.6461C124.811 99.3553 125.702 101.677 125.584 104.073C127.363 105.683 128.375 107.955 128.375 110.374C128.375 112.646 127.491 114.78 125.882 116.389C125.785 116.485 125.688 116.582 125.585 116.673C125.703 119.07 124.812 121.391 123.1 123.103L123.103 123.1Z" fill="#231F20"/>
<path d="M119.567 119.565C118.331 120.802 116.654 121.445 114.923 121.36C114.857 121.434 114.787 121.504 114.717 121.574C113.557 122.734 112.015 123.375 110.373 123.375C108.627 123.375 106.985 122.644 105.823 121.359C104.092 121.444 102.416 120.801 101.181 119.566C99.9468 118.332 99.3032 116.656 99.3885 114.924C98.1037 113.762 97.3727 112.121 97.3726 110.374C97.3725 108.733 98.0114 107.192 99.1735 106.03C99.2435 105.96 99.3135 105.89 99.3879 105.825C99.3025 104.093 99.9458 102.417 101.18 101.183C102.414 99.9485 104.093 99.303 105.824 99.3884C105.89 99.314 105.96 99.244 106.03 99.1739C107.19 98.0141 108.732 97.3729 110.374 97.373C112.12 97.3731 113.762 98.1042 114.924 99.389C116.655 99.3037 118.332 99.9472 119.566 101.182C120.8 102.416 121.444 104.092 121.359 105.824C122.643 106.986 123.374 108.627 123.375 110.374C123.375 112.015 122.736 113.556 121.574 114.718C121.504 114.788 121.434 114.858 121.359 114.924C121.445 116.655 120.801 118.331 119.565 119.568L119.567 119.565Z" fill="#FFCC33"/>
</svg>
