<svg width="230" height="230" viewBox="0 0 230 230" fill="none" xmlns="http://www.w3.org/2000/svg">
<g clip-path="url(#clip0_730_3158)">
<path d="M187.07 92.7499C217.53 94.6099 240.82 163.62 210.35 161.76C179.89 159.9 112.65 124.94 113.5 111.01C114.35 97.0699 156.61 90.8899 187.07 92.7499Z" fill="#231F20"/>
<path d="M185.88 99.12C208.08 100.48 230.81 156.29 208.86 152.7C175.64 147.26 127.06 121.61 127.69 111.45C128.31 101.29 163.68 97.76 185.88 99.12Z" fill="#2E3192"/>
<path d="M200.89 141.99C204.723 141.99 207.83 138.883 207.83 135.05C207.83 131.217 204.723 128.11 200.89 128.11C197.057 128.11 193.95 131.217 193.95 135.05C193.95 138.883 197.057 141.99 200.89 141.99Z" fill="#E6E7E8"/>
<path d="M116.11 39.5798C127.3 11.1798 200.12 10.3698 188.94 38.7598C177.75 67.1598 123.73 120.3 110.74 115.19C97.75 110.07 104.93 67.9798 116.11 39.5798Z" fill="#231F20"/>
<path d="M121.8 42.6799C129.95 21.9799 190.06 17.6099 179.86 37.3799C164.42 67.2899 125.01 105.56 115.55 101.83C106.08 98.0999 113.65 63.3699 121.81 42.6699L121.8 42.6799Z" fill="#2E3192"/>
<path d="M160.61 46.4498C164.443 46.4498 167.55 43.3427 167.55 39.5098C167.55 35.677 164.443 32.5698 160.61 32.5698C156.777 32.5698 153.67 35.677 153.67 39.5098C153.67 43.3427 156.777 46.4498 160.61 46.4498Z" fill="#E6E7E8"/>
<path d="M43.6102 90.64C20.0602 71.23 41.7902 1.71002 65.3402 21.12C88.8902 40.53 122.74 108.34 113.86 119.11C104.98 129.88 67.1602 110.05 43.6102 90.64Z" fill="#231F20"/>
<path d="M48.3201 86.1799C31.1601 72.0299 45.5701 13.5199 61.2201 29.3299C84.9001 53.2499 109.12 102.56 102.65 110.41C96.1801 118.26 65.4901 100.33 48.3201 86.1799Z" fill="#2E3192"/>
<path d="M57.3004 55.2301C61.1332 55.2301 64.2403 52.123 64.2403 48.2901C64.2403 44.4572 61.1332 41.3501 57.3004 41.3501C53.4675 41.3501 50.3604 44.4572 50.3604 48.2901C50.3604 52.123 53.4675 55.2301 57.3004 55.2301Z" fill="#E6E7E8"/>
<path d="M69.7701 175.37C44.0301 191.77 -15.3699 149.62 10.3701 133.22C36.1101 116.82 111.06 105.58 118.56 117.35C126.06 129.13 95.51 158.96 69.7701 175.36V175.37Z" fill="#231F20"/>
<path d="M66.99 169.51C48.23 181.46 -2.97003 149.67 16.91 139.67C46.98 124.55 101.36 116.75 106.83 125.33C112.3 133.91 85.76 157.56 67 169.51H66.99Z" fill="#2E3192"/>
<path d="M33.73 156.2C37.5629 156.2 40.67 153.093 40.67 149.26C40.67 145.427 37.5629 142.32 33.73 142.32C29.8972 142.32 26.79 145.427 26.79 149.26C26.79 153.093 29.8972 156.2 33.73 156.2Z" fill="#E6E7E8"/>
<path d="M158.43 176.67C166.07 206.22 107.63 249.69 99.99 220.14C92.35 190.59 104.81 115.84 118.33 112.34C131.85 108.84 150.79 147.12 158.43 176.67Z" fill="#231F20"/>
<path d="M152.01 177.51C157.58 199.05 111.52 237.91 108.15 215.92C103.06 182.65 112.44 128.52 122.3 125.97C132.15 123.42 146.44 155.97 152.01 177.51Z" fill="#2E3192"/>
<path d="M122.47 209.82C126.303 209.82 129.41 206.713 129.41 202.88C129.41 199.047 126.303 195.94 122.47 195.94C118.637 195.94 115.53 199.047 115.53 202.88C115.53 206.713 118.637 209.82 122.47 209.82Z" fill="#E6E7E8"/>
<path d="M95.6848 108.845L95.5647 106.923C95.5597 106.844 95.5585 106.744 95.5585 106.498C95.5585 103.834 96.5861 101.348 98.4675 99.4668C100.471 97.4632 103.179 96.4269 105.975 96.5669L107.867 96.6617L109.139 95.2578C111.022 93.1797 113.668 92 116.5 92C119.332 92 121.978 93.1797 123.861 95.2578L125.133 96.6617L127.025 96.5669C129.821 96.4269 132.529 97.4632 134.532 99.4668C136.415 101.349 137.442 103.828 137.442 106.498C137.442 106.744 137.44 106.844 137.435 106.923L137.315 108.845L138.742 110.137C140.82 112.02 142 114.666 142 117.496C142 120.33 140.819 122.981 138.742 124.863L137.315 126.155L137.435 128.077C137.44 128.156 137.442 128.256 137.442 128.501C137.442 131.166 136.414 133.652 134.532 135.533C132.529 137.537 129.821 138.573 127.025 138.433L125.133 138.338L123.861 139.742C121.978 141.82 119.332 143 116.5 143C113.668 143 111.022 141.82 109.139 139.742L107.867 138.338L105.975 138.433C103.179 138.573 100.471 137.537 98.4675 135.533C96.5853 133.651 95.5585 131.172 95.5585 128.501C95.5585 128.256 95.5597 128.156 95.5647 128.077L95.6848 126.155L94.258 124.863C92.1813 122.981 91.001 120.338 91 117.5C91.001 114.662 92.1813 112.018 94.258 110.137L95.6848 108.845Z" fill="#F3F0E4" stroke="#231F20" stroke-width="8"/>
<path d="M101 117.502C101 115.417 101.871 113.461 103.403 112.074C103.395 111.956 103.395 111.838 103.395 111.72C103.395 109.764 104.155 107.922 105.539 106.539C107.012 105.066 109.012 104.299 111.075 104.402C112.463 102.871 114.419 102 116.5 102C118.581 102 120.537 102.871 121.925 104.402C123.988 104.299 125.988 105.066 127.461 106.539C128.845 107.922 129.605 109.76 129.605 111.72C129.605 111.838 129.605 111.956 129.597 112.074C131.129 113.461 132 115.417 132 117.498C132 119.579 131.129 121.539 129.597 122.926C129.605 123.044 129.605 123.162 129.605 123.28C129.605 125.236 128.845 127.077 127.461 128.461C125.988 129.934 123.988 130.701 121.925 130.598C120.537 132.129 118.581 133 116.5 133C114.419 133 112.463 132.129 111.075 130.598C109.012 130.701 107.012 129.934 105.539 128.461C104.155 127.077 103.395 125.24 103.395 123.28C103.395 123.162 103.395 123.044 103.403 122.926C101.871 121.539 101 119.583 101 117.498L101 117.502Z" fill="#FF9933"/>
</g>
<defs>
<clipPath id="clip0_730_3158">
<rect width="230" height="230" fill="white"/>
</clipPath>
</defs>
</svg>
