<svg width="262" height="256" viewBox="0 0 262 256" fill="none" xmlns="http://www.w3.org/2000/svg">
<path d="M128.338 137.162C128.338 137.162 89.9425 5.72461 135.699 8.1217C185.07 10.7097 128.338 137.162 128.338 137.162Z" fill="#231F20"/>
<path d="M128.918 131.83C128.918 131.83 98.7529 9.79769 135.692 11.7352C175.545 13.8282 128.918 131.83 128.918 131.83Z" fill="#4D4DFF"/>
<path d="M131.019 93.1303C131.019 93.1303 124.782 45.6835 133.903 46.3057C143.746 46.9845 131.019 93.1303 131.019 93.1303Z" fill="#D2D3D4"/>
<path d="M129.455 136.341C129.455 136.341 -7.41211 132.24 9.01398 89.4668C26.727 43.314 129.463 136.348 129.463 136.348L129.455 136.341Z" fill="#231F20"/>
<path d="M124.562 134.149C124.562 134.149 -0.814605 125.119 12.4436 90.591C26.7484 53.3335 124.562 134.149 124.562 134.149Z" fill="#4D4DFF"/>
<path d="M88.4078 120.183C88.4078 120.183 41.3499 111.45 44.7652 102.972C48.4492 93.8293 88.4078 120.183 88.4078 120.183Z" fill="#D2D3D4"/>
<path d="M129.024 135.019C129.024 135.019 82.829 263.918 47.2261 235.089C8.80195 203.976 129.024 135.019 129.024 135.019Z" fill="#231F20"/>
<path d="M125.425 139C125.425 139 78.0914 255.446 49.3545 232.168C18.3408 207.052 125.425 139 125.425 139Z" fill="#4D4DFF"/>
<path d="M100.974 169.066C100.974 169.066 78.1269 211.118 71.1195 205.256C63.5605 198.927 100.974 169.066 100.974 169.066Z" fill="#D2D3D4"/>
<path d="M127.631 135.025C127.631 135.025 235.945 218.789 197.521 243.75C156.057 270.677 127.631 135.025 127.631 135.025Z" fill="#231F20"/>
<path d="M130.304 139.678C130.304 139.678 226.428 220.67 195.407 240.816C161.933 262.552 130.304 139.678 130.304 139.678Z" fill="#4D4DFF"/>
<path d="M151.34 172.227C151.34 172.227 184.277 206.946 176.534 211.803C168.176 217.036 151.34 172.227 151.34 172.227Z" fill="#D2D3D4"/>
<path d="M127.214 136.348C127.214 136.348 240.351 59.2164 252.209 103.474C265.001 151.225 127.214 136.348 127.214 136.348Z" fill="#231F20"/>
<path d="M132.46 135.244C132.46 135.244 239.198 68.8539 248.772 104.577C259.103 143.121 132.46 135.244 132.46 135.244Z" fill="#4D4DFF"/>
<path d="M169.916 125.296C169.916 125.296 213.12 104.705 215.341 113.572C217.738 123.139 169.916 125.296 169.916 125.296Z" fill="#D2D3D4"/>
<path d="M142.936 147.583C141.224 149.295 138.903 150.186 136.506 150.067C136.415 150.17 136.318 150.267 136.221 150.364C134.615 151.97 132.479 152.858 130.206 152.858C127.788 152.858 125.515 151.845 123.906 150.067C121.509 150.185 119.188 149.294 117.479 147.584C115.77 145.875 114.879 143.554 114.997 141.157C113.218 139.548 112.206 137.275 112.205 134.857C112.205 132.584 113.09 130.451 114.699 128.842C114.796 128.745 114.893 128.648 114.996 128.557C114.878 126.16 115.768 123.839 117.477 122.13C119.186 120.421 121.511 119.527 123.907 119.646C123.998 119.543 124.095 119.446 124.192 119.349C125.798 117.743 127.935 116.855 130.207 116.855C132.625 116.855 134.898 117.867 136.507 119.646C138.904 119.528 141.226 120.419 142.935 122.129C144.644 123.838 145.535 126.159 145.417 128.556C147.196 130.165 148.208 132.438 148.208 134.856C148.208 137.129 147.324 139.262 145.715 140.871C145.618 140.968 145.521 141.065 145.418 141.156C145.536 143.553 144.645 145.874 142.933 147.586L142.936 147.583Z" fill="#231F20"/>
<path d="M139.4 144.048C138.164 145.284 136.487 145.928 134.756 145.842C134.69 145.916 134.62 145.987 134.55 146.057C133.391 147.216 131.848 147.858 130.206 147.857C128.46 147.857 126.818 147.126 125.656 145.842C123.925 145.927 122.249 145.283 121.014 144.049C119.78 142.814 119.136 141.138 119.221 139.407C117.937 138.245 117.206 136.603 117.206 134.857C117.205 133.215 117.844 131.675 119.006 130.513C119.076 130.443 119.147 130.373 119.221 130.307C119.135 128.576 119.779 126.899 121.013 125.665C122.247 124.431 123.926 123.785 125.657 123.871C125.723 123.796 125.793 123.726 125.863 123.656C127.023 122.497 128.565 121.855 130.207 121.855C131.953 121.856 133.595 122.587 134.757 123.871C136.488 123.786 138.165 124.43 139.399 125.664C140.633 126.898 141.277 128.575 141.192 130.306C142.476 131.468 143.207 133.11 143.208 134.856C143.208 136.498 142.569 138.038 141.407 139.2C141.337 139.27 141.267 139.34 141.192 139.406C141.278 141.137 140.634 142.813 139.398 144.05L139.4 144.048Z" fill="#FFCC33"/>
</svg>
