<svg width="229" height="257" viewBox="0 0 229 257" fill="none" xmlns="http://www.w3.org/2000/svg">
<path d="M113.235 128.71C113.235 128.71 202.555 24.9299 225.465 64.5999C250.185 107.41 113.235 128.71 113.235 128.71Z" fill="#231F20"/>
<path d="M118.015 126.29C118.015 126.29 203.935 34.54 222.425 66.57C242.375 101.13 118.015 126.29 118.015 126.29Z" fill="#4D4DFF"/>
<path d="M151.625 106.99C151.625 106.99 188.025 75.9097 192.465 83.8997C197.255 92.5197 151.625 106.99 151.625 106.99Z" fill="#D2D3D4"/>
<path d="M114.285 129.25C114.285 129.25 69.0649 0 114.885 0C164.325 0 114.285 129.25 114.285 129.25Z" fill="#231F20"/>
<path d="M114.585 123.89C114.585 123.89 78.0848 3.60986 115.065 3.60986C154.975 3.60986 114.585 123.89 114.585 123.89Z" fill="#4D4DFF"/>
<path d="M114.665 85.1399C114.665 85.1399 105.955 38.0799 115.095 38.2299C124.955 38.3899 114.665 85.1399 114.665 85.1399Z" fill="#D2D3D4"/>
<path d="M115.275 128.6C115.275 128.6 -19.2651 103.14 3.64486 63.4598C28.3649 20.6498 115.275 128.6 115.275 128.6Z" fill="#231F20"/>
<path d="M110.785 125.66C110.785 125.66 -11.6352 97.1396 6.86476 65.1096C26.8148 30.5496 110.795 125.67 110.795 125.67L110.785 125.66Z" fill="#4D4DFF"/>
<path d="M77.265 106.22C77.265 106.22 32.155 90.2297 36.855 82.3897C41.925 73.9297 77.265 106.22 77.265 106.22Z" fill="#D2D3D4"/>
<path d="M115.215 127.42C115.215 127.42 25.8848 231.2 2.98481 191.53C-21.7352 148.72 115.215 127.42 115.215 127.42Z" fill="#231F20"/>
<path d="M110.425 129.84C110.425 129.84 24.5047 221.59 6.01473 189.56C-13.9353 155 110.425 129.84 110.425 129.84Z" fill="#4D4DFF"/>
<path d="M76.8247 149.15C76.8247 149.15 40.4247 180.23 35.9847 172.24C31.1947 163.62 76.8247 149.15 76.8247 149.15Z" fill="#D2D3D4"/>
<path d="M114.155 126.89C114.155 126.89 159.375 256.14 113.555 256.14C64.1147 256.14 114.155 126.89 114.155 126.89Z" fill="#231F20"/>
<path d="M113.855 132.24C113.855 132.24 150.355 252.52 113.375 252.52C73.4649 252.52 113.855 132.24 113.855 132.24Z" fill="#4D4DFF"/>
<path d="M113.775 171C113.775 171 122.485 218.06 113.345 217.91C103.485 217.75 113.775 171 113.775 171Z" fill="#D2D3D4"/>
<path d="M113.165 127.53C113.165 127.53 247.705 152.99 224.795 192.67C200.075 235.48 113.165 127.53 113.165 127.53Z" fill="#231F20"/>
<path d="M117.655 130.47C117.655 130.47 240.075 159 221.585 191.03C201.635 225.59 117.655 130.47 117.655 130.47Z" fill="#4D4DFF"/>
<path d="M151.174 149.92C151.174 149.92 196.284 165.91 191.584 173.75C186.514 182.21 151.174 149.92 151.174 149.92Z" fill="#D2D3D4"/>
<path d="M115.002 148C112.581 148 110.31 146.989 108.699 145.21C108.561 145.219 108.424 145.219 108.287 145.219C106.016 145.219 103.878 144.336 102.271 142.729C100.561 141.019 99.6697 138.696 99.7897 136.3C98.0113 134.689 97 132.417 97 130C97 127.583 98.0113 125.311 99.7897 123.7C99.6697 121.304 100.561 118.981 102.271 117.271C103.878 115.664 106.012 114.781 108.287 114.781C108.424 114.781 108.561 114.781 108.699 114.79C110.31 113.011 112.581 112 114.998 112C117.415 112 119.69 113.011 121.301 114.79C121.439 114.781 121.576 114.781 121.713 114.781C123.984 114.781 126.122 115.664 127.729 117.271C129.439 118.981 130.33 121.304 130.21 123.7C131.989 125.311 133 127.583 133 130C133 132.417 131.989 134.689 130.21 136.3C130.33 138.696 129.439 141.019 127.729 142.729C126.122 144.336 123.988 145.219 121.713 145.219C121.576 145.219 121.439 145.219 121.301 145.21C119.69 146.989 117.419 148 114.998 148H115.002Z" fill="#231F20"/>
<path d="M115.002 143C113.253 143 111.613 142.27 110.449 140.985C110.35 140.991 110.251 140.991 110.152 140.991C108.512 140.991 106.967 140.354 105.807 139.193C104.572 137.958 103.928 136.28 104.015 134.55C102.73 133.386 102 131.746 102 130C102 128.254 102.73 126.614 104.015 125.45C103.928 123.72 104.572 122.042 105.807 120.807C106.967 119.646 108.509 119.009 110.152 119.009C110.251 119.009 110.35 119.009 110.449 119.015C111.613 117.73 113.253 117 114.998 117C116.744 117 118.387 117.73 119.551 119.015C119.65 119.009 119.749 119.009 119.848 119.009C121.488 119.009 123.033 119.646 124.193 120.807C125.428 122.042 126.072 123.72 125.985 125.45C127.27 126.614 128 128.254 128 130C128 131.746 127.27 133.386 125.985 134.55C126.072 136.28 125.428 137.958 124.193 139.193C123.033 140.354 121.491 140.991 119.848 140.991C119.749 140.991 119.65 140.991 119.551 140.985C118.387 142.27 116.747 143 114.998 143H115.002Z" fill="#FFCC33"/>
</svg>
