<svg width="249" height="251" viewBox="0 0 249 251" fill="none" xmlns="http://www.w3.org/2000/svg">
<path d="M126.65 124.22C126.65 124.22 230.44 34.9104 247.18 77.5604C265.24 123.58 126.65 124.22 126.65 124.22Z" fill="#231F20"/>
<path d="M131.74 122.541C131.74 122.541 230.37 44.6208 243.88 79.0408C258.46 116.191 131.74 122.541 131.74 122.541Z" fill="#4D4DFF"/>
<path d="M167.85 108.451C167.85 108.451 208.48 83.1506 211.68 91.7106C215.13 100.951 167.85 108.451 167.85 108.451Z" fill="#D2D3D4"/>
<path d="M127.44 124.87C127.44 124.87 122.33 -11.9604 166.11 1.53962C213.35 16.1096 127.44 124.87 127.44 124.87Z" fill="#231F20"/>
<path d="M129.3 119.839C129.3 119.839 129.87 -5.86084 165.21 5.03916C203.35 16.7992 129.3 119.839 129.3 119.839Z" fill="#4D4DFF"/>
<path d="M140.8 82.8292C140.8 82.8292 146.35 35.2892 155.04 38.1292C164.42 41.1892 140.8 82.8292 140.8 82.8292Z" fill="#D2D3D4"/>
<path d="M128.44 124.66C128.44 124.66 18.2798 43.3497 56.1298 17.5397C96.9798 -10.3103 128.44 124.67 128.44 124.67V124.66Z" fill="#231F20"/>
<path d="M125.67 120.069C125.67 120.069 27.7501 41.2494 58.3101 20.4194C91.2901 -2.07062 125.67 120.069 125.67 120.069Z" fill="#4D4DFF"/>
<path d="M103.91 87.9995C103.91 87.9995 70.1998 54.0195 77.8398 48.9995C86.0798 43.5795 103.91 87.9995 103.91 87.9995Z" fill="#D2D3D4"/>
<path d="M128.91 123.75C128.91 123.75 -3.36003 159.18 0.0699692 113.49C3.75997 64.1897 128.91 123.74 128.91 123.74V123.75Z" fill="#231F20"/>
<path d="M123.59 123.05C123.59 123.05 0.910001 150.46 3.68 113.58C6.66 73.7802 123.59 123.05 123.59 123.05Z" fill="#4D4DFF"/>
<path d="M84.9502 120.069C84.9502 120.069 37.3702 125.239 38.2002 116.139C39.1002 106.319 84.9502 120.069 84.9502 120.069Z" fill="#D2D3D4"/>
<path d="M128.48 122.811C128.48 122.811 73.72 248.311 40.13 217.151C3.89003 183.521 128.48 122.811 128.48 122.811Z" fill="#231F20"/>
<path d="M124.62 126.541C124.62 126.541 69.5699 239.541 42.4499 214.391C13.1899 187.241 124.62 126.541 124.62 126.541Z" fill="#4D4DFF"/>
<path d="M98.1999 154.891C98.1999 154.891 72.5799 195.311 65.9799 188.991C58.8599 182.161 98.1999 154.891 98.1999 154.891Z" fill="#D2D3D4"/>
<path d="M127.48 122.57C127.48 122.57 191.46 243.63 146.15 250.46C97.2597 257.83 127.48 122.57 127.48 122.57Z" fill="#231F20"/>
<path d="M127.99 127.91C127.99 127.91 182.01 241.41 145.44 246.92C105.98 252.87 127.99 127.91 127.99 127.91Z" fill="#4D4DFF"/>
<path d="M133.68 166.24C133.68 166.24 149.31 211.48 140.25 212.69C130.47 214 133.68 166.24 133.68 166.24Z" fill="#D2D3D4"/>
<path d="M126.67 123.19C126.67 123.19 261.21 148.65 238.3 188.33C213.58 231.14 126.67 123.19 126.67 123.19Z" fill="#231F20"/>
<path d="M131.16 126.13C131.16 126.13 253.58 154.66 235.09 186.69C215.14 221.25 131.16 126.13 131.16 126.13Z" fill="#4D4DFF"/>
<path d="M164.68 145.58C164.68 145.58 209.79 161.57 205.09 169.41C200.02 177.87 164.68 145.58 164.68 145.58Z" fill="#D2D3D4"/>
<path d="M128.002 144C125.581 144 123.31 142.989 121.699 141.21C121.561 141.219 121.424 141.219 121.287 141.219C119.016 141.219 116.878 140.336 115.271 138.729C113.561 137.019 112.67 134.696 112.79 132.3C111.011 130.689 110 128.417 110 126C110 123.583 111.011 121.311 112.79 119.7C112.67 117.304 113.561 114.981 115.271 113.271C116.878 111.664 119.012 110.781 121.287 110.781C121.424 110.781 121.561 110.781 121.699 110.79C123.31 109.011 125.581 108 127.998 108C130.415 108 132.69 109.011 134.301 110.79C134.439 110.781 134.576 110.781 134.713 110.781C136.984 110.781 139.122 111.664 140.729 113.271C142.439 114.981 143.33 117.304 143.21 119.7C144.989 121.311 146 123.583 146 126C146 128.417 144.989 130.689 143.21 132.3C143.33 134.696 142.439 137.019 140.729 138.729C139.122 140.336 136.988 141.219 134.713 141.219C134.576 141.219 134.439 141.219 134.301 141.21C132.69 142.989 130.419 144 127.998 144H128.002Z" fill="#231F20"/>
<path d="M128.002 139C126.253 139 124.613 138.27 123.449 136.985C123.35 136.991 123.251 136.991 123.152 136.991C121.512 136.991 119.967 136.354 118.807 135.193C117.572 133.958 116.928 132.28 117.015 130.55C115.73 129.386 115 127.746 115 126C115 124.254 115.73 122.614 117.015 121.45C116.928 119.72 117.572 118.042 118.807 116.807C119.967 115.646 121.509 115.009 123.152 115.009C123.251 115.009 123.35 115.009 123.449 115.015C124.613 113.73 126.253 113 127.998 113C129.744 113 131.387 113.73 132.551 115.015C132.65 115.009 132.749 115.009 132.848 115.009C134.488 115.009 136.033 115.646 137.193 116.807C138.428 118.042 139.072 119.72 138.985 121.45C140.27 122.614 141 124.254 141 126C141 127.746 140.27 129.386 138.985 130.55C139.072 132.28 138.428 133.958 137.193 135.193C136.033 136.354 134.491 136.991 132.848 136.991C132.749 136.991 132.65 136.991 132.551 136.985C131.387 138.27 129.747 139 127.998 139H128.002Z" fill="#FFCC33"/>
</svg>
