<svg width="250" height="250" viewBox="0 0 250 250" fill="none" xmlns="http://www.w3.org/2000/svg">
<path d="M123.589 125.08C123.589 125.08 236.729 47.9504 248.589 92.2104C261.389 139.96 123.589 125.08 123.589 125.08Z" fill="#231F20"/>
<path d="M128.839 123.981C128.839 123.981 235.579 57.5906 245.149 93.3106C255.479 131.861 128.839 123.981 128.839 123.981Z" fill="#4D4DFF"/>
<path d="M166.299 114.031C166.299 114.031 209.499 93.4308 211.719 102.301C214.119 111.871 166.299 114.031 166.299 114.031Z" fill="#D2D3D4"/>
<path d="M124.18 125.769C124.18 125.769 149.64 -8.77051 189.32 14.1395C232.13 38.8595 124.18 125.769 124.18 125.769Z" fill="#231F20"/>
<path d="M127.12 121.279C127.12 121.279 155.64 -1.14087 187.67 17.3491C222.23 37.2991 127.11 121.279 127.11 121.279H127.12Z" fill="#4D4DFF"/>
<path d="M146.56 87.7592C146.56 87.7592 162.55 42.6492 170.39 47.3492C178.85 52.4192 146.56 87.7592 146.56 87.7592Z" fill="#D2D3D4"/>
<path d="M125.079 125.84C125.079 125.84 47.9494 12.6995 92.2094 0.839543C139.959 -11.9605 125.079 125.84 125.079 125.84Z" fill="#231F20"/>
<path d="M123.98 120.59C123.98 120.59 57.5896 13.8499 93.3196 4.27993C131.87 -6.05007 123.99 120.59 123.99 120.59H123.98Z" fill="#4D4DFF"/>
<path d="M114.029 83.1295C114.029 83.1295 93.4294 39.9295 102.299 37.7095C111.869 35.3095 114.029 83.1295 114.029 83.1295Z" fill="#D2D3D4"/>
<path d="M125.769 125.25C125.769 125.25 -8.77051 99.7802 14.1395 60.1102C38.8595 17.3002 125.769 125.25 125.769 125.25Z" fill="#231F20"/>
<path d="M121.28 122.31C121.28 122.31 -1.14038 93.7798 17.3496 61.7498C37.2996 27.1898 121.28 122.31 121.28 122.31Z" fill="#4D4DFF"/>
<path d="M87.7597 102.86C87.7597 102.86 42.6497 86.8703 47.3497 79.0303C52.4197 70.5703 87.7597 102.86 87.7597 102.86Z" fill="#D2D3D4"/>
<path d="M125.84 124.34C125.84 124.34 12.6995 201.47 0.839543 157.22C-11.9605 109.47 125.84 124.35 125.84 124.35V124.34Z" fill="#231F20"/>
<path d="M120.589 125.44C120.589 125.44 13.8494 191.84 4.27944 156.11C-6.05056 117.56 120.589 125.44 120.589 125.44Z" fill="#4D4DFF"/>
<path d="M83.1295 135.399C83.1295 135.399 39.9295 155.999 37.7095 147.129C35.3095 137.559 83.1295 135.399 83.1295 135.399Z" fill="#D2D3D4"/>
<path d="M125.25 123.66C125.25 123.66 99.7897 258.2 60.1097 235.29C17.2997 210.57 125.25 123.66 125.25 123.66Z" fill="#231F20"/>
<path d="M122.31 128.15C122.31 128.15 93.7798 250.57 61.7498 232.08C27.1898 212.13 122.31 128.15 122.31 128.15Z" fill="#4D4DFF"/>
<path d="M102.86 161.67C102.86 161.67 86.8698 206.78 79.0298 202.08C70.5698 197.01 102.86 161.67 102.86 161.67Z" fill="#D2D3D4"/>
<path d="M124.34 123.59C124.34 123.59 201.47 236.73 157.21 248.59C109.46 261.39 124.34 123.59 124.34 123.59Z" fill="#231F20"/>
<path d="M125.439 128.84C125.439 128.84 191.829 235.58 156.109 245.15C117.559 255.48 125.439 128.84 125.439 128.84Z" fill="#4D4DFF"/>
<path d="M135.399 166.3C135.399 166.3 155.999 209.5 147.129 211.72C137.559 214.12 135.399 166.3 135.399 166.3Z" fill="#D2D3D4"/>
<path d="M123.66 124.18C123.66 124.18 258.2 149.64 235.29 189.32C210.57 232.13 123.66 124.18 123.66 124.18Z" fill="#231F20"/>
<path d="M128.149 127.12C128.149 127.12 250.569 155.65 232.079 187.68C212.129 222.24 128.149 127.12 128.149 127.12Z" fill="#4D4DFF"/>
<path d="M161.669 146.56C161.669 146.56 206.779 162.55 202.079 170.39C197.009 178.85 161.669 146.56 161.669 146.56Z" fill="#D2D3D4"/>
<path d="M125.002 143C122.581 143 120.309 141.989 118.698 140.21C118.561 140.219 118.424 140.219 118.287 140.219C116.016 140.219 113.877 139.336 112.27 137.729C110.561 136.019 109.669 133.696 109.789 131.3C108.011 129.689 107 127.417 107 125C107 122.583 108.011 120.311 109.789 118.7C109.669 116.304 110.561 113.981 112.27 112.271C113.877 110.664 116.011 109.781 118.287 109.781C118.424 109.781 118.561 109.781 118.698 109.79C120.309 108.011 122.581 107 124.997 107C127.414 107 129.69 108.011 131.301 109.79C131.438 109.781 131.575 109.781 131.712 109.781C133.983 109.781 136.122 110.664 137.729 112.271C139.439 113.981 140.33 116.304 140.21 118.7C141.988 120.311 143 122.583 143 125C143 127.417 141.988 129.689 140.21 131.3C140.33 133.696 139.439 136.019 137.729 137.729C136.122 139.336 133.988 140.219 131.712 140.219C131.575 140.219 131.438 140.219 131.301 140.21C129.69 141.989 127.419 143 124.997 143H125.002Z" fill="#231F20"/>
<path d="M125.001 138C123.252 138 121.612 137.27 120.448 135.985C120.349 135.991 120.25 135.991 120.151 135.991C118.511 135.991 116.967 135.354 115.806 134.193C114.571 132.958 113.928 131.28 114.014 129.55C112.73 128.386 112 126.746 112 125C112 123.254 112.73 121.614 114.014 120.45C113.928 118.72 114.571 117.042 115.806 115.807C116.967 114.646 118.508 114.009 120.151 114.009C120.25 114.009 120.349 114.009 120.448 114.015C121.612 112.73 123.252 112 124.998 112C126.743 112 128.387 112.73 129.551 114.015C129.65 114.009 129.749 114.009 129.848 114.009C131.488 114.009 133.032 114.646 134.193 115.807C135.428 117.042 136.071 118.72 135.985 120.45C137.269 121.614 138 123.254 138 125C138 126.746 137.269 128.386 135.985 129.55C136.071 131.28 135.428 132.958 134.193 134.193C133.032 135.354 131.491 135.991 129.848 135.991C129.749 135.991 129.65 135.991 129.551 135.985C128.387 137.27 126.747 138 124.998 138H125.001Z" fill="#FFCC33"/>
</svg>
