<svg width="253" height="251" viewBox="0 0 253 251" fill="none" xmlns="http://www.w3.org/2000/svg">
<path d="M125.198 128.34C125.198 128.34 244.628 61.3595 252.588 106.48C261.168 155.17 125.198 128.34 125.198 128.34Z" fill="#231F20"/>
<path d="M130.518 127.699C130.518 127.699 242.638 70.8595 249.058 107.289C255.988 146.589 130.518 127.699 130.518 127.699Z" fill="#4D4DFF"/>
<path d="M168.698 121.05C168.698 121.05 213.528 104.3 214.968 113.32C216.518 123.06 168.698 121.05 168.698 121.05Z" fill="#D2D3D4"/>
<path d="M125.638 129.01C125.638 129.01 174.078 0.939949 209.168 30.3899C247.038 62.17 125.628 129.01 125.628 129.01H125.638Z" fill="#231F20"/>
<path d="M129.308 125.1C129.308 125.1 178.658 9.48988 206.988 33.2699C237.558 58.9199 129.298 125.1 129.298 125.1H129.308Z" fill="#4D4DFF"/>
<path d="M154.278 95.47C154.278 95.47 177.858 53.82 184.758 59.81C192.208 66.27 154.278 95.47 154.278 95.47Z" fill="#D2D3D4"/>
<path d="M126.408 129.25C126.408 129.25 81.1885 0 127.008 0C176.448 0 126.408 129.25 126.408 129.25Z" fill="#231F20"/>
<path d="M126.708 123.89C126.708 123.89 90.2084 3.61035 127.188 3.61035C167.098 3.61035 126.708 123.89 126.708 123.89Z" fill="#4D4DFF"/>
<path d="M126.788 85.1399C126.788 85.1399 118.078 38.0799 127.218 38.2299C137.078 38.3899 126.788 85.1399 126.788 85.1399Z" fill="#D2D3D4"/>
<path d="M127.158 128.929C127.158 128.929 9.43811 58.9895 44.5281 29.5395C82.3981 -2.2405 127.148 128.929 127.148 128.929H127.158Z" fill="#231F20"/>
<path d="M123.938 124.629C123.938 124.629 18.6582 55.959 46.9882 32.179C77.5582 6.52903 123.938 124.629 123.938 124.629Z" fill="#4D4DFF"/>
<path d="M99.088 94.8895C99.088 94.8895 62.168 64.4395 69.258 58.6795C76.918 52.4695 99.088 94.8895 99.088 94.8895Z" fill="#D2D3D4"/>
<path d="M127.518 128.21C127.518 128.21 -7.62167 150.3 0.338327 105.17C8.91833 56.4798 127.518 128.2 127.518 128.2V128.21Z" fill="#231F20"/>
<path d="M122.298 126.979C122.298 126.979 -2.50181 142.049 3.92819 105.619C10.8582 66.3194 122.298 126.979 122.298 126.979Z" fill="#4D4DFF"/>
<path d="M84.1485 120.169C84.1485 120.169 36.2885 120.579 38.0185 111.599C39.8885 101.919 84.1485 120.169 84.1485 120.169Z" fill="#D2D3D4"/>
<path d="M127.338 127.42C127.338 127.42 38.0083 231.2 15.1083 191.53C-9.61165 148.72 127.338 127.42 127.338 127.42Z" fill="#231F20"/>
<path d="M122.548 129.84C122.548 129.84 36.6283 221.59 18.1383 189.56C-1.81174 155 122.548 129.84 122.548 129.84Z" fill="#4D4DFF"/>
<path d="M88.9482 149.15C88.9482 149.15 52.5482 180.23 48.1082 172.24C43.3182 163.62 88.9482 149.15 88.9482 149.15Z" fill="#D2D3D4"/>
<path d="M126.688 126.939C126.688 126.939 124.978 263.859 81.9184 248.189C35.4584 231.279 126.688 126.939 126.688 126.939Z" fill="#231F20"/>
<path d="M124.579 131.869C124.579 131.869 117.739 257.379 82.9886 244.729C45.4886 231.079 124.579 131.869 124.579 131.869Z" fill="#4D4DFF"/>
<path d="M111.248 168.26C111.248 168.26 103.338 215.46 94.7982 212.2C85.5882 208.68 111.248 168.26 111.248 168.26Z" fill="#D2D3D4"/>
<path d="M125.878 126.98C125.878 126.98 212.578 232.97 169.518 248.64C123.058 265.55 125.878 126.98 125.878 126.98Z" fill="#231F20"/>
<path d="M127.428 132.11C127.428 132.11 202.868 232.65 168.118 245.3C130.618 258.95 127.428 132.11 127.428 132.11Z" fill="#4D4DFF"/>
<path d="M140.608 168.561C140.608 168.561 164.888 209.801 156.248 212.791C146.928 216.011 140.608 168.561 140.608 168.561Z" fill="#D2D3D4"/>
<path d="M125.288 127.53C125.288 127.53 259.828 152.99 236.918 192.67C212.198 235.48 125.288 127.53 125.288 127.53Z" fill="#231F20"/>
<path d="M129.778 130.471C129.778 130.471 252.198 159.001 233.708 191.031C213.758 225.591 129.778 130.471 129.778 130.471Z" fill="#4D4DFF"/>
<path d="M163.298 149.92C163.298 149.92 208.408 165.91 203.708 173.75C198.638 182.21 163.298 149.92 163.298 149.92Z" fill="#D2D3D4"/>
<path d="M127.28 148C124.859 148 122.588 146.989 120.977 145.21C120.84 145.219 120.703 145.219 120.566 145.219C118.294 145.219 116.156 144.336 114.549 142.729C112.839 141.019 111.948 138.696 112.068 136.3C110.29 134.689 109.278 132.417 109.278 130C109.278 127.583 110.29 125.311 112.068 123.7C111.948 121.304 112.839 118.981 114.549 117.271C116.156 115.664 118.29 114.781 120.566 114.781C120.703 114.781 120.84 114.781 120.977 114.79C122.588 113.011 124.859 112 127.276 112C129.693 112 131.968 113.011 133.58 114.79C133.717 114.781 133.854 114.781 133.991 114.781C136.262 114.781 138.401 115.664 140.008 117.271C141.717 118.981 142.609 121.304 142.489 123.7C144.267 125.311 145.278 127.583 145.278 130C145.278 132.417 144.267 134.689 142.489 136.3C142.609 138.696 141.717 141.019 140.008 142.729C138.401 144.336 136.267 145.219 133.991 145.219C133.854 145.219 133.717 145.219 133.58 145.21C131.968 146.989 129.697 148 127.276 148H127.28Z" fill="#231F20"/>
<path d="M127.28 143C125.531 143 123.891 142.27 122.727 140.985C122.628 140.991 122.529 140.991 122.43 140.991C120.79 140.991 119.246 140.354 118.085 139.193C116.85 137.958 116.206 136.28 116.293 134.55C115.009 133.386 114.278 131.746 114.278 130C114.278 128.254 115.009 126.614 116.293 125.45C116.206 123.72 116.85 122.042 118.085 120.807C119.246 119.646 120.787 119.009 122.43 119.009C122.529 119.009 122.628 119.009 122.727 119.015C123.891 117.73 125.531 117 127.277 117C129.022 117 130.666 117.73 131.829 119.015C131.928 119.009 132.027 119.009 132.126 119.009C133.767 119.009 135.311 119.646 136.472 120.807C137.706 122.042 138.35 123.72 138.264 125.45C139.548 126.614 140.278 128.254 140.278 130C140.278 131.746 139.548 133.386 138.264 134.55C138.35 136.28 137.706 137.958 136.472 139.193C135.311 140.354 133.77 140.991 132.126 140.991C132.027 140.991 131.928 140.991 131.829 140.985C130.666 142.27 129.025 143 127.277 143H127.28Z" fill="#FFCC33"/>
</svg>
