<svg width="180" height="180" viewBox="0 0 180 180" fill="none" xmlns="http://www.w3.org/2000/svg">
<path d="M5.46284 105.102C5.50735 105.276 6.19717 105.896 6.47533 105.94L64.3873 105.025C65.3219 104.601 65.4332 99.821 65.2997 98.6342C65.0549 96.4675 63.5528 94.2137 63.2747 92.145C62.7517 88.3015 62.3957 85.4489 67.1466 86.3417C69.4942 86.7772 68.3927 90.6751 68.6375 92.5478C69.0492 95.738 70.4511 99.0153 70.6847 102.652C71.3968 113.518 70.6847 125.342 57.2554 126.279C47.0972 126.986 36.4494 126.105 26.3356 125.865C14.1079 125.571 1.65767 128.957 0.511674 112.778C-1.046 90.8166 1.71331 67.1026 0.533926 44.9565C1.16812 39.8936 2.42538 35.6364 6.74236 32.468C9.95783 30.1053 13.8743 30.0617 14.7866 25.4017C15.6433 21.0138 13.8631 23.2023 11.7047 21.1118C11.115 20.5456 10.5809 19.4895 10.4585 18.6947C10.0246 15.9291 10.0913 7.06632 10.4251 4.18101C10.6699 2.0143 12.1163 0.609751 14.3416 0.348439C22.2078 -0.587927 33.0336 0.664191 41.1335 0.71863C45.5617 0.751294 50.2904 -0.0761918 54.8076 0.337551C57.6337 0.598863 59.2025 1.72032 59.5363 4.59475C59.8701 7.46917 59.9034 15.4718 59.5029 18.2809C58.9021 22.4728 54.3292 21.3949 55.0858 25.0859C55.9091 29.0491 62.5404 31.1614 65.3108 34.0685C71.0185 40.0569 71.3634 54.7339 69.3273 62.203C69.1605 62.791 66.1898 71.2836 64.9102 69.7811C65.3219 68.9209 64.4986 67.6035 64.4986 67.1571V51.0102C64.4986 50.5638 63.4861 50.4331 63.0744 50.3896C50.7577 48.9741 35.6372 51.5001 23.0089 50.3896C18.0355 51.7397 11.3152 49.9541 6.51983 50.8142C6.17492 50.8795 5.48509 51.1408 5.48509 51.4239V105.113L5.46284 105.102ZM17.8352 5.19359H14.9424V16.8982H17.8352V5.19359ZM25.6792 5.19359H21.5514V16.8982H25.6792V5.19359ZM33.1004 5.19359C32.3215 5.22625 28.9725 4.9105 28.9725 5.80331V16.909H33.1004V5.19359ZM36.8165 5.19359V16.8982H40.5327C40.5104 13.5882 41.3783 9.89719 40.9666 6.58725C40.6773 4.31166 38.708 5.41135 36.8165 5.19359ZM48.7883 16.909V5.80331C48.7883 4.92139 45.4394 5.22625 44.6605 5.19359V16.8982H48.7883V16.909ZM54.9745 5.19359H52.0817V16.8982H54.9745V5.19359ZM37.2282 24.977C35.4369 24.6504 20.4165 24.106 20.3052 25.1839C20.3497 25.663 20.4944 26.8933 21.0062 27.0131C22.0632 27.2526 26.6027 27.1002 27.9712 27.0131C30.5525 26.8389 34.035 26.24 36.6163 25.7719C37.295 25.6521 37.3283 26.0332 37.2393 24.977H37.2282ZM23.198 36.6816H17.2121C16.322 36.6816 12.6393 37.3784 11.6268 37.6724C8.60044 38.5543 6.68673 41.6901 7.0984 44.7496C10.4696 45.4355 10.058 43.0402 11.4599 41.1457C12.8618 39.2512 14.8645 38.4999 17.1454 37.8249L23.1869 36.6816H23.198ZM12.2721 120.236C16.0216 120.846 21.3288 119.79 25.2675 120.236C25.3009 119.975 24.7223 119.43 24.6444 119.43H18.4583C17.6683 119.43 14.0968 118.472 13.318 118.004C10.1136 116.077 10.147 111.112 9.54616 110.6C9.00098 110.143 6.31956 110.197 6.2528 111.961C6.13041 115.554 8.42242 119.615 12.2721 120.236ZM65.2885 113.377L59.1023 120.236C62.7517 120.051 65.5556 116.937 65.2885 113.377Z" fill="black"/>
<path d="M114.389 26.5884C111.54 28.1345 89.2212 33.6547 88.8317 34.9068C88.6871 35.3859 90.445 39.3273 90.8011 40.1766C96.0193 52.3929 102.539 64.631 107.157 77.0541C108.102 79.5802 110.695 85.0241 105.51 83.097L86.7511 41.1129C84.4591 47.5368 80.921 53.5797 78.0059 59.8076C74.579 67.1461 71.4971 74.6697 68.1258 82.0299C67.7253 83.2058 63.8979 83.6523 64.2317 82.2695L84.1031 37.0953C85.0488 34.6346 81.8778 35.3314 81.1658 33.0558C79.7416 28.5482 84.3034 27.0021 87.8193 28.9946C96.787 27.1001 105.51 23.7902 114.333 21.2751C114.945 16.8763 110.706 17.2683 110.773 12.2489C110.873 3.86518 122.934 3.44055 124.202 11.1383C124.903 15.4173 121.42 15.3955 121.209 18.9124L148.646 10.2346C151.239 8.5579 153.976 4.73622 157.458 4.91043C160.384 5.05197 161.152 7.89373 159.606 10.0495C158.738 11.2472 156.78 11.4105 157.403 12.9458L169.697 39.6866C168.084 39.1531 165.903 39.36 164.802 38.0208L155.456 18.9015C154.766 18.7382 154.643 19.4676 154.41 19.8923C151.428 25.3798 149.503 31.6948 146.543 37.2259C145.831 37.7921 142.315 39.8064 142.048 38.4672L152.362 14.8729L121.02 24.1713L120.998 110.535C123.79 110.252 126.149 111.155 127.785 113.387C129.676 115.957 129.965 117.775 126.171 118.211C122.377 118.646 113.977 118.526 110.049 118.211C100.514 117.459 109.193 109.609 114.4 110.927V26.5884H114.389Z" fill="black"/>
<path d="M160.195 38.293C157.325 40.6556 156.946 41.0912 157.336 44.9237C157.458 46.1323 158.649 47.1449 157.714 48.1792C156.501 49.5293 155.456 48.4188 155.01 51.5981C154.699 53.7974 155.834 55.6048 155.678 56.5956C155.622 56.9223 151.194 59.5136 151.973 61.8545C152.318 62.8998 157.136 62.7256 157.536 62.1376C157.926 61.5823 157.547 60.254 157.937 59.2959C158.393 58.1526 160.596 56.7807 160.93 55.3653C161.375 53.4708 160.051 50.9992 160.195 50.8141C160.574 50.3133 163.756 50.052 164.145 47.6022C164.535 45.1524 159.75 41.0476 166.882 43.2579C172.089 44.8693 175.205 52.0336 174.214 57.0638C173.491 60.7657 165.069 56.4976 165.558 62.5187L180 62.9216C180.1 68.7684 177.152 75.1487 172.579 78.8724C159.828 89.2487 139.745 85.2528 133.592 69.781C133.236 68.899 131.011 62.5187 132.758 62.5187H144.719C145.676 62.5187 145.231 60.1016 144.496 59.5027C141.715 57.1945 136.407 62.0614 137.531 53.8736C138.399 47.5586 146.432 38.3038 153.386 38.3038H160.195V38.293ZM144.096 50.8141C142.638 50.4548 142.171 54.135 142.449 54.4398C144.452 54.3201 144.151 52.2731 144.096 50.8141ZM142.349 68.2784C141.603 67.5816 139.578 67.4292 139.567 68.7575C139.567 69.3237 140.535 70.9133 140.891 71.5231C143.083 75.2467 146.699 77.2501 151.127 77.0433L146.165 74.0382C144.53 73.08 143.183 69.0515 142.371 68.2784H142.349ZM168.851 71.4033C168.106 71.24 164.468 71.5339 164.724 72.8078C165.057 74.4737 168.651 72.7316 168.851 71.4033ZM172.979 71.8061C172.479 71.3053 170.187 74.0382 169.653 74.3975C167.661 75.7694 164.824 76.5315 163.077 78.2518C166.827 77.5768 171.155 75.1052 172.979 71.8061Z" fill="black"/>
<path d="M51.5812 134.477C69.7948 132.343 74.7571 155.328 58.2569 162.808C50.1681 166.477 27.059 173.206 18.4028 173.87C3.62713 175.013 -4.10559 156.787 7.55469 148.327C11.371 145.561 29.1618 140.781 34.8473 139.105C39.5648 137.711 46.9638 135.022 51.5812 134.477ZM40.9445 163.428C41.5119 163.951 54.0623 159.4 55.6645 158.66C61.1497 156.123 65.3554 150.689 62.8965 144.581C58.6908 134.151 43.6036 142.197 35.9933 143.656C41.0669 148.817 43.0362 156.536 40.9445 163.428ZM7.94411 159.389C9.64642 157.342 11.0817 155.099 13.5851 153.814C16.0885 152.53 31.0978 149.503 31.4204 148.261C31.209 147.303 31.0199 145.812 29.707 146.138C22.4416 149.731 7.35442 148.436 7.94411 159.4V159.389Z" fill="black"/>
<path d="M53.9399 69.781C54.5518 69.8681 55.798 70.5322 55.798 71.1964V84.5124C55.798 84.5124 55.2194 85.1221 55.1749 85.1221H43.2142C43.2142 85.1221 42.5912 85.6883 42.5912 85.7319V98.0462C41.0001 98.6014 28.561 98.9063 28.561 97.4364V85.7319C28.561 85.7319 27.9824 85.1221 27.9379 85.1221H15.5544C15.5544 85.1221 14.9314 84.556 14.9314 84.5124V70.7936C14.9314 69.4543 19.4041 70.1729 20.0494 70.1512C21.2066 70.1076 22.4082 69.781 23.8212 69.7701C24.511 69.7701 28.5499 70.7173 28.5499 69.1821V57.8804C28.5499 56.3888 37.2283 56.8787 38.6747 56.8896C39.2755 56.8896 42.58 56.1057 42.58 57.4776V69.1821C42.58 69.1821 43.1586 69.7919 43.2031 69.7919C46.3073 69.7919 51.0916 69.3781 53.9288 69.7919L53.9399 69.781Z" fill="black"/>
<path d="M84.1365 138.963C91.9248 138.843 101.838 147.434 107.19 152.519C109.259 154.489 112.82 157.527 113.176 160.391C114.578 171.649 106.178 182.842 93.794 179.358C87.4966 177.583 72.2537 165.758 71.4971 159.193C70.5959 151.441 74.5568 139.116 84.1476 138.963H84.1365ZM84.5815 143.754C80.6095 143.895 76.5929 147.641 77.8502 151.735C78.2062 152.889 83.0906 158.148 84.0475 158.17C85.6941 157.636 96.4643 151.005 96.6423 150.287C97.1208 148.338 87.0849 143.656 84.5815 143.754ZM88.3978 161.414C88.2532 162.122 88.7761 162.405 89.2212 162.83C90.356 163.897 93.705 166.532 95.029 167.239C98.6228 169.156 105.354 169.918 107.891 166.15C111.551 160.717 104.653 157.135 101.338 153.803L88.3978 161.414ZM102.84 173.522C100.225 173.609 97.3989 173.424 94.9067 172.596C90.8567 171.257 80.8765 162.394 77.8724 158.986C77.0602 158.061 76.6485 156.809 75.6138 156.155C75.5025 157.201 75.7362 158.126 76.1145 159.095C77.5164 162.764 89.8108 172.77 93.6494 174.229C96.1862 175.198 101.048 176.113 102.851 173.511L102.84 173.522Z" fill="black"/>
<path d="M143.361 133.878C144.607 134.771 147.867 133.584 149.058 135.359C150.86 138.027 149.269 142.589 151.717 144.462C153.965 146.182 155.667 144.146 158.115 145.267C158.615 145.986 154.743 150.951 153.976 151.909C147.456 160.14 135.918 173.141 125.092 162.83C114.266 152.519 128.797 138.234 136.452 131.135C137.053 130.579 138.989 129.012 139.645 129.175C139.868 129.229 142.738 131.124 142.883 131.32C143.295 131.864 142.627 133.367 143.35 133.878H143.361ZM130.477 158.583C127.918 154.707 129.554 151.071 131.79 147.565C132.88 145.855 138.466 139.725 138.677 138.93C138.844 138.299 138.021 137.21 137.687 137.199C136.775 137.199 128.207 147.369 127.562 149.078C126.138 152.813 126.271 156.819 130.466 158.583H130.477Z" fill="black"/>
<path d="M162.109 141.489C160.93 143.199 156.19 142.121 155.734 140.542C155.444 139.529 155.834 138.517 155.344 137.286C155.022 136.481 153.041 134.347 152.34 133.356C151.828 132.626 151.317 131.113 150.916 130.71C150.271 130.079 146.699 130.231 145.186 129.458C144.73 129.229 143.161 127.727 142.861 127.291C141.492 125.277 142.449 124.537 143.695 122.86C146.388 119.245 154.243 110.404 157.748 107.954C170.487 99.0587 181.78 112.897 176.773 125.353C174.181 131.799 166.404 136.198 162.109 141.478V141.489ZM167.616 110.556C158.66 110.143 154.632 119.191 149.459 124.678C151.873 125.168 154.243 122.642 155.878 121.063C160.095 116.991 162.109 115.412 166.682 111.852C167.171 111.471 167.817 111.395 167.616 110.556Z" fill="black"/>
<path d="M98.6117 120.748C107.001 119.572 118.249 122.511 126.961 120.628C130.299 120.562 141.092 119.833 136.474 125.898C135.718 126.888 128.486 133.301 127.718 133.476L96.0304 133.563C91.1126 133.214 91.6244 128.064 93.1376 124.678C94.228 122.261 95.9414 121.118 98.6117 120.748ZM104.075 125.484C103.819 125.266 98.9232 125.713 98.7452 125.908C98.6784 125.985 98.6562 127.433 98.7118 127.498C99.0901 127.879 104.408 127.248 104.075 125.484Z" fill="black"/>
<path d="M17.012 101.672C17.6128 102.303 16.8896 102.358 16.4445 102.521C15.0426 103.011 8.34465 104.274 8.33352 101.879C8.3224 99.3418 16.311 100.931 17.0231 101.683L17.012 101.672Z" fill="black"/>
<path d="M16.1886 54.4398C14.7979 55.1367 9.26813 56.1166 8.40028 54.7991C6.45319 51.8267 15.4543 52.8066 16.1886 54.4398Z" fill="black"/>
<path d="M14.1192 98.449C14.0858 99.0043 12.2166 99.1676 11.8049 99.2003C10.7479 99.2656 8.55605 99.7556 8.34465 98.253C8.67844 96.8267 13.0177 98.6885 14.1192 98.449Z" fill="black"/>
<path d="M10.3807 58.1091C11.1596 59.2523 9.257 59.8294 8.34465 59.6878C7.6437 58.0329 9.71318 57.1183 10.3807 58.1091Z" fill="black"/>
<path d="M56.2097 141.631C56.4099 142.807 55.9315 142.284 55.2528 142.491C53.0609 143.133 45.9735 145.714 44.4492 145.703C43.9597 145.703 42.58 145.605 42.6023 145.06C42.6468 143.83 54.3404 140.934 56.2097 141.631Z" fill="black"/>
<path d="M55.6867 155.437C58.446 155.35 53.9844 157.462 53.4281 157.68C51.8037 158.333 47.1418 159.912 45.5841 160.118C43.3922 160.412 43.2254 159.171 45.3616 158.268C46.3629 157.843 54.8968 155.458 55.6867 155.437Z" fill="black"/>
<path d="M76.3259 85.5685L61.884 85.9714C61.7839 91.8182 64.7323 98.1986 69.3052 101.922C82.0559 112.299 102.139 108.303 108.291 92.8308C108.648 91.9489 110.873 85.5685 109.126 85.5685H97.1653M99.5352 91.3283C100.281 90.6314 102.306 90.479 102.317 91.8074C102.317 92.3735 101.349 93.9632 100.993 94.5729C98.8008 98.2966 95.1848 100.3 90.7566 100.093L97.4657 95.9557C99.1012 94.9975 98.7007 92.1013 99.524 91.3283H99.5352ZM73.0214 94.4531C73.7668 94.2898 77.4051 94.5838 77.1492 95.8577C76.8154 97.5235 73.2216 95.7815 73.0214 94.4531ZM68.8935 94.856C69.3942 94.3551 71.6862 97.088 72.2203 97.4473C74.2119 98.8192 77.0491 99.5814 78.7959 101.302C75.0463 100.627 70.7182 98.155 68.8935 94.856Z" fill="black"/>
<path d="M89.2212 61.321C86.3506 63.6837 85.9723 64.1192 86.3617 67.9518C86.4841 69.1604 87.6746 70.1729 86.74 71.2073C85.5272 72.5574 84.4814 71.4468 84.0363 74.6261C83.7248 76.8255 84.8597 78.6329 84.7039 79.6237C84.6483 79.9503 80.22 82.5417 80.9989 84.8826C81.3438 85.9278 86.1614 85.7536 86.562 85.1657C86.9514 84.6104 86.5731 83.2821 86.9625 82.3239C87.4187 81.1807 89.6217 79.8088 89.9555 78.3934C90.4005 76.4989 89.0765 74.0273 89.2212 73.8422C89.5994 73.3413 92.7815 73.08 93.171 70.6302C93.5604 68.1805 88.7761 64.0757 95.908 66.2859C101.115 67.8974 104.23 75.0616 103.24 80.0919C102.517 83.7938 94.0944 79.5257 94.584 85.5468L109.026 85.9496C109.126 91.7965 106.178 98.1768 101.605 101.901C88.854 112.277 68.7712 108.281 62.6184 92.809C62.2623 91.9271 60.0371 85.5468 61.7839 85.5468H73.7446C74.7014 85.5468 74.2564 83.1296 73.5221 82.5308C70.7405 80.2225 65.4333 85.0895 66.557 76.9017C67.4249 70.5867 75.458 61.3319 82.4119 61.3319H89.2212V61.321ZM73.1215 73.8313C71.664 73.472 71.1967 77.1521 71.4748 77.457C73.4775 77.3372 73.1771 75.2903 73.1215 73.8313ZM71.3747 91.2956C70.6292 90.5988 68.6043 90.4464 68.5931 91.7747C68.5931 92.3409 69.5611 93.9305 69.9172 94.5402C72.109 98.2639 75.725 100.267 80.1533 100.06L75.191 97.0554C73.5554 96.0972 72.2092 92.0687 71.3969 91.2956H71.3747ZM97.8885 94.4205C97.143 94.2572 93.5047 94.5511 93.7606 95.825C94.0944 97.4909 97.6882 95.7488 97.8885 94.4205ZM102.005 94.8233C101.504 94.3225 99.2125 97.0554 98.6784 97.4147C96.6868 98.7866 93.8497 99.5487 92.1028 101.269C95.8524 100.594 100.18 98.1224 102.005 94.8233Z" fill="black"/>
</svg>
