<svg width="59" height="59" viewBox="0 0 59 59" fill="none" xmlns="http://www.w3.org/2000/svg">
<path d="M8.68481 20.8446L8.56471 18.9232C8.55975 18.8438 8.55845 18.7439 8.55845 18.4985C8.55845 15.8341 9.5861 13.3481 11.4675 11.4668C13.4715 9.46318 16.1785 8.42689 18.9749 8.56695L20.867 8.66171L22.1391 7.25784C24.0222 5.17972 26.6683 4 29.5 4C32.3317 4 34.9778 5.17972 36.8609 7.25784L38.133 8.66171L40.0251 8.56695C42.8215 8.42689 45.5285 9.46317 47.5325 11.4668C49.4147 13.3488 50.4415 15.8282 50.4415 18.4985C50.4415 18.7439 50.4403 18.8438 50.4353 18.9232L50.3152 20.8446L51.742 22.1371C53.8203 24.02 55 26.6656 55 29.4965C55 32.3295 53.8187 34.9814 51.742 36.8628L50.3152 38.1554L50.4353 40.0768C50.4403 40.1562 50.4415 40.2561 50.4415 40.5015C50.4415 43.1659 49.4139 45.6519 47.5325 47.5331C45.5285 49.5368 42.8215 50.5731 40.0251 50.4331L38.133 50.3383L36.8609 51.7422C34.9778 53.8203 32.3317 55 29.5 55C26.6683 55 24.0222 53.8203 22.1391 51.7422L20.867 50.3383L18.9749 50.4331C16.1785 50.5731 13.4715 49.5368 11.4675 47.5331C9.58534 45.6512 8.55845 43.1718 8.55845 40.5015C8.55845 40.2561 8.55975 40.1562 8.56471 40.0768L8.68481 38.1554L7.25804 36.8628C5.18131 34.9815 4.00097 32.3376 3.99999 29.5C4.00097 26.6624 5.18131 24.0185 7.25804 22.1371L8.68481 20.8446Z" fill="#F3F0E4" stroke="#231F20" stroke-width="8"/>
<path d="M14 29.5018C14 27.417 14.871 25.4612 16.4025 24.0738C16.3951 23.9557 16.3951 23.8376 16.3951 23.7195C16.3951 21.7638 17.1554 19.9225 18.5393 18.5387C20.0118 17.0664 22.012 16.2989 24.075 16.4022C25.4626 14.8708 27.4186 14 29.5 14C31.5814 14 33.5374 14.8708 34.925 16.4022C36.988 16.2989 38.9882 17.0664 40.4607 18.5387C41.8446 19.9225 42.6049 21.7601 42.6049 23.7195C42.6049 23.8376 42.6049 23.9557 42.5975 24.0738C44.129 25.4612 45 27.417 45 29.4981C45 31.5793 44.129 33.5387 42.5975 34.9262C42.6049 35.0443 42.6049 35.1624 42.6049 35.2804C42.6049 37.2362 41.8446 39.0775 40.4607 40.4613C38.9882 41.9336 36.988 42.7011 34.925 42.5978C33.5374 44.1292 31.5814 45 29.5 45C27.4186 45 25.4626 44.1292 24.075 42.5978C22.012 42.7011 20.0118 41.9336 18.5393 40.4613C17.1554 39.0775 16.3951 37.2398 16.3951 35.2804C16.3951 35.1624 16.3951 35.0443 16.4025 34.9262C14.871 33.5387 14 31.583 14 29.4981L14 29.5018Z" fill="#FF9933"/>
</svg>
