<svg width="229" height="257" viewBox="0 0 229 257" fill="none" xmlns="http://www.w3.org/2000/svg">
<path d="M113.235 128.71C113.235 128.71 202.555 24.9299 225.465 64.5999C250.185 107.41 113.235 128.71 113.235 128.71Z" fill="#231F20"/>
<path d="M118.015 126.289C118.015 126.289 203.935 34.5395 222.425 66.5695C242.375 101.129 118.015 126.289 118.015 126.289Z" fill="#4D4DFF"/>
<path d="M151.625 106.99C151.625 106.99 188.025 75.9102 192.465 83.9002C197.255 92.5202 151.625 106.99 151.625 106.99Z" fill="#D2D3D4"/>
<path d="M114.285 129.25C114.285 129.25 69.0649 0 114.885 0C164.325 0 114.285 129.25 114.285 129.25Z" fill="#231F20"/>
<path d="M114.585 123.89C114.585 123.89 78.0848 3.61035 115.065 3.61035C154.975 3.61035 114.585 123.89 114.585 123.89Z" fill="#4D4DFF"/>
<path d="M114.665 85.1399C114.665 85.1399 105.955 38.0799 115.095 38.2299C124.955 38.3899 114.665 85.1399 114.665 85.1399Z" fill="#D2D3D4"/>
<path d="M115.275 128.6C115.275 128.6 -19.2651 103.14 3.64486 63.4598C28.3649 20.6498 115.275 128.6 115.275 128.6Z" fill="#231F20"/>
<path d="M110.785 125.66C110.785 125.66 -11.6352 97.1401 6.86476 65.1101C26.8148 30.5501 110.795 125.67 110.795 125.67L110.785 125.66Z" fill="#4D4DFF"/>
<path d="M77.265 106.22C77.265 106.22 32.155 90.2297 36.855 82.3897C41.925 73.9297 77.265 106.22 77.265 106.22Z" fill="#D2D3D4"/>
<path d="M115.215 127.42C115.215 127.42 25.8848 231.2 2.98481 191.53C-21.7352 148.72 115.215 127.42 115.215 127.42Z" fill="#231F20"/>
<path d="M110.425 129.84C110.425 129.84 24.5047 221.59 6.01473 189.56C-13.9353 155 110.425 129.84 110.425 129.84Z" fill="#4D4DFF"/>
<path d="M76.8247 149.15C76.8247 149.15 40.4247 180.23 35.9847 172.24C31.1947 163.62 76.8247 149.15 76.8247 149.15Z" fill="#D2D3D4"/>
<path d="M114.155 126.89C114.155 126.89 159.375 256.14 113.555 256.14C64.1147 256.14 114.155 126.89 114.155 126.89Z" fill="#231F20"/>
<path d="M113.855 132.239C113.855 132.239 150.355 252.519 113.375 252.519C73.4649 252.519 113.855 132.239 113.855 132.239Z" fill="#4D4DFF"/>
<path d="M113.775 171C113.775 171 122.485 218.06 113.345 217.91C103.485 217.75 113.775 171 113.775 171Z" fill="#D2D3D4"/>
<path d="M113.165 127.53C113.165 127.53 247.705 152.99 224.795 192.67C200.075 235.48 113.165 127.53 113.165 127.53Z" fill="#231F20"/>
<path d="M117.655 130.471C117.655 130.471 240.075 159.001 221.585 191.031C201.635 225.591 117.655 130.471 117.655 130.471Z" fill="#4D4DFF"/>
<path d="M151.174 149.92C151.174 149.92 196.284 165.91 191.584 173.75C186.514 182.21 151.174 149.92 151.174 149.92Z" fill="#D2D3D4"/>
<path d="M114.157 150C111.736 150 109.465 148.989 107.853 147.21C107.716 147.219 107.579 147.219 107.442 147.219C105.171 147.219 103.033 146.336 101.426 144.729C99.7158 143.019 98.8245 140.696 98.9445 138.3C97.1661 136.689 96.1548 134.417 96.1548 132C96.1548 129.583 97.1661 127.311 98.9445 125.7C98.8245 123.304 99.7158 120.981 101.426 119.271C103.033 117.664 105.167 116.781 107.442 116.781C107.579 116.781 107.716 116.781 107.853 116.79C109.465 115.011 111.736 114 114.153 114C116.569 114 118.845 115.011 120.456 116.79C120.593 116.781 120.73 116.781 120.868 116.781C123.139 116.781 125.277 117.664 126.884 119.271C128.594 120.981 129.485 123.304 129.365 125.7C131.143 127.311 132.155 129.583 132.155 132C132.155 134.417 131.143 136.689 129.365 138.3C129.485 140.696 128.594 143.019 126.884 144.729C125.277 146.336 123.143 147.219 120.868 147.219C120.73 147.219 120.593 147.219 120.456 147.21C118.845 148.989 116.574 150 114.153 150H114.157Z" fill="#231F20"/>
<path d="M114.156 145C112.408 145 110.767 144.27 109.604 142.985C109.505 142.991 109.406 142.991 109.307 142.991C107.666 142.991 106.122 142.354 104.961 141.193C103.727 139.958 103.083 138.28 103.17 136.55C101.885 135.386 101.155 133.746 101.155 132C101.155 130.254 101.885 128.614 103.17 127.45C103.083 125.72 103.727 124.042 104.961 122.807C106.122 121.646 107.663 121.009 109.307 121.009C109.406 121.009 109.505 121.009 109.604 121.015C110.767 119.73 112.408 119 114.153 119C115.899 119 117.542 119.73 118.706 121.015C118.805 121.009 118.904 121.009 119.003 121.009C120.643 121.009 122.188 121.646 123.348 122.807C124.583 124.042 125.227 125.72 125.14 127.45C126.424 128.614 127.155 130.254 127.155 132C127.155 133.746 126.424 135.386 125.14 136.55C125.227 138.28 124.583 139.958 123.348 141.193C122.188 142.354 120.646 142.991 119.003 142.991C118.904 142.991 118.805 142.991 118.706 142.985C117.542 144.27 115.902 145 114.153 145H114.156Z" fill="#FFCC33"/>
</svg>
