<svg width="181" height="180" viewBox="0 0 181 180" fill="none" xmlns="http://www.w3.org/2000/svg">
<path d="M171.983 27.2132C171.111 28.0709 168.435 29.4188 167.158 29.6527C164.751 30.0982 161.338 29.1737 159.877 30.0537C159.042 30.555 152.241 39.6335 152.106 40.3575C151.934 41.271 152.314 40.8477 152.781 40.9813C162.578 43.7885 168.287 47.3196 167.133 57.7014C166.581 62.6919 163.106 62.9481 162.235 65.2428C160.909 68.7405 161.277 75.4909 160.7 79.5345C160.123 83.578 159.067 87.9335 157.581 91.7654C186.458 102.259 183.45 135.543 170.866 156.474C157.004 179.51 131.332 186.973 105.82 172.793C101.793 170.554 99.9141 167.457 96.7097 164.539C82.566 163.904 68.582 163.904 54.6102 161.431C45.6845 159.849 31.2585 155.772 32.4371 145.29C32.9528 140.689 36.3904 139.754 39.6685 136.98C29.466 128.826 21.4733 120.338 15.9239 108.976C8.52059 93.8039 8.32415 81.9071 5.32844 66.145C4.54269 62.0346 0.503397 62.224 0.073686 56.866C-0.773459 46.1054 10.62 40.5581 20.1965 37.5616C47.5016 29.0177 86.3597 28.9509 115.015 31.0785C117.974 31.3013 121.019 32.2259 124.039 32.2481C129.012 27.8592 138.551 19.1483 138.907 12.643C139.055 9.91383 137.704 7.67483 139.03 4.52241C139.754 2.78468 142.578 0.423145 144.653 0.122384C154.107 -1.22547 167.698 8.20952 171.799 15.5058C173.677 18.8476 175.114 24.1721 172.007 27.2132H171.983ZM158.023 12.487C159.312 11.3174 144.027 1.31429 144.371 8.35433C149.184 8.88902 153.812 10.3928 158.023 12.487ZM157.569 21.5767C156.71 18.1235 150.338 15.5949 146.863 15.3832C144.751 15.2496 142.185 16.1184 145.193 16.8982C149.711 18.0789 153.763 18.5468 157.569 21.5767ZM147.502 19.5605C147.391 19.4045 144.064 17.9341 143.904 18.0455C141.473 22.3676 138.109 26.2218 134.794 30.0314C126.274 39.834 116.341 49.1465 107.956 58.9602C107.624 59.3501 105.783 61.3551 106.126 61.6336C110.399 62.0903 111.897 60.8761 114.549 58.3364C124.346 48.9682 135.543 35.7236 144.088 25.2527C144.948 24.1944 148.336 20.7524 147.489 19.5605H147.502ZM169.405 22.8131C169.662 21.0866 168.152 19.0703 166.225 18.6916C165.955 18.9589 167.931 21.5098 168.287 22C168.643 22.4901 168.177 23.0693 169.417 22.8243L169.405 22.8131ZM163.953 19.1038C163.499 19.527 166.458 23.2142 166.912 23.2253C169.184 23.281 164.739 18.3797 163.953 19.1038ZM68.6925 36.5702C62.345 36.8264 55.8011 37.4056 49.5028 38.1631C38.76 39.4441 13.5912 43.4097 7.07184 51.7196C4.40763 55.1171 8.68019 59.1273 11.725 61.1658C22.6274 68.4732 56.5501 72.9957 70.3868 73.6195C91.2216 74.5552 140.724 72.8286 157.262 61.1658C163.524 56.7435 163.204 51.7642 156.513 47.9434C155.617 47.431 150.289 45.0472 149.638 45.1809C149.27 45.2588 147.489 47.9768 147.551 48.1996C155.678 51.9647 154.23 55.8412 146.949 59.2387C122.652 70.6008 65.1443 69.821 38.7232 63.9172C29.3677 61.823 5.79499 54.3262 26.1265 46.6958C41.8294 40.8031 72.7195 39.4998 89.9693 39.7337C97.3481 39.834 104.862 40.7586 112.241 41.0036C113.898 41.0593 117.422 41.4826 116.55 39.1656C116.268 38.4082 110.006 37.8178 108.619 37.6841C95.7275 36.4588 81.6452 36.0355 68.6925 36.5702ZM56.9429 81.8626C57.9742 80.8378 53.6035 79.8686 53.1369 79.7461C41.5961 76.9167 31.6636 77.5517 19.9018 72.7172C16.9552 71.503 14.3647 69.7987 11.4181 68.6514C15.089 95.5528 23.9902 125.974 54.8926 136.378C61.9153 138.74 72.965 141.603 80.3929 140.912C81.5102 140.812 83.9534 140.634 83.8183 139.263C72.0319 138.45 60.6262 136.958 50.2763 131.488C39.3493 125.707 31.9583 115.904 26.9122 105.6L31.0006 105.188C28.1523 103.228 25.0092 101.401 24.1744 97.9589C24.8128 97.4465 35.1259 100.421 36.9184 99.407C33.5298 97.1457 27.0596 97.5022 24.1621 94.45C23.4377 93.6814 22.4678 91.5092 24.4567 92.0996C26.9859 92.8459 29.4414 93.6368 32.1424 93.8151C32.9773 93.8708 37.8269 94.0935 37.8146 93.2024C37.8146 92.5675 26.8386 89.4039 24.9356 88.3679C23.8551 87.7776 22.9957 87.2095 22.0995 86.3963C21.768 86.0955 19.3002 83.3441 19.6071 83.0879C21.5715 83.2327 22.7993 84.6697 24.6164 85.3492C28.7416 86.8753 36.636 88.2009 40.8226 86.853C41.3137 86.697 42.124 86.6079 41.4488 85.9841C40.8963 85.4717 28.9749 83.255 26.2615 82.2079C24.6777 81.5952 13.9595 76.4489 15.9607 74.4215C17.1885 74.4884 17.7532 75.58 18.8337 76.1481C30.3868 82.3416 43.8429 83.1882 56.9429 81.8515V81.8626ZM154.377 70.3111C153.8 69.7764 148.828 72.5056 148.005 73.0068C147.784 73.1405 146.225 73.3744 147.096 74.0317C147.44 74.2879 155.961 71.7815 154.377 70.3223V70.3111ZM153.935 75.6803C151.995 75.7471 149.65 76.6605 148.005 77.5405C147.723 77.6854 146.298 77.897 147.109 78.5654C147.391 78.7993 153.702 76.616 153.935 75.6803ZM130.608 89.415C99.0301 92.8348 80.2701 151.027 107.98 167.936C131.222 182.116 154.991 155.193 160.27 136.557C165.77 117.107 159.042 86.3406 130.608 89.415ZM169.859 105.823C170.731 104.999 163.131 98.5493 161.67 98.3933C161.424 98.6495 164.678 104.264 164.972 104.487C165.746 105.055 168.791 105.188 169.859 105.834V105.823ZM172.02 109.655C170.939 108.653 167.759 108.63 166.225 108.307C165.562 112.05 169.147 112.908 172.462 113.598C173.198 113.754 173.603 113.944 173.505 113.075C173.432 112.473 172.437 110.056 172.02 109.666V109.655ZM174.377 117.007C174.144 116.762 168.447 115.559 167.6 114.902C167.833 116.216 167.219 118.455 167.661 119.591C167.845 120.093 173.714 122.387 174.88 122.744C174.807 121.931 174.586 117.219 174.389 117.007H174.377ZM174.807 126.119L167.587 123.59C167.956 124.504 167.133 127.278 167.367 127.745C167.526 128.08 173.8 131.444 174.193 131.421C175.077 131.377 175.114 126.553 174.807 126.119ZM173.051 139.275C173.088 138.439 174.18 136.144 173.775 135.554C173.247 134.774 167.858 133.092 166.691 132.257C164.58 136.835 169.49 137.581 173.051 139.275ZM170.767 146.292C170.718 145.468 171.958 144.109 171.479 143.407C171.111 142.873 165.157 140.065 164.837 140.288C164.653 140.778 163.389 142.861 163.487 142.984C163.732 143.285 170.436 146.515 170.767 146.292ZM84.2726 151.661C72.2898 151.294 60.2456 148.353 49.3555 143.886C48.2382 143.43 46.1756 141.903 45.2671 141.837C44.69 141.792 38.7354 144.878 38.7477 145.256C40.442 146.649 42.5783 147.395 44.6777 148.13C54.0454 151.394 72.9405 154.19 82.6765 152.475C83.3395 152.363 84.0884 152.475 84.2726 151.661ZM167.563 152.887C167.673 152.809 168.41 150.57 168.312 150.403C168.128 150.124 161.989 147.763 161.694 147.963C161.694 148.743 160.479 149.712 160.958 150.425C161.436 151.138 167.01 153.254 167.563 152.887ZM50.5709 156.195C49.2327 154.97 46.9245 153.878 45.1074 153.31C46.1142 155.003 48.6679 155.56 50.5709 156.195ZM157.434 155.438C153.53 156.362 160.16 159.258 161.547 159.459C162.75 159.626 163.855 158.278 163.033 157.666C162.64 157.365 157.766 155.371 157.434 155.449V155.438ZM158.404 164.817C158.502 164.761 159.558 163.413 158.944 163.024C158.367 162.656 156.501 162.277 155.58 161.943C155.003 161.731 153.837 160.829 153.702 160.829C153.53 160.829 152.179 162.032 152.13 162.233C151.885 163.246 157.827 165.14 158.404 164.828V164.817ZM153.014 167.769C151.185 167.847 147.121 164.616 146.188 166.733C145.856 167.49 146.716 167.357 147.084 167.546C148.717 168.37 152.646 170.509 153.014 167.769ZM147.096 171.489C146.826 171.233 140.233 169.017 139.816 170.866C139.816 171.256 144.383 172.648 145.083 172.704C145.697 172.748 147.919 172.269 147.084 171.489H147.096Z" fill="black"/>
<path d="M98.3794 171.077C99.2388 172.002 96.0835 172.236 95.8257 172.258C91.2585 172.782 79.5949 173.773 75.9116 171.423C72.6213 169.328 79.4107 170.22 80 170.197C83.3763 170.108 96.2922 168.838 98.3917 171.066L98.3794 171.077Z" fill="black"/>
<path d="M103.278 177.17C101.424 178.697 92.2775 177.694 89.8097 176.97C89.0485 176.747 88.6065 177.148 88.8152 176.034C91.3935 176.625 102.456 173.74 103.634 176.023C103.794 176.324 103.511 176.981 103.266 177.17H103.278Z" fill="black"/>
<path d="M156.206 177.26L162.124 173.35L169.859 166.12C169.859 167.101 168.987 167.947 168.41 168.727C165.402 172.804 161.866 176.513 156.206 177.26Z" fill="black"/>
<path d="M131.516 94.7842C156.219 92.4672 160.061 121.173 154.622 137.214C149.184 153.254 128.128 175.845 108.901 160.918C88.0418 144.722 104.297 97.3462 131.516 94.7953V94.7842Z" fill="black"/>
</svg>
