<svg width="181" height="180" viewBox="0 0 181 180" fill="none" xmlns="http://www.w3.org/2000/svg">
<path d="M178.554 159.473C174.91 163.008 170.923 161.361 167.098 159.421C156.226 153.904 145.183 144.243 135.117 137.121C133.919 136.272 129.751 133.083 128.755 132.852C127.023 132.454 125.725 133.807 123.601 133.566C122.533 133.45 121.174 132.359 120.671 132.454C119.242 132.726 118.155 138.16 115.014 138.254C114.43 138.275 113.111 137.751 112.99 137.845C112.87 137.939 111.984 140.488 111.994 140.761C112.024 141.527 113.232 143.436 113.333 145.04C113.745 151.355 107.635 154.522 102.37 152.173C98.1724 150.306 92.2835 146.782 88.3575 144.222C85.3074 142.24 76.63 136.188 74.8784 133.377C72.2309 129.129 74.9489 121.482 79.65 120.056C80.7372 119.731 84.7839 119.888 83.0927 117.822C81.6331 116.039 80.4553 116.752 81.5223 113.06L96.3806 84.5928C97.1859 83.544 98.0013 82.7048 99.3502 82.5895C100.971 82.4531 101.142 83.6069 102.209 81.7189C103.81 78.8869 101.122 78.1422 101.474 74.7543C102.119 68.6707 107.816 67.1288 112.719 69.0693C118.618 71.3978 134.14 81.5406 138.338 86.3235C141.549 89.9737 142.274 95.7321 137.945 98.7319C136.043 100.053 135.358 99.3298 133.748 99.8122C131.714 100.41 133.295 102.739 133.466 103.84C134.019 107.427 131.674 108.077 131.593 110.438C131.533 112.147 133.214 112.986 133.878 114.686C134.372 115.944 134.352 117.759 134.815 118.766C135.278 119.773 144.67 124.671 146.431 125.72C155.27 130.964 170.259 139.083 177.547 145.806C181.322 149.288 182.48 155.655 178.534 159.484L178.554 159.473ZM124.547 86.1137C120.46 82.0021 114.742 77.5443 109.497 75.1633C107.635 74.3137 107.202 74.3557 107.031 76.7576L124.547 86.1137ZM123.802 93.8965C124.668 93.0993 110.011 83.8481 108.752 83.3342C107.726 82.9251 105.038 81.8133 105.551 83.9425C105.712 84.6033 107.655 84.9075 108.39 85.2746C111.068 86.6067 113.675 88.0961 116.353 89.4177L123.812 93.8965H123.802ZM90.9044 115.231L101.223 95.0713C102.018 93.3301 105.219 94.8195 105.491 93.2672C105.702 92.019 100.961 90.4457 100.095 89.659L87.6327 113.93C88.1562 114.602 90.24 115.682 90.9044 115.231ZM127.728 116.836C127.355 116.93 124.064 123.402 123.963 123.821C123.409 126.16 125.342 124.021 125.976 123.192C126.379 122.657 130.496 116.164 127.728 116.846V116.836ZM100.286 131.227C99.2093 129.695 87.5421 120.234 86.8576 120.738L86.1127 123.045L100.286 131.227ZM166.736 146.782C157.172 138.034 145.656 131.761 134.644 125.164C133.838 124.66 133.083 126.16 133.194 126.716C133.355 127.597 142.687 132.223 144.217 133.115L166.736 146.792V146.782ZM101.404 140.163C97.8604 136.765 93.8539 133.786 89.7971 131.059C88.1965 129.978 83.8376 126.842 82.378 126.328C81.0089 125.856 80.6264 126.779 80.9385 128.038L101.404 140.153V140.163Z" fill="black"/>
<path d="M111.903 64.6744L113.343 6.78621C95.6155 6.55545 77.838 5.76878 60.1611 7.58336C48.5041 7.62532 36.8671 8.35954 25.2906 9.56576C24.1933 15.0934 24.3544 20.7994 24.1128 26.4214C22.8142 56.3882 23.1968 88.5472 19.2205 118.147C18.2742 125.164 16.5025 134.793 12.3249 140.52C11.6605 141.432 8.01639 144.537 8.08686 144.977C8.40899 145.565 8.93245 145.921 9.43577 146.32C16.8045 152.215 40.5213 150.138 50.0442 149.876C52.4703 149.802 57.3224 148.89 56.96 152.383C56.6882 155.047 51.8965 155.183 49.6818 155.33C44.4875 155.687 39.1522 155.382 34.0183 155.319C24.6363 155.204 11.6202 156.274 4.15083 149.488C-2.77495 143.205 3.29518 143.593 6.93927 139.974C12.4457 134.499 13.8147 124.524 14.7308 116.983C19.0191 81.6665 15.6468 44.6721 20.056 9.75456C20.1667 8.86301 20.519 5.57998 21.0022 5.20238C21.8176 4.55207 25.9751 4.17447 27.2938 4.06958C54.4131 1.84593 85.3678 -2.07691 112.417 1.35296C116.171 1.82496 118.255 1.91936 118.235 6.59741C118.195 20.6735 116.826 35.5887 116.322 49.7382C116.242 52.0458 116.755 64.4647 115.618 65.3352C114.782 65.9751 112.839 64.9576 111.913 64.6639L111.903 64.6744Z" fill="black"/>
<path d="M132.288 178.951C131.825 179.402 130.959 179.402 130.345 179.454C116.574 180.682 99.3099 179.423 85.1362 179.423C79.7406 179.423 74.506 179.517 69.1204 179.423C66.3923 179.381 56.4264 179.968 54.7453 179.234C50.9502 177.587 54.6547 167.812 57.4532 166.511C58.3894 166.071 60.5336 166.102 61.0973 165.641C61.5704 165.263 61.7919 161.844 62.5771 160.574C63.3623 159.305 65.5568 157.994 66.9661 157.753C80.3848 157.438 93.8136 157.711 107.182 158.068C110.756 158.162 121.376 157.134 123.601 159.63C125.191 161.424 124.074 165.043 124.909 165.651C125.986 166.438 129.167 165.808 130.697 167.791C132.107 169.616 134.14 177.147 132.298 178.951H132.288ZM66.3118 166.228C78.754 166.291 91.2366 166.207 103.618 165.326C105.44 165.336 104.696 164.078 103.095 164.267C91.8204 165.127 79.8714 163.081 68.7177 163.878C66.795 164.015 65.9091 163.983 66.3017 166.228H66.3118ZM110.363 165.053C109.628 163.637 107.514 164.487 106.256 164.277C105.652 164.759 106.256 164.98 106.81 165.053C107.917 165.2 109.225 164.948 110.363 165.053ZM88.7099 172.06C86.918 171.965 85.0859 172.165 83.284 172.07C76.7911 171.735 67.9224 170.423 61.6308 171.252C59.7182 171.504 59.9598 173.864 60.5839 174.011C62.0033 174.357 67.6506 174.084 69.5029 174.011C74.7174 173.79 79.9218 172.773 85.1664 172.825L88.7099 172.06Z" fill="black"/>
<path d="M64.7213 34.4874C67.0869 37.0886 62.2147 37.8753 61.5604 38.4102C60.2316 39.5011 58.6209 43.382 56.7989 44.5253C56.4365 45.1965 56.5472 45.7734 56.7989 46.4447C57.0002 46.9482 61.4496 52.9373 62.0033 53.4723C63.171 54.6051 66.6843 54.8778 65.0233 57.3742C64.8622 57.6259 60.5235 58.1189 59.7887 58.1398C57.725 58.2028 55.1077 58.2552 55.8426 55.2869C55.9634 54.7834 57.1412 54.8673 56.96 54.0597C56.8996 53.787 53.8997 49.9061 53.4669 49.99C52.5911 50.1578 50.0644 54.1016 49.1282 54.8254C53.2655 57.1854 50.3462 58.6223 47.0645 58.9055C45.6955 59.0209 41.7997 59.388 41.3568 57.8566C40.4911 54.8673 43.1084 55.7903 44.8298 54.2485C45.6049 53.5562 49.3799 48.6474 50.0342 47.609C50.3664 47.0741 50.6885 46.665 50.5476 45.9727C50.4066 45.2805 42.9876 34.9699 42.2125 34.4035C40.1388 32.9035 39.0415 34.1622 36.7967 34.0154L36.0316 46.6125C37.4711 46.7279 39.7361 48.1754 38.508 49.99C37.9744 50.7766 29.6192 51.1123 29.1259 50.3781C27.5052 47.9761 31.7231 47.4936 31.9546 46.2769C32.0654 41.0954 32.0654 35.8719 32.307 30.7009C32.4278 27.9947 32.9613 24.89 33.0821 22.1734C33.1224 21.2609 33.2734 18.2506 32.7096 17.8625C32.015 17.38 29.1863 18.0408 30.6359 14.9675C31.0185 14.1389 34.3908 13.8872 35.488 13.8033C41.6689 13.3732 52.1783 13.4047 53.7991 21.5546C54.3125 24.1243 53.1447 27.7745 51.514 29.7254C50.5677 30.8477 47.2659 32.4001 47.2457 33.428C47.2357 34.2986 52.9333 42.0604 53.4568 42.1548C54.4735 42.3331 55.8023 39.1025 56.5674 38.4941C56.1043 37.676 54.6849 38.1795 54.3829 37.2774C54.1111 36.4908 54.2923 35.0013 55.0876 34.6028C55.5204 34.3825 62.8892 34.1412 63.8857 34.2147C64.1676 34.2356 64.4897 34.2671 64.7011 34.4979L64.7213 34.4874ZM36.8168 30.5121C41.2159 30.6275 46.2492 30.0715 47.8296 25.0683C49.7926 18.8379 43.0077 16.8765 38.2865 17.852L36.8168 30.5121Z" fill="black"/>
<path d="M88.2065 85.9774C87.2603 86.9424 84.6933 87.2046 83.3142 87.299C76.8213 87.7605 69.6841 87.4878 63.1207 87.6556C53.7085 87.8864 42.1722 88.9352 32.8808 88.0752C29.438 87.7605 28.8944 83.974 31.1997 83.1768C31.9244 82.9251 35.2061 82.6839 36.2631 82.6209C51.3428 81.6769 69.06 80.3343 84.0591 81.4357C84.8946 81.4986 87.6629 81.8238 88.1763 82.2014C89.4346 83.1139 89.2031 84.9495 88.1965 85.9774H88.2065Z" fill="black"/>
<path d="M76.3179 66.017C79.3983 65.9751 90.391 65.2828 92.4345 66.4995C93.6727 67.2442 93.4814 69.4993 92.4445 70.3594C91.2768 71.3244 87.1999 71.6181 85.5389 71.723C68.5164 72.7719 50.4066 71.3034 33.2633 72.132C30.7165 72.5935 28.824 69.363 31.0789 67.8735C33.3338 66.3841 43.7728 67.1918 47.1048 67.0764C56.7989 66.7407 66.5735 66.1324 76.3179 66.0065V66.017Z" fill="black"/>
<path d="M89.0018 32.5679C91.9815 32.463 104.142 31.8232 105.914 33.386C107.685 34.9489 106.548 36.8893 104.595 37.5292C100.186 38.9766 83.3041 38.6829 78.0494 38.2948C74.4959 38.0326 71.184 36.5327 75.2408 33.3965C79.8312 33.3441 84.4215 32.7252 88.9917 32.5574L89.0018 32.5679Z" fill="black"/>
<path d="M73.1168 48.4901C73.4892 48.102 77.536 47.6614 78.4219 47.5985C86.455 47.1055 94.6693 47.3992 102.723 47.2104C105.541 47.5985 105.541 51.4689 102.682 51.878C94.2767 51.6262 84.0289 53.4828 75.8045 52.6961C74.9388 52.6122 73.2476 52.4024 72.8248 51.5213C72.4826 50.8081 72.5732 49.0565 73.1067 48.5005L73.1168 48.4901Z" fill="black"/>
<path d="M78.9151 100.599C80.2036 101.952 79.3278 104.417 77.3045 104.763C75.412 105.088 64.9427 105.13 63.1509 104.773C61.5 104.448 61.4094 101.973 62.3959 100.903C63.5838 99.6129 70.0867 100.169 72.1101 100.137C73.8315 100.116 77.4051 99.0256 78.9151 100.599Z" fill="black"/>
<path d="M78.6232 152.613C78.0896 152.645 77.5561 152.645 77.0327 152.529C75.3113 152.131 67.56 146.341 66.1205 144.841C64.5904 143.236 64.0267 140.646 66.8252 140.95C68.4862 141.128 77.5561 149.467 78.3312 151.166C78.5527 151.648 78.6936 152.078 78.6131 152.613H78.6232Z" fill="black"/>
<path d="M39.0616 158.844C39.6354 159.431 38.9308 159.515 38.5482 159.662C32.5586 161.886 21.9082 160.805 15.9186 158.644C15.2039 158.382 13.7644 158.319 14.0563 157.281C17.2374 157.858 37.9543 157.7 39.0717 158.833L39.0616 158.844Z" fill="black"/>
<path d="M118.95 152.613C118.829 151.68 119.061 151.071 119.524 150.295C120.53 148.628 128.271 142.481 129.973 142.513C131.11 142.534 131.432 143.803 131.11 144.852C130.597 146.561 124.768 150.379 123.057 151.26C121.748 151.942 120.49 152.865 118.94 152.613H118.95Z" fill="black"/>
<path d="M111.088 11.0552C110.464 11.8418 101.978 10.8664 100.508 10.6356C99.2395 10.4363 96.9644 10.1846 96.1692 9.1357C100.689 8.4749 105.229 8.97837 109.789 8.75811C110.756 8.66371 111.521 10.5307 111.088 11.0657V11.0552Z" fill="black"/>
<path d="M15.5361 141.338L22.2505 122.29C21.7975 128.342 21.0727 135.967 16.8045 140.53C16.422 140.939 16.271 141.516 15.5361 141.338Z" fill="black"/>
<path d="M131.946 155.057C133.073 155.015 136.737 155.309 135.399 157.103C134.06 158.896 127.194 158.456 125.302 157.082C125.302 155.896 130.939 155.089 131.946 155.047V155.057Z" fill="black"/>
<path d="M105.511 13.0166L108.863 13.5935C108.783 14.999 105.883 13.8452 105.511 13.0166Z" fill="black"/>
</svg>
