<svg width="154" height="154" viewBox="0 0 154 154" fill="none" xmlns="http://www.w3.org/2000/svg">
<g clip-path="url(#clip0_4102_1300)">
<path fill-rule="evenodd" clip-rule="evenodd" d="M74.8724 35.0266C75.485 35.4376 76.1179 35.8174 76.7688 36.1645C76.7924 36.1709 76.8124 36.1864 76.8245 36.2076C76.8366 36.2288 76.8398 36.2539 76.8334 36.2775C76.8269 36.301 76.8114 36.321 76.7903 36.3331C76.7691 36.3453 76.7439 36.3484 76.7204 36.342C75.9493 36.0602 75.2018 35.7175 74.485 35.3172C74.4406 35.2889 74.4074 35.2461 74.3912 35.196C74.375 35.1459 74.3768 35.0917 74.3963 35.0428C75.1962 33.2036 76.169 31.4446 77.3014 29.7893C77.3167 29.7738 77.3367 29.7639 77.3582 29.7612C77.3797 29.7585 77.4016 29.7631 77.4202 29.7742C77.4388 29.7854 77.4531 29.8025 77.4609 29.8228C77.4686 29.8431 77.4693 29.8654 77.4628 29.8861C77.4628 29.8861 75.058 34.5505 74.8724 35.0266ZM77.3337 42.6204C77.8408 43.2991 78.5944 43.7513 79.4319 43.8793C79.8698 43.933 80.313 43.8382 80.6906 43.6099C81.0681 43.3816 81.3581 43.0331 81.5139 42.6204C81.5267 42.6001 81.531 42.5755 81.5257 42.552C81.5204 42.5285 81.506 42.5082 81.4857 42.4953C81.4653 42.4825 81.4407 42.4782 81.4173 42.4835C81.3938 42.4888 81.3734 42.5032 81.3606 42.5236C81.1406 42.8107 80.8664 43.052 80.5536 43.2337C80.2318 43.3875 79.8759 43.4564 79.52 43.4338C79.164 43.4112 78.8198 43.2978 78.52 43.1046C78.1758 42.9378 77.8488 42.7378 77.5435 42.5074C77.5285 42.4796 77.5031 42.4589 77.4728 42.4498C77.4426 42.4407 77.4099 42.444 77.3821 42.459C77.3543 42.474 77.3336 42.4994 77.3245 42.5297C77.3154 42.5599 77.3187 42.5926 77.3337 42.6204ZM74.0735 26.061C74.7267 25.6442 75.4252 25.3031 76.1555 25.0442C76.179 25.0442 76.2016 25.0348 76.2183 25.0182C76.2349 25.0015 76.2443 24.979 76.2443 24.9554C76.2443 24.9319 76.2349 24.9093 76.2183 24.8927C76.2016 24.876 76.179 24.8667 76.1555 24.8667C75.9405 24.8107 75.7163 24.7998 75.4969 24.8345C75.2775 24.8692 75.0677 24.9488 74.8805 25.0684C74.4742 25.2292 74.1411 25.5336 73.9444 25.9238C73.8556 26.0126 73.9928 26.1417 74.0735 26.061ZM81.3606 26.1336C82.2011 26.4705 82.9767 26.9511 83.6524 27.5539C83.6588 27.564 83.6671 27.5727 83.6768 27.5796C83.6865 27.5864 83.6975 27.5913 83.7091 27.594C83.7207 27.5966 83.7327 27.5969 83.7445 27.5949C83.7562 27.5928 83.7674 27.5885 83.7775 27.5822C83.7876 27.5758 83.7963 27.5675 83.8032 27.5578C83.81 27.5481 83.8149 27.5371 83.8175 27.5255C83.8202 27.5139 83.8205 27.5018 83.8184 27.4901C83.8164 27.4784 83.8121 27.4672 83.8057 27.4571C83.7102 27.2217 83.5766 27.0035 83.4103 26.8115C83.0548 26.4568 82.6167 26.1961 82.1353 26.0529C81.8956 25.9762 81.6441 25.9434 81.3929 25.9561C81.3693 25.9518 81.345 25.9571 81.3254 25.9707C81.3057 25.9843 81.2922 26.0052 81.2879 26.0287C81.2837 26.0523 81.2889 26.0765 81.3025 26.0962C81.3162 26.1159 81.337 26.1293 81.3606 26.1336ZM75.058 30.5156C75.1145 30.2089 75.1871 29.9103 75.2678 29.6037C75.3044 29.4816 75.2931 29.3502 75.2361 29.2362C75.1791 29.1223 75.0808 29.0343 74.9612 28.9904C74.9029 28.9721 74.8415 28.9661 74.7807 28.9727C74.72 28.9792 74.6613 28.9983 74.6083 29.0286C74.5553 29.0589 74.5091 29.0998 74.4726 29.1487C74.4361 29.1977 74.4101 29.2537 74.3963 29.3132C74.3075 29.644 74.2349 29.9749 74.1703 30.3058C74.1426 30.4296 74.1631 30.5594 74.2275 30.6688C74.2919 30.7782 74.3955 30.859 74.5173 30.8949C74.5778 30.9064 74.64 30.9057 74.7002 30.8928C74.7605 30.8799 74.8175 30.855 74.8679 30.8196C74.9184 30.7843 74.9612 30.7391 74.9938 30.6869C75.0265 30.6347 75.0483 30.5764 75.058 30.5156ZM82.9745 32.5976C83.0391 32.2922 83.1199 31.9905 83.2166 31.6938C83.2568 31.5716 83.2492 31.4387 83.1953 31.3219C83.1414 31.205 83.0452 31.113 82.9261 31.0643C82.8679 31.0447 82.8062 31.0373 82.745 31.0428C82.6838 31.0482 82.6244 31.0663 82.5705 31.0958C82.5167 31.1254 82.4695 31.1659 82.4321 31.2146C82.3947 31.2634 82.3678 31.3194 82.3532 31.379C82.2563 31.7018 82.1676 32.0327 82.0949 32.3636C82.0642 32.4865 82.0813 32.6165 82.1427 32.7274C82.2041 32.8382 82.3053 32.9216 82.4258 32.9607C82.4858 32.9748 82.548 32.9765 82.6087 32.9657C82.6694 32.9548 82.7272 32.9317 82.7786 32.8977C82.83 32.8637 82.8739 32.8195 82.9076 32.7679C82.9413 32.7163 82.9641 32.6583 82.9745 32.5976Z" fill="#371166"/>
<path fill-rule="evenodd" clip-rule="evenodd" d="M91.4317 117.315C91.8917 117.501 97.702 116.339 100.639 119.333C101.524 120.253 102.348 121.229 103.109 122.254C111.413 120.696 114.407 121.657 116.658 121.528C116.311 116.362 116.508 111.174 117.247 106.05C117.902 100.806 119.014 95.6294 120.572 90.5797C120.577 90.5611 120.586 90.5438 120.598 90.5287C120.61 90.5136 120.625 90.501 120.642 90.4916C120.659 90.4822 120.677 90.4763 120.697 90.4741C120.716 90.4719 120.735 90.4735 120.754 90.4788C120.772 90.4841 120.789 90.493 120.805 90.505C120.82 90.517 120.832 90.5318 120.842 90.5487C120.851 90.5655 120.857 90.5841 120.859 90.6032C120.861 90.6224 120.86 90.6418 120.854 90.6604C120.249 92.7585 118.789 100.772 118.547 102.249C117.477 108.611 116.938 115.052 116.933 121.503C120.79 121.189 122.63 119.365 128.327 118.816C130.966 118.566 132.992 118.913 136.51 120.874C136.544 120.892 136.57 120.923 136.581 120.96C136.593 120.997 136.589 121.037 136.571 121.072C136.552 121.106 136.521 121.132 136.484 121.143C136.447 121.154 136.407 121.15 136.373 121.132C132.838 119.373 130.926 119.163 128.4 119.518C121.444 120.374 119.87 122.867 114.205 122.189C111.146 121.81 106.329 122.189 103.286 122.585L103.601 123.053C105.427 122.929 107.256 123.265 108.919 124.029C108.931 124.034 108.941 124.04 108.95 124.049C108.958 124.058 108.965 124.068 108.97 124.079C108.974 124.091 108.977 124.103 108.976 124.115C108.976 124.127 108.973 124.139 108.968 124.15C108.919 124.263 108.879 124.15 108.209 124.029C106.643 123.682 105.029 123.513 103.771 123.303C104.353 124.184 104.814 125.14 105.142 126.144C106.972 126.67 108.671 127.575 110.13 128.799C110.148 128.815 110.159 128.837 110.16 128.862C110.162 128.886 110.154 128.91 110.138 128.928C110.122 128.946 110.099 128.957 110.075 128.959C110.051 128.96 110.027 128.952 110.009 128.936C109.29 128.427 106.781 127.249 105.231 126.458C105.476 127.212 105.514 128.017 105.342 128.79C105.171 129.564 104.795 130.277 104.255 130.856C105.788 131.55 107.248 132.396 108.612 133.382C108.634 133.394 108.65 133.414 108.657 133.437C108.663 133.461 108.661 133.486 108.649 133.507C108.637 133.529 108.617 133.545 108.594 133.551C108.57 133.558 108.545 133.555 108.524 133.544C106.966 132.865 105.482 132.029 104.093 131.05C103.358 131.986 102.304 132.618 101.132 132.825C100.002 132.995 99.5177 132.632 100.179 132.987C101.22 133.568 103.69 135.133 104.513 135.618C104.525 135.622 104.535 135.628 104.544 135.637C104.553 135.645 104.56 135.655 104.565 135.667C104.57 135.678 104.572 135.69 104.572 135.702C104.572 135.714 104.569 135.726 104.564 135.738C104.559 135.749 104.552 135.759 104.543 135.767C104.534 135.775 104.523 135.782 104.511 135.785C104.5 135.789 104.487 135.791 104.475 135.79C104.463 135.789 104.451 135.785 104.44 135.779C102.74 135.096 101.14 134.184 99.6872 133.068C98.977 132.527 99.3886 132.777 98.7349 132.535C98.0924 132.287 97.489 131.947 96.9434 131.526L96.6852 131.647C101.942 136.318 108.084 139.885 114.746 142.138C121.475 144.485 128.644 145.295 135.727 144.511C158.234 141.977 154.159 112.941 146.412 91.5561C144.639 86.5033 142.263 81.683 139.334 77.1998C134.202 69.4608 128.965 66.8058 128.037 66.2732C125.261 69.5011 111.897 72.8905 116.739 76.3928C119.789 78.6282 123.824 80.7909 126.786 78.4426C126.848 78.387 126.929 78.3558 127.012 78.3547C127.096 78.3537 127.177 78.3828 127.241 78.4368C127.305 78.4908 127.347 78.566 127.36 78.6486C127.372 78.7312 127.355 78.8156 127.31 78.8864C125.859 81.1694 123.637 82.856 121.048 83.6396C118.502 84.3977 115.802 84.4838 113.212 83.8897C109.226 83.0827 106.869 81.6705 105.667 80.0485C103.746 77.458 104.731 74.3108 106.934 72.0996C110.364 68.6538 113.164 67.2577 110.299 64.3768C106.708 60.7937 97.1613 65.9181 98.5816 58.5342C98.0531 59.0288 97.631 59.6259 97.341 60.2891C97.051 60.9524 96.8993 61.6677 96.895 62.3916C96.895 65.6195 98.8802 66.9833 102.084 66.9672C103.26 66.9463 104.428 66.7782 105.562 66.4669C105.617 66.451 105.674 66.4498 105.729 66.4634C105.784 66.4769 105.835 66.5047 105.876 66.5439C105.917 66.5832 105.946 66.6326 105.962 66.687C105.978 66.7415 105.979 66.7992 105.966 66.8542C105.63 67.8606 104.979 68.7321 104.109 69.3397C102.172 70.7329 99.8754 71.5422 97.4922 71.6719C95.7717 71.8447 94.0401 71.4765 92.5386 70.6188C91.0372 69.761 89.8406 68.4563 89.1156 66.8865C87.2999 63.1824 87.6792 60.1481 89.9226 57.0251C89.772 55.8073 89.7261 54.5789 89.7854 53.3533C88.4781 53.4017 86.9126 53.4663 85.6133 53.6196C86.0093 55.5192 86.188 57.4577 86.1459 59.3976C86.14 59.4176 86.1277 59.4352 86.111 59.4476C86.0943 59.4601 86.074 59.4668 86.0531 59.4668C86.0323 59.4668 86.012 59.4601 85.9952 59.4476C85.9785 59.4352 85.9663 59.4176 85.9603 59.3976C85.8312 58.5261 85.7747 58.3485 85.6617 57.364C85.4923 56.1308 85.398 54.8885 85.3793 53.6438C85.0705 53.6739 84.7634 53.7197 84.4593 53.781C83.6523 53.9585 83.2569 54.1199 83.2246 55.3466C83.3244 56.6081 83.4914 57.8634 83.725 59.1071C83.725 59.3815 83.4909 59.2201 80.2872 60.1885C80.5282 60.7109 80.7305 61.2504 80.8924 61.8025C81.9577 65.2483 78.9153 69.0653 73.5569 68.3471C71.717 68.105 70.2321 67.2658 69.5865 65.5469C67.0014 67.1965 64.7102 69.2667 62.8078 71.6719C59.83 75.4244 52.6075 93.4606 52.1475 95.2037C53.9221 97.2813 55.8078 99.2613 57.7964 101.135C59.83 90.5312 64.2523 84.0592 63.5825 85.1002C63.5925 85.0836 63.6056 85.0692 63.6212 85.0578C63.6367 85.0463 63.6544 85.0381 63.6732 85.0336C63.692 85.0291 63.7115 85.0284 63.7306 85.0315C63.7497 85.0346 63.7679 85.0415 63.7843 85.0518C64.1151 85.2455 63.2597 85.649 61.2907 90.9912C56.7872 103.275 56.2231 116.656 59.6767 129.275C60.8953 133.778 61.2907 134.044 61.1696 134.214C61.1696 134.214 59.2167 137.216 54.2537 137.498C51.51 137.643 47.8382 136.965 43.0608 134.464C29.8423 127.54 32.4731 89.2723 31.763 86.1654C31.2058 83.9738 30.4717 81.8309 29.568 79.7579C29.5375 79.6926 29.5282 79.6195 29.5412 79.5486C29.5542 79.4778 29.5889 79.4127 29.6406 79.3625L30.0118 79.0074C28.816 77.697 27.8108 76.2245 27.0259 74.6336C26.7274 74.0525 26.8081 74.1494 26.7032 74.109C25.4362 73.6168 24.4113 71.8252 25.0892 70.5341C24.032 70.7358 20.1582 59.3942 17.6726 59.6686C16.5795 59.854 15.4584 59.7849 14.3963 59.4668C-13.9455 49.8313 46.6583 33.606 70.1191 15.0133C73.5327 12.3179 77.2529 11.9387 80.3518 13.3025C88.7283 6.55605 103.149 4.85331 110.154 13.012C113.914 17.3939 114.891 23.3011 117.893 25.2136C122.654 28.2721 134.67 32.6944 131.612 40.2801C128.69 47.543 118.926 51.6263 123.639 56.6781C126.237 59.4541 128.263 61.3505 128.932 62.9403C129.151 63.3744 129.241 63.862 129.191 64.3455C129.141 64.8289 128.953 65.2879 128.65 65.6679C129.715 66.2651 134.606 69.2913 139.794 76.9658C142.788 81.4595 145.227 86.2989 147.057 91.3786C155.127 113.28 159.025 142.671 135.848 145.245C128.663 146.021 121.396 145.146 114.6 142.687C107.863 140.318 101.679 136.6 96.427 131.76C95.3518 132.226 94.1838 132.439 93.0134 132.382C93.0344 133.092 92.8204 133.79 92.4046 134.366C91.9887 134.942 91.3943 135.365 90.7135 135.569C90.6247 136.836 90.5602 137.643 90.5359 137.732C90.3019 138.612 82.6597 143.55 73.2745 137.95C73.2267 137.923 73.1864 137.884 73.1568 137.838C73.1273 137.791 73.1095 137.738 73.105 137.684C72.8064 135.327 70.4742 115.959 71.9994 114.111C73.5246 112.263 78.9153 111.513 81.1265 111.61C83.9429 111.739 90.8749 112.417 91.3187 115.282C91.3949 115.957 91.4326 116.636 91.4317 117.315ZM89.8177 137.49C89.8177 137.393 91.1735 118.227 90.778 115.346C90.4391 112.925 83.5152 112.005 81.0942 111.892C79.0122 111.803 73.686 112.756 72.3626 114.41C71.1521 115.919 73.5408 135.456 73.7829 137.409C76.2214 138.893 78.9999 139.727 81.8527 139.83C85.4519 139.911 88.6234 138.571 89.8419 137.466L89.8177 137.49ZM36.9438 76.1588C35.9452 76.2072 34.9708 76.4832 34.0952 76.9658C35.1331 78.5439 35.9861 80.2363 36.6372 82.0094C36.6431 82.0202 36.6467 82.032 36.6478 82.0442C36.6489 82.0564 36.6474 82.0687 36.6435 82.0803C36.6396 82.0919 36.6334 82.1026 36.6252 82.1117C36.617 82.1208 36.6069 82.1281 36.5958 82.1331C36.5846 82.1381 36.5725 82.1408 36.5603 82.1409C36.548 82.141 36.5359 82.1386 36.5246 82.1338C36.5134 82.129 36.5032 82.122 36.4948 82.1131C36.4864 82.1041 36.4799 82.0936 36.4758 82.0821C35.4965 80.4655 34.6362 78.7798 33.9015 77.0384C33.0428 77.4945 32.2318 78.0351 31.4805 78.6524C32.1131 79.8305 32.6736 81.0459 33.1591 82.2919C33.3366 82.7599 33.5545 83.4297 33.6029 83.5911C33.6088 83.6019 33.6124 83.6137 33.6135 83.6259C33.6146 83.6381 33.6131 83.6504 33.6092 83.662C33.6054 83.6736 33.5991 83.6843 33.5909 83.6934C33.5827 83.7025 33.5727 83.7098 33.5615 83.7148C33.5503 83.7198 33.5382 83.7225 33.526 83.7226C33.5138 83.7227 33.5016 83.7203 33.4903 83.7155C33.4791 83.7107 33.4689 83.7037 33.4605 83.6947C33.4521 83.6858 33.4456 83.6753 33.4415 83.6638C32.5571 82.1322 31.8427 80.5086 31.3111 78.8218C30.9802 79.0962 30.6332 79.4029 30.2781 79.7418C31.1726 81.7782 31.8934 83.8866 32.4328 86.0444C33.151 89.1594 30.6735 127.201 43.2787 134.012C47.927 136.521 51.51 137.24 54.1892 137.135C58.5146 136.949 60.3384 134.52 60.6451 134.084C56.5833 123.735 55.5587 112.442 57.6915 101.53C49.8799 94.5178 39.7925 80.4116 38.1382 76.3928C37.8595 76.2733 37.5615 76.205 37.2586 76.1911C38.207 77.6339 38.9766 79.1866 39.5504 80.8151C39.5547 80.8262 39.5567 80.8381 39.5563 80.85C39.556 80.8619 39.5533 80.8736 39.5484 80.8845C39.5435 80.8953 39.5366 80.9051 39.5279 80.9133C39.5193 80.9215 39.5091 80.9279 39.498 80.9321C39.4868 80.9364 39.475 80.9384 39.4631 80.938C39.4512 80.9377 39.4395 80.935 39.4286 80.9301C39.4177 80.9252 39.4079 80.9183 39.3997 80.9096C39.3916 80.901 39.3852 80.8908 39.3809 80.8797C38.4659 79.3679 37.6596 77.793 36.968 76.1669L36.9438 76.1588ZM90.9233 131.68C90.7054 135.432 90.6409 135.295 90.7216 135.246C91.2593 134.945 91.7208 134.524 92.0705 134.016C92.4202 133.508 92.6489 132.927 92.739 132.317C92.1036 132.238 91.4925 132.024 90.9475 131.688L90.9233 131.68ZM90.9233 131.268C93.2716 132.317 96.4834 131.09 98.7753 129.912C98.791 129.898 98.8096 129.888 98.8298 129.882C98.85 129.875 98.8713 129.874 98.8922 129.877C98.913 129.88 98.9331 129.887 98.9508 129.898C98.9685 129.91 98.9836 129.925 98.9948 129.943C99.0061 129.961 99.0134 129.981 99.0161 130.002C99.0189 130.023 99.0171 130.044 99.0107 130.064C99.0044 130.084 98.9938 130.103 98.9796 130.118C98.9655 130.134 98.9481 130.146 98.9286 130.154C98.4003 130.586 97.8361 130.972 97.242 131.308C99.8163 133.011 102.463 132.664 104.287 129.533C105.949 126.733 102.334 122.173 100.083 119.809C98.9044 118.558 95.5796 117.283 91.9643 117.686C92.6249 118.362 93.0616 119.224 93.2151 120.156C93.9047 119.838 94.6451 119.644 95.4021 119.583C95.4241 119.582 95.4456 119.589 95.4632 119.602C95.4809 119.615 95.4934 119.634 95.4989 119.655C95.4989 119.906 94.8856 119.607 91.3429 121.576C91.3429 122.423 91.2138 125.498 91.1815 126.136C91.8046 125.695 92.5015 125.37 93.2394 125.175C93.2586 125.166 93.2809 125.164 93.3013 125.171C93.3218 125.178 93.3387 125.192 93.3483 125.212C93.3579 125.231 93.3595 125.253 93.3527 125.274C93.3459 125.294 93.3312 125.311 93.312 125.32C92.6767 125.804 91.9684 126.182 91.2138 126.442C91.1331 126.442 91.2138 126.16 91.0443 129.025H91.8513C92.5292 129.025 93.9898 129.081 94.1835 129.025C94.2049 129.025 94.2255 129.033 94.2406 129.048C94.2557 129.063 94.2642 129.084 94.2642 129.105C94.2642 129.127 94.2557 129.147 94.2406 129.162C94.2255 129.177 94.2049 129.186 94.1835 129.186C93.1526 129.482 92.0623 129.504 91.0201 129.251C91.0443 129.961 91.004 130.63 90.9717 131.276L90.9233 131.268ZM91.3833 117.598V121.06C91.8892 120.731 92.4306 120.46 92.9973 120.253C92.6296 119.288 92.1001 118.393 91.4317 117.606L91.3833 117.598ZM73.6295 116.202C75.8407 114.588 84.8547 113.934 88.9623 116.202C90.3342 115.395 90.2293 114.717 90.4391 114.814C90.4462 114.82 90.4518 114.828 90.4557 114.837C90.4595 114.846 90.4615 114.856 90.4615 114.866C90.4615 114.876 90.4595 114.885 90.4557 114.894C90.4518 114.903 90.4462 114.912 90.4391 114.918C88.9381 118.421 80.3921 118.082 76.6154 117.517C72.6531 116.92 72.3384 115.096 72.2899 114.91C72.2868 114.9 72.2857 114.889 72.2868 114.878C72.2879 114.867 72.2912 114.856 72.2965 114.846C72.3017 114.836 72.3088 114.828 72.3174 114.821C72.326 114.814 72.3358 114.809 72.3464 114.805C72.357 114.802 72.3681 114.801 72.3792 114.802C72.3902 114.803 72.4008 114.807 72.4106 114.812C72.4203 114.817 72.4289 114.824 72.4359 114.833C72.4429 114.841 72.4482 114.851 72.4513 114.862C72.7179 115.417 73.138 115.885 73.6618 116.21L73.6295 116.202ZM104.109 30.6689C105.869 32.5814 105.425 37.1248 102.27 37.9317C103.682 38.7387 105.215 40.2882 106.377 44.7911C108.499 53.0144 102.512 54.9431 99.0012 58.1952C97.2501 65.8455 106.716 60.253 110.646 64.0943C113.922 67.3223 110.646 69.146 107.337 72.5031C105.352 74.5287 104.408 77.3854 106.175 79.766C107.321 81.2912 109.589 82.5824 113.374 83.3248C118.014 84.2367 122.63 83.3894 125.753 79.9113C125.413 80.034 125.061 80.1232 124.704 80.1776C107.152 88.425 107.354 73.9557 116.101 67.5401C122.743 62.6982 112.421 58.5745 109 55.3788C105.578 52.1832 112.744 46.163 113.511 40.2317C114.092 35.7448 112.986 34.2196 109.694 32.4846C108.411 31.8148 105.538 30.4752 104.303 29.7005C104.206 30.225 104.109 30.7496 104.109 30.6689ZM113.971 40.1994C113.204 46.1711 106.167 52.0137 109.323 54.9592C112.478 57.9047 123.59 62.5368 116.368 67.7984C108.104 73.7943 107.305 87.5535 124.091 80.1453C121.411 80.2421 118.522 78.5313 116.351 76.9173C115.95 76.695 115.614 76.3703 115.379 75.9763C115.144 75.5822 115.017 75.1329 115.012 74.6739C115.149 72.3901 119.547 70.2436 121.783 69.0734C125.567 64.9255 125.123 62.0203 122.033 58.7682C118.942 55.516 115.649 53.7164 117.586 50.206C118.772 48.0433 121.863 45.4125 124.099 41.3292C126.415 37.0844 122.364 34.7199 118.03 32.5653C114.495 30.806 111.106 29.5471 110.21 25.8108C109.605 23.2446 110.404 20.4927 109.532 17.1115C108.451 12.9151 102.891 9.67908 98.8641 8.06511C96.7101 7.85619 94.5376 7.94581 92.4081 8.33141C97.1048 8.85596 107.087 13.4719 104.416 29.1436C110.864 33.0011 114.931 32.6863 113.971 40.1994ZM37.7185 75.5535C36.6125 73.1964 35.2743 70.9554 33.7239 68.8636C31.8437 68.0566 29.689 68.0566 28.6238 69.8723C28.1719 70.6228 27.4214 72.0835 28.2929 72.1642C29.0111 72.2287 29.5438 71.68 30.036 71.1555C31.2707 69.8643 31.2788 69.5415 31.424 69.6787C31.4328 69.687 31.4398 69.697 31.4446 69.7081C31.4494 69.7192 31.4519 69.7311 31.4519 69.7432C31.4519 69.7553 31.4494 69.7673 31.4446 69.7784C31.4398 69.7895 31.4328 69.7995 31.424 69.8078C31.424 69.8078 30.9398 70.5502 30.3911 71.2281C30.496 72.1965 30.0199 72.6887 29.2129 72.6968C29.2527 72.9384 29.2222 73.1863 29.1248 73.411C29.0275 73.6357 28.8676 73.8276 28.6641 73.9638C28.4365 74.1159 28.1804 74.2201 27.9112 74.27C27.6421 74.32 27.3656 74.3146 27.0986 74.2543C27.147 74.3108 30.1248 78.7976 30.1813 78.8703C32.1826 77.0787 35.1039 74.9806 37.7185 75.5535ZM25.8316 70.0095C25.5676 70.2701 25.3851 70.6019 25.3063 70.9644C25.2274 71.3269 25.2558 71.7045 25.3878 72.0512C25.9446 73.7378 27.7442 74.1978 28.4059 73.6652C29.0676 73.1326 28.8417 72.8582 28.7045 72.608C28.5356 72.657 28.3574 72.665 28.1847 72.6313C28.0121 72.5977 27.85 72.5233 27.7119 72.4144C27.2057 72.2282 26.7615 71.9045 26.4293 71.4797C26.0971 71.0548 25.8901 70.5457 25.8316 70.0095ZM30.2055 71.4702C29.9465 71.802 29.6391 72.0931 29.2936 72.3337C29.8666 72.3498 30.149 72.0512 30.2055 71.4702ZM33.4334 68.5005C31.0851 65.4985 27.8491 62.4723 24.0562 62.101C23.5236 62.2221 23.5559 62.6094 23.8464 63.0694C24.5324 64.1508 25.4039 63.9571 28.9466 67.6693C28.9722 67.6963 28.9899 67.73 28.9976 67.7664C29.0053 67.8029 29.0027 67.8408 28.9902 67.8759C28.9776 67.911 28.9556 67.942 28.9265 67.9653C28.8975 67.9887 28.8625 68.0035 28.8255 68.0082C27.2923 68.1454 25.7671 68.8152 26.1625 70.3162C26.242 70.6849 26.4018 71.0315 26.6306 71.3314C26.8593 71.6313 27.1514 71.877 27.4859 72.0512C27.2519 71.3572 27.8491 70.2678 28.2284 69.6302C29.3985 67.7419 31.4079 67.5644 33.4415 68.5005H33.4334ZM105.159 67.2416C100.422 68.3149 96.2817 67.2416 96.2817 62.3996C96.2817 55.0238 108.58 55.8388 105.788 44.9203C102.996 34.0017 97.9764 41.0548 97.7181 32.8154C97.589 28.2882 97.6052 22.1713 94.7565 18.0718C92.6018 14.9729 88.8009 13.0442 82.0384 13.8351C85.2663 14.4484 87.0013 16.8048 86.1782 20.9043C85.3147 25.1733 84.2737 30.0555 84.3544 33.6951C84.4028 35.9466 84.8628 37.73 86.1379 38.4966C88.3732 39.8766 93.8204 41.9828 96.2414 44.8396C100.607 49.972 92.0289 53.7164 89.3658 59.212C88.3732 61.2618 88.1795 63.6263 89.6725 66.6525C90.3455 68.1062 91.4548 69.3141 92.8462 70.1081C94.2375 70.9021 95.8417 71.2428 97.4357 71.0828C100.47 70.8649 104.109 69.251 105.167 67.2416H105.159ZM99.5903 8.19423C103.561 9.8082 108.766 12.899 109.879 17.0711C110.824 20.5976 110.009 23.2284 110.622 25.7624C111.477 29.3131 114.762 30.4994 118.224 32.2183C122.824 34.494 126.971 37.0602 124.494 41.6035C122.218 45.7676 119.152 48.35 117.957 50.4804C116.174 53.7084 119.208 55.3223 122.275 58.5503C125.341 61.7783 125.809 64.8367 122.275 68.8394C126.358 66.7251 129.247 65.4904 128.263 63.1905C127.609 61.6572 125.624 59.8334 123.106 57.1381C119.709 53.5066 122.791 50.3432 126.108 46.7521C131.079 41.3857 133.75 37.3991 128.529 32.6379C125.301 29.6763 120.193 27.4732 117.497 25.7382C112.389 22.4456 113.366 10.0584 99.5984 8.19423H99.5903ZM80.4002 13.6575C77.3982 12.3018 73.7264 12.6488 70.3854 15.3764C65.834 19.0724 63.3243 23.4463 66.4635 28.4012C69.1508 32.6783 73.9201 36.0434 70.4984 40.8369C67.2705 45.3399 64.2927 47.8819 65.374 51.8281C66.4554 55.7743 77.955 61.4393 74.2509 65.0788C72.7176 66.596 71.1359 66.6928 70.1191 64.9094C70.5468 66.6605 71.8784 67.524 73.6941 67.7903C74.3807 67.8909 75.0765 67.9125 75.7681 67.8549C78.189 66.2893 78.1003 64.1992 76.3975 61.8428C73.3632 57.6545 69.6269 57.8563 72.6289 51.699C73.3009 50.2394 74.3375 48.9777 75.6389 48.0352C72.6369 44.1294 72.2496 37.9317 72.3222 33.0253C67.9322 28.0219 69.3686 21.4288 73.686 16.7564C75.4372 14.868 77.8582 13.3832 80.4082 13.6575H80.4002ZM75.7439 48.1966C73.5004 49.8106 71.9107 53.7487 71.951 55.3869C72.0236 57.8724 74.5253 58.4535 76.7364 61.5926C78.3504 63.9168 78.6087 66.1925 76.2361 67.7903C79.5528 67.2416 81.183 64.4252 80.4728 61.9961C79.5851 58.9538 79.1655 60.019 78.8588 56.6539C78.536 53.4986 80.263 53.4259 79.6658 51.126C78.1337 50.4975 76.7868 49.4894 75.7519 48.1966H75.7439ZM74.0734 62.6982C73.021 63.44 71.9089 64.0932 70.7486 64.6511C71.5556 65.9907 72.6127 65.676 73.7264 64.5704C73.9779 64.3374 74.1488 64.0303 74.214 63.6937C74.2793 63.3571 74.2357 63.0084 74.0895 62.6982H74.0734ZM85.2824 53.2322V52.2235C83.4648 52.2226 81.6617 51.9002 79.9563 51.2713C80.5051 53.4824 78.8669 53.555 79.23 56.6135C79.2775 57.8285 79.6329 59.0114 80.263 60.0513C81.2314 59.6962 82.4096 59.3169 83.3941 59.0103C83.2731 58.1307 82.1352 54.6768 83.4587 53.7164C84.0324 53.4465 84.6503 53.2824 85.2824 53.2322ZM93.32 53.2807L90.0921 53.3775C90.292 54.4413 90.3759 55.5236 90.3423 56.6055C91.1977 55.4595 92.2629 54.3862 93.32 53.2807ZM80.1016 13.8674C80.1016 13.8674 77.382 15.328 75.3081 20.0005C73.8022 23.6859 73.0108 27.6239 72.9759 31.605C72.8225 36.6325 73.0646 43.3789 75.9537 47.4865C78.181 50.6418 81.6026 51.7474 85.4277 51.9249C85.4669 51.927 85.5039 51.9441 85.5309 51.9726C85.558 52.0011 85.573 52.039 85.573 52.0783V53.2C88.2221 52.9794 90.883 52.9362 93.5379 53.0708C94.6079 52.003 95.5602 50.8234 96.3785 49.5524C99.3079 44.6459 89.5837 41.2162 85.8877 38.9082C84.5077 38.0367 83.9348 36.1644 83.9348 33.687C83.8864 30.0233 84.9677 25.1087 85.8715 20.8236C86.3396 18.5802 85.9926 17.0711 85.2986 16.0543C84.7982 15.4261 84.1676 14.9138 83.4501 14.553C82.7325 14.1921 81.9453 13.9913 81.1426 13.9642C81.1211 13.9743 81.0977 13.9795 81.074 13.9795C81.0503 13.9795 81.0269 13.9743 81.0054 13.9642C80.7099 13.8915 80.4058 13.8589 80.1016 13.8674ZM102.011 37.7784C102.755 37.5723 103.412 37.1321 103.886 36.5231C104.36 35.914 104.625 35.1686 104.642 34.3971C104.752 33.4727 104.61 32.5358 104.231 31.6857C104.129 31.4141 103.968 31.1684 103.76 30.9661C103.552 30.7638 103.302 30.61 103.028 30.5155C100.954 29.9991 99.8002 32.5653 98.3718 34.1308C98.7914 37.157 100.204 36.8746 102.011 37.7784ZM81.1023 13.6979C88.6072 12.5278 92.7632 14.5452 95.1035 17.8458C98.5897 22.7684 97.9764 30.6446 98.3314 33.6547C99.1384 32.5733 99.9454 31.1773 101.124 30.4268C100.317 28.7159 102.052 11.1075 80.7552 13.3509C80.5696 13.4719 80.5858 13.367 81.1023 13.6818V13.6979ZM79.5851 13.8916C76.0989 14.1902 73.0646 17.5714 71.5152 20.6864C69.4493 24.7617 69.5946 29.0387 72.3222 32.5572C72.3339 29.8058 72.6505 27.0641 73.2664 24.3824C74.2025 20.5331 76.2684 16.0462 79.5851 13.8754V13.8916Z" fill="#371166"/>
</g>
<defs>
<clipPath id="clip0_4102_1300">
<rect width="153.306" height="153.306" fill="white"/>
</clipPath>
</defs>
</svg>
